<?xml version="1.0" standalone="no"?>
<!DOCTYPE svg PUBLIC "-//W3C//DTD SVG 1.1//EN" "http://www.w3.org/Graphics/SVG/1.1/DTD/svg11.dtd" >
<svg>
<metadata>
Created by FontForge 20120731 at Tue Dec 15 21:07:57 2015
 By ,,,
(c)2013 Optimo.
</metadata>
<defs>
<font id="Plain-Medium" horiz-adv-x="586" >
  <font-face 
    font-family="Plain Medium"
    font-weight="600"
    font-stretch="normal"
    units-per-em="1000"
    panose-1="2 11 0 4 2 2 2 2 2 4"
    ascent="803"
    descent="-197"
    x-height="525"
    cap-height="715"
    bbox="-52 -270 1261 1077"
    underline-thickness="50"
    underline-position="-50"
    unicode-range="U+000D-FB02"
  />
<missing-glyph horiz-adv-x="644" 
d="M50 240v49l309 309q14 -8 26 -23zM50 142v49l347 347v-15q0 -20 -13.5 -37.5t-41.5 -39.5t-37 -31q-23 -23 -36 -54zM104 0h-49l261 261h49l-93 -93h-23v-23zM321 168l273 273v-49l-224 -224h-49zM50 338v49l148 148l39 -2q0 29 20 52t55 23h8zM398 0h-49l33 33h2v2
l210 210v-49zM384 133l210 210v-49l-210 -210v49zM50 44v49l206 206v-38h11zM50 583l196 196h49l-44 -44q-54 -14 -93 -53.5t-54 -93.5l-54 -54v49zM537 482l57 57v-49l-216 -216v7q0 12 2.5 21t11 18.5t12.5 13.5t21 16t23 16q1 1 10 7.5t14 10.5t14.5 12.5t15.5 16.5
t13.5 18.5t13 23.5t8.5 27zM50 681l98 98h49l-147 -147v49zM496 0h-49l147 147v-49zM459 698l81 81h49l-104 -104q-25 22 -26 23zM50 436v49l56 56l46 -3zM506 647l88 88v-49l-70 -70q-6 13 -18 31zM202 0h-49l96 96v-49zM395 732l47 47h49l-62 -62q-15 8 -34 15zM536 579
l58 58v-49l-52 -52q0 13 -6 43zM307 742l37 37h49l-38 -38q-18 2 -28 2q-2 0 -6.5 -0.5t-6.5 -0.5h-7zM300 0h-49l33 33h49zM594 49v-49h-49zM50 779h49l-49 -49v49z" />
    <glyph glyph-name="fi" unicode="fi" horiz-adv-x="564" 
d="M95 0v434h-69v91h69v36q0 73 46.5 118t123.5 45q24 0 39 -3v-98q-16 2 -23 2q-64 0 -64 -59v-41h87v-91h-87v-434h-122zM372 525h122v-525h-122v525zM370 601v114h125v-114h-125z" />
    <glyph glyph-name="fl" unicode="fl" horiz-adv-x="565" 
d="M95 0v434h-69v91h69v36q0 73 46.5 118t123.5 45q24 0 39 -3v-98q-16 2 -23 2q-64 0 -64 -59v-41h87v-91h-87v-434h-122zM370 0v715h122v-715h-122z" />
    <glyph glyph-name=".notdef" horiz-adv-x="644" 
d="M50 240v49l309 309q14 -8 26 -23zM50 142v49l347 347v-15q0 -20 -13.5 -37.5t-41.5 -39.5t-37 -31q-23 -23 -36 -54zM104 0h-49l261 261h49l-93 -93h-23v-23zM321 168l273 273v-49l-224 -224h-49zM50 338v49l148 148l39 -2q0 29 20 52t55 23h8zM398 0h-49l33 33h2v2
l210 210v-49zM384 133l210 210v-49l-210 -210v49zM50 44v49l206 206v-38h11zM50 583l196 196h49l-44 -44q-54 -14 -93 -53.5t-54 -93.5l-54 -54v49zM537 482l57 57v-49l-216 -216v7q0 12 2.5 21t11 18.5t12.5 13.5t21 16t23 16q1 1 10 7.5t14 10.5t14.5 12.5t15.5 16.5
t13.5 18.5t13 23.5t8.5 27zM50 681l98 98h49l-147 -147v49zM496 0h-49l147 147v-49zM459 698l81 81h49l-104 -104q-25 22 -26 23zM50 436v49l56 56l46 -3zM506 647l88 88v-49l-70 -70q-6 13 -18 31zM202 0h-49l96 96v-49zM395 732l47 47h49l-62 -62q-15 8 -34 15zM536 579
l58 58v-49l-52 -52q0 13 -6 43zM307 742l37 37h49l-38 -38q-18 2 -28 2q-2 0 -6.5 -0.5t-6.5 -0.5h-7zM300 0h-49l33 33h49zM594 49v-49h-49zM50 779h49l-49 -49v49z" />
    <glyph glyph-name=".null" horiz-adv-x="0" 
 />
    <glyph glyph-name="nonmarkingreturn" horiz-adv-x="333" 
 />
    <glyph glyph-name="NULL" horiz-adv-x="0" 
 />
    <glyph glyph-name="NULL" horiz-adv-x="0" 
 />
    <glyph glyph-name="CR" unicode="&#xd;" horiz-adv-x="0" 
 />
    <glyph glyph-name="space" unicode=" " horiz-adv-x="247" 
 />
    <glyph glyph-name="exclam" unicode="!" horiz-adv-x="306" 
d="M203 186h-100q-13 325 -13 425v108h126v-108q0 -100 -13 -425zM89 0v124h129v-124h-129z" />
    <glyph glyph-name="quotedbl" unicode="&#x22;" horiz-adv-x="414" 
d="M165 451h-93q0 5 -6.5 122t-6.5 142h119q0 -25 -6.5 -142t-6.5 -122zM341 451h-93q0 5 -6.5 122t-6.5 142h119q0 -25 -6.5 -142t-6.5 -122z" />
    <glyph glyph-name="numbersign" unicode="#" 
d="M278 0l47 228h-114l-47 -228h-79l47 228h-103l15 75h103l25 120h-104l15 75h104l45 217h79l-45 -217h114l45 217h79l-45 -217h97l-15 -75h-97l-25 -120h98l-15 -75h-98l-47 -228h-79zM251 423l-25 -120h114l25 120h-114z" />
    <glyph glyph-name="dollar" unicode="$" 
d="M234 -117v114q-85 15 -136.5 69.5t-57.5 137.5h118q10 -49 45.5 -77t93.5 -28q57 0 88.5 28t31.5 77q0 23 -7.5 39t-27.5 27.5t-35.5 17.5t-49.5 16l-44 13q-189 52 -189 204q0 72 46.5 125t123.5 70v112h120v-112q73 -16 118.5 -66t53.5 -122h-114q-25 85 -123 85
q-45 0 -72.5 -24t-27.5 -61t24.5 -57t78.5 -38l34 -11q58 -19 89.5 -32.5t65 -37.5t48 -58t14.5 -82q0 -83 -52 -140.5t-137 -73.5v-115h-120z" />
    <glyph glyph-name="percent" unicode="%" horiz-adv-x="896" 
d="M203 323q-83 0 -126 53.5t-43 148.5q0 94 43 147.5t125 53.5t125 -54t43 -148q0 -96 -42 -148.5t-125 -52.5zM127 523q0 -119 75 -119t75 119q0 59 -16.5 90.5t-58.5 31.5t-58.5 -31.5t-16.5 -90.5zM269 0l274 714h85l-273 -714h-86zM695 -15q-83 0 -126 53.5t-43 148.5
q0 94 43 147.5t125 53.5t125 -54t43 -148q0 -96 -42 -148.5t-125 -52.5zM619 185q0 -119 75 -119t75 119q0 59 -16.5 90.5t-58.5 31.5t-58.5 -31.5t-16.5 -90.5z" />
    <glyph glyph-name="ampersand" unicode="&#x26;" horiz-adv-x="686" 
d="M533 392l121 -9q-46 -115 -100 -202q16 -17 34.5 -37t41.5 -45t35 -38q-15 -12 -45.5 -37t-46.5 -37q-62 64 -86 94q-80 -95 -200 -95q-108 0 -171.5 59t-63.5 154q0 131 155 211q-70 76 -70 150t51 123t136 49q78 0 128.5 -46.5t50.5 -116.5q0 -112 -130 -182l69 -81
q5 -6 16.5 -19t17.5 -21q37 72 57 126zM306 460l13 7q73 39 73 96q0 32 -19.5 50.5t-52.5 18.5q-31 0 -50.5 -19t-19.5 -50q0 -45 56 -103zM413 165q-17 17 -68 79l-72 85q-99 -49 -99 -128q0 -50 33 -80.5t84 -30.5q78 0 122 75z" />
    <glyph glyph-name="quotesingle" unicode="'" horiz-adv-x="238" 
d="M165 451h-93q0 5 -6.5 122t-6.5 142h119q0 -25 -6.5 -142t-6.5 -122z" />
    <glyph glyph-name="parenleft" unicode="(" horiz-adv-x="333" 
d="M39 299q0 152 70 280.5t185 179.5v-115q-135 -135 -135 -344q0 -207 135 -342v-115q-114 49 -184.5 178.5t-70.5 277.5z" />
    <glyph glyph-name="parenright" unicode=")" horiz-adv-x="333" 
d="M294 299q0 -148 -70.5 -277.5t-184.5 -178.5v115q135 135 135 342q0 209 -135 344v115q115 -51 185 -179.5t70 -280.5z" />
    <glyph glyph-name="asterisk" unicode="*" horiz-adv-x="457" 
d="M277 715l-10 -129l119 50l30 -92l-126 -31l84 -97l-78 -57l-68 109l-67 -109l-78 57l83 98l-125 30l30 92l119 -49l-10 128h97z" />
    <glyph glyph-name="plus" unicode="+" 
d="M72 268v107h167v175h107v-175h168v-107h-168v-176h-107v176h-167z" />
    <glyph glyph-name="comma" unicode="," horiz-adv-x="267" 
d="M211 134l-89 -255h-108l72 255h125z" />
    <glyph glyph-name="hyphen" unicode="-" horiz-adv-x="398" 
d="M63 241v105h272v-105h-272z" />
    <glyph glyph-name="period" unicode="." horiz-adv-x="255" 
d="M63 0v134h129v-134h-129z" />
    <glyph glyph-name="slash" unicode="/" horiz-adv-x="453" 
d="M24 -105l290 820h116l-288 -820h-118z" />
    <glyph glyph-name="zero" unicode="0" 
d="M293 729q75 0 126.5 -30.5t78 -86t37 -117t10.5 -139.5q0 -84 -11.5 -147.5t-38.5 -116t-78 -80t-124 -27.5t-124 27.5t-78 80t-38.5 116t-11.5 147.5q0 78 10.5 139.5t37 117t78 86t126.5 30.5zM293 618q-36 0 -60.5 -20t-37 -59t-17 -81.5t-4.5 -101.5
q0 -127 26 -195.5t93 -68.5q35 0 59 19t37 56.5t18 82t5 106.5q0 59 -4.5 101.5t-17 81.5t-37 59t-60.5 20z" />
    <glyph glyph-name="one" unicode="1" 
d="M281 0v511h-172v95q93 2 135.5 26t51.5 83h110v-715h-125z" />
    <glyph glyph-name="two" unicode="2" 
d="M527 0h-468v104l74 67l138 127q69 64 99 111.5t30 97.5q0 51 -29.5 81.5t-80.5 30.5q-58 0 -87 -36.5t-30 -96.5h-119q0 2 -0.5 4t-0.5 3q0 102 62.5 169t174.5 67q109 0 173 -61.5t64 -157.5q0 -52 -20 -100.5t-58.5 -92.5t-72 -75t-84.5 -73t-73 -62h308v-107z" />
    <glyph glyph-name="three" unicode="3" 
d="M40 206h122q6 -53 38 -83.5t89 -30.5q55 0 88.5 35.5t33.5 87.5q0 62 -40 92.5t-106 30.5h-28v100q141 0 141 100q0 43 -25.5 65t-66.5 22q-39 0 -65 -23t-31 -65h-115q2 85 60.5 138.5t153.5 53.5q96 0 154 -51.5t58 -135.5q0 -96 -96 -148q63 -21 97.5 -69t34.5 -114
q0 -100 -68 -162t-183 -62q-109 0 -174.5 61t-71.5 158z" />
    <glyph glyph-name="four" unicode="4" 
d="M552 251v-105h-94v-146h-113v146h-324v98l214 308q109 161 111 163h112v-464h94zM347 555h-2q-62 -101 -78 -125l-47 -69q-42 -62 -50 -73q-12 -17 -25 -37h200v176q0 21 1 66t1 62z" />
    <glyph glyph-name="five" unicode="5" 
d="M69 329q2 20 44 386h378v-110h-280q-4 -21 -7.5 -58.5t-5.5 -49.5l-8 -57q56 37 124 37q101 0 164 -66.5t63 -173.5q0 -109 -70 -180.5t-181 -71.5q-104 0 -171 58.5t-77 152.5h123q9 -48 39.5 -77t82.5 -29q62 0 96 39t34 104q0 59 -35 99t-94 40q-74 0 -107 -61
q-71 13 -112 18z" />
    <glyph glyph-name="six" unicode="6" 
d="M538 531h-123q-7 38 -34.5 65t-74.5 27q-72 0 -108 -61t-38 -158h2q57 63 160 63q101 0 163.5 -65.5t62.5 -171.5q0 -107 -69.5 -175.5t-179.5 -68.5q-130 0 -195 87.5t-65 254.5q0 193 67 297t201 104q99 0 159 -54t72 -144zM297 366q-55 0 -91 -37.5t-36 -96.5
q0 -60 36 -97.5t92 -37.5q54 0 90 38t36 95q0 58 -36.5 97t-90.5 39z" />
    <glyph glyph-name="seven" unicode="7" 
d="M261 0h-137q54 139 150 351q95 204 120 251v1q-19 -1 -55 -1h-263v113h448v-104v-2l-24 -50q-138 -286 -239 -559z" />
    <glyph glyph-name="eight" unicode="8" 
d="M166 387q-94 58 -94 156q0 79 61 132.5t160 53.5q100 0 160.5 -53.5t60.5 -133.5q0 -103 -94 -155q125 -57 125 -187q0 -97 -70 -156.5t-182 -59.5t-181.5 59.5t-69.5 156.5q0 132 124 187zM293 332q-57 0 -91 -34t-34 -89q0 -52 34 -86.5t91 -34.5q56 0 90 34.5t34 86.5
q0 55 -34 89t-90 34zM293 622q-47 0 -74.5 -27t-27.5 -67q0 -41 27.5 -68.5t74.5 -27.5t74.5 27.5t27.5 68.5q0 40 -27.5 67t-74.5 27z" />
    <glyph glyph-name="nine" unicode="9" 
d="M45 183h125q7 -39 34.5 -65t75.5 -26q135 0 144 224h-2q-55 -66 -163 -66q-98 0 -160 65.5t-62 169.5q0 106 69 175t179 69q128 0 194.5 -89t66.5 -254q0 -195 -66.5 -298t-200.5 -103q-100 0 -161 54t-73 144zM287 620q-54 0 -90 -37.5t-36 -94.5q0 -58 36 -96.5
t91 -38.5q54 0 90 37t36 95q0 61 -35.5 98t-91.5 37z" />
    <glyph glyph-name="colon" unicode=":" horiz-adv-x="255" 
d="M63 0v134h129v-134h-129zM63 356v134h129v-134h-129z" />
    <glyph glyph-name="semicolon" unicode=";" horiz-adv-x="289" 
d="M88 356v134h129v-134h-129zM222 134l-92 -264h-108l75 264h125z" />
    <glyph glyph-name="less" unicode="&#x3c;" 
d="M82 267v105q226 117 396 208v-125q-240 -113 -275 -130v-3q66 -33 275 -132v-128q-79 42 -227 118t-169 87z" />
    <glyph glyph-name="equal" unicode="=" 
d="M72 191v105h442v-105h-442zM72 352v105h442v-105h-442z" />
    <glyph glyph-name="greater" unicode="&#x3e;" 
d="M504 372v-105q-21 -11 -169 -87t-227 -118v128q209 99 275 132v3q-35 17 -275 130v125q170 -91 396 -208z" />
    <glyph glyph-name="question" unicode="?" horiz-adv-x="525" 
d="M317 0h-128v133h128v-133zM311 195h-117q0 81 16 120t63 77q26 21 42.5 37.5t31.5 43.5t15 55q0 43 -27 68.5t-75 25.5q-50 0 -77 -31.5t-28 -84.5h-122q0 98 62 160.5t169 62.5q102 0 161 -57t59 -145q0 -61 -28 -103t-78 -83q-37 -30 -52 -58.5t-15 -79.5v-8z" />
    <glyph glyph-name="at" unicode="@" horiz-adv-x="823" 
d="M548 538h89l-51 -289q-6 -34 24 -34q42 0 74.5 57t32.5 134q0 113 -78 187.5t-207 74.5q-139 0 -227.5 -90.5t-88.5 -226.5q0 -141 92 -227t235 -86q126 0 222 77l58 -26q-120 -115 -286 -115q-173 0 -283 105t-110 272q0 161 110 270.5t278 109.5q150 0 250.5 -88
t100.5 -220q0 -119 -61 -195.5t-153 -76.5q-62 0 -76 39q-42 -42 -116 -42q-73 0 -115.5 45t-42.5 125q0 93 55 161t146 68q81 0 121 -52zM429 470q-57 0 -88 -45t-31 -107q0 -44 23 -71.5t67 -27.5q58 0 90 45.5t32 106.5q0 99 -93 99z" />
    <glyph glyph-name="A" unicode="A" horiz-adv-x="713" 
d="M124 0h-130q24 56 107.5 260.5t187.5 454.5h138l290 -715h-132q-11 27 -81 206h-300zM356 600h-2q-14 -35 -43.5 -114.5t-46.5 -121.5l-18 -49h216q-4 12 -7 18l-12 31l-35 92q-33 89 -52 144z" />
    <glyph glyph-name="B" unicode="B" horiz-adv-x="638" 
d="M85 0v715h170q161 0 234.5 -38t73.5 -139q0 -59 -31 -98.5t-77 -55.5q57 -18 99 -61.5t42 -117.5q0 -205 -288 -205h-223zM210 318v-208h75q90 0 137 21t47 84q0 103 -148 103h-111zM210 604v-177h105q63 3 92 23t29 69q0 51 -34.5 68t-104.5 17h-87z" />
    <glyph glyph-name="C" unicode="C" horiz-adv-x="751" 
d="M585 207h134q-32 -95 -117 -158t-206 -63q-157 0 -255.5 105t-98.5 266t98 266.5t258 105.5q125 0 210 -62.5t114 -166.5h-139q-53 120 -186 120q-104 0 -164 -74.5t-60 -188.5t62 -188t166 -74q120 0 184 112z" />
    <glyph glyph-name="D" unicode="D" horiz-adv-x="727" 
d="M85 0v715h156q64 0 106 -2.5t96.5 -15.5t92.5 -38q69 -44 108.5 -124.5t39.5 -178.5q0 -88 -33 -161t-92 -121q-58 -47 -127 -60.5t-184 -13.5h-163zM212 602v-492h70q135 0 203 56.5t68 189.5q0 121 -68 184t-190 63q-56 0 -83 -1z" />
    <glyph glyph-name="E" unicode="E" horiz-adv-x="578" 
d="M85 0v715h439v-113h-313v-182h289v-112h-289v-197h320v-111h-446z" />
    <glyph glyph-name="F" unicode="F" horiz-adv-x="552" 
d="M85 0v715h424v-113h-297v-183h274v-112h-274v-307h-127z" />
    <glyph glyph-name="G" unicode="G" horiz-adv-x="792" 
d="M373 378h362v-378h-115v34v38q-79 -86 -229 -86q-151 0 -250 103.5t-99 267.5q0 162 101 267t264 105q122 0 209.5 -63.5t118.5 -163.5h-144q-52 118 -185 118q-109 0 -171 -73t-62 -188q0 -118 64 -192t173 -74q96 0 150 51.5t60 132.5h-247v101z" />
    <glyph glyph-name="H" unicode="H" horiz-adv-x="729" 
d="M517 312h-305v-312h-127v715h127v-291h305v291h127v-715h-127v312z" />
    <glyph glyph-name="I" unicode="I" horiz-adv-x="297" 
d="M85 0v715h127v-715h-127z" />
    <glyph glyph-name="J" unicode="J" horiz-adv-x="505" 
d="M24 176h115q11 -81 76 -81q51 0 67.5 39t16.5 114v467h127v-503q0 -104 -48 -165t-154 -61q-197 0 -200 190z" />
    <glyph glyph-name="K" unicode="K" horiz-adv-x="634" 
d="M85 0v715h127v-320l88 108q25 31 85.5 101.5t93.5 110.5h154l-289 -328q53 -68 153 -198t145 -189h-155q-32 42 -110 144.5t-90 118.5l-75 99v-362h-127z" />
    <glyph glyph-name="L" unicode="L" horiz-adv-x="526" 
d="M85 0v715h127v-604h287v-111h-414z" />
    <glyph glyph-name="M" unicode="M" horiz-adv-x="943" 
d="M85 0v715h200l128 -380q7 -23 27.5 -89.5t30.5 -97.5h1q12 34 36.5 108.5t28.5 85.5l127 373h194v-715h-126v364q0 40 1 129.5t1 115.5h-1q-4 -16 -15.5 -51.5t-30 -92.5t-30.5 -93l-125 -372h-125l-150 447q-13 39 -28.5 95t-20.5 72h-1q2 -118 2 -240v-374h-124z" />
    <glyph glyph-name="N" unicode="N" horiz-adv-x="763" 
d="M85 0v715h156l238 -410q13 -23 41.5 -71t36.5 -62l1 1q0 17 -0.5 84t-0.5 105v353h121v-715h-151l-230 392q-24 42 -54 92t-34 58h-1q0 -17 0.5 -107t0.5 -125v-310h-124z" />
    <glyph glyph-name="O" unicode="O" horiz-adv-x="804" 
d="M401 729q159 0 260 -104.5t101 -267.5t-99.5 -267t-260.5 -104q-160 0 -260 104t-100 267q0 162 100.5 267t258.5 105zM400 620q-105 0 -166 -73t-61 -189q0 -115 62 -189t166 -74t166.5 74t62.5 189q0 117 -62 189.5t-168 72.5z" />
    <glyph glyph-name="P" unicode="P" horiz-adv-x="619" 
d="M85 0v715h212q73 0 111.5 -6.5t79.5 -27.5q47 -25 72.5 -72t25.5 -108q0 -121 -87 -179q-38 -25 -85 -33t-118 -8h-84v-281h-127zM212 604v-213h107q64 0 102.5 26.5t38.5 82.5q0 104 -147 104h-101z" />
    <glyph glyph-name="Q" unicode="Q" horiz-adv-x="804" 
d="M771 -50h-150q-33 34 -68 65q-69 -29 -151 -29q-160 0 -260 104t-100 267q0 162 100.5 267t258.5 105q159 0 260 -104.5t101 -267.5q0 -175 -115 -282zM344 219l154 3l61 -64q71 71 71 199q0 117 -62 190t-168 73q-105 0 -166 -73t-61 -189q0 -114 62.5 -189.5
t166.5 -75.5q30 0 62 8z" />
    <glyph glyph-name="R" unicode="R" horiz-adv-x="636" 
d="M85 0v715h237q127 0 188 -41q85 -56 85 -169q0 -89 -48 -140.5t-123 -70.5l179 -294h-145l-165 278h-81v-278h-127zM212 606v-220h104q152 0 152 111q0 109 -152 109h-104z" />
    <glyph glyph-name="S" unicode="S" horiz-adv-x="609" 
d="M34 203h123q11 -52 50.5 -81.5t101.5 -29.5t95.5 29.5t33.5 78.5q0 45 -30 65t-101 39l-47 13q-100 28 -151.5 77.5t-51.5 131.5q0 89 70 147t178 58t173.5 -54.5t73.5 -146.5h-121q-24 91 -129 91q-53 0 -82.5 -24.5t-29.5 -63.5q0 -42 29 -62t97 -41l50 -15
q53 -17 86 -32t62 -38.5t42 -57t13 -79.5q0 -99 -73.5 -161t-190.5 -62q-115 0 -190 59.5t-81 158.5z" />
    <glyph glyph-name="T" unicode="T" horiz-adv-x="555" 
d="M214 0v602h-179v113h485v-113h-179v-602h-127z" />
    <glyph glyph-name="U" unicode="U" horiz-adv-x="684" 
d="M342 -16q-68 0 -126.5 26t-90.5 71q-48 64 -48 195v439h127v-432q0 -85 18 -120q16 -31 48 -49.5t72 -18.5t72 18.5t48 49.5q18 35 18 120v432h127v-439q0 -131 -48 -195q-31 -45 -90 -71t-127 -26z" />
    <glyph glyph-name="V" unicode="V" horiz-adv-x="685" 
d="M345 134h2q12 38 62 182l139 399h133l-264 -715h-148q-94 241 -262 715h140l139 -405q34 -96 59 -176z" />
    <glyph glyph-name="W" unicode="W" horiz-adv-x="951" 
d="M928 715l-155 -715h-167l-91 421q-15 69 -34 186h-2q-10 -59 -37 -186l-91 -421h-175l-151 715h134l76 -413q23 -118 31 -181h3q9 56 36 180l93 414h168l90 -409q18 -76 34 -185h2q3 30 33 186l79 408h124z" />
    <glyph glyph-name="X" unicode="X" horiz-adv-x="649" 
d="M140 0h-139l250 362q-45 64 -129.5 189t-111.5 164h147q22 -37 84.5 -129t84.5 -125q161 241 169 254h143q-16 -23 -108.5 -154.5t-134.5 -194.5q29 -42 80 -115.5t94 -135.5t80 -115h-148q-132 188 -179 267q-32 -47 -71 -104.5t-64.5 -95.5t-46.5 -67z" />
    <glyph glyph-name="Y" unicode="Y" horiz-adv-x="612" 
d="M242 0v276q-75 134 -238 439h141q83 -180 165 -330q44 85 94.5 186t72.5 144h134l-242 -439v-276h-127z" />
    <glyph glyph-name="Z" unicode="Z" horiz-adv-x="568" 
d="M37 0v96q7 12 38 58t47 72l191 296l52 81h-315v112h468v-99q-7 -9 -21 -31l-51 -78l-202 -312q-11 -16 -30.5 -45t-25.5 -39h345v-111h-496z" />
    <glyph glyph-name="bracketleft" unicode="[" horiz-adv-x="355" 
d="M320 -31v-82h-230v828h230v-82h-113v-664h113z" />
    <glyph glyph-name="backslash" unicode="\" horiz-adv-x="453" 
d="M139 715l290 -820h-118l-288 820h116z" />
    <glyph glyph-name="bracketright" unicode="]" horiz-adv-x="354" 
d="M35 -113v82h113v664h-113v82h229v-828h-229z" />
    <glyph glyph-name="asciicircum" unicode="^" 
d="M241 684h104q24 -46 64 -125t74.5 -145.5t66.5 -125.5h-125q-16 35 -48 102t-53.5 113t-28.5 60h-3q-50 -99 -132 -275h-124q32 59 66.5 125.5t74.5 145.5t64 125z" />
    <glyph glyph-name="underscore" unicode="_" horiz-adv-x="598" 
d="M61 -160v93h476v-93h-476z" />
    <glyph glyph-name="grave" unicode="`" horiz-adv-x="429" 
d="M203 596l-139 119h157l114 -119h-132z" />
    <glyph glyph-name="a" unicode="a" horiz-adv-x="563" 
d="M173 361h-116q4 78 64.5 129.5t160.5 51.5q104 0 160.5 -52.5t56.5 -179.5v-147q0 -105 12 -163h-112q-6 30 -6 70q-24 -35 -69 -57.5t-105 -22.5q-84 0 -135.5 41.5t-51.5 114.5q0 134 228 167q52 8 121 14q-2 65 -26 92.5t-76 27.5q-94 0 -106 -86zM382 220q0 11 1 22
l-27 -3q-103 -10 -148.5 -30t-45.5 -60q0 -35 24 -53.5t67 -18.5q65 0 97 37.5t32 105.5z" />
    <glyph glyph-name="b" unicode="b" horiz-adv-x="647" 
d="M70 0v715h122v-153q0 -67 -1 -104q61 84 172 84q112 0 179 -78t67 -200q0 -123 -67.5 -199.5t-175.5 -76.5q-124 0 -181 86q0 -7 0.5 -19.5t0.5 -18.5v-36h-116zM338 441q-66 0 -108.5 -49.5t-42.5 -125.5q0 -79 40.5 -129t110.5 -50q68 0 107 49t39 126t-39.5 128
t-106.5 51z" />
    <glyph glyph-name="c" unicode="c" horiz-adv-x="584" 
d="M432 168h120q-24 -83 -87 -133.5t-160 -50.5q-123 0 -195.5 78t-72.5 201q0 121 74.5 200.5t195.5 79.5q99 0 163 -53t83 -139h-127q-34 90 -121 90q-65 0 -104 -49t-39 -127q0 -82 39.5 -131t108.5 -49q89 0 122 83z" />
    <glyph glyph-name="d" unicode="d" horiz-adv-x="646" 
d="M576 0h-115v74q-57 -86 -181 -86q-108 0 -175 76.5t-67 199.5q0 121 67 199.5t178 78.5q58 0 103 -24t69 -60q-1 37 -1 104v153h122v-715zM309 441q-67 0 -106.5 -51t-39.5 -128t39 -126t106 -49q70 0 111 50t41 129q0 76 -42.5 125.5t-108.5 49.5z" />
    <glyph glyph-name="e" unicode="e" horiz-adv-x="594" 
d="M561 232l-402 1q6 -66 47 -107t104 -41q83 0 120 65h123q-25 -75 -89.5 -120.5t-156.5 -45.5q-122 0 -196 78t-74 202q0 121 74.5 200t193.5 79q121 0 189 -79t68 -199v-15.5t-0.5 -12t-0.5 -5.5zM163 320h277q-6 56 -42.5 92t-93.5 36q-58 0 -95.5 -33t-45.5 -95z" />
    <glyph glyph-name="f" unicode="f" horiz-adv-x="320" 
d="M95 0v434h-69v91h69v36q0 73 46.5 118t123.5 45q24 0 39 -3v-98q-16 2 -23 2q-64 0 -64 -59v-41h87v-91h-87v-434h-122z" />
    <glyph glyph-name="g" unicode="g" horiz-adv-x="648" 
d="M579 525v-438q0 -130 -71.5 -204.5t-200.5 -74.5q-98 0 -163.5 46.5t-86.5 126.5h129q32 -72 121 -72q84 0 121.5 50t37.5 150h-2q-23 -37 -69 -61.5t-110 -24.5q-113 0 -179.5 71.5t-66.5 185.5q0 116 68.5 188.5t174.5 72.5q121 0 182 -86q-1 12 -1 35v35h116zM313 440
q-69 0 -109 -43.5t-40 -115.5q0 -71 39.5 -115t109.5 -44q66 0 108 43t42 119q0 70 -40.5 113t-109.5 43z" />
    <glyph glyph-name="h" unicode="h" horiz-adv-x="604" 
d="M192 715v-145q0 -24 -2 -104q57 76 159 76q90 0 140 -57.5t50 -155.5v-329h-121v270q0 84 -24 127t-83 43q-60 0 -89.5 -40.5t-29.5 -109.5v-290h-122v715h122z" />
    <glyph glyph-name="i" unicode="i" horiz-adv-x="262" 
d="M70 525h122v-525h-122v525zM68 601v114h125v-114h-125z" />
    <glyph glyph-name="j" unicode="j" horiz-adv-x="262" 
d="M70 525h122v-547q0 -102 -33 -138.5t-133 -36.5q-36 0 -53 4v90q18 -2 25 -2q37 0 54.5 15.5t17.5 53.5v561zM68 601v114h126v-114h-126z" />
    <glyph glyph-name="k" unicode="k" horiz-adv-x="552" 
d="M554 0h-159l-125 158l-78 99v-257h-122v715h122v-418q66 80 73 88q15 17 57.5 69t58.5 71h147q-26 -28 -75 -83t-68 -75l-74 -82q10 -14 52.5 -63.5t100 -116t90.5 -105.5z" />
    <glyph glyph-name="l" unicode="l" horiz-adv-x="268" 
d="M73 0v715h122v-715h-122z" />
    <glyph glyph-name="m" unicode="m" horiz-adv-x="931" 
d="M186 525v-33q0 -21 -1 -33q48 83 158 83q109 0 157 -89q63 89 177 89q91 0 140 -56t49 -160v-326h-122v280q0 82 -24 121t-77 39q-55 0 -84.5 -37.5t-29.5 -98.5v-304h-122v283q0 81 -24 119t-78 38q-57 0 -85 -40t-28 -107v-293h-122v444q0 53 -1 81h117z" />
    <glyph glyph-name="n" unicode="n" horiz-adv-x="605" 
d="M186 526v-33q0 -22 -1 -33q0 -1 1 -1q55 83 164 83q90 0 140 -57t50 -159v-326h-122v271q0 83 -24 126t-83 43t-89 -41t-30 -106v-293h-122v446q0 53 -1 80h117z" />
    <glyph glyph-name="o" unicode="o" horiz-adv-x="624" 
d="M311 543q124 0 199.5 -78t75.5 -203q0 -124 -75.5 -201t-201.5 -77q-125 0 -198.5 78t-73.5 200q0 125 75.5 203t198.5 78zM309 441q-68 0 -107.5 -49.5t-39.5 -128.5q0 -82 39 -129.5t108 -47.5t108.5 47.5t39.5 129.5q0 79 -40 128.5t-108 49.5z" />
    <glyph glyph-name="p" unicode="p" horiz-adv-x="646" 
d="M185 525v-34v-36q24 38 70 62.5t110 24.5q108 0 175.5 -77.5t67.5 -200.5q0 -121 -67 -198.5t-179 -77.5q-58 0 -102.5 23.5t-68.5 59.5h-1q2 -25 2 -103v-148h-122v705h115zM337 442q-70 0 -110.5 -50t-40.5 -130q0 -76 42.5 -125t108.5 -49q67 0 106.5 50t39.5 128
q0 77 -39.5 126.5t-106.5 49.5z" />
    <glyph glyph-name="q" unicode="q" horiz-adv-x="646" 
d="M461 525h115v-705h-122v148q0 66 1 103q-24 -35 -69.5 -59t-102.5 -24q-111 0 -178 77.5t-67 198.5q0 123 67.5 200.5t175.5 77.5q64 0 110 -24.5t70 -62.5v70zM309 442q-67 0 -106.5 -49.5t-39.5 -126.5q0 -78 39.5 -128t106.5 -50q66 0 108.5 49t42.5 125
q0 80 -40.5 130t-110.5 50z" />
    <glyph glyph-name="r" unicode="r" horiz-adv-x="358" 
d="M69 526h115v-36q0 -24 -1 -35q14 39 48 61t79 22q15 0 29 -2v-116q-12 4 -35 4q-67 0 -89.5 -43t-22.5 -133v-248h-122v431q0 63 -1 95z" />
    <glyph glyph-name="s" unicode="s" horiz-adv-x="501" 
d="M29 166h115q24 -84 114 -84q40 0 66.5 18t26.5 47q0 13 -6 22.5t-22 17t-26.5 11t-38.5 11.5l-58 16q-74 21 -113.5 54.5t-39.5 100.5q0 72 57 117t145 45q86 0 143.5 -44t63.5 -120h-108q-22 67 -102 67q-39 0 -60 -16.5t-21 -41.5q0 -24 18 -35.5t63 -24.5l58 -15
q86 -24 123.5 -57.5t37.5 -97.5q0 -77 -58.5 -125t-150.5 -48q-197 0 -227 182z" />
    <glyph glyph-name="t" unicode="t" horiz-adv-x="341" 
d="M217 667v-142h98v-91h-98v-287q0 -35 15.5 -50t47.5 -15q11 0 25 2v-90q-15 -4 -47 -4q-79 0 -121 31t-42 105v308h-79v91h79v142h122z" />
    <glyph glyph-name="u" unicode="u" horiz-adv-x="603" 
d="M418 0v37v38q-50 -89 -163 -89q-190 0 -190 229v310h122v-280q0 -76 24.5 -117t83.5 -41q116 0 116 163v275h122v-446q0 -54 1 -79h-116z" />
    <glyph glyph-name="v" unicode="v" horiz-adv-x="536" 
d="M325 0h-114q-33 86 -100.5 263t-100.5 262h134l68 -208q10 -31 28 -83t30 -89h2q12 39 30.5 93t30.5 91l64 196h130z" />
    <glyph glyph-name="w" unicode="w" horiz-adv-x="800" 
d="M308 0h-124q-33 96 -89.5 278t-77.5 247h125l59 -205q10 -33 23.5 -90.5t23.5 -91.5h2q11 40 25.5 104.5t23.5 99.5l45 183h116l52 -205q5 -21 18.5 -79.5t26.5 -104.5h2q10 35 25 94.5t27 101.5l55 193h119l-168 -525h-127q-45 139 -88 347h-3q-68 -276 -91 -347z" />
    <glyph glyph-name="x" unicode="x" horiz-adv-x="530" 
d="M144 0h-139q41 53 190 269l-171 256h140q9 -14 44.5 -71.5t57.5 -92.5q88 139 103 164h136l-171 -254q48 -70 191 -271h-143q-16 27 -35 56.5t-43 67.5t-39 61q-70 -108 -121 -185z" />
    <glyph glyph-name="y" unicode="y" horiz-adv-x="539" 
d="M250 -180h-124l82 194q-19 49 -198 511h134q30 -86 70 -205.5t58 -169.5q19 51 67.5 195t60.5 180h131q-213 -540 -281 -705z" />
    <glyph glyph-name="z" unicode="z" horiz-adv-x="498" 
d="M38 0v92l207 261q51 64 61 76q-36 -1 -124 -1h-136v97h403v-94l-197 -247q-58 -75 -70 -88q19 0 66.5 0.5t70.5 0.5h143v-97h-424z" />
    <glyph glyph-name="braceleft" unicode="{" horiz-adv-x="320" 
d="M33 280v41q37 11 51 32t14 77v163q0 72 28.5 99t111.5 27q4 0 12.5 -0.5t11.5 -0.5h12v-79q-36 -2 -49 -18t-13 -63v-104q0 -82 -11 -108t-56 -44v-2q44 -18 55.5 -44.5t11.5 -107.5v-105q0 -47 13 -63t49 -18v-79q-4 -1 -12 -1h-24q-83 0 -111.5 27t-28.5 99v163
q0 56 -14 77t-51 32z" />
    <glyph glyph-name="bar" unicode="|" horiz-adv-x="293" 
d="M90 -62v793h113v-793h-113z" />
    <glyph glyph-name="braceright" unicode="}" horiz-adv-x="320" 
d="M287 321v-41q-37 -11 -51 -32t-14 -77v-163q0 -72 -28.5 -99t-111.5 -27h-24q-8 0 -12 1v79q36 2 49 18t13 63v105q0 81 11.5 107.5t55.5 44.5v2q-45 18 -56 44t-11 108v104q0 47 -13 63t-49 18v79h12q3 0 11 0.5t13 0.5q83 0 111.5 -27t28.5 -99v-163q0 -56 14 -77
t51 -32z" />
    <glyph glyph-name="asciitilde" unicode="~" 
d="M484 382l68 -49q-30 -54 -64.5 -83.5t-81.5 -29.5q-13 0 -25.5 2t-28 7.5t-22.5 8t-26.5 11.5t-22.5 10l-26 11q-44 21 -72 21q-53 0 -82 -68l-68 50q64 118 150 118q38 0 117 -35l13 -6q66 -30 91 -30q46 0 80 62z" />
    <glyph glyph-name="uni00A0" unicode="&#xa0;" horiz-adv-x="247" 
 />
    <glyph glyph-name="exclamdown" unicode="&#xa1;" horiz-adv-x="287" 
d="M94 337h101q13 -325 13 -428v-109h-127v109q0 103 13 428zM80 400v125h130v-125h-130z" />
    <glyph glyph-name="cent" unicode="&#xa2;" 
d="M256 -82v71q-98 15 -155 91t-57 184q0 105 57.5 180t154.5 93v85h107v-85q75 -14 121.5 -62.5t64.5 -123.5h-124q-25 58 -62 77v-332q47 18 68 71h117q-20 -70 -66.5 -117t-118.5 -61v-71h-107zM168 266q0 -129 88 -168v331q-42 -18 -65 -61t-23 -102z" />
    <glyph glyph-name="sterling" unicode="&#xa3;" 
d="M529 103v-103h-461v95q120 16 120 121q0 49 -25 103h-121v99h78q-15 52 -15 98q0 91 61 151t166 60q98 0 155 -51.5t57 -143.5h-116q-16 92 -99 92q-49 0 -74 -31t-25 -80q0 -50 18 -92h164v-102h-129q26 -61 26 -112q0 -63 -41 -104l1 -1q26 0 69 0.5t49 0.5h142z" />
    <glyph glyph-name="currency" unicode="&#xa4;" 
d="M50 359q0 69 38 131l-52 54l73 74l53 -53q64 38 130 38q71 0 132 -38l53 53q42 -45 73 -74l-53 -53q40 -62 40 -131q0 -74 -39 -130l52 -52q-31 -29 -73 -74l-51 52q-65 -39 -131 -39q-72 0 -134 40l-52 -53q-11 11 -23 23.5t-27 27t-23 22.5l51 53q-37 66 -37 129z
M151 360q0 -58 41.5 -100.5t100.5 -42.5q60 0 101.5 42.5t41.5 100.5t-41.5 100t-101.5 42q-59 0 -100.5 -42t-41.5 -100z" />
    <glyph glyph-name="yen" unicode="&#xa5;" 
d="M40 196v81h188l-57 106h-131v81h90q-93 189 -126 251h139q10 -20 65.5 -142t88.5 -186q35 68 154 328h132l-130 -251h91v-81h-133l-57 -106h190v-81h-188v-196h-129v196h-187z" />
    <glyph glyph-name="brokenbar" unicode="&#xa6;" horiz-adv-x="249" 
d="M68 428v303h113v-303h-113zM68 -62v303h113v-303h-113z" />
    <glyph glyph-name="section" unicode="&#xa7;" 
d="M299 728q85 0 140.5 -42.5t59.5 -120.5h-108q-11 65 -97 65q-34 0 -56 -13.5t-22 -37.5q0 -6 1.5 -11t2.5 -9t5 -8t6.5 -7t8 -6.5t8.5 -5.5t10.5 -5t10 -4.5t11 -5t11.5 -4.5l80 -37q73 -34 110 -69.5t37 -95.5q0 -48 -18 -77.5t-56 -54.5q29 -24 43.5 -49t14.5 -67
q0 -76 -57.5 -122t-154.5 -46t-151.5 48t-66.5 134h115q7 -37 35.5 -60t72.5 -23q92 0 92 63q0 14 -5.5 25t-20 20.5t-25.5 15t-37.5 17t-40.5 18.5l-49 22q-66 28 -103.5 67.5t-37.5 104.5q0 81 83 123q-50 42 -50 105q0 68 57 110.5t141 42.5zM253 279l99 -46q53 17 53 63
q0 10 -2.5 18.5t-10.5 16.5t-14 13.5t-21.5 13.5t-24.5 12t-32 14t-35 16l-32 14q-54 -14 -54 -56q0 -27 17 -43t57 -36z" />
    <glyph glyph-name="dieresis" unicode="&#xa8;" horiz-adv-x="491" 
d="M125 603v110h112v-110h-112zM312 603v110h111v-110h-111z" />
    <glyph glyph-name="copyright" unicode="&#xa9;" horiz-adv-x="841" 
d="M420 507q-58 0 -92 -42t-34 -107q0 -64 35 -105.5t94 -41.5q68 0 105 64h90q-22 -60 -73 -100t-125 -40q-95 0 -154.5 63.5t-59.5 159.5q0 97 59.5 160.5t155.5 63.5q76 0 127.5 -39t70.5 -104h-92q-32 68 -107 68zM797 360q0 -158 -110 -267.5t-268 -109.5
q-156 0 -265.5 110t-109.5 267t109.5 266.5t267.5 109.5q156 0 266 -110t110 -266zM734 360q0 131 -92 223.5t-221 92.5q-131 0 -222 -92t-91 -224q0 -131 91 -224.5t221 -93.5t222 93t92 225z" />
    <glyph glyph-name="ordfeminine" unicode="&#xaa;" horiz-adv-x="461" 
d="M153 450h-94q6 57 51.5 96t120.5 39q84 0 124.5 -41t40.5 -135v-31q0 -10 -0.5 -28t-0.5 -25v-22q0 -71 5 -124h-86l-3 44q-48 -51 -125 -51q-62 0 -101.5 31t-39.5 86q0 115 241 135q1 0 5.5 0.5t6.5 0.5q5 0 7 1q-3 85 -76 85q-67 0 -76 -61zM291 358
q-79 -9 -112.5 -22.5t-33.5 -43.5q0 -50 67 -50q90 0 92 118q-8 -2 -13 -2z" />
    <glyph glyph-name="guillemotleft" unicode="&#xab;" horiz-adv-x="519" 
d="M270 473l-96 -187l96 -188h-124l-102 188l102 187h124zM468 473l-91 -187l91 -188h-122l-102 188l102 187h122z" />
    <glyph glyph-name="logicalnot" unicode="&#xac;" 
d="M33 360v107h504v-330h-109v223h-395z" />
    <glyph glyph-name="uni00AD" unicode="&#xad;" horiz-adv-x="398" 
d="M63 241v105h272v-105h-272z" />
    <glyph glyph-name="registered" unicode="&#xae;" horiz-adv-x="551" 
d="M184 362v270h96q46 0 71 -15q33 -24 33 -66q0 -61 -56 -81q14 -21 66 -108h-70l-59 100h-21v-100h-60zM244 579v-64h32q48 0 48 33q0 31 -48 31h-32zM509 499q0 -97 -68.5 -165.5t-165.5 -68.5q-96 0 -164.5 68.5t-68.5 165.5t68 165.5t166 68.5q96 0 164.5 -68.5
t68.5 -165.5zM463 499q0 78 -55.5 134t-131.5 56q-78 0 -132.5 -55.5t-54.5 -134.5t54 -134.5t132 -55.5q77 0 132.5 55.5t55.5 134.5z" />
    <glyph glyph-name="macron" unicode="&#xaf;" horiz-adv-x="428" 
d="M80 618v85h273v-85h-273z" />
    <glyph glyph-name="degree" unicode="&#xb0;" horiz-adv-x="415" 
d="M208 400q-70 0 -118.5 47.5t-48.5 116.5q0 70 48.5 117.5t118.5 47.5t118 -47.5t48 -117.5t-47.5 -117t-118.5 -47zM129 564q0 -33 23 -55.5t56 -22.5t55.5 22t22.5 56t-23 56.5t-55 22.5q-33 0 -56 -22.5t-23 -56.5z" />
    <glyph glyph-name="plusminus" unicode="&#xb1;" 
d="M72 310v107h167v134h107v-134h168v-107h-168v-136h-107v136h-167zM514 0h-442v107h442v-107z" />
    <glyph glyph-name="twosuperior" unicode="&#xb2;" horiz-adv-x="415" 
d="M63 275v73q86 70 153 140q51 55 51 100q0 28 -16.5 45t-45.5 17q-32 0 -49 -21.5t-18 -58.5h-79q-1 1 -1 5v12q0 61 42.5 100t105.5 39q67 0 107.5 -39t40.5 -98q0 -43 -29 -89q-27 -43 -82 -93q-9 -8 -67 -57h177v-75h-290z" />
    <glyph glyph-name="threesuperior" unicode="&#xb3;" horiz-adv-x="395" 
d="M160 483v69q85 0 85 54q0 24 -14 36.5t-37 12.5q-47 0 -52 -51h-79q1 54 37 88t96 34t96 -30.5t36 -82.5q0 -58 -53 -91q75 -33 75 -112q0 -63 -42.5 -101.5t-113.5 -38.5q-69 0 -108.5 38.5t-44.5 101.5h83q3 -31 22.5 -49.5t49.5 -18.5q31 0 50 20t19 50q0 36 -23 53.5
t-61 17.5h-21z" />
    <glyph glyph-name="acute" unicode="&#xb4;" horiz-adv-x="427" 
d="M370 715l-139 -119h-132l114 119h157z" />
    <glyph glyph-name="mu" unicode="&#xb5;" horiz-adv-x="608" 
d="M193 -180h-123v705h123v-276q0 -76 24.5 -117t83.5 -41q114 0 114 164v270h123v-445q0 -53 1 -80h-117v76q-48 -86 -148 -86q-45 0 -81 16v-186z" />
    <glyph glyph-name="paragraph" unicode="&#xb6;" horiz-adv-x="646" 
d="M347 620v-733h-93v429q-94 0 -159.5 55.5t-65.5 145.5q0 102 81 158q34 24 72.5 32t98.5 8h296v-95h-43v-733h-93v733h-94z" />
    <glyph glyph-name="periodcentered" unicode="&#xb7;" horiz-adv-x="255" 
d="M63 253v134h129v-134h-129z" />
    <glyph glyph-name="cedilla" unicode="&#xb8;" horiz-adv-x="369" 
d="M95 -163l93 114h123l-76 -114h-140z" />
    <glyph glyph-name="onesuperior" unicode="&#xb9;" horiz-adv-x="288" 
d="M136 588h-106v60q57 2 82 16.5t30 50.5h77v-439h-83v312z" />
    <glyph glyph-name="ordmasculine" unicode="&#xba;" horiz-adv-x="495" 
d="M245 242q51 0 80.5 35t29.5 95q0 57 -30 94t-80 37q-49 0 -78.5 -36.5t-29.5 -94.5q0 -60 28.5 -95t79.5 -35zM245 163q-94 0 -149 57.5t-55 150.5q0 94 56.5 152t149.5 58t150 -58.5t57 -151.5t-56.5 -150.5t-152.5 -57.5z" />
    <glyph glyph-name="guillemotright" unicode="&#xbb;" horiz-adv-x="519" 
d="M345 286l-96 187h124l102 -187l-102 -188h-124zM142 286l-91 187h122l102 -187l-102 -188h-122z" />
    <glyph glyph-name="onequarter" unicode="&#xbc;" horiz-adv-x="796" 
d="M263 0h-81l275 715h81q-62 -158 -275 -715zM626 83h-208v66l131 190l44 64l25 37h87v-286h56v-71h-56v-83h-79v83zM626 154v108q0 37 2 77l-49 -75q-15 -23 -39.5 -59t-34.5 -51h121zM138 588h-106v60q57 2 82 16.5t30 50.5h77v-439h-83v312z" />
    <glyph glyph-name="onehalf" unicode="&#xbd;" horiz-adv-x="811" 
d="M475 0v73q86 70 153 140q51 55 51 100q0 28 -16.5 45t-45.5 17q-32 0 -49 -21.5t-18 -58.5h-79q-1 1 -1 5v12q0 61 42.5 100t105.5 39q67 0 107.5 -39t40.5 -98q0 -43 -29 -89q-27 -43 -82 -93q-9 -8 -67 -57h177v-75h-290zM263 0h-81l275 715h81q-62 -158 -275 -715z
M138 588h-106v60q57 2 82 16.5t30 50.5h77v-439h-83v312z" />
    <glyph glyph-name="threequarters" unicode="&#xbe;" horiz-adv-x="894" 
d="M363 0h-81l275 715h81q-62 -158 -275 -715zM726 83h-208v66l131 190l44 64l25 37h87v-286h56v-71h-56v-83h-79v83zM726 154v108q0 37 2 77l-49 -75q-15 -23 -39.5 -59t-34.5 -51h121zM154 483v69q85 0 85 54q0 24 -14 36.5t-37 12.5q-47 0 -52 -51h-79q1 54 37 88t96 34
t96 -30.5t36 -82.5q0 -58 -53 -91q75 -33 75 -112q0 -63 -42.5 -101.5t-113.5 -38.5q-69 0 -108.5 38.5t-44.5 101.5h83q3 -31 22.5 -49.5t49.5 -18.5q31 0 50 20t19 50q0 36 -23 53.5t-61 17.5h-21z" />
    <glyph glyph-name="questiondown" unicode="&#xbf;" horiz-adv-x="514" 
d="M200 525h128v-133h-128v133zM206 330h117q0 -81 -16 -120t-63 -77q-26 -21 -42.5 -37.5t-31.5 -43.5t-15 -55q0 -43 27 -68.5t75 -25.5q50 0 77 31.5t28 84.5h122q0 -98 -62 -160.5t-169 -62.5q-102 0 -161 57t-59 145q0 61 28 103t78 83q37 30 52 58.5t15 79.5v8z" />
    <glyph glyph-name="Agrave" unicode="&#xc0;" horiz-adv-x="713" 
d="M124 0h-130q24 56 107.5 260.5t187.5 454.5h138l290 -715h-132q-11 27 -81 206h-300zM356 600h-2q-14 -35 -43.5 -114.5t-46.5 -121.5l-18 -49h216q-4 12 -7 18l-12 31l-35 92q-33 89 -52 144zM309 761l-131 115h157l106 -115h-132z" />
    <glyph glyph-name="Aacute" unicode="&#xc1;" horiz-adv-x="713" 
d="M124 0h-130q24 56 107.5 260.5t187.5 454.5h138l290 -715h-132q-11 27 -81 206h-300zM356 600h-2q-14 -35 -43.5 -114.5t-46.5 -121.5l-18 -49h216q-4 12 -7 18l-12 31l-35 92q-33 89 -52 144zM515 876l-131 -115h-132l106 115h157z" />
    <glyph glyph-name="Acircumflex" unicode="&#xc2;" horiz-adv-x="713" 
d="M124 0h-130q24 56 107.5 260.5t187.5 454.5h138l290 -715h-132q-11 27 -81 206h-300zM356 600h-2q-14 -35 -43.5 -114.5t-46.5 -121.5l-18 -49h216q-4 12 -7 18l-12 31l-35 92q-33 89 -52 144zM292 875h135q18 -20 54 -57t54 -57h-119l-55 58l-56 -58h-119q68 72 106 114
z" />
    <glyph glyph-name="Atilde" unicode="&#xc3;" horiz-adv-x="713" 
d="M124 0h-130q24 56 107.5 260.5t187.5 454.5h138l290 -715h-132q-11 27 -81 206h-300zM356 600h-2q-14 -35 -43.5 -114.5t-46.5 -121.5l-18 -49h216q-4 12 -7 18l-12 31l-35 92q-33 89 -52 144zM343 779q-31 18 -46 18q-14 0 -20 -7.5t-9 -26.5h-75q0 49 27 85t67 36
q26 0 72 -22q37 -18 47 -18q14 0 19.5 7.5t8.5 26.5h72q0 -50 -24.5 -85.5t-64.5 -35.5q-28 0 -74 22z" />
    <glyph glyph-name="Adieresis" unicode="&#xc4;" horiz-adv-x="713" 
d="M124 0h-130q24 56 107.5 260.5t187.5 454.5h138l290 -715h-132q-11 27 -81 206h-300zM356 600h-2q-14 -35 -43.5 -114.5t-46.5 -121.5l-18 -49h216q-4 12 -7 18l-12 31l-35 92q-33 89 -52 144zM208 763v110h112v-110h-112zM395 763v110h111v-110h-111z" />
    <glyph glyph-name="Aring" unicode="&#xc5;" horiz-adv-x="713" 
d="M124 0h-130q24 56 107.5 260.5t187.5 454.5h138l290 -715h-132q-11 27 -81 206h-300zM356 600h-2q-14 -35 -43.5 -114.5t-46.5 -121.5l-18 -49h216q-4 12 -7 18l-12 31l-35 92q-33 89 -52 144zM356 738q-41 0 -69 28.5t-28 70.5q0 40 29 68.5t69 28.5q41 0 69.5 -28.5
t28.5 -68.5q0 -42 -28.5 -70.5t-70.5 -28.5zM313 837q0 -19 12.5 -32t30.5 -13q19 0 31.5 12.5t12.5 32.5q0 17 -13 30t-31 13t-30.5 -13t-12.5 -30z" />
    <glyph glyph-name="AE" unicode="&#xc6;" horiz-adv-x="911" 
d="M858 715v-112h-302l6 -183h272v-112h-269l6 -197h294v-111h-416l-4 166h-237l-90 -166h-132l401 715h471zM441 274l-3 122v78.5t-2 103.5h-7q-4 -7 -31 -59.5t-44 -83.5l-88 -161h175z" />
    <glyph glyph-name="Ccedilla" unicode="&#xc7;" horiz-adv-x="751" 
d="M585 207h134q-32 -95 -117 -158t-206 -63q-157 0 -255.5 105t-98.5 266t98 266.5t258 105.5q125 0 210 -62.5t114 -166.5h-139q-53 120 -186 120q-104 0 -164 -74.5t-60 -188.5t62 -188t166 -74q120 0 184 112zM250 -163l93 114h123l-76 -114h-140z" />
    <glyph glyph-name="Egrave" unicode="&#xc8;" horiz-adv-x="578" 
d="M85 0v715h439v-113h-313v-182h289v-112h-289v-197h320v-111h-446zM277 761l-131 115h157l106 -115h-132z" />
    <glyph glyph-name="Eacute" unicode="&#xc9;" horiz-adv-x="578" 
d="M85 0v715h439v-113h-313v-182h289v-112h-289v-197h320v-111h-446zM473 876l-131 -115h-132l106 115h157z" />
    <glyph glyph-name="Ecircumflex" unicode="&#xca;" horiz-adv-x="578" 
d="M85 0v715h439v-113h-313v-182h289v-112h-289v-197h320v-111h-446zM242 875h135q19 -20 54 -57t54 -57h-119l-55 58l-56 -58h-119q68 72 106 114z" />
    <glyph glyph-name="Edieresis" unicode="&#xcb;" horiz-adv-x="578" 
d="M85 0v715h439v-113h-313v-182h289v-112h-289v-197h320v-111h-446zM160 763v110h112v-110h-112zM347 763v110h111v-110h-111z" />
    <glyph glyph-name="Igrave" unicode="&#xcc;" horiz-adv-x="297" 
d="M85 0v715h127v-715h-127zM125 761l-131 115h157l106 -115h-132z" />
    <glyph glyph-name="Iacute" unicode="&#xcd;" horiz-adv-x="297" 
d="M85 0v715h127v-715h-127zM324 876l-131 -115h-132l106 115h157z" />
    <glyph glyph-name="Icircumflex" unicode="&#xce;" horiz-adv-x="297" 
d="M85 0v715h127v-715h-127zM84 875h135q18 -20 53.5 -57t54.5 -57h-119l-55 58l-56 -58h-119q68 72 106 114z" />
    <glyph glyph-name="Idieresis" unicode="&#xcf;" horiz-adv-x="297" 
d="M85 0v715h127v-715h-127zM1 763v110h112v-110h-112zM188 763v110h111v-110h-111z" />
    <glyph glyph-name="Eth" unicode="&#xd0;" horiz-adv-x="732" 
d="M24 314v98h66v303h155q64 0 104.5 -2.5t95.5 -15t94 -37.5q69 -43 109.5 -124.5t40.5 -178.5q0 -86 -33 -160t-91 -122q-58 -47 -128 -61t-187 -14h-160v314h-66zM556 357q0 121 -67.5 183t-187.5 62h-83v-190h136v-98h-136v-202h68q135 0 202.5 56.5t67.5 188.5z" />
    <glyph glyph-name="Ntilde" unicode="&#xd1;" horiz-adv-x="763" 
d="M85 0v715h156l238 -410q13 -23 41.5 -71t36.5 -62l1 1q0 17 -0.5 84t-0.5 105v353h121v-715h-151l-230 392q-24 42 -54 92t-34 58h-1q0 -17 0.5 -107t0.5 -125v-310h-124zM386 779q-32 18 -46 18t-20 -7.5t-9 -26.5h-75q0 49 27 85t67 36q26 0 72 -22q37 -18 47 -18
q14 0 19.5 7.5t8.5 26.5h72q0 -50 -24.5 -85.5t-64.5 -35.5q-28 0 -74 22z" />
    <glyph glyph-name="Ograve" unicode="&#xd2;" horiz-adv-x="804" 
d="M401 729q159 0 260 -104.5t101 -267.5t-99.5 -267t-260.5 -104q-160 0 -260 104t-100 267q0 162 100.5 267t258.5 105zM400 620q-105 0 -166 -73t-61 -189q0 -115 62 -189t166 -74t166.5 74t62.5 189q0 117 -62 189.5t-168 72.5zM372 761l-131 115h157l106 -115h-132z
" />
    <glyph glyph-name="Oacute" unicode="&#xd3;" horiz-adv-x="804" 
d="M401 729q159 0 260 -104.5t101 -267.5t-99.5 -267t-260.5 -104q-160 0 -260 104t-100 267q0 162 100.5 267t258.5 105zM400 620q-105 0 -166 -73t-61 -189q0 -115 62 -189t166 -74t166.5 74t62.5 189q0 117 -62 189.5t-168 72.5zM577 876l-131 -115h-132l106 115h157z
" />
    <glyph glyph-name="Ocircumflex" unicode="&#xd4;" horiz-adv-x="804" 
d="M401 729q159 0 260 -104.5t101 -267.5t-99.5 -267t-260.5 -104q-160 0 -260 104t-100 267q0 162 100.5 267t258.5 105zM400 620q-105 0 -166 -73t-61 -189q0 -115 62 -189t166 -74t166.5 74t62.5 189q0 117 -62 189.5t-168 72.5zM333 875h135q18 -20 53.5 -57t54.5 -57
h-119l-55 58l-56 -58h-119q68 72 106 114z" />
    <glyph glyph-name="Otilde" unicode="&#xd5;" horiz-adv-x="804" 
d="M401 729q159 0 260 -104.5t101 -267.5t-99.5 -267t-260.5 -104q-160 0 -260 104t-100 267q0 162 100.5 267t258.5 105zM400 620q-105 0 -166 -73t-61 -189q0 -115 62 -189t166 -74t166.5 74t62.5 189q0 117 -62 189.5t-168 72.5zM395 779q-31 18 -46 18q-14 0 -20 -7.5
t-9 -26.5h-75q0 49 27 85t67 36q26 0 72 -22q37 -18 47 -18q14 0 19.5 7.5t8.5 26.5h72q0 -50 -24.5 -85.5t-64.5 -35.5q-28 0 -74 22z" />
    <glyph glyph-name="Odieresis" unicode="&#xd6;" horiz-adv-x="804" 
d="M401 729q159 0 260 -104.5t101 -267.5t-99.5 -267t-260.5 -104q-160 0 -260 104t-100 267q0 162 100.5 267t258.5 105zM400 620q-105 0 -166 -73t-61 -189q0 -115 62 -189t166 -74t166.5 74t62.5 189q0 117 -62 189.5t-168 72.5zM254 763v110h112v-110h-112zM441 763v110
h111v-110h-111z" />
    <glyph glyph-name="multiply" unicode="&#xd7;" 
d="M141 97l-73 73l151 151l-151 151l73 73l151 -151l152 152l73 -73l-152 -152l152 -152l-73 -73l-152 152z" />
    <glyph glyph-name="Oslash" unicode="&#xd8;" horiz-adv-x="804" 
d="M402 -14q-74 0 -133 22l-51 -90l-99 54l52 91q-129 107 -129 293q0 163 100.5 267t258.5 104q69 0 133 -23l52 92l99 -54l-53 -93q130 -108 130 -293q0 -162 -99.5 -266t-260.5 -104zM174 357q0 -113 59 -184l244 432q-35 12 -77 12q-104 0 -165 -73t-61 -187zM629 357
q0 109 -58 183l-245 -431q34 -12 75 -12q105 0 166.5 73t61.5 187z" />
    <glyph glyph-name="Ugrave" unicode="&#xd9;" horiz-adv-x="684" 
d="M342 -16q-68 0 -126.5 26t-90.5 71q-48 64 -48 195v439h127v-432q0 -85 18 -120q16 -31 48 -49.5t72 -18.5t72 18.5t48 49.5q18 35 18 120v432h127v-439q0 -131 -48 -195q-31 -45 -90 -71t-127 -26zM306 761l-131 115h157l106 -115h-132z" />
    <glyph glyph-name="Uacute" unicode="&#xda;" horiz-adv-x="684" 
d="M342 -16q-68 0 -126.5 26t-90.5 71q-48 64 -48 195v439h127v-432q0 -85 18 -120q16 -31 48 -49.5t72 -18.5t72 18.5t48 49.5q18 35 18 120v432h127v-439q0 -131 -48 -195q-31 -45 -90 -71t-127 -26zM501 876l-131 -115h-132l106 115h157z" />
    <glyph glyph-name="Ucircumflex" unicode="&#xdb;" horiz-adv-x="684" 
d="M342 -16q-68 0 -126.5 26t-90.5 71q-48 64 -48 195v439h127v-432q0 -85 18 -120q16 -31 48 -49.5t72 -18.5t72 18.5t48 49.5q18 35 18 120v432h127v-439q0 -131 -48 -195q-31 -45 -90 -71t-127 -26zM273 875h135q19 -20 54 -57t54 -57h-119l-55 58l-56 -58h-119
q68 72 106 114z" />
    <glyph glyph-name="Udieresis" unicode="&#xdc;" horiz-adv-x="684" 
d="M342 -16q-68 0 -126.5 26t-90.5 71q-48 64 -48 195v439h127v-432q0 -85 18 -120q16 -31 48 -49.5t72 -18.5t72 18.5t48 49.5q18 35 18 120v432h127v-439q0 -131 -48 -195q-31 -45 -90 -71t-127 -26zM192 763v110h112v-110h-112zM379 763v110h111v-110h-111z" />
    <glyph glyph-name="Yacute" unicode="&#xdd;" horiz-adv-x="612" 
d="M242 0v276q-75 134 -238 439h141q83 -180 165 -330q44 85 94.5 186t72.5 144h134l-242 -439v-276h-127zM486 876l-131 -115h-132l106 115h157z" />
    <glyph glyph-name="Thorn" unicode="&#xde;" horiz-adv-x="605" 
d="M85 715h128v-121h82q72 0 111 -6t79 -27q47 -25 73 -72t26 -108q0 -119 -86 -178q-38 -25 -84 -33t-114 -8h-87v-162h-128v715zM456 380q0 57 -43 82q-35 20 -100 20h-100v-209h104q59 0 94 21q45 28 45 86z" />
    <glyph glyph-name="germandbls" unicode="&#xdf;" horiz-adv-x="583" 
d="M70 0v483q0 130 60 189q54 51 162 51q98 0 155.5 -43.5t57.5 -119.5q0 -50 -23 -85.5t-58 -52.5q50 -20 85 -69.5t35 -123.5q0 -114 -67 -173t-169 -59q-34 0 -64 5v92q19 -5 43 -5q57 0 95.5 33.5t38.5 103.5q0 120 -128 136q-13 2 -49 2v86h8q131 0 131 94q0 84 -94 84
q-97 0 -97 -119v-509h-122z" />
    <glyph glyph-name="agrave" unicode="&#xe0;" horiz-adv-x="563" 
d="M173 361h-116q4 78 64.5 129.5t160.5 51.5q104 0 160.5 -52.5t56.5 -179.5v-147q0 -105 12 -163h-112q-6 30 -6 70q-24 -35 -69 -57.5t-105 -22.5q-84 0 -135.5 41.5t-51.5 114.5q0 134 228 167q52 8 121 14q-2 65 -26 92.5t-76 27.5q-94 0 -106 -86zM382 220q0 11 1 22
l-27 -3q-103 -10 -148.5 -30t-45.5 -60q0 -35 24 -53.5t67 -18.5q65 0 97 37.5t32 105.5zM249 596l-139 119h157l114 -119h-132z" />
    <glyph glyph-name="aacute" unicode="&#xe1;" horiz-adv-x="563" 
d="M173 361h-116q4 78 64.5 129.5t160.5 51.5q104 0 160.5 -52.5t56.5 -179.5v-147q0 -105 12 -163h-112q-6 30 -6 70q-24 -35 -69 -57.5t-105 -22.5q-84 0 -135.5 41.5t-51.5 114.5q0 134 228 167q52 8 121 14q-2 65 -26 92.5t-76 27.5q-94 0 -106 -86zM382 220q0 11 1 22
l-27 -3q-103 -10 -148.5 -30t-45.5 -60q0 -35 24 -53.5t67 -18.5q65 0 97 37.5t32 105.5zM457 715l-139 -119h-132l114 119h157z" />
    <glyph glyph-name="acircumflex" unicode="&#xe2;" horiz-adv-x="563" 
d="M173 361h-116q4 78 64.5 129.5t160.5 51.5q104 0 160.5 -52.5t56.5 -179.5v-147q0 -105 12 -163h-112q-6 30 -6 70q-24 -35 -69 -57.5t-105 -22.5q-84 0 -135.5 41.5t-51.5 114.5q0 134 228 167q52 8 121 14q-2 65 -26 92.5t-76 27.5q-94 0 -106 -86zM382 220q0 11 1 22
l-27 -3q-103 -10 -148.5 -30t-45.5 -60q0 -35 24 -53.5t67 -18.5q65 0 97 37.5t32 105.5zM213 715h135q19 -22 55.5 -61.5t52.5 -57.5h-119l-55 62l-56 -62h-119q22 23 60.5 67z" />
    <glyph glyph-name="atilde" unicode="&#xe3;" horiz-adv-x="563" 
d="M173 361h-116q4 78 64.5 129.5t160.5 51.5q104 0 160.5 -52.5t56.5 -179.5v-147q0 -105 12 -163h-112q-6 30 -6 70q-24 -35 -69 -57.5t-105 -22.5q-84 0 -135.5 41.5t-51.5 114.5q0 134 228 167q52 8 121 14q-2 65 -26 92.5t-76 27.5q-94 0 -106 -86zM382 220q0 11 1 22
l-27 -3q-103 -10 -148.5 -30t-45.5 -60q0 -35 24 -53.5t67 -18.5q65 0 97 37.5t32 105.5zM262 614q-32 18 -46 18t-20 -8.5t-9 -28.5h-75q0 49 27 86.5t67 37.5q26 0 72 -22q37 -18 47 -18q13 0 19 8.5t9 28.5h72q0 -51 -24.5 -87.5t-64.5 -36.5q-28 0 -74 22z" />
    <glyph glyph-name="adieresis" unicode="&#xe4;" horiz-adv-x="563" 
d="M173 361h-116q4 78 64.5 129.5t160.5 51.5q104 0 160.5 -52.5t56.5 -179.5v-147q0 -105 12 -163h-112q-6 30 -6 70q-24 -35 -69 -57.5t-105 -22.5q-84 0 -135.5 41.5t-51.5 114.5q0 134 228 167q52 8 121 14q-2 65 -26 92.5t-76 27.5q-94 0 -106 -86zM382 220q0 11 1 22
l-27 -3q-103 -10 -148.5 -30t-45.5 -60q0 -35 24 -53.5t67 -18.5q65 0 97 37.5t32 105.5zM133 603v110h112v-110h-112zM320 603v110h111v-110h-111z" />
    <glyph glyph-name="aring" unicode="&#xe5;" horiz-adv-x="563" 
d="M173 361h-116q4 78 64.5 129.5t160.5 51.5q104 0 160.5 -52.5t56.5 -179.5v-147q0 -105 12 -163h-112q-6 30 -6 70q-24 -35 -69 -57.5t-105 -22.5q-84 0 -135.5 41.5t-51.5 114.5q0 134 228 167q52 8 121 14q-2 65 -26 92.5t-76 27.5q-94 0 -106 -86zM382 220q0 11 1 22
l-27 -3q-103 -10 -148.5 -30t-45.5 -60q0 -35 24 -53.5t67 -18.5q65 0 97 37.5t32 105.5zM289 578q-41 0 -69 28.5t-28 70.5q0 40 29 68.5t69 28.5q41 0 69.5 -28.5t28.5 -68.5q0 -42 -28.5 -70.5t-70.5 -28.5zM246 677q0 -19 12.5 -32t30.5 -13q19 0 31.5 12.5t12.5 32.5
q0 17 -12.5 30t-31.5 13q-18 0 -30.5 -13t-12.5 -30z" />
    <glyph glyph-name="ae" unicode="&#xe6;" horiz-adv-x="926" 
d="M893 232l-402 1q6 -66 47 -107t104 -41q83 0 120 65h123q-25 -75 -89.5 -120.5t-156.5 -45.5q-138 0 -213 97q-27 -39 -79.5 -65t-124.5 -26q-83 0 -135.5 41.5t-52.5 114.5q0 94 112 138q90 34 237 43q0 63 -25 91.5t-78 28.5q-94 0 -106 -85h-120q9 78 67.5 129
t161.5 51q123 0 173 -69q77 70 181 70q121 0 189 -79t68 -199v-15.5t-0.5 -12t-0.5 -5.5zM495 320h277q-6 56 -42.5 92t-93.5 36q-58 0 -95.5 -33t-45.5 -95zM384 243l-24 -3q-109 -13 -152.5 -30.5t-43.5 -59.5q0 -34 25.5 -52t66.5 -18q71 0 99.5 40.5t28.5 122.5z" />
    <glyph glyph-name="ccedilla" unicode="&#xe7;" horiz-adv-x="584" 
d="M432 168h120q-24 -83 -87 -133.5t-160 -50.5q-123 0 -195.5 78t-72.5 201q0 121 74.5 200.5t195.5 79.5q99 0 163 -53t83 -139h-127q-34 90 -121 90q-65 0 -104 -49t-39 -127q0 -82 39.5 -131t108.5 -49q89 0 122 83zM162 -163l93 114h123l-76 -114h-140z" />
    <glyph glyph-name="egrave" unicode="&#xe8;" horiz-adv-x="594" 
d="M561 232l-402 1q6 -66 47 -107t104 -41q83 0 120 65h123q-25 -75 -89.5 -120.5t-156.5 -45.5q-122 0 -196 78t-74 202q0 121 74.5 200t193.5 79q121 0 189 -79t68 -199v-15.5t-0.5 -12t-0.5 -5.5zM163 320h277q-6 56 -42.5 92t-93.5 36q-58 0 -95.5 -33t-45.5 -95z
M268 596l-139 119h157l114 -119h-132z" />
    <glyph glyph-name="eacute" unicode="&#xe9;" horiz-adv-x="594" 
d="M561 232l-402 1q6 -66 47 -107t104 -41q83 0 120 65h123q-25 -75 -89.5 -120.5t-156.5 -45.5q-122 0 -196 78t-74 202q0 121 74.5 200t193.5 79q121 0 189 -79t68 -199v-15.5t-0.5 -12t-0.5 -5.5zM163 320h277q-6 56 -42.5 92t-93.5 36q-58 0 -95.5 -33t-45.5 -95z
M476 715l-139 -119h-132l114 119h157z" />
    <glyph glyph-name="ecircumflex" unicode="&#xea;" horiz-adv-x="594" 
d="M561 232l-402 1q6 -66 47 -107t104 -41q83 0 120 65h123q-25 -75 -89.5 -120.5t-156.5 -45.5q-122 0 -196 78t-74 202q0 121 74.5 200t193.5 79q121 0 189 -79t68 -199v-15.5t-0.5 -12t-0.5 -5.5zM163 320h277q-6 56 -42.5 92t-93.5 36q-58 0 -95.5 -33t-45.5 -95z
M237 715h135q19 -22 55.5 -61.5t52.5 -57.5h-119l-55 62l-56 -62h-119q22 23 60 67t46 52z" />
    <glyph glyph-name="edieresis" unicode="&#xeb;" horiz-adv-x="594" 
d="M561 232l-402 1q6 -66 47 -107t104 -41q83 0 120 65h123q-25 -75 -89.5 -120.5t-156.5 -45.5q-122 0 -196 78t-74 202q0 121 74.5 200t193.5 79q121 0 189 -79t68 -199v-15.5t-0.5 -12t-0.5 -5.5zM163 320h277q-6 56 -42.5 92t-93.5 36q-58 0 -95.5 -33t-45.5 -95z
M153 603v110h112v-110h-112zM340 603v110h111v-110h-111z" />
    <glyph glyph-name="igrave" unicode="&#xec;" horiz-adv-x="263" 
d="M70 0v525h123v-525h-123zM98 596l-139 119h157l114 -119h-132z" />
    <glyph glyph-name="iacute" unicode="&#xed;" horiz-adv-x="263" 
d="M70 0v525h123v-525h-123zM319 715l-139 -119h-132l114 119h157z" />
    <glyph glyph-name="icircumflex" unicode="&#xee;" horiz-adv-x="263" 
d="M70 0v525h123v-525h-123zM72 715h135q19 -22 55.5 -61.5t52.5 -57.5h-119l-55 62l-56 -62h-119q22 23 60 67t46 52z" />
    <glyph glyph-name="idieresis" unicode="&#xef;" horiz-adv-x="263" 
d="M70 0v525h123v-525h-123zM-10 603v110h112v-110h-112zM177 603v110h111v-110h-111z" />
    <glyph glyph-name="eth" unicode="&#xf0;" horiz-adv-x="629" 
d="M120 715h164l41 -21l95 40l46 -44l-82 -36q101 -82 152.5 -174t51.5 -210q0 -128 -73.5 -206.5t-203.5 -78.5q-124 0 -198.5 75t-74.5 200q0 126 73.5 201.5t180.5 75.5q69 0 101 -22l3 3q-31 48 -103 95l-98 -45l-56 43l97 42q-57 34 -116 62zM311 88q69 0 108 47
t39 128q0 78 -39.5 127t-107.5 49t-107.5 -49t-39.5 -127q0 -81 39 -128t108 -47z" />
    <glyph glyph-name="ntilde" unicode="&#xf1;" horiz-adv-x="605" 
d="M186 526v-33q0 -22 -1 -33q0 -1 1 -1q55 83 164 83q90 0 140 -57t50 -159v-326h-122v271q0 83 -24 126t-83 43t-89 -41t-30 -106v-293h-122v446q0 53 -1 80h117zM314 613q-31 18 -46 18q-14 0 -20 -8.5t-9 -28.5h-75q0 49 27 86.5t67 37.5q26 0 72 -22q37 -18 47 -18
q13 0 19 8.5t9 28.5h72q0 -51 -24.5 -87.5t-64.5 -36.5q-28 0 -74 22z" />
    <glyph glyph-name="ograve" unicode="&#xf2;" horiz-adv-x="624" 
d="M311 543q124 0 199.5 -78t75.5 -203q0 -124 -75.5 -201t-201.5 -77q-125 0 -198.5 78t-73.5 200q0 125 75.5 203t198.5 78zM309 441q-68 0 -107.5 -49.5t-39.5 -128.5q0 -82 39 -129.5t108 -47.5t108.5 47.5t39.5 129.5q0 79 -40 128.5t-108 49.5zM281 596l-139 119h157
l114 -119h-132z" />
    <glyph glyph-name="oacute" unicode="&#xf3;" horiz-adv-x="624" 
d="M311 543q124 0 199.5 -78t75.5 -203q0 -124 -75.5 -201t-201.5 -77q-125 0 -198.5 78t-73.5 200q0 125 75.5 203t198.5 78zM309 441q-68 0 -107.5 -49.5t-39.5 -128.5q0 -82 39 -129.5t108 -47.5t108.5 47.5t39.5 129.5q0 79 -40 128.5t-108 49.5zM496 715l-139 -119
h-132l114 119h157z" />
    <glyph glyph-name="ocircumflex" unicode="&#xf4;" horiz-adv-x="624" 
d="M311 543q124 0 199.5 -78t75.5 -203q0 -124 -75.5 -201t-201.5 -77q-125 0 -198.5 78t-73.5 200q0 125 75.5 203t198.5 78zM309 441q-68 0 -107.5 -49.5t-39.5 -128.5q0 -82 39 -129.5t108 -47.5t108.5 47.5t39.5 129.5q0 79 -40 128.5t-108 49.5zM246 715h135
q19 -22 55.5 -61.5t52.5 -57.5h-119l-55 62l-56 -62h-119q22 23 60.5 67z" />
    <glyph glyph-name="otilde" unicode="&#xf5;" horiz-adv-x="624" 
d="M311 543q124 0 199.5 -78t75.5 -203q0 -124 -75.5 -201t-201.5 -77q-125 0 -198.5 78t-73.5 200q0 125 75.5 203t198.5 78zM309 441q-68 0 -107.5 -49.5t-39.5 -128.5q0 -82 39 -129.5t108 -47.5t108.5 47.5t39.5 129.5q0 79 -40 128.5t-108 49.5zM303 613q-31 18 -46 18
q-14 0 -20 -8.5t-9 -28.5h-75q0 49 27 86.5t67 37.5q26 0 72 -22q37 -18 47 -18q13 0 19 8.5t9 28.5h72q0 -51 -24.5 -87.5t-64.5 -36.5q-28 0 -74 22z" />
    <glyph glyph-name="odieresis" unicode="&#xf6;" horiz-adv-x="624" 
d="M311 543q124 0 199.5 -78t75.5 -203q0 -124 -75.5 -201t-201.5 -77q-125 0 -198.5 78t-73.5 200q0 125 75.5 203t198.5 78zM309 441q-68 0 -107.5 -49.5t-39.5 -128.5q0 -82 39 -129.5t108 -47.5t108.5 47.5t39.5 129.5q0 79 -40 128.5t-108 49.5zM159 603v110h112v-110
h-112zM346 603v110h111v-110h-111z" />
    <glyph glyph-name="divide" unicode="&#xf7;" 
d="M72 268v107h442v-107h-442zM233 430v120h117v-120h-117zM233 92v120h117v-120h-117z" />
    <glyph glyph-name="oslash" unicode="&#xf8;" horiz-adv-x="624" 
d="M310 -16q-46 0 -92 13l-39 -68l-87 47l38 67q-93 79 -93 219q0 124 75.5 202t199.5 78q47 0 94 -14l38 66l88 -46l-39 -68q94 -80 94 -218q0 -122 -75.5 -200t-201.5 -78zM163 263q0 -69 28 -113l161 283q-20 6 -42 6q-68 0 -107.5 -49t-39.5 -127zM310 88q69 0 108 47
t39 128q0 63 -26 107l-159 -278q15 -4 38 -4z" />
    <glyph glyph-name="ugrave" unicode="&#xf9;" horiz-adv-x="603" 
d="M418 0v37v38q-50 -89 -163 -89q-190 0 -190 229v310h122v-280q0 -76 24.5 -117t83.5 -41q116 0 116 163v275h122v-446q0 -54 1 -79h-116zM272 596l-139 119h157l114 -119h-132z" />
    <glyph glyph-name="uacute" unicode="&#xfa;" horiz-adv-x="603" 
d="M418 0v37v38q-50 -89 -163 -89q-190 0 -190 229v310h122v-280q0 -76 24.5 -117t83.5 -41q116 0 116 163v275h122v-446q0 -54 1 -79h-116zM483 715l-139 -119h-132l114 119h157z" />
    <glyph glyph-name="ucircumflex" unicode="&#xfb;" horiz-adv-x="603" 
d="M418 0v37v38q-50 -89 -163 -89q-190 0 -190 229v310h122v-280q0 -76 24.5 -117t83.5 -41q116 0 116 163v275h122v-446q0 -54 1 -79h-116zM236 715h135q19 -22 55.5 -61.5t52.5 -57.5h-119l-55 62l-56 -62h-119q22 23 60 67t46 52z" />
    <glyph glyph-name="udieresis" unicode="&#xfc;" horiz-adv-x="603" 
d="M418 0v37v38q-50 -89 -163 -89q-190 0 -190 229v310h122v-280q0 -76 24.5 -117t83.5 -41q116 0 116 163v275h122v-446q0 -54 1 -79h-116zM159 603v110h112v-110h-112zM346 603v110h111v-110h-111z" />
    <glyph glyph-name="yacute" unicode="&#xfd;" horiz-adv-x="539" 
d="M250 -180h-124l82 194q-19 49 -198 511h134q30 -86 70 -205.5t58 -169.5q19 51 67.5 195t60.5 180h131q-213 -540 -281 -705zM454 715l-139 -119h-132l114 119h157z" />
    <glyph glyph-name="thorn" unicode="&#xfe;" horiz-adv-x="648" 
d="M70 715h123v-132q0 -83 -1 -118q58 75 175 75q108 0 175.5 -76.5t67.5 -199.5q0 -120 -67 -198t-179 -78q-59 0 -103.5 23.5t-68.5 59.5q1 -36 1 -102v-149h-123v895zM338 90q67 0 106.5 50t39.5 126t-39 124.5t-107 48.5q-70 0 -110.5 -49.5t-40.5 -127.5
q0 -75 42.5 -123.5t108.5 -48.5z" />
    <glyph glyph-name="ydieresis" unicode="&#xff;" horiz-adv-x="539" 
d="M250 -180h-124l82 194q-19 49 -198 511h134q30 -86 70 -205.5t58 -169.5q19 51 67.5 195t60.5 180h131q-213 -540 -281 -705zM127 603v110h112v-110h-112zM314 603v110h111v-110h-111z" />
    <glyph glyph-name="Amacron" unicode="&#x100;" horiz-adv-x="713" 
d="M124 0h-130q24 56 107.5 260.5t187.5 454.5h138l290 -715h-132q-11 27 -81 206h-300zM356 600h-2q-14 -35 -43.5 -114.5t-46.5 -121.5l-18 -49h216q-4 12 -7 18l-12 31l-35 92q-33 89 -52 144zM220 773v85h273v-85h-273z" />
    <glyph glyph-name="amacron" unicode="&#x101;" horiz-adv-x="563" 
d="M173 361h-116q4 78 64.5 129.5t160.5 51.5q104 0 160.5 -52.5t56.5 -179.5v-147q0 -105 12 -163h-112q-6 30 -6 70q-24 -35 -69 -57.5t-105 -22.5q-84 0 -135.5 41.5t-51.5 114.5q0 134 228 167q52 8 121 14q-2 65 -26 92.5t-76 27.5q-94 0 -106 -86zM382 220q0 11 1 22
l-27 -3q-103 -10 -148.5 -30t-45.5 -60q0 -35 24 -53.5t67 -18.5q65 0 97 37.5t32 105.5zM147 618v85h273v-85h-273z" />
    <glyph glyph-name="Abreve" unicode="&#x102;" horiz-adv-x="713" 
d="M124 0h-130q24 56 107.5 260.5t187.5 454.5h138l290 -715h-132q-11 27 -81 206h-300zM356 600h-2q-14 -35 -43.5 -114.5t-46.5 -121.5l-18 -49h216q-4 12 -7 18l-12 31l-35 92q-33 89 -52 144zM359 751q-62 0 -101 33.5t-47 91.5h82q14 -49 66 -49q46 0 66 49h81
q-8 -58 -46.5 -91.5t-100.5 -33.5z" />
    <glyph glyph-name="abreve" unicode="&#x103;" horiz-adv-x="563" 
d="M173 361h-116q4 78 64.5 129.5t160.5 51.5q104 0 160.5 -52.5t56.5 -179.5v-147q0 -105 12 -163h-112q-6 30 -6 70q-24 -35 -69 -57.5t-105 -22.5q-84 0 -135.5 41.5t-51.5 114.5q0 134 228 167q52 8 121 14q-2 65 -26 92.5t-76 27.5q-94 0 -106 -86zM382 220q0 11 1 22
l-27 -3q-103 -10 -148.5 -30t-45.5 -60q0 -35 24 -53.5t67 -18.5q65 0 97 37.5t32 105.5zM280 584q-63 0 -101.5 34.5t-46.5 96.5h82q14 -49 66 -49q46 0 66 49h81q-8 -63 -46 -97t-101 -34z" />
    <glyph glyph-name="Aogonek" unicode="&#x104;" horiz-adv-x="713" 
d="M124 0h-130q24 56 107.5 260.5t187.5 454.5h138l290 -715h-132q-11 27 -81 206h-300zM356 600h-2q-14 -35 -43.5 -114.5t-46.5 -121.5l-18 -49h216q-4 12 -7 18l-12 31l-35 92q-33 89 -52 144zM668 -49l93 -114h-140l-76 114h123z" />
    <glyph glyph-name="aogonek" unicode="&#x105;" horiz-adv-x="563" 
d="M173 361h-116q4 78 64.5 129.5t160.5 51.5q104 0 160.5 -52.5t56.5 -179.5v-147q0 -105 12 -163h-112q-6 30 -6 70q-24 -35 -69 -57.5t-105 -22.5q-84 0 -135.5 41.5t-51.5 114.5q0 134 228 167q52 8 121 14q-2 65 -26 92.5t-76 27.5q-94 0 -106 -86zM382 220q0 11 1 22
l-27 -3q-103 -10 -148.5 -30t-45.5 -60q0 -35 24 -53.5t67 -18.5q65 0 97 37.5t32 105.5zM489 -49l93 -114h-140l-76 114h123z" />
    <glyph glyph-name="Cacute" unicode="&#x106;" horiz-adv-x="751" 
d="M585 207h134q-32 -95 -117 -158t-206 -63q-157 0 -255.5 105t-98.5 266t98 266.5t258 105.5q125 0 210 -62.5t114 -166.5h-139q-53 120 -186 120q-104 0 -164 -74.5t-60 -188.5t62 -188t166 -74q120 0 184 112zM574 876l-131 -115h-132l106 115h157z" />
    <glyph glyph-name="cacute" unicode="&#x107;" horiz-adv-x="584" 
d="M432 168h120q-24 -83 -87 -133.5t-160 -50.5q-123 0 -195.5 78t-72.5 201q0 121 74.5 200.5t195.5 79.5q99 0 163 -53t83 -139h-127q-34 90 -121 90q-65 0 -104 -49t-39 -127q0 -82 39.5 -131t108.5 -49q89 0 122 83zM477 715l-139 -119h-132l114 119h157z" />
    <glyph glyph-name="Ccircumflex" unicode="&#x108;" horiz-adv-x="751" 
d="M585 207h134q-32 -95 -117 -158t-206 -63q-157 0 -255.5 105t-98.5 266t98 266.5t258 105.5q125 0 210 -62.5t114 -166.5h-139q-53 120 -186 120q-104 0 -164 -74.5t-60 -188.5t62 -188t166 -74q120 0 184 112zM331 875h135q19 -20 54.5 -57t53.5 -57h-119l-55 58
l-56 -58h-119q68 72 106 114z" />
    <glyph glyph-name="ccircumflex" unicode="&#x109;" horiz-adv-x="584" 
d="M432 168h120q-24 -83 -87 -133.5t-160 -50.5q-123 0 -195.5 78t-72.5 201q0 121 74.5 200.5t195.5 79.5q99 0 163 -53t83 -139h-127q-34 90 -121 90q-65 0 -104 -49t-39 -127q0 -82 39.5 -131t108.5 -49q89 0 122 83zM240 715h135q19 -22 55.5 -61.5t52.5 -57.5h-119
l-55 62l-56 -62h-119q22 23 60.5 67z" />
    <glyph glyph-name="Cdotaccent" unicode="&#x10a;" horiz-adv-x="751" 
d="M585 207h134q-32 -95 -117 -158t-206 -63q-157 0 -255.5 105t-98.5 266t98 266.5t258 105.5q125 0 210 -62.5t114 -166.5h-139q-53 120 -186 120q-104 0 -164 -74.5t-60 -188.5t62 -188t166 -74q120 0 184 112zM344 763v110h112v-110h-112z" />
    <glyph glyph-name="cdotaccent" unicode="&#x10b;" horiz-adv-x="584" 
d="M432 168h120q-24 -83 -87 -133.5t-160 -50.5q-123 0 -195.5 78t-72.5 201q0 121 74.5 200.5t195.5 79.5q99 0 163 -53t83 -139h-127q-34 90 -121 90q-65 0 -104 -49t-39 -127q0 -82 39.5 -131t108.5 -49q89 0 122 83zM253 603v110h112v-110h-112z" />
    <glyph glyph-name="Ccaron" unicode="&#x10c;" horiz-adv-x="751" 
d="M585 207h134q-32 -95 -117 -158t-206 -63q-157 0 -255.5 105t-98.5 266t98 266.5t258 105.5q125 0 210 -62.5t114 -166.5h-139q-53 120 -186 120q-104 0 -164 -74.5t-60 -188.5t62 -188t166 -74q120 0 184 112zM468 761h-135q-38 42 -106 114h119l56 -58l55 58h119
q-18 -20 -54 -57t-54 -57z" />
    <glyph glyph-name="ccaron" unicode="&#x10d;" horiz-adv-x="584" 
d="M432 168h120q-24 -83 -87 -133.5t-160 -50.5q-123 0 -195.5 78t-72.5 201q0 121 74.5 200.5t195.5 79.5q99 0 163 -53t83 -139h-127q-34 90 -121 90q-65 0 -104 -49t-39 -127q0 -82 39.5 -131t108.5 -49q89 0 122 83zM378 596h-135l-45.5 52t-60.5 67h119l56 -62l55 62
h119q-16 -18 -52.5 -57.5t-55.5 -61.5z" />
    <glyph glyph-name="Dcaron" unicode="&#x10e;" horiz-adv-x="727" 
d="M85 0v715h156q64 0 106 -2.5t96.5 -15.5t92.5 -38q69 -44 108.5 -124.5t39.5 -178.5q0 -88 -33 -161t-92 -121q-58 -47 -127 -60.5t-184 -13.5h-163zM212 602v-492h70q135 0 203 56.5t68 189.5q0 121 -68 184t-190 63q-56 0 -83 -1zM406 761h-135q-38 42 -106 114h119
l56 -58l55 58h119q-19 -20 -54.5 -57t-53.5 -57z" />
    <glyph glyph-name="dcaron" unicode="&#x10f;" horiz-adv-x="744" 
d="M576 0h-115v74q-57 -86 -181 -86q-108 0 -175 76.5t-67 199.5q0 121 67 199.5t178 78.5q58 0 103 -24t69 -60q-1 37 -1 104v153h122v-715zM309 441q-67 0 -106.5 -51t-39.5 -128t39 -126t106 -49q70 0 111 50t41 129q0 76 -42.5 125.5t-108.5 49.5zM821 715l-89 -255
h-105l72 255h122z" />
    <glyph glyph-name="Dcroat" unicode="&#x110;" horiz-adv-x="732" 
d="M24 314v98h66v303h155q64 0 104.5 -2.5t95.5 -15t94 -37.5q69 -43 109.5 -124.5t40.5 -178.5q0 -86 -33 -160t-91 -122q-58 -47 -128 -61t-187 -14h-160v314h-66zM556 357q0 121 -67.5 183t-187.5 62h-83v-190h136v-98h-136v-202h68q135 0 202.5 56.5t67.5 188.5z" />
    <glyph glyph-name="dcroat" unicode="&#x111;" horiz-adv-x="648" 
d="M578 715v-54h56v-98h-56v-563h-116v73q-56 -85 -181 -85q-108 0 -175.5 76.5t-67.5 199.5q0 120 67 198t179 78q59 0 103.5 -23.5t68.5 -59.5q-1 36 -1 102v4h-70v98h70v54h123zM310 438q-67 0 -106.5 -50t-39.5 -126t39 -124.5t107 -48.5q70 0 110.5 49.5t40.5 127.5
q0 75 -42.5 123.5t-108.5 48.5z" />
    <glyph glyph-name="Emacron" unicode="&#x112;" horiz-adv-x="578" 
d="M85 0v715h439v-113h-313v-182h289v-112h-289v-197h320v-111h-446zM174 773v85h273v-85h-273z" />
    <glyph glyph-name="emacron" unicode="&#x113;" horiz-adv-x="594" 
d="M561 232l-402 1q6 -66 47 -107t104 -41q83 0 120 65h123q-25 -75 -89.5 -120.5t-156.5 -45.5q-122 0 -196 78t-74 202q0 121 74.5 200t193.5 79q121 0 189 -79t68 -199v-15.5t-0.5 -12t-0.5 -5.5zM163 320h277q-6 56 -42.5 92t-93.5 36q-58 0 -95.5 -33t-45.5 -95z
M169 618v85h273v-85h-273z" />
    <glyph glyph-name="Ebreve" unicode="&#x114;" horiz-adv-x="578" 
d="M85 0v715h439v-113h-313v-182h289v-112h-289v-197h320v-111h-446zM314 751q-62 0 -101 33.5t-47 91.5h82q14 -49 66 -49q46 0 66 49h81q-8 -58 -46.5 -91.5t-100.5 -33.5z" />
    <glyph glyph-name="ebreve" unicode="&#x115;" horiz-adv-x="594" 
d="M561 232l-402 1q6 -66 47 -107t104 -41q83 0 120 65h123q-25 -75 -89.5 -120.5t-156.5 -45.5q-122 0 -196 78t-74 202q0 121 74.5 200t193.5 79q121 0 189 -79t68 -199v-15.5t-0.5 -12t-0.5 -5.5zM163 320h277q-6 56 -42.5 92t-93.5 36q-58 0 -95.5 -33t-45.5 -95z
M307 584q-63 0 -101.5 34.5t-46.5 96.5h82q14 -49 66 -49q46 0 66 49h81q-8 -63 -46 -97t-101 -34z" />
    <glyph glyph-name="Edotaccent" unicode="&#x116;" horiz-adv-x="578" 
d="M85 0v715h439v-113h-313v-182h289v-112h-289v-197h320v-111h-446zM254 763v110h112v-110h-112z" />
    <glyph glyph-name="edotaccent" unicode="&#x117;" horiz-adv-x="594" 
d="M561 232l-402 1q6 -66 47 -107t104 -41q83 0 120 65h123q-25 -75 -89.5 -120.5t-156.5 -45.5q-122 0 -196 78t-74 202q0 121 74.5 200t193.5 79q121 0 189 -79t68 -199v-15.5t-0.5 -12t-0.5 -5.5zM163 320h277q-6 56 -42.5 92t-93.5 36q-58 0 -95.5 -33t-45.5 -95z
M245 603v110h112v-110h-112z" />
    <glyph glyph-name="Eogonek" unicode="&#x118;" horiz-adv-x="578" 
d="M85 0v715h439v-113h-313v-182h289v-112h-289v-197h320v-111h-446zM364 -49l93 -114h-140l-76 114h123z" />
    <glyph glyph-name="eogonek" unicode="&#x119;" horiz-adv-x="594" 
d="M561 232l-402 1q6 -66 47 -107t104 -41q83 0 120 65h123q-25 -75 -89.5 -120.5t-156.5 -45.5q-122 0 -196 78t-74 202q0 121 74.5 200t193.5 79q121 0 189 -79t68 -199v-15.5t-0.5 -12t-0.5 -5.5zM163 320h277q-6 56 -42.5 92t-93.5 36q-58 0 -95.5 -33t-45.5 -95z
M326 -49l93 -114h-140l-76 114h123z" />
    <glyph glyph-name="Ecaron" unicode="&#x11a;" horiz-adv-x="578" 
d="M85 0v715h439v-113h-313v-182h289v-112h-289v-197h320v-111h-446zM382 761h-135q-38 42 -106 114h119l56 -58l55 58h119q-18 -20 -53.5 -57t-54.5 -57z" />
    <glyph glyph-name="ecaron" unicode="&#x11b;" horiz-adv-x="594" 
d="M561 232l-402 1q6 -66 47 -107t104 -41q83 0 120 65h123q-25 -75 -89.5 -120.5t-156.5 -45.5q-122 0 -196 78t-74 202q0 121 74.5 200t193.5 79q121 0 189 -79t68 -199v-15.5t-0.5 -12t-0.5 -5.5zM163 320h277q-6 56 -42.5 92t-93.5 36q-58 0 -95.5 -33t-45.5 -95z
M373 596h-135q-8 8 -46 52t-60 67h119l56 -62l55 62h119q-16 -18 -52.5 -57.5t-55.5 -61.5z" />
    <glyph glyph-name="Gcircumflex" unicode="&#x11c;" horiz-adv-x="792" 
d="M373 378h362v-378h-115v34v38q-79 -86 -229 -86q-151 0 -250 103.5t-99 267.5q0 162 101 267t264 105q122 0 209.5 -63.5t118.5 -163.5h-144q-52 118 -185 118q-109 0 -171 -73t-62 -188q0 -118 64 -192t173 -74q96 0 150 51.5t60 132.5h-247v101zM340 875h135
q18 -20 54 -57t54 -57h-119l-55 58l-56 -58h-119q68 72 106 114z" />
    <glyph glyph-name="gcircumflex" unicode="&#x11d;" horiz-adv-x="648" 
d="M579 525v-438q0 -130 -71.5 -204.5t-200.5 -74.5q-98 0 -163.5 46.5t-86.5 126.5h129q32 -72 121 -72q84 0 121.5 50t37.5 150h-2q-23 -37 -69 -61.5t-110 -24.5q-113 0 -179.5 71.5t-66.5 185.5q0 116 68.5 188.5t174.5 72.5q121 0 182 -86q-1 12 -1 35v35h116zM313 440
q-69 0 -109 -43.5t-40 -115.5q0 -71 39.5 -115t109.5 -44q66 0 108 43t42 119q0 70 -40.5 113t-109.5 43zM261 715h135q19 -22 55.5 -61.5t52.5 -57.5h-119l-55 62l-56 -62h-119q22 23 60 67t46 52z" />
    <glyph glyph-name="Gbreve" unicode="&#x11e;" horiz-adv-x="792" 
d="M373 378h362v-378h-115v34v38q-79 -86 -229 -86q-151 0 -250 103.5t-99 267.5q0 162 101 267t264 105q122 0 209.5 -63.5t118.5 -163.5h-144q-52 118 -185 118q-109 0 -171 -73t-62 -188q0 -118 64 -192t173 -74q96 0 150 51.5t60 132.5h-247v101zM408 751
q-62 0 -101 33.5t-47 91.5h82q14 -49 66 -49q46 0 66 49h81q-8 -58 -46.5 -91.5t-100.5 -33.5z" />
    <glyph glyph-name="gbreve" unicode="&#x11f;" horiz-adv-x="648" 
d="M579 525v-438q0 -130 -71.5 -204.5t-200.5 -74.5q-98 0 -163.5 46.5t-86.5 126.5h129q32 -72 121 -72q84 0 121.5 50t37.5 150h-2q-23 -37 -69 -61.5t-110 -24.5q-113 0 -179.5 71.5t-66.5 185.5q0 116 68.5 188.5t174.5 72.5q121 0 182 -86q-1 12 -1 35v35h116zM313 440
q-69 0 -109 -43.5t-40 -115.5q0 -71 39.5 -115t109.5 -44q66 0 108 43t42 119q0 70 -40.5 113t-109.5 43zM327 584q-63 0 -101.5 34.5t-46.5 96.5h82q14 -49 66 -49q46 0 66 49h81q-8 -63 -46 -97t-101 -34z" />
    <glyph glyph-name="Gdotaccent" unicode="&#x120;" horiz-adv-x="792" 
d="M373 378h362v-378h-115v34v38q-79 -86 -229 -86q-151 0 -250 103.5t-99 267.5q0 162 101 267t264 105q122 0 209.5 -63.5t118.5 -163.5h-144q-52 118 -185 118q-109 0 -171 -73t-62 -188q0 -118 64 -192t173 -74q96 0 150 51.5t60 132.5h-247v101zM353 763v110h112v-110
h-112z" />
    <glyph glyph-name="gdotaccent" unicode="&#x121;" horiz-adv-x="648" 
d="M579 525v-438q0 -130 -71.5 -204.5t-200.5 -74.5q-98 0 -163.5 46.5t-86.5 126.5h129q32 -72 121 -72q84 0 121.5 50t37.5 150h-2q-23 -37 -69 -61.5t-110 -24.5q-113 0 -179.5 71.5t-66.5 185.5q0 116 68.5 188.5t174.5 72.5q121 0 182 -86q-1 12 -1 35v35h116zM313 440
q-69 0 -109 -43.5t-40 -115.5q0 -71 39.5 -115t109.5 -44q66 0 108 43t42 119q0 70 -40.5 113t-109.5 43zM268 603v110h112v-110h-112z" />
    <glyph glyph-name="Gcommaaccent" unicode="&#x122;" horiz-adv-x="792" 
d="M373 378h362v-378h-115v34v38q-79 -86 -229 -86q-151 0 -250 103.5t-99 267.5q0 162 101 267t264 105q122 0 209.5 -63.5t118.5 -163.5h-144q-52 118 -185 118q-109 0 -171 -73t-62 -188q0 -118 64 -192t173 -74q96 0 150 51.5t60 132.5h-247v101zM485 -49l-83 -119h-116
l59 119h140z" />
    <glyph glyph-name="gcommaaccent" unicode="&#x123;" horiz-adv-x="648" 
d="M579 525v-438q0 -130 -71.5 -204.5t-200.5 -74.5q-98 0 -163.5 46.5t-86.5 126.5h129q32 -72 121 -72q84 0 121.5 50t37.5 150h-2q-23 -37 -69 -61.5t-110 -24.5q-113 0 -179.5 71.5t-66.5 185.5q0 116 68.5 188.5t174.5 72.5q121 0 182 -86q-1 12 -1 35v35h116zM313 440
q-69 0 -109 -43.5t-40 -115.5q0 -71 39.5 -115t109.5 -44q66 0 108 43t42 119q0 70 -40.5 113t-109.5 43zM430 715l-83 -119h-116l59 119h140z" />
    <glyph glyph-name="Hcircumflex" unicode="&#x124;" horiz-adv-x="729" 
d="M517 312h-305v-312h-127v715h127v-291h305v291h127v-715h-127v312zM294 875h135q19 -20 54 -57t54 -57h-119l-55 58l-56 -58h-119q68 72 106 114z" />
    <glyph glyph-name="hcircumflex" unicode="&#x125;" horiz-adv-x="604" 
d="M192 715v-145q0 -24 -2 -104q57 76 159 76q90 0 140 -57.5t50 -155.5v-329h-121v270q0 84 -24 127t-83 43q-60 0 -89.5 -40.5t-29.5 -109.5v-290h-122v715h122zM64 875h135q19 -20 54 -57t54 -57h-119l-55 58l-56 -58h-119q68 72 106 114z" />
    <glyph glyph-name="Hbar" unicode="&#x126;" horiz-adv-x="726" 
d="M85 0v715h128v-91h300v91h128v-715h-128v311h-300v-311h-128zM213 424h300v102h-300v-102z" />
    <glyph glyph-name="hbar" unicode="&#x127;" horiz-adv-x="605" 
d="M263 661v-98h-70q0 -14 -1.5 -52t-1.5 -49q56 77 160 77q90 0 140 -57t50 -157v-325h-123v264q0 83 -23.5 126.5t-82.5 43.5q-58 0 -88 -40.5t-30 -106.5v-287h-123v563h-56v98h56v54h123v-54h70z" />
    <glyph glyph-name="Itilde" unicode="&#x128;" horiz-adv-x="297" 
d="M85 0v715h127v-715h-127zM146 779q-31 18 -46 18q-14 0 -20 -7.5t-9 -26.5h-75q0 49 27 85t67 36q26 0 72 -22q37 -18 47 -18q14 0 19.5 7.5t8.5 26.5h72q0 -50 -24.5 -85.5t-64.5 -35.5q-28 0 -74 22z" />
    <glyph glyph-name="itilde" unicode="&#x129;" horiz-adv-x="263" 
d="M70 0v525h123v-525h-123zM126 613q-32 18 -46 18t-20 -8.5t-9 -28.5h-75q0 49 27 86.5t67 37.5q26 0 72 -22q37 -18 47 -18q13 0 19 8.5t9 28.5h72q0 -51 -24.5 -87.5t-64.5 -36.5q-28 0 -74 22z" />
    <glyph glyph-name="Imacron" unicode="&#x12a;" horiz-adv-x="297" 
d="M85 0v715h127v-715h-127zM14 773v85h273v-85h-273z" />
    <glyph glyph-name="imacron" unicode="&#x12b;" horiz-adv-x="263" 
d="M70 0v525h123v-525h-123zM-3 618v85h273v-85h-273z" />
    <glyph glyph-name="Ibreve" unicode="&#x12c;" horiz-adv-x="297" 
d="M85 0v715h127v-715h-127zM152 751q-62 0 -101 33.5t-47 91.5h82q14 -49 66 -49q46 0 66 49h81q-8 -58 -46.5 -91.5t-100.5 -33.5z" />
    <glyph glyph-name="ibreve" unicode="&#x12d;" horiz-adv-x="263" 
d="M70 0v525h123v-525h-123zM134 584q-63 0 -101.5 34.5t-46.5 96.5h82q14 -49 66 -49q46 0 66 49h81q-8 -63 -46 -97t-101 -34z" />
    <glyph glyph-name="Iogonek" unicode="&#x12e;" horiz-adv-x="297" 
d="M85 0v715h127v-715h-127zM194 -49l93 -114h-140l-76 114h123z" />
    <glyph glyph-name="iogonek" unicode="&#x12f;" horiz-adv-x="262" 
d="M70 525h122v-525h-122v525zM68 601v114h125v-114h-125zM167 -49l93 -114h-140l-76 114h123z" />
    <glyph glyph-name="Idotaccent" unicode="&#x130;" horiz-adv-x="297" 
d="M85 0v715h127v-715h-127zM95 763v110h112v-110h-112z" />
    <glyph glyph-name="dotlessi" unicode="&#x131;" horiz-adv-x="263" 
d="M70 0v525h123v-525h-123z" />
    <glyph glyph-name="IJ" unicode="&#x132;" horiz-adv-x="802" 
d="M85 0v715h127v-715h-127zM321 176h115q11 -81 76 -81q51 0 67.5 39t16.5 114v467h127v-503q0 -104 -48 -165t-154 -61q-197 0 -200 190z" />
    <glyph glyph-name="ij" unicode="&#x133;" horiz-adv-x="524" 
d="M70 525h122v-525h-122v525zM68 601v114h125v-114h-125zM332 525h122v-547q0 -102 -33 -138.5t-133 -36.5q-36 0 -53 4v90q18 -2 25 -2q37 0 54.5 15.5t17.5 53.5v561zM330 601v114h126v-114h-126z" />
    <glyph glyph-name="Jcircumflex" unicode="&#x134;" horiz-adv-x="505" 
d="M24 176h115q11 -81 76 -81q51 0 67.5 39t16.5 114v467h127v-503q0 -104 -48 -165t-154 -61q-197 0 -200 190zM301 875h135q18 -20 53.5 -57t54.5 -57h-119l-55 58l-56 -58h-119q68 72 106 114z" />
    <glyph glyph-name="jcircumflex" unicode="&#x135;" horiz-adv-x="263" 
d="M193 525v-548q0 -102 -32.5 -138t-134.5 -36q-37 0 -53 4v90q49 -6 73 8.5t24 56.5v563h123zM66 715h135q19 -22 55.5 -61.5t52.5 -57.5h-119l-55 62l-56 -62h-119q22 23 60.5 67z" />
    <glyph glyph-name="Kcommaaccent" unicode="&#x136;" horiz-adv-x="634" 
d="M85 0v715h127v-320l88 108q25 31 85.5 101.5t93.5 110.5h154l-289 -328q53 -68 153 -198t145 -189h-155q-32 42 -110 144.5t-90 118.5l-75 99v-362h-127zM404 -49l-83 -119h-116l59 119h140z" />
    <glyph glyph-name="kcommaaccent" unicode="&#x137;" horiz-adv-x="552" 
d="M554 0h-159l-125 158l-78 99v-257h-122v715h122v-418q66 80 73 88q15 17 57.5 69t58.5 71h147q-26 -28 -75 -83t-68 -75l-74 -82q10 -14 52.5 -63.5t100 -116t90.5 -105.5zM372 -49l-83 -119h-116l59 119h140z" />
    <glyph glyph-name="kgreenlandic" unicode="&#x138;" horiz-adv-x="554" 
d="M556 0h-160l-125 158l-78 99v-257h-123v525h123v-228q66 80 73 88q15 17 57.5 69t58.5 71h148q-26 -28 -75 -83t-68 -75q-39 -42 -73 -82q10 -14 52 -63t100 -116.5t90 -105.5z" />
    <glyph glyph-name="Lacute" unicode="&#x139;" horiz-adv-x="526" 
d="M85 0v715h127v-604h287v-111h-414zM428 876l-131 -115h-132l106 115h157z" />
    <glyph glyph-name="lacute" unicode="&#x13a;" horiz-adv-x="268" 
d="M73 0v715h122v-715h-122zM311 876l-131 -115h-132l106 115h157z" />
    <glyph glyph-name="Lcommaaccent" unicode="&#x13b;" horiz-adv-x="526" 
d="M85 0v715h127v-604h287v-111h-414zM359 -49l-83 -119h-116l59 119h140z" />
    <glyph glyph-name="lcommaaccent" unicode="&#x13c;" horiz-adv-x="268" 
d="M73 0v715h122v-715h-122zM227 -49l-83 -119h-116l59 119h140z" />
    <glyph glyph-name="Lcaron" unicode="&#x13d;" horiz-adv-x="526" 
d="M85 0v715h127v-604h287v-111h-414zM465 715l-89 -255h-105l72 255h122z" />
    <glyph glyph-name="lcaron" unicode="&#x13e;" horiz-adv-x="363" 
d="M73 0v715h122v-715h-122zM440 715l-89 -255h-105l72 255h122z" />
    <glyph glyph-name="Ldot" unicode="&#x13f;" horiz-adv-x="526" 
d="M85 0v715h127v-604h287v-111h-414zM287 253v134h129v-134h-129z" />
    <glyph glyph-name="ldot" unicode="&#x140;" horiz-adv-x="395" 
d="M73 0v715h122v-715h-122zM266 253v134h129v-134h-129z" />
    <glyph glyph-name="Lslash" unicode="&#x141;" horiz-adv-x="536" 
d="M5 219v104l89 58v334h128v-251l128 83v-104l-128 -83v-247h281v-113h-409v277z" />
    <glyph glyph-name="lslash" unicode="&#x142;" horiz-adv-x="298" 
d="M85 0v296l-77 -50v104l77 50v315h123v-235l85 55v-104l-85 -55v-376h-123z" />
    <glyph glyph-name="Nacute" unicode="&#x143;" horiz-adv-x="763" 
d="M85 0v715h156l238 -410q13 -23 41.5 -71t36.5 -62l1 1q0 17 -0.5 84t-0.5 105v353h121v-715h-151l-230 392q-24 42 -54 92t-34 58h-1q0 -17 0.5 -107t0.5 -125v-310h-124zM548 876l-131 -115h-132l106 115h157z" />
    <glyph glyph-name="nacute" unicode="&#x144;" horiz-adv-x="605" 
d="M186 526v-33q0 -22 -1 -33q0 -1 1 -1q55 83 164 83q90 0 140 -57t50 -159v-326h-122v271q0 83 -24 126t-83 43t-89 -41t-30 -106v-293h-122v446q0 53 -1 80h117zM482 715l-139 -119h-132l114 119h157z" />
    <glyph glyph-name="Ncommaaccent" unicode="&#x145;" horiz-adv-x="763" 
d="M85 0v715h156l238 -410q13 -23 41.5 -71t36.5 -62l1 1q0 17 -0.5 84t-0.5 105v353h121v-715h-151l-230 392q-24 42 -54 92t-34 58h-1q0 -17 0.5 -107t0.5 -125v-310h-124zM461 -49l-83 -119h-116l59 119h140z" />
    <glyph glyph-name="ncommaaccent" unicode="&#x146;" horiz-adv-x="605" 
d="M186 526v-33q0 -22 -1 -33q0 -1 1 -1q55 83 164 83q90 0 140 -57t50 -159v-326h-122v271q0 83 -24 126t-83 43t-89 -41t-30 -106v-293h-122v446q0 53 -1 80h117zM382 -49l-83 -119h-116l59 119h140z" />
    <glyph glyph-name="Ncaron" unicode="&#x147;" horiz-adv-x="763" 
d="M85 0v715h156l238 -410q13 -23 41.5 -71t36.5 -62l1 1q0 17 -0.5 84t-0.5 105v353h121v-715h-151l-230 392q-24 42 -54 92t-34 58h-1q0 -17 0.5 -107t0.5 -125v-310h-124zM449 761h-135q-38 42 -106 114h119l56 -58l55 58h119q-18 -20 -54 -57t-54 -57z" />
    <glyph glyph-name="ncaron" unicode="&#x148;" horiz-adv-x="605" 
d="M186 526v-33q0 -22 -1 -33q0 -1 1 -1q55 83 164 83q90 0 140 -57t50 -159v-326h-122v271q0 83 -24 126t-83 43t-89 -41t-30 -106v-293h-122v446q0 53 -1 80h117zM370 596h-135q-8 8 -46 52t-60 67h119l56 -62l55 62h119q-16 -18 -52.5 -57.5t-55.5 -61.5z" />
    <glyph glyph-name="napostrophe" unicode="&#x149;" horiz-adv-x="691" 
d="M272 526v-33q0 -22 -1 -33q0 -1 1 -1q55 83 164 83q90 0 140 -57t50 -159v-326h-122v271q0 83 -24 126t-83 43t-89 -41t-30 -106v-293h-122v446q0 53 -1 80h117zM189 715l-89 -255h-105l72 255h122z" />
    <glyph glyph-name="Eng" unicode="&#x14a;" horiz-adv-x="762" 
d="M85 0v715h156l238 -410q14 -25 41.5 -71.5t33.5 -56.5l1 1q0 17 -0.5 81.5t-0.5 102.5v353h123v-682q0 -102 -48.5 -163.5t-157.5 -61.5q-93 0 -143 48.5t-52 143.5h120q5 -86 76 -86q38 0 58 23t21 63h-26l-229 392q-24 42 -53 90t-33 56h-1q0 -17 0.5 -105t0.5 -123
v-310h-125z" />
    <glyph glyph-name="eng" unicode="&#x14b;" horiz-adv-x="605" 
d="M417 -38v302q0 83 -23.5 126.5t-82.5 43.5q-58 0 -88 -40.5t-30 -106.5v-287h-123v445q0 53 -1 80h118v-68q56 82 163 82q90 0 140 -57t50 -157v-348q0 -102 -32.5 -138t-134.5 -36q-37 0 -53 4v90q49 -6 73 8.5t24 56.5z" />
    <glyph glyph-name="Omacron" unicode="&#x14c;" horiz-adv-x="804" 
d="M401 729q159 0 260 -104.5t101 -267.5t-99.5 -267t-260.5 -104q-160 0 -260 104t-100 267q0 162 100.5 267t258.5 105zM400 620q-105 0 -166 -73t-61 -189q0 -115 62 -189t166 -74t166.5 74t62.5 189q0 117 -62 189.5t-168 72.5zM264 773v85h273v-85h-273z" />
    <glyph glyph-name="omacron" unicode="&#x14d;" horiz-adv-x="624" 
d="M311 543q124 0 199.5 -78t75.5 -203q0 -124 -75.5 -201t-201.5 -77q-125 0 -198.5 78t-73.5 200q0 125 75.5 203t198.5 78zM309 441q-68 0 -107.5 -49.5t-39.5 -128.5q0 -82 39 -129.5t108 -47.5t108.5 47.5t39.5 129.5q0 79 -40 128.5t-108 49.5zM176 618v85h273v-85
h-273z" />
    <glyph glyph-name="Obreve" unicode="&#x14e;" horiz-adv-x="804" 
d="M401 729q159 0 260 -104.5t101 -267.5t-99.5 -267t-260.5 -104q-160 0 -260 104t-100 267q0 162 100.5 267t258.5 105zM400 620q-105 0 -166 -73t-61 -189q0 -115 62 -189t166 -74t166.5 74t62.5 189q0 117 -62 189.5t-168 72.5zM401 751q-62 0 -101 33.5t-47 91.5h82
q14 -49 66 -49q46 0 66 49h81q-8 -58 -46.5 -91.5t-100.5 -33.5z" />
    <glyph glyph-name="obreve" unicode="&#x14f;" horiz-adv-x="624" 
d="M311 543q124 0 199.5 -78t75.5 -203q0 -124 -75.5 -201t-201.5 -77q-125 0 -198.5 78t-73.5 200q0 125 75.5 203t198.5 78zM309 441q-68 0 -107.5 -49.5t-39.5 -128.5q0 -82 39 -129.5t108 -47.5t108.5 47.5t39.5 129.5q0 79 -40 128.5t-108 49.5zM314 584
q-63 0 -101.5 34.5t-46.5 96.5h82q14 -49 66 -49q46 0 66 49h81q-8 -63 -46 -97t-101 -34z" />
    <glyph glyph-name="Ohungarumlaut" unicode="&#x150;" horiz-adv-x="804" 
d="M401 729q159 0 260 -104.5t101 -267.5t-99.5 -267t-260.5 -104q-160 0 -260 104t-100 267q0 162 100.5 267t258.5 105zM400 620q-105 0 -166 -73t-61 -189q0 -115 62 -189t166 -74t166.5 74t62.5 189q0 117 -62 189.5t-168 72.5zM480 876l-131 -115h-125l106 115h150z
M681 876l-131 -115h-125l106 115h150z" />
    <glyph glyph-name="ohungarumlaut" unicode="&#x151;" horiz-adv-x="624" 
d="M311 543q124 0 199.5 -78t75.5 -203q0 -124 -75.5 -201t-201.5 -77q-125 0 -198.5 78t-73.5 200q0 125 75.5 203t198.5 78zM309 441q-68 0 -107.5 -49.5t-39.5 -128.5q0 -82 39 -129.5t108 -47.5t108.5 47.5t39.5 129.5q0 79 -40 128.5t-108 49.5zM384 715l-141 -119
h-123l114 119h150zM586 715l-141 -119h-123l114 119h150z" />
    <glyph glyph-name="OE" unicode="&#x152;" horiz-adv-x="1108" 
d="M618 0v65q-89 -79 -226 -79q-151 0 -250.5 105t-99.5 265q0 161 99.5 266t248.5 105q138 0 228 -80v68h436v-112h-308v-183h284v-112h-284v-197h315v-111h-443zM174 357q0 -114 61.5 -188t165.5 -74t165 74t61 188q0 117 -60.5 189.5t-166.5 72.5q-104 0 -165 -74
t-61 -188z" />
    <glyph glyph-name="oe" unicode="&#x153;" horiz-adv-x="1001" 
d="M968 232l-402 1q6 -66 47 -107t104 -41q83 0 120 65h123q-25 -75 -89.5 -120.5t-156.5 -45.5q-125 0 -202 88q-75 -88 -205 -88q-124 0 -197 77.5t-73 200.5q0 125 75 203t197 78q124 0 203 -90q77 90 200 90q121 0 189 -79t68 -199q0 -8 -0.5 -15.5t-0.5 -12v-5.5z
M307 441q-67 0 -106 -49.5t-39 -128.5q0 -82 38.5 -129.5t106.5 -47.5q69 0 107.5 47.5t38.5 129.5q0 79 -39 128.5t-107 49.5zM570 320h277q-6 56 -42.5 92t-93.5 36q-58 0 -95.5 -33t-45.5 -95z" />
    <glyph glyph-name="Racute" unicode="&#x154;" horiz-adv-x="636" 
d="M85 0v715h237q127 0 188 -41q85 -56 85 -169q0 -89 -48 -140.5t-123 -70.5l179 -294h-145l-165 278h-81v-278h-127zM212 606v-220h104q152 0 152 111q0 109 -152 109h-104zM476 876l-131 -115h-132l106 115h157z" />
    <glyph glyph-name="racute" unicode="&#x155;" horiz-adv-x="358" 
d="M69 526h115v-36q0 -24 -1 -35q14 39 48 61t79 22q15 0 29 -2v-116q-12 4 -35 4q-67 0 -89.5 -43t-22.5 -133v-248h-122v431q0 63 -1 95zM363 715l-139 -119h-132l114 119h157z" />
    <glyph glyph-name="Rcommaaccent" unicode="&#x156;" horiz-adv-x="636" 
d="M85 0v715h237q127 0 188 -41q85 -56 85 -169q0 -89 -48 -140.5t-123 -70.5l179 -294h-145l-165 278h-81v-278h-127zM212 606v-220h104q152 0 152 111q0 109 -152 109h-104zM398 -49l-83 -119h-116l59 119h140z" />
    <glyph glyph-name="rcommaaccent" unicode="&#x157;" horiz-adv-x="358" 
d="M69 526h115v-36q0 -24 -1 -35q14 39 48 61t79 22q15 0 29 -2v-116q-12 4 -35 4q-67 0 -89.5 -43t-22.5 -133v-248h-122v431q0 63 -1 95zM219 -49l-83 -119h-116l59 119h140z" />
    <glyph glyph-name="Rcaron" unicode="&#x158;" horiz-adv-x="636" 
d="M85 0v715h237q127 0 188 -41q85 -56 85 -169q0 -89 -48 -140.5t-123 -70.5l179 -294h-145l-165 278h-81v-278h-127zM212 606v-220h104q152 0 152 111q0 109 -152 109h-104zM385 761h-135q-38 42 -106 114h119l56 -58l55 58h119q-19 -20 -54.5 -57t-53.5 -57z" />
    <glyph glyph-name="rcaron" unicode="&#x159;" horiz-adv-x="358" 
d="M69 526h115v-36q0 -24 -1 -35q14 39 48 61t79 22q15 0 29 -2v-116q-12 4 -35 4q-67 0 -89.5 -43t-22.5 -133v-248h-122v431q0 63 -1 95zM276 596h-135l-45.5 52t-60.5 67h119l56 -62l55 62h119q-16 -18 -52.5 -57.5t-55.5 -61.5z" />
    <glyph glyph-name="Sacute" unicode="&#x15a;" horiz-adv-x="609" 
d="M34 203h123q11 -52 50.5 -81.5t101.5 -29.5t95.5 29.5t33.5 78.5q0 45 -30 65t-101 39l-47 13q-100 28 -151.5 77.5t-51.5 131.5q0 89 70 147t178 58t173.5 -54.5t73.5 -146.5h-121q-24 91 -129 91q-53 0 -82.5 -24.5t-29.5 -63.5q0 -42 29 -62t97 -41l50 -15
q53 -17 86 -32t62 -38.5t42 -57t13 -79.5q0 -99 -73.5 -161t-190.5 -62q-115 0 -190 59.5t-81 158.5zM469 876l-131 -115h-132l106 115h157z" />
    <glyph glyph-name="sacute" unicode="&#x15b;" horiz-adv-x="501" 
d="M29 166h115q24 -84 114 -84q40 0 66.5 18t26.5 47q0 13 -6 22.5t-22 17t-26.5 11t-38.5 11.5l-58 16q-74 21 -113.5 54.5t-39.5 100.5q0 72 57 117t145 45q86 0 143.5 -44t63.5 -120h-108q-22 67 -102 67q-39 0 -60 -16.5t-21 -41.5q0 -24 18 -35.5t63 -24.5l58 -15
q86 -24 123.5 -57.5t37.5 -97.5q0 -77 -58.5 -125t-150.5 -48q-197 0 -227 182zM417 715l-139 -119h-132l114 119h157z" />
    <glyph glyph-name="Scircumflex" unicode="&#x15c;" horiz-adv-x="609" 
d="M34 203h123q11 -52 50.5 -81.5t101.5 -29.5t95.5 29.5t33.5 78.5q0 45 -30 65t-101 39l-47 13q-100 28 -151.5 77.5t-51.5 131.5q0 89 70 147t178 58t173.5 -54.5t73.5 -146.5h-121q-24 91 -129 91q-53 0 -82.5 -24.5t-29.5 -63.5q0 -42 29 -62t97 -41l50 -15
q53 -17 86 -32t62 -38.5t42 -57t13 -79.5q0 -99 -73.5 -161t-190.5 -62q-115 0 -190 59.5t-81 158.5zM242 875h135q19 -20 54 -57t54 -57h-119l-55 58l-56 -58h-119q68 72 106 114z" />
    <glyph glyph-name="scircumflex" unicode="&#x15d;" horiz-adv-x="501" 
d="M29 166h115q24 -84 114 -84q40 0 66.5 18t26.5 47q0 13 -6 22.5t-22 17t-26.5 11t-38.5 11.5l-58 16q-74 21 -113.5 54.5t-39.5 100.5q0 72 57 117t145 45q86 0 143.5 -44t63.5 -120h-108q-22 67 -102 67q-39 0 -60 -16.5t-21 -41.5q0 -24 18 -35.5t63 -24.5l58 -15
q86 -24 123.5 -57.5t37.5 -97.5q0 -77 -58.5 -125t-150.5 -48q-197 0 -227 182zM188 715h135q19 -22 55.5 -61.5t52.5 -57.5h-119l-55 62l-56 -62h-119q22 23 60 67t46 52z" />
    <glyph glyph-name="Scedilla" unicode="&#x15e;" horiz-adv-x="609" 
d="M34 203h123q11 -52 50.5 -81.5t101.5 -29.5t95.5 29.5t33.5 78.5q0 45 -30 65t-101 39l-47 13q-100 28 -151.5 77.5t-51.5 131.5q0 89 70 147t178 58t173.5 -54.5t73.5 -146.5h-121q-24 91 -129 91q-53 0 -82.5 -24.5t-29.5 -63.5q0 -42 29 -62t97 -41l50 -15
q53 -17 86 -32t62 -38.5t42 -57t13 -79.5q0 -99 -73.5 -161t-190.5 -62q-115 0 -190 59.5t-81 158.5zM167 -163l93 114h123l-76 -114h-140z" />
    <glyph glyph-name="scedilla" unicode="&#x15f;" horiz-adv-x="501" 
d="M29 166h115q24 -84 114 -84q40 0 66.5 18t26.5 47q0 13 -6 22.5t-22 17t-26.5 11t-38.5 11.5l-58 16q-74 21 -113.5 54.5t-39.5 100.5q0 72 57 117t145 45q86 0 143.5 -44t63.5 -120h-108q-22 67 -102 67q-39 0 -60 -16.5t-21 -41.5q0 -24 18 -35.5t63 -24.5l58 -15
q86 -24 123.5 -57.5t37.5 -97.5q0 -77 -58.5 -125t-150.5 -48q-197 0 -227 182zM106 -163l93 114h123l-76 -114h-140z" />
    <glyph glyph-name="Scaron" unicode="&#x160;" horiz-adv-x="609" 
d="M34 203h123q11 -52 50.5 -81.5t101.5 -29.5t95.5 29.5t33.5 78.5q0 45 -30 65t-101 39l-47 13q-100 28 -151.5 77.5t-51.5 131.5q0 89 70 147t178 58t173.5 -54.5t73.5 -146.5h-121q-24 91 -129 91q-53 0 -82.5 -24.5t-29.5 -63.5q0 -42 29 -62t97 -41l50 -15
q53 -17 86 -32t62 -38.5t42 -57t13 -79.5q0 -99 -73.5 -161t-190.5 -62q-115 0 -190 59.5t-81 158.5zM378 761h-135q-38 42 -106 114h119l56 -58l55 58h119q-18 -20 -54 -57t-54 -57z" />
    <glyph glyph-name="scaron" unicode="&#x161;" horiz-adv-x="501" 
d="M29 166h115q24 -84 114 -84q40 0 66.5 18t26.5 47q0 13 -6 22.5t-22 17t-26.5 11t-38.5 11.5l-58 16q-74 21 -113.5 54.5t-39.5 100.5q0 72 57 117t145 45q86 0 143.5 -44t63.5 -120h-108q-22 67 -102 67q-39 0 -60 -16.5t-21 -41.5q0 -24 18 -35.5t63 -24.5l58 -15
q86 -24 123.5 -57.5t37.5 -97.5q0 -77 -58.5 -125t-150.5 -48q-197 0 -227 182zM324 596h-135l-45.5 52t-60.5 67h119l56 -62l55 62h119q-16 -18 -52.5 -57.5t-55.5 -61.5z" />
    <glyph glyph-name="uni0162" unicode="&#x162;" horiz-adv-x="555" 
d="M357 -49l-83 -119h-116l59 119h140zM214 0v602h-179v113h485v-113h-179v-602h-127z" />
    <glyph glyph-name="uni0163" unicode="&#x163;" horiz-adv-x="341" 
d="M271 -49l-83 -119h-116l59 119h140zM217 667v-142h98v-91h-98v-287q0 -35 15.5 -50t47.5 -15q11 0 25 2v-90q-15 -4 -47 -4q-79 0 -121 31t-42 105v308h-79v91h79v142h122z" />
    <glyph glyph-name="Tcaron" unicode="&#x164;" horiz-adv-x="555" 
d="M214 0v602h-179v113h485v-113h-179v-602h-127zM344 761h-135q-38 42 -106 114h119l56 -58l55 58h119q-18 -20 -53.5 -57t-54.5 -57z" />
    <glyph glyph-name="tcaron" unicode="&#x165;" horiz-adv-x="431" 
d="M217 667v-142h98v-91h-98v-287q0 -35 15.5 -50t47.5 -15q11 0 25 2v-90q-15 -4 -47 -4q-79 0 -121 31t-42 105v308h-79v91h79v142h122zM526 715l-89 -255h-105l72 255h122z" />
    <glyph glyph-name="Tbar" unicode="&#x166;" horiz-adv-x="565" 
d="M77 314v98h141v189h-174v114h477v-114h-175v-189h141v-98h-141v-314h-128v314h-141z" />
    <glyph glyph-name="tbar" unicode="&#x167;" horiz-adv-x="347" 
d="M99 432h-78v93h78v142h123v-142h96v-93h-96v-73h95v-95h-95v-118q0 -36 16 -50.5t48 -14.5q12 0 22 2v-92q-21 -3 -39 -3q-83 0 -126.5 30.5t-43.5 104.5v141h-78v95h78v73z" />
    <glyph glyph-name="Utilde" unicode="&#x168;" horiz-adv-x="684" 
d="M342 -16q-68 0 -126.5 26t-90.5 71q-48 64 -48 195v439h127v-432q0 -85 18 -120q16 -31 48 -49.5t72 -18.5t72 18.5t48 49.5q18 35 18 120v432h127v-439q0 -131 -48 -195q-31 -45 -90 -71t-127 -26zM342 779q-31 18 -46 18q-14 0 -20 -7.5t-9 -26.5h-75q0 49 27 85t67 36
q26 0 72 -22q37 -18 47 -18q14 0 19.5 7.5t8.5 26.5h72q0 -50 -24.5 -85.5t-64.5 -35.5q-28 0 -74 22z" />
    <glyph glyph-name="utilde" unicode="&#x169;" horiz-adv-x="603" 
d="M418 0v37v38q-50 -89 -163 -89q-190 0 -190 229v310h122v-280q0 -76 24.5 -117t83.5 -41q116 0 116 163v275h122v-446q0 -54 1 -79h-116zM303 613q-31 18 -46 18q-14 0 -20 -8.5t-9 -28.5h-75q0 49 27 86.5t67 37.5q26 0 72 -22q37 -18 47 -18q13 0 19 8.5t9 28.5h72
q0 -51 -24.5 -87.5t-64.5 -36.5q-28 0 -74 22z" />
    <glyph glyph-name="Umacron" unicode="&#x16a;" horiz-adv-x="684" 
d="M342 -16q-68 0 -126.5 26t-90.5 71q-48 64 -48 195v439h127v-432q0 -85 18 -120q16 -31 48 -49.5t72 -18.5t72 18.5t48 49.5q18 35 18 120v432h127v-439q0 -131 -48 -195q-31 -45 -90 -71t-127 -26zM208 773v85h273v-85h-273z" />
    <glyph glyph-name="umacron" unicode="&#x16b;" horiz-adv-x="603" 
d="M418 0v37v38q-50 -89 -163 -89q-190 0 -190 229v310h122v-280q0 -76 24.5 -117t83.5 -41q116 0 116 163v275h122v-446q0 -54 1 -79h-116zM173 618v85h273v-85h-273z" />
    <glyph glyph-name="Ubreve" unicode="&#x16c;" horiz-adv-x="684" 
d="M342 -16q-68 0 -126.5 26t-90.5 71q-48 64 -48 195v439h127v-432q0 -85 18 -120q16 -31 48 -49.5t72 -18.5t72 18.5t48 49.5q18 35 18 120v432h127v-439q0 -131 -48 -195q-31 -45 -90 -71t-127 -26zM344 751q-62 0 -101 33.5t-47 91.5h82q14 -49 66 -49q46 0 66 49h81
q-8 -58 -46.5 -91.5t-100.5 -33.5z" />
    <glyph glyph-name="ubreve" unicode="&#x16d;" horiz-adv-x="603" 
d="M418 0v37v38q-50 -89 -163 -89q-190 0 -190 229v310h122v-280q0 -76 24.5 -117t83.5 -41q116 0 116 163v275h122v-446q0 -54 1 -79h-116zM313 584q-63 0 -101.5 34.5t-46.5 96.5h82q14 -49 66 -49q46 0 66 49h81q-8 -63 -46 -97t-101 -34z" />
    <glyph glyph-name="Uring" unicode="&#x16e;" horiz-adv-x="684" 
d="M342 -16q-68 0 -126.5 26t-90.5 71q-48 64 -48 195v439h127v-432q0 -85 18 -120q16 -31 48 -49.5t72 -18.5t72 18.5t48 49.5q18 35 18 120v432h127v-439q0 -131 -48 -195q-31 -45 -90 -71t-127 -26zM345 738q-41 0 -69 28.5t-28 70.5q0 40 29 68.5t69 28.5
q41 0 69.5 -28.5t28.5 -68.5q0 -42 -28.5 -70.5t-70.5 -28.5zM302 837q0 -19 12.5 -32t30.5 -13q19 0 31.5 12.5t12.5 32.5q0 17 -12.5 30t-31.5 13q-18 0 -30.5 -13t-12.5 -30z" />
    <glyph glyph-name="uring" unicode="&#x16f;" horiz-adv-x="603" 
d="M418 0v37v38q-50 -89 -163 -89q-190 0 -190 229v310h122v-280q0 -76 24.5 -117t83.5 -41q116 0 116 163v275h122v-446q0 -54 1 -79h-116zM310 578q-41 0 -69 28.5t-28 70.5q0 40 29 68.5t69 28.5q41 0 69.5 -28.5t28.5 -68.5q0 -42 -28.5 -70.5t-70.5 -28.5zM267 677
q0 -19 12.5 -32t30.5 -13q19 0 31.5 12.5t12.5 32.5q0 17 -13 30t-31 13t-30.5 -13t-12.5 -30z" />
    <glyph glyph-name="Uhungarumlaut" unicode="&#x170;" horiz-adv-x="684" 
d="M342 -16q-68 0 -126.5 26t-90.5 71q-48 64 -48 195v439h127v-432q0 -85 18 -120q16 -31 48 -49.5t72 -18.5t72 18.5t48 49.5q18 35 18 120v432h127v-439q0 -131 -48 -195q-31 -45 -90 -71t-127 -26zM424 876l-131 -115h-125l106 115h150zM625 876l-131 -115h-125l106 115
h150z" />
    <glyph glyph-name="uhungarumlaut" unicode="&#x171;" horiz-adv-x="603" 
d="M418 0v37v38q-50 -89 -163 -89q-190 0 -190 229v310h122v-280q0 -76 24.5 -117t83.5 -41q116 0 116 163v275h122v-446q0 -54 1 -79h-116zM378 715l-141 -119h-123l114 119h150zM580 715l-141 -119h-123l114 119h150z" />
    <glyph glyph-name="Uogonek" unicode="&#x172;" horiz-adv-x="684" 
d="M342 -16q-68 0 -126.5 26t-90.5 71q-48 64 -48 195v439h127v-432q0 -85 18 -120q16 -31 48 -49.5t72 -18.5t72 18.5t48 49.5q18 35 18 120v432h127v-439q0 -131 -48 -195q-31 -45 -90 -71t-127 -26zM391 -49l93 -114h-140l-76 114h123z" />
    <glyph glyph-name="uogonek" unicode="&#x173;" horiz-adv-x="603" 
d="M418 0v37v38q-50 -89 -163 -89q-190 0 -190 229v310h122v-280q0 -76 24.5 -117t83.5 -41q116 0 116 163v275h122v-446q0 -54 1 -79h-116zM337 -49l93 -114h-140l-76 114h123z" />
    <glyph glyph-name="Wcircumflex" unicode="&#x174;" horiz-adv-x="951" 
d="M928 715l-155 -715h-167l-91 421q-15 69 -34 186h-2q-10 -59 -37 -186l-91 -421h-175l-151 715h134l76 -413q23 -118 31 -181h3q9 56 36 180l93 414h168l90 -409q18 -76 34 -185h2q3 30 33 186l79 408h124zM411 875h135q19 -20 54.5 -57t53.5 -57h-119l-55 58l-56 -58
h-119q68 72 106 114z" />
    <glyph glyph-name="wcircumflex" unicode="&#x175;" horiz-adv-x="800" 
d="M308 0h-124q-33 96 -89.5 278t-77.5 247h125l59 -205q10 -33 23.5 -90.5t23.5 -91.5h2q11 40 25.5 104.5t23.5 99.5l45 183h116l52 -205q5 -21 18.5 -79.5t26.5 -104.5h2q10 35 25 94.5t27 101.5l55 193h119l-168 -525h-127q-45 139 -88 347h-3q-68 -276 -91 -347z
M335 715h135q19 -22 55.5 -61.5t52.5 -57.5h-119l-55 62l-56 -62h-119q22 23 60.5 67z" />
    <glyph glyph-name="Ycircumflex" unicode="&#x176;" horiz-adv-x="612" 
d="M242 0v276q-75 134 -238 439h141q83 -180 165 -330q44 85 94.5 186t72.5 144h134l-242 -439v-276h-127zM239 875h135q19 -20 54.5 -57t53.5 -57h-119l-55 58l-56 -58h-119q68 72 106 114z" />
    <glyph glyph-name="ycircumflex" unicode="&#x177;" horiz-adv-x="539" 
d="M250 -180h-124l82 194q-19 49 -198 511h134q30 -86 70 -205.5t58 -169.5q19 51 67.5 195t60.5 180h131q-213 -540 -281 -705zM206 715h135q19 -22 55.5 -61.5t52.5 -57.5h-119l-55 62l-56 -62h-119q22 23 60.5 67z" />
    <glyph glyph-name="Ydieresis" unicode="&#x178;" horiz-adv-x="612" 
d="M242 0v276q-75 134 -238 439h141q83 -180 165 -330q44 85 94.5 186t72.5 144h134l-242 -439v-276h-127zM160 792v110h112v-110h-112zM347 792v110h111v-110h-111z" />
    <glyph glyph-name="Zacute" unicode="&#x179;" horiz-adv-x="568" 
d="M37 0v96q7 12 38 58t47 72l191 296l52 81h-315v112h468v-99q-7 -9 -21 -31l-51 -78l-202 -312q-11 -16 -30.5 -45t-25.5 -39h345v-111h-496zM462 876l-131 -115h-132l106 115h157z" />
    <glyph glyph-name="zacute" unicode="&#x17a;" horiz-adv-x="498" 
d="M38 0v92l207 261q51 64 61 76q-36 -1 -124 -1h-136v97h403v-94l-197 -247q-58 -75 -70 -88q19 0 66.5 0.5t70.5 0.5h143v-97h-424zM416 715l-139 -119h-132l114 119h157z" />
    <glyph glyph-name="Zdotaccent" unicode="&#x17b;" horiz-adv-x="568" 
d="M37 0v96q7 12 38 58t47 72l191 296l52 81h-315v112h468v-99q-7 -9 -21 -31l-51 -78l-202 -312q-11 -16 -30.5 -45t-25.5 -39h345v-111h-496zM227 763v110h112v-110h-112z" />
    <glyph glyph-name="zdotaccent" unicode="&#x17c;" horiz-adv-x="498" 
d="M38 0v92l207 261q51 64 61 76q-36 -1 -124 -1h-136v97h403v-94l-197 -247q-58 -75 -70 -88q19 0 66.5 0.5t70.5 0.5h143v-97h-424zM190 603v110h112v-110h-112z" />
    <glyph glyph-name="Zcaron" unicode="&#x17d;" horiz-adv-x="568" 
d="M37 0v96q7 12 38 58t47 72l191 296l52 81h-315v112h468v-99q-7 -9 -21 -31l-51 -78l-202 -312q-11 -16 -30.5 -45t-25.5 -39h345v-111h-496zM354 761h-135q-38 42 -106 114h119l56 -58l55 58h119q-18 -20 -54 -57t-54 -57z" />
    <glyph glyph-name="zcaron" unicode="&#x17e;" horiz-adv-x="498" 
d="M38 0v92l207 261q51 64 61 76q-36 -1 -124 -1h-136v97h403v-94l-197 -247q-58 -75 -70 -88q19 0 66.5 0.5t70.5 0.5h143v-97h-424zM323 596h-135q-8 8 -46 52t-60 67h119l56 -62l55 62h119q-16 -18 -52.5 -57.5t-55.5 -61.5z" />
    <glyph glyph-name="uni0186" unicode="&#x186;" horiz-adv-x="751" 
d="M32 207h134q64 -112 184 -112q104 0 166 74t62 188t-60 188.5t-164 74.5q-133 0 -186 -120h-139q29 104 114 166.5t210 62.5q160 0 258 -105.5t98 -266.5t-98.5 -266t-255.5 -105q-121 0 -206 63t-117 158z" />
    <glyph glyph-name="uni018F" unicode="&#x18f;" horiz-adv-x="782" 
d="M36 400h570q-10 98 -70.5 156.5t-159.5 58.5q-127 0 -189 -109h-138q34 98 120.5 159.5t209.5 61.5q163 0 262 -102.5t99 -267.5q0 -161 -100.5 -266t-259.5 -105q-164 0 -255 107t-91 269q0 8 2 38zM605 299h-436q2 -94 57.5 -149.5t155.5 -55.5q95 0 153.5 60.5
t69.5 144.5z" />
    <glyph glyph-name="uni0190" unicode="&#x190;" horiz-adv-x="560" 
d="M416 206h122q-6 -97 -71.5 -158t-174.5 -61q-115 0 -183 62t-68 162q0 66 34.5 114t97.5 69q-96 52 -96 148q0 84 58 135.5t154 51.5q95 0 153.5 -53.5t60.5 -138.5h-115q-5 42 -31 65t-65 23q-41 0 -66.5 -22t-25.5 -65q0 -100 141 -100v-100h-28q-66 0 -106 -30.5
t-40 -92.5q0 -52 33.5 -87.5t88.5 -35.5q57 0 89 30.5t38 83.5z" />
    <glyph glyph-name="florin" unicode="&#x192;" horiz-adv-x="439" 
d="M280 483h114l-12 -94h-114l-42 -301q-21 -148 -67 -207.5t-149 -59.5q-35 0 -62 8l11 92q18 -5 34 -5q58 0 79.5 38t32.5 126l43 309h-99l11 94h100q16 122 67 183t149 61q33 0 45 -4l-12 -96q-9 3 -26 3q-50 0 -72 -36.5t-31 -110.5z" />
    <glyph glyph-name="uni019D" unicode="&#x19d;" horiz-adv-x="762" 
d="M85 715h156l238 -410q14 -25 41.5 -71.5t33.5 -56.5l1 1q0 17 -0.5 81.5t-0.5 102.5v353h123v-715h-152l-229 392q-24 42 -53 90t-33 56h-1q0 -17 0.5 -105t0.5 -123v-333q0 -102 -32.5 -138t-134.5 -36q-39 0 -55 4v97q49 -6 73 8.5t24 56.5v746z" />
    <glyph glyph-name="uni019F" unicode="&#x19f;" horiz-adv-x="804" 
d="M402 -14q-160 0 -260 104t-100 266q0 163 100.5 267t258.5 104q159 0 260 -104t101 -267q0 -162 -99.5 -266t-260.5 -104zM401 97q92 0 153 57.5t73 151.5h-451q15 -94 74.5 -151.5t150.5 -57.5zM400 617q-89 0 -148.5 -55t-74.5 -145h449q-16 91 -75.5 145.5
t-150.5 54.5z" />
    <glyph glyph-name="Ohorn" unicode="&#x1a0;" horiz-adv-x="804" 
d="M401 729q159 0 260 -104.5t101 -267.5t-99.5 -267t-260.5 -104q-160 0 -260 104t-100 267q0 162 100.5 267t258.5 105zM400 620q-105 0 -166 -73t-61 -189q0 -115 62 -189t166 -74t166.5 74t62.5 189q0 117 -62 189.5t-168 72.5zM765 906l-70 -191h-105l55 191h120z" />
    <glyph glyph-name="ohorn" unicode="&#x1a1;" horiz-adv-x="625" 
d="M311 543q124 0 199.5 -78t75.5 -203q0 -124 -75.5 -201t-201.5 -77q-125 0 -198.5 78t-73.5 200q0 125 75.5 203t198.5 78zM309 441q-68 0 -107.5 -49.5t-39.5 -128.5q0 -82 39 -129.5t108 -47.5t108.5 47.5t39.5 129.5q0 79 -40 128.5t-108 49.5zM628 715l-70 -191h-105
l55 191h120z" />
    <glyph glyph-name="Uhorn" unicode="&#x1af;" horiz-adv-x="682" 
d="M600 905l-70 -190h74v-439q0 -131 -48 -195q-32 -45 -90 -71t-126 -26q-69 0 -126 26t-89 71q-48 64 -48 195v439h129v-430q0 -85 18 -120q36 -68 116 -68q81 0 117 68q18 35 18 120v429h-50l55 191h120z" />
    <glyph glyph-name="uhorn" unicode="&#x1b0;" horiz-adv-x="603" 
d="M541 715l-70 -190h62v-445q0 -53 1 -80h-117v76q-51 -91 -162 -91q-91 0 -140.5 57t-49.5 172v311h123v-276q0 -76 24.5 -117t83.5 -41q114 0 114 164v269h-44l55 191h120z" />
    <glyph glyph-name="uni01C4" unicode="&#x1c4;" horiz-adv-x="1295" 
d="M85 0v715h156q64 0 106 -2.5t96.5 -15.5t92.5 -38q69 -44 108.5 -124.5t39.5 -178.5q0 -88 -33 -161t-92 -121q-58 -47 -127 -60.5t-184 -13.5h-163zM212 602v-492h70q135 0 203 56.5t68 189.5q0 121 -68 184t-190 63q-56 0 -83 -1zM764 0v96q7 12 38 58t47 72l191 296
l52 81h-315v112h468v-99q-7 -9 -21 -31l-51 -78l-202 -312q-11 -16 -30.5 -45t-25.5 -39h345v-111h-496zM1081 761h-135q-38 42 -106 114h119l56 -58l55 58h119q-18 -20 -53.5 -57t-54.5 -57z" />
    <glyph glyph-name="uni01C5" unicode="&#x1c5;" horiz-adv-x="1225" 
d="M85 0v715h156q64 0 106 -2.5t96.5 -15.5t92.5 -38q69 -44 108.5 -124.5t39.5 -178.5q0 -88 -33 -161t-92 -121q-58 -47 -127 -60.5t-184 -13.5h-163zM212 602v-492h70q135 0 203 56.5t68 189.5q0 121 -68 184t-190 63q-56 0 -83 -1zM765 0v92l207 261q51 64 61 76
q-36 -1 -124 -1h-136v97h403v-94l-197 -247q-58 -75 -70 -88q19 0 66.5 0.5t70.5 0.5h143v-97h-424zM1050 596h-135l-45.5 52t-60.5 67h119l56 -62l55 62h119q-16 -18 -52.5 -57.5t-55.5 -61.5z" />
    <glyph glyph-name="uni01C6" unicode="&#x1c6;" horiz-adv-x="1144" 
d="M576 0h-115v74q-57 -86 -181 -86q-108 0 -175 76.5t-67 199.5q0 121 67 199.5t178 78.5q58 0 103 -24t69 -60q-1 37 -1 104v153h122v-715zM309 441q-67 0 -106.5 -51t-39.5 -128t39 -126t106 -49q70 0 111 50t41 129q0 76 -42.5 125.5t-108.5 49.5zM684 0v92l207 261
q51 64 61 76q-36 -1 -124 -1h-136v97h403v-94l-197 -247q-58 -75 -70 -88q19 0 66.5 0.5t70.5 0.5h143v-97h-424zM969 596h-135l-45.5 52t-60.5 67h119l56 -62l55 62h119q-16 -18 -52.5 -57.5t-55.5 -61.5z" />
    <glyph glyph-name="uni01C7" unicode="&#x1c7;" horiz-adv-x="1031" 
d="M85 0v715h127v-604h287v-111h-414zM550 176h115q11 -81 76 -81q51 0 67.5 39t16.5 114v467h127v-503q0 -104 -48 -165t-154 -61q-197 0 -200 190z" />
    <glyph glyph-name="uni01C8" unicode="&#x1c8;" horiz-adv-x="788" 
d="M85 0v715h127v-604h287v-111h-414zM596 525h122v-547q0 -102 -33 -138.5t-133 -36.5q-36 0 -53 4v90q18 -2 25 -2q37 0 54.5 15.5t17.5 53.5v561zM594 601v114h126v-114h-126z" />
    <glyph glyph-name="uni01C9" unicode="&#x1c9;" horiz-adv-x="530" 
d="M73 0v715h122v-715h-122zM338 525h122v-547q0 -102 -33 -138.5t-133 -36.5q-36 0 -53 4v90q18 -2 25 -2q37 0 54.5 15.5t17.5 53.5v561zM336 601v114h126v-114h-126z" />
    <glyph glyph-name="uni01CA" unicode="&#x1ca;" horiz-adv-x="1268" 
d="M85 0v715h156l238 -410q13 -23 41.5 -71t36.5 -62l1 1q0 17 -0.5 84t-0.5 105v353h121v-715h-151l-230 392q-24 42 -54 92t-34 58h-1q0 -17 0.5 -107t0.5 -125v-310h-124zM787 176h115q11 -81 76 -81q51 0 67.5 39t16.5 114v467h127v-503q0 -104 -48 -165t-154 -61
q-197 0 -200 190z" />
    <glyph glyph-name="uni01CB" unicode="&#x1cb;" horiz-adv-x="1025" 
d="M85 0v715h156l238 -410q13 -23 41.5 -71t36.5 -62l1 1q0 17 -0.5 84t-0.5 105v353h121v-715h-151l-230 392q-24 42 -54 92t-34 58h-1q0 -17 0.5 -107t0.5 -125v-310h-124zM833 525h122v-547q0 -102 -33 -138.5t-133 -36.5q-36 0 -53 4v90q18 -2 25 -2q37 0 54.5 15.5
t17.5 53.5v561zM831 601v114h126v-114h-126z" />
    <glyph glyph-name="uni01CC" unicode="&#x1cc;" horiz-adv-x="867" 
d="M186 526v-33q0 -22 -1 -33q0 -1 1 -1q55 83 164 83q90 0 140 -57t50 -159v-326h-122v271q0 83 -24 126t-83 43t-89 -41t-30 -106v-293h-122v446q0 53 -1 80h117zM675 525h122v-547q0 -102 -33 -138.5t-133 -36.5q-36 0 -53 4v90q18 -2 25 -2q37 0 54.5 15.5t17.5 53.5
v561zM673 601v114h126v-114h-126z" />
    <glyph glyph-name="uni01F1" unicode="&#x1f1;" horiz-adv-x="1282" 
d="M85 0v715h156q64 0 106 -2.5t96.5 -15.5t92.5 -38q69 -44 108.5 -124.5t39.5 -178.5q0 -88 -33 -161t-92 -121q-58 -47 -127 -60.5t-184 -13.5h-163zM212 602v-492h70q135 0 203 56.5t68 189.5q0 121 -68 184t-190 63q-56 0 -83 -1zM751 0v96q7 12 38 58t47 72l191 296
l52 81h-315v112h468v-99q-7 -9 -21 -31l-51 -78l-202 -312q-11 -16 -30.5 -45t-25.5 -39h345v-111h-496z" />
    <glyph glyph-name="uni01F2" unicode="&#x1f2;" horiz-adv-x="1225" 
d="M85 0v715h156q64 0 106 -2.5t96.5 -15.5t92.5 -38q69 -44 108.5 -124.5t39.5 -178.5q0 -88 -33 -161t-92 -121q-58 -47 -127 -60.5t-184 -13.5h-163zM212 602v-492h70q135 0 203 56.5t68 189.5q0 121 -68 184t-190 63q-56 0 -83 -1zM765 0v92l207 261q51 64 61 76
q-36 -1 -124 -1h-136v97h403v-94l-197 -247q-58 -75 -70 -88q19 0 66.5 0.5t70.5 0.5h143v-97h-424z" />
    <glyph glyph-name="uni01F3" unicode="&#x1f3;" horiz-adv-x="1144" 
d="M576 0h-115v74q-57 -86 -181 -86q-108 0 -175 76.5t-67 199.5q0 121 67 199.5t178 78.5q58 0 103 -24t69 -60q-1 37 -1 104v153h122v-715zM309 441q-67 0 -106.5 -51t-39.5 -128t39 -126t106 -49q70 0 111 50t41 129q0 76 -42.5 125.5t-108.5 49.5zM684 0v92l207 261
q51 64 61 76q-36 -1 -124 -1h-136v97h403v-94l-197 -247q-58 -75 -70 -88q19 0 66.5 0.5t70.5 0.5h143v-97h-424z" />
    <glyph glyph-name="Aringacute" unicode="&#x1fa;" horiz-adv-x="713" 
d="M124 0h-130q24 56 107.5 260.5t187.5 454.5h138l290 -715h-132q-11 27 -81 206h-300zM356 600h-2q-14 -35 -43.5 -114.5t-46.5 -121.5l-18 -49h216q-4 12 -7 18l-12 31l-35 92q-33 89 -52 144zM353 738q-41 0 -69 28.5t-28 70.5q0 40 29 68.5t69 28.5q41 0 69.5 -28.5
t28.5 -68.5q0 -42 -28.5 -70.5t-70.5 -28.5zM310 837q0 -19 12.5 -32t30.5 -13q19 0 31.5 12.5t12.5 32.5q0 17 -12.5 30t-31.5 13q-18 0 -30.5 -13t-12.5 -30zM520 1077l-139 -119h-132l114 119h157z" />
    <glyph glyph-name="aringacute" unicode="&#x1fb;" horiz-adv-x="563" 
d="M173 361h-116q4 78 64.5 129.5t160.5 51.5q104 0 160.5 -52.5t56.5 -179.5v-147q0 -105 12 -163h-112q-6 30 -6 70q-24 -35 -69 -57.5t-105 -22.5q-84 0 -135.5 41.5t-51.5 114.5q0 134 228 167q52 8 121 14q-2 65 -26 92.5t-76 27.5q-94 0 -106 -86zM382 220q0 11 1 22
l-27 -3q-103 -10 -148.5 -30t-45.5 -60q0 -35 24 -53.5t67 -18.5q65 0 97 37.5t32 105.5zM280 564q-41 0 -69 28.5t-28 70.5q0 40 29 68.5t69 28.5q41 0 69.5 -28.5t28.5 -68.5q0 -42 -28.5 -70.5t-70.5 -28.5zM237 663q0 -19 12.5 -32t30.5 -13q19 0 31.5 12.5t12.5 32.5
q0 17 -13 30t-31 13t-30.5 -13t-12.5 -30zM447 902l-139 -119h-132l114 119h157z" />
    <glyph glyph-name="AEacute" unicode="&#x1fc;" horiz-adv-x="911" 
d="M858 715v-112h-302l6 -183h272v-112h-269l6 -197h294v-111h-416l-4 166h-237l-90 -166h-132l401 715h471zM441 274l-3 122v78.5t-2 103.5h-7q-4 -7 -31 -59.5t-44 -83.5l-88 -161h175zM761 876l-131 -115h-132l106 115h157z" />
    <glyph glyph-name="aeacute" unicode="&#x1fd;" horiz-adv-x="926" 
d="M893 232l-402 1q6 -66 47 -107t104 -41q83 0 120 65h123q-25 -75 -89.5 -120.5t-156.5 -45.5q-138 0 -213 97q-27 -39 -79.5 -65t-124.5 -26q-83 0 -135.5 41.5t-52.5 114.5q0 94 112 138q90 34 237 43q0 63 -25 91.5t-78 28.5q-94 0 -106 -85h-120q9 78 67.5 129
t161.5 51q123 0 173 -69q77 70 181 70q121 0 189 -79t68 -199v-15.5t-0.5 -12t-0.5 -5.5zM495 320h277q-6 56 -42.5 92t-93.5 36q-58 0 -95.5 -33t-45.5 -95zM384 243l-24 -3q-109 -13 -152.5 -30.5t-43.5 -59.5q0 -34 25.5 -52t66.5 -18q71 0 99.5 40.5t28.5 122.5z
M637 715l-139 -119h-132l114 119h157z" />
    <glyph glyph-name="Oslashacute" unicode="&#x1fe;" horiz-adv-x="804" 
d="M402 -14q-74 0 -133 22l-51 -90l-99 54l52 91q-129 107 -129 293q0 163 100.5 267t258.5 104q69 0 133 -23l52 92l99 -54l-53 -93q130 -108 130 -293q0 -162 -99.5 -266t-260.5 -104zM174 357q0 -113 59 -184l244 432q-35 12 -77 12q-104 0 -165 -73t-61 -187zM629 357
q0 109 -58 183l-245 -431q34 -12 75 -12q105 0 166.5 73t61.5 187zM577 876l-131 -115h-132l106 115h157z" />
    <glyph glyph-name="oslashacute" unicode="&#x1ff;" horiz-adv-x="624" 
d="M499 715l-139 -119h-132l114 119h157zM310 -16q-46 0 -92 13l-39 -68l-87 47l38 67q-93 79 -93 219q0 124 75.5 202t199.5 78q47 0 94 -14l38 66l88 -46l-39 -68q94 -80 94 -218q0 -122 -75.5 -200t-201.5 -78zM163 263q0 -69 28 -113l161 283q-20 6 -42 6
q-68 0 -107.5 -49t-39.5 -127zM310 88q69 0 108 47t39 128q0 63 -26 107l-159 -278q15 -4 38 -4z" />
    <glyph glyph-name="uni0218" unicode="&#x218;" horiz-adv-x="609" 
d="M400 -49l-83 -119h-116l59 119h140zM34 203h123q11 -52 50.5 -81.5t101.5 -29.5t95.5 29.5t33.5 78.5q0 45 -30 65t-101 39l-47 13q-100 28 -151.5 77.5t-51.5 131.5q0 89 70 147t178 58t173.5 -54.5t73.5 -146.5h-121q-24 91 -129 91q-53 0 -82.5 -24.5t-29.5 -63.5
q0 -42 29 -62t97 -41l50 -15q53 -17 86 -32t62 -38.5t42 -57t13 -79.5q0 -99 -73.5 -161t-190.5 -62q-115 0 -190 59.5t-81 158.5z" />
    <glyph glyph-name="uni0219" unicode="&#x219;" horiz-adv-x="501" 
d="M335 -49l-83 -119h-116l59 119h140zM29 166h115q24 -84 114 -84q40 0 66.5 18t26.5 47q0 13 -6 22.5t-22 17t-26.5 11t-38.5 11.5l-58 16q-74 21 -113.5 54.5t-39.5 100.5q0 72 57 117t145 45q86 0 143.5 -44t63.5 -120h-108q-22 67 -102 67q-39 0 -60 -16.5t-21 -41.5
q0 -24 18 -35.5t63 -24.5l58 -15q86 -24 123.5 -57.5t37.5 -97.5q0 -77 -58.5 -125t-150.5 -48q-197 0 -227 182z" />
    <glyph glyph-name="uni021A" unicode="&#x21a;" horiz-adv-x="555" 
d="M357 -49l-83 -119h-116l59 119h140zM214 0v602h-179v113h485v-113h-179v-602h-127z" />
    <glyph glyph-name="uni021B" unicode="&#x21b;" horiz-adv-x="341" 
d="M271 -49l-83 -119h-116l59 119h140zM217 667v-142h98v-91h-98v-287q0 -35 15.5 -50t47.5 -15q11 0 25 2v-90q-15 -4 -47 -4q-79 0 -121 31t-42 105v308h-79v91h79v142h122z" />
    <glyph glyph-name="uni021D" unicode="&#x21d;" horiz-adv-x="538" 
d="M17 18h122q6 -53 38 -83.5t89 -30.5q55 0 88.5 35.5t33.5 87.5q0 62 -40 92.5t-106 30.5h-28v100q141 0 141 100q0 43 -25.5 65t-66.5 22q-39 0 -65 -23t-31 -65h-115q2 85 60.5 138.5t153.5 53.5q96 0 154 -51.5t58 -135.5q0 -96 -96 -148q63 -21 97.5 -69t34.5 -114
q0 -100 -68 -162t-183 -62q-109 0 -174.5 61t-71.5 158z" />
    <glyph glyph-name="uni0226" unicode="&#x226;" horiz-adv-x="713" 
d="M124 0h-130q24 56 107.5 260.5t187.5 454.5h138l290 -715h-132q-11 27 -81 206h-300zM356 600h-2q-14 -35 -43.5 -114.5t-46.5 -121.5l-18 -49h216q-4 12 -7 18l-12 31l-35 92q-33 89 -52 144zM299 763v110h112v-110h-112z" />
    <glyph glyph-name="uni0227" unicode="&#x227;" horiz-adv-x="563" 
d="M173 361h-116q4 78 64.5 129.5t160.5 51.5q104 0 160.5 -52.5t56.5 -179.5v-147q0 -105 12 -163h-112q-6 30 -6 70q-24 -35 -69 -57.5t-105 -22.5q-84 0 -135.5 41.5t-51.5 114.5q0 134 228 167q52 8 121 14q-2 65 -26 92.5t-76 27.5q-94 0 -106 -86zM382 220q0 11 1 22
l-27 -3q-103 -10 -148.5 -30t-45.5 -60q0 -35 24 -53.5t67 -18.5q65 0 97 37.5t32 105.5zM223 603v110h112v-110h-112z" />
    <glyph glyph-name="uni0232" unicode="&#x232;" horiz-adv-x="612" 
d="M242 0v276q-75 134 -238 439h141q83 -180 165 -330q44 85 94.5 186t72.5 144h134l-242 -439v-276h-127zM177 773v85h273v-85h-273z" />
    <glyph glyph-name="uni0233" unicode="&#x233;" horiz-adv-x="539" 
d="M250 -180h-124l82 194q-19 49 -198 511h134q30 -86 70 -205.5t58 -169.5q19 51 67.5 195t60.5 180h131q-213 -540 -281 -705zM140 618v85h273v-85h-273z" />
    <glyph glyph-name="dotlessj" unicode="&#x237;" horiz-adv-x="263" 
d="M193 525v-548q0 -102 -32.5 -138t-134.5 -36q-37 0 -53 4v90q49 -6 73 8.5t24 56.5v563h123z" />
    <glyph glyph-name="uni0254" unicode="&#x254;" horiz-adv-x="584" 
d="M152 358h-120q24 83 87 133.5t160 50.5q123 0 195.5 -78t72.5 -201q0 -121 -74.5 -200.5t-195.5 -79.5q-99 0 -163 53t-83 139h127q34 -90 121 -90q65 0 104 49t39 127q0 82 -39.5 131t-108.5 49q-89 0 -122 -83z" />
    <glyph glyph-name="uni0259" unicode="&#x259;" horiz-adv-x="594" 
d="M33 293l402 -1q-6 66 -47 107t-104 41q-83 0 -120 -65h-123q25 75 89.5 120.5t156.5 45.5q122 0 196 -78t74 -202q0 -121 -74.5 -200t-193.5 -79q-121 0 -189 79t-68 199v15.5t0.5 12t0.5 5.5zM431 205h-277q6 -56 42.5 -92t93.5 -36q58 0 95.5 33t45.5 95z" />
    <glyph glyph-name="uni025B" unicode="&#x25b;" horiz-adv-x="538" 
d="M400 18h122q-6 -97 -71.5 -158t-174.5 -61q-115 0 -183 62t-68 162q0 66 34.5 114t97.5 69q-96 52 -96 148q0 84 58 135.5t154 51.5q95 0 153.5 -53.5t60.5 -138.5h-115q-5 42 -31 65t-65 23q-41 0 -66.5 -22t-25.5 -65q0 -100 141 -100v-100h-28q-66 0 -106 -30.5
t-40 -92.5q0 -52 33.5 -87.5t88.5 -35.5q57 0 89 30.5t38 83.5z" />
    <glyph glyph-name="uni0272" unicode="&#x272;" horiz-adv-x="605" 
d="M70 -38v483q0 53 -1 80h118v-68q56 82 163 82q90 0 140 -57t50 -157v-325h-123v264q0 83 -23.5 126.5t-82.5 43.5q-58 0 -88 -40.5t-30 -106.5v-310q0 -102 -32.5 -138t-134.5 -36q-37 0 -53 4v90q49 -6 73 8.5t24 56.5z" />
    <glyph glyph-name="uni0275" unicode="&#x275;" horiz-adv-x="624" 
d="M310 -16q-126 0 -199.5 77.5t-73.5 200.5q0 124 75.5 202t199.5 78t199.5 -78t75.5 -202q0 -122 -75.5 -200t-201.5 -78zM310 88q59 0 97 34.5t48 95.5h-291q11 -61 49.5 -95.5t96.5 -34.5zM310 439q-55 0 -93 -33t-50 -88h286q-13 55 -51 88t-92 33z" />
    <glyph glyph-name="apostrophemod" unicode="&#x2bc;" horiz-adv-x="240" 
d="M219 715l-89 -255h-105l72 255h122z" />
    <glyph glyph-name="circumflex" unicode="&#x2c6;" horiz-adv-x="503" 
d="M184 715h135q19 -22 55.5 -61.5t52.5 -57.5h-119l-55 62l-56 -62h-119q22 23 60.5 67z" />
    <glyph glyph-name="caron" unicode="&#x2c7;" horiz-adv-x="502" 
d="M319 596h-135l-45.5 52t-60.5 67h119l56 -62l55 62h119q-16 -18 -52.5 -57.5t-55.5 -61.5z" />
    <glyph glyph-name="breve" unicode="&#x2d8;" horiz-adv-x="465" 
d="M233 584q-63 0 -101.5 34.5t-46.5 96.5h82q14 -49 66 -49q46 0 66 49h81q-8 -63 -46 -97t-101 -34z" />
    <glyph glyph-name="dotaccent" unicode="&#x2d9;" horiz-adv-x="328" 
d="M108 603v110h112v-110h-112z" />
    <glyph glyph-name="ring" unicode="&#x2da;" horiz-adv-x="405" 
d="M239 578q-41 0 -69 28.5t-28 70.5q0 40 29 68.5t69 28.5q41 0 69.5 -28.5t28.5 -68.5q0 -42 -28.5 -70.5t-70.5 -28.5zM196 677q0 -19 12.5 -32t30.5 -13q19 0 31.5 12.5t12.5 32.5q0 17 -12.5 30t-31.5 13q-18 0 -30.5 -13t-12.5 -30z" />
    <glyph glyph-name="ogonek" unicode="&#x2db;" horiz-adv-x="331" 
d="M188 -49l93 -114h-140l-76 114h123z" />
    <glyph glyph-name="tilde" unicode="&#x2dc;" horiz-adv-x="470" 
d="M303 613q-31 18 -46 18q-14 0 -20 -8.5t-9 -28.5h-75q0 49 27 86.5t67 37.5q26 0 72 -22q37 -18 47 -18q13 0 19 8.5t9 28.5h72q0 -51 -24.5 -87.5t-64.5 -36.5q-28 0 -74 22z" />
    <glyph glyph-name="hungarumlaut" unicode="&#x2dd;" horiz-adv-x="612" 
d="M365 715l-141 -119h-123l114 119h150zM567 715l-141 -119h-123l114 119h150z" />
    <glyph glyph-name="uni032C" unicode="&#x32c;" horiz-adv-x="503" 
d="M179 -48h135q19 -22 55.5 -61.5t52.5 -57.5h-119l-55 62l-56 -62h-119q22 23 60 67t46 52z" />
    <glyph glyph-name="uni0394" unicode="&#x394;" horiz-adv-x="687" 
d="M267 715h153l260 -715h-673zM344 610l-176 -506h352z" />
    <glyph glyph-name="uni03A9" unicode="&#x3a9;" horiz-adv-x="805" 
d="M53 392q0 136 95.5 235.5t254.5 99.5q158 0 253.5 -99.5t95.5 -235.5q0 -91 -33 -157.5t-102 -122.5h133v-112h-298v105q168 97 168 280q0 100 -57.5 166t-159.5 66t-160 -66t-58 -166q0 -183 168 -280v-105h-298v112h133q-69 56 -102 122.5t-33 157.5z" />
    <glyph glyph-name="uni03BC" unicode="&#x3bc;" horiz-adv-x="608" 
d="M193 -180h-123v705h123v-276q0 -76 24.5 -117t83.5 -41q114 0 114 164v270h123v-445q0 -53 1 -80h-117v76q-48 -86 -148 -86q-45 0 -81 16v-186z" />
    <glyph glyph-name="pi" unicode="&#x3c0;" horiz-adv-x="662" 
d="M626 525v-98h-94v-281q0 -36 16 -50.5t48 -14.5q12 0 22 2v-92q-21 -3 -39 -3q-83 0 -126.5 30.5t-43.5 104.5v304h-170v-427h-123v427h-101v98h611z" />
    <glyph glyph-name="Wgrave" unicode="&#x1e80;" horiz-adv-x="951" 
d="M928 715l-155 -715h-167l-91 421q-15 69 -34 186h-2q-10 -59 -37 -186l-91 -421h-175l-151 715h134l76 -413q23 -118 31 -181h3q9 56 36 180l93 414h168l90 -409q18 -76 34 -185h2q3 30 33 186l79 408h124zM456 761l-131 115h157l106 -115h-132z" />
    <glyph glyph-name="wgrave" unicode="&#x1e81;" horiz-adv-x="800" 
d="M308 0h-124q-33 96 -89.5 278t-77.5 247h125l59 -205q10 -33 23.5 -90.5t23.5 -91.5h2q11 40 25.5 104.5t23.5 99.5l45 183h116l52 -205q5 -21 18.5 -79.5t26.5 -104.5h2q10 35 25 94.5t27 101.5l55 193h119l-168 -525h-127q-45 139 -88 347h-3q-68 -276 -91 -347z
M374 596l-139 119h157l114 -119h-132z" />
    <glyph glyph-name="Wacute" unicode="&#x1e82;" horiz-adv-x="951" 
d="M928 715l-155 -715h-167l-91 421q-15 69 -34 186h-2q-10 -59 -37 -186l-91 -421h-175l-151 715h134l76 -413q23 -118 31 -181h3q9 56 36 180l93 414h168l90 -409q18 -76 34 -185h2q3 30 33 186l79 408h124zM647 876l-131 -115h-132l106 115h157z" />
    <glyph glyph-name="wacute" unicode="&#x1e83;" horiz-adv-x="800" 
d="M308 0h-124q-33 96 -89.5 278t-77.5 247h125l59 -205q10 -33 23.5 -90.5t23.5 -91.5h2q11 40 25.5 104.5t23.5 99.5l45 183h116l52 -205q5 -21 18.5 -79.5t26.5 -104.5h2q10 35 25 94.5t27 101.5l55 193h119l-168 -525h-127q-45 139 -88 347h-3q-68 -276 -91 -347z
M569 715l-139 -119h-132l114 119h157z" />
    <glyph glyph-name="Wdieresis" unicode="&#x1e84;" horiz-adv-x="951" 
d="M928 715l-155 -715h-167l-91 421q-15 69 -34 186h-2q-10 -59 -37 -186l-91 -421h-175l-151 715h134l76 -413q23 -118 31 -181h3q9 56 36 180l93 414h168l90 -409q18 -76 34 -185h2q3 30 33 186l79 408h124zM331 763v110h112v-110h-112zM518 763v110h111v-110h-111z" />
    <glyph glyph-name="wdieresis" unicode="&#x1e85;" horiz-adv-x="800" 
d="M308 0h-124q-33 96 -89.5 278t-77.5 247h125l59 -205q10 -33 23.5 -90.5t23.5 -91.5h2q11 40 25.5 104.5t23.5 99.5l45 183h116l52 -205q5 -21 18.5 -79.5t26.5 -104.5h2q10 35 25 94.5t27 101.5l55 193h119l-168 -525h-127q-45 139 -88 347h-3q-68 -276 -91 -347z
M250 603v110h112v-110h-112zM437 603v110h111v-110h-111z" />
    <glyph glyph-name="uni1EA0" unicode="&#x1ea0;" horiz-adv-x="713" 
d="M124 0h-130q24 56 107.5 260.5t187.5 454.5h138l290 -715h-132q-11 27 -81 206h-300zM356 600h-2q-14 -35 -43.5 -114.5t-46.5 -121.5l-18 -49h216q-4 12 -7 18l-12 31l-35 92q-33 89 -52 144zM296 -158v110h112v-110h-112z" />
    <glyph glyph-name="uni1EA1" unicode="&#x1ea1;" horiz-adv-x="563" 
d="M173 361h-116q4 78 64.5 129.5t160.5 51.5q104 0 160.5 -52.5t56.5 -179.5v-147q0 -105 12 -163h-112q-6 30 -6 70q-24 -35 -69 -57.5t-105 -22.5q-84 0 -135.5 41.5t-51.5 114.5q0 134 228 167q52 8 121 14q-2 65 -26 92.5t-76 27.5q-94 0 -106 -86zM382 220q0 11 1 22
l-27 -3q-103 -10 -148.5 -30t-45.5 -60q0 -35 24 -53.5t67 -18.5q65 0 97 37.5t32 105.5zM207 -158v110h112v-110h-112z" />
    <glyph glyph-name="uni1EB8" unicode="&#x1eb8;" horiz-adv-x="578" 
d="M85 0v715h439v-113h-313v-182h289v-112h-289v-197h320v-111h-446zM249 -158v110h112v-110h-112z" />
    <glyph glyph-name="uni1EB9" unicode="&#x1eb9;" horiz-adv-x="594" 
d="M561 232l-402 1q6 -66 47 -107t104 -41q83 0 120 65h123q-25 -75 -89.5 -120.5t-156.5 -45.5q-122 0 -196 78t-74 202q0 121 74.5 200t193.5 79q121 0 189 -79t68 -199v-15.5t-0.5 -12t-0.5 -5.5zM163 320h277q-6 56 -42.5 92t-93.5 36q-58 0 -95.5 -33t-45.5 -95z
M249 -158v110h112v-110h-112z" />
    <glyph glyph-name="uni1ECA" unicode="&#x1eca;" horiz-adv-x="297" 
d="M85 0v715h127v-715h-127zM93 -158v110h112v-110h-112z" />
    <glyph glyph-name="uni1ECB" unicode="&#x1ecb;" horiz-adv-x="262" 
d="M70 525h122v-525h-122v525zM68 601v114h125v-114h-125zM75 -158v110h112v-110h-112z" />
    <glyph glyph-name="uni1ECC" unicode="&#x1ecc;" horiz-adv-x="804" 
d="M401 729q159 0 260 -104.5t101 -267.5t-99.5 -267t-260.5 -104q-160 0 -260 104t-100 267q0 162 100.5 267t258.5 105zM400 620q-105 0 -166 -73t-61 -189q0 -115 62 -189t166 -74t166.5 74t62.5 189q0 117 -62 189.5t-168 72.5zM350 -158v110h112v-110h-112z" />
    <glyph glyph-name="uni1ECD" unicode="&#x1ecd;" horiz-adv-x="624" 
d="M311 543q124 0 199.5 -78t75.5 -203q0 -124 -75.5 -201t-201.5 -77q-125 0 -198.5 78t-73.5 200q0 125 75.5 203t198.5 78zM309 441q-68 0 -107.5 -49.5t-39.5 -128.5q0 -82 39 -129.5t108 -47.5t108.5 47.5t39.5 129.5q0 79 -40 128.5t-108 49.5zM252 -158v110h112v-110
h-112z" />
    <glyph glyph-name="uni1EE4" unicode="&#x1ee4;" horiz-adv-x="684" 
d="M342 -16q-68 0 -126.5 26t-90.5 71q-48 64 -48 195v439h127v-432q0 -85 18 -120q16 -31 48 -49.5t72 -18.5t72 18.5t48 49.5q18 35 18 120v432h127v-439q0 -131 -48 -195q-31 -45 -90 -71t-127 -26zM284 -158v110h112v-110h-112z" />
    <glyph glyph-name="uni1EE5" unicode="&#x1ee5;" horiz-adv-x="603" 
d="M418 0v37v38q-50 -89 -163 -89q-190 0 -190 229v310h122v-280q0 -76 24.5 -117t83.5 -41q116 0 116 163v275h122v-446q0 -54 1 -79h-116zM247 -158v110h112v-110h-112z" />
    <glyph glyph-name="Ygrave" unicode="&#x1ef2;" horiz-adv-x="612" 
d="M242 0v276q-75 134 -238 439h141q83 -180 165 -330q44 85 94.5 186t72.5 144h134l-242 -439v-276h-127zM282 761l-131 115h157l106 -115h-132z" />
    <glyph glyph-name="ygrave" unicode="&#x1ef3;" horiz-adv-x="539" 
d="M250 -180h-124l82 194q-19 49 -198 511h134q30 -86 70 -205.5t58 -169.5q19 51 67.5 195t60.5 180h131q-213 -540 -281 -705zM242 596l-139 119h157l114 -119h-132z" />
    <glyph glyph-name="enspace" unicode="&#x2002;" horiz-adv-x="500" 
 />
    <glyph glyph-name="emspace" unicode="&#x2003;" horiz-adv-x="1000" 
 />
    <glyph glyph-name="threeperemspace" unicode="&#x2004;" horiz-adv-x="0" 
 />
    <glyph glyph-name="fourperemspace" unicode="&#x2005;" horiz-adv-x="250" 
 />
    <glyph glyph-name="thinspace" unicode="&#x2009;" horiz-adv-x="133" 
 />
    <glyph glyph-name="hairspace" unicode="&#x200a;" horiz-adv-x="75" 
 />
    <glyph glyph-name="endash" unicode="&#x2013;" horiz-adv-x="604" 
d="M64 251v103h476v-103h-476z" />
    <glyph glyph-name="emdash" unicode="&#x2014;" horiz-adv-x="969" 
d="M64 251v103h841v-103h-841z" />
    <glyph glyph-name="quoteleft" unicode="&#x2018;" horiz-adv-x="271" 
d="M44 460l89 255h105l-72 -255h-122z" />
    <glyph glyph-name="quoteright" unicode="&#x2019;" horiz-adv-x="269" 
d="M241 715l-89 -255h-105l72 255h122z" />
    <glyph glyph-name="quotesinglbase" unicode="&#x201a;" horiz-adv-x="267" 
d="M211 134l-89 -255h-108l72 255h125z" />
    <glyph glyph-name="quotedblleft" unicode="&#x201c;" horiz-adv-x="461" 
d="M234 460l89 255h105l-72 -255h-122zM44 460l89 255h105l-72 -255h-122z" />
    <glyph glyph-name="quotedblright" unicode="&#x201d;" horiz-adv-x="459" 
d="M241 715l-89 -255h-105l72 255h122zM431 715l-89 -255h-105l72 255h122z" />
    <glyph glyph-name="quotedblbase" unicode="&#x201e;" horiz-adv-x="463" 
d="M211 134l-89 -255h-108l72 255h125zM407 134l-89 -255h-108l72 255h125z" />
    <glyph glyph-name="dagger" unicode="&#x2020;" horiz-adv-x="512" 
d="M317 715v-181h162v-105h-162v-497h-121v497h-163v105h163v181h121z" />
    <glyph glyph-name="daggerdbl" unicode="&#x2021;" horiz-adv-x="544" 
d="M495 182h-162v-250h-121v250h-163v105h163v142h-163v105h163v181h121v-181h162v-105h-162v-142h162v-105z" />
    <glyph glyph-name="bullet" unicode="&#x2022;" horiz-adv-x="513" 
d="M257 156q-75 0 -127 52t-52 126q0 75 52 126t127 51t126.5 -51t51.5 -126q0 -74 -52 -126t-126 -52z" />
    <glyph glyph-name="ellipsis" unicode="&#x2026;" horiz-adv-x="925" 
d="M63 0v134h129v-134h-129zM398 0v134h129v-134h-129zM733 0v134h129v-134h-129z" />
    <glyph glyph-name="perthousand" unicode="&#x2030;" horiz-adv-x="1294" 
d="M203 323q-83 0 -126 53.5t-43 148.5q0 94 43 147.5t125 53.5t125 -54t43 -148q0 -96 -42 -148.5t-125 -52.5zM127 523q0 -119 75 -119t75 119q0 59 -16.5 90.5t-58.5 31.5t-58.5 -31.5t-16.5 -90.5zM269 0l274 714h85l-273 -714h-86zM695 -15q-83 0 -126 53.5t-43 148.5
q0 94 43 147.5t125 53.5t125 -54t43 -148q0 -96 -42 -148.5t-125 -52.5zM619 185q0 -119 75 -119t75 119q0 59 -16.5 90.5t-58.5 31.5t-58.5 -31.5t-16.5 -90.5zM1094 -15q-83 0 -126 53.5t-43 148.5q0 94 43 147.5t125 53.5t125 -54t43 -148q0 -96 -42 -148.5t-125 -52.5z
M1018 185q0 -119 75 -119t75 119q0 59 -16.5 90.5t-58.5 31.5t-58.5 -31.5t-16.5 -90.5z" />
    <glyph glyph-name="guilsinglleft" unicode="&#x2039;" horiz-adv-x="319" 
d="M268 473l-91 -187l91 -188h-122l-102 188l102 187h122z" />
    <glyph glyph-name="guilsinglright" unicode="&#x203a;" horiz-adv-x="320" 
d="M146 286l-96 187h124l102 -187l-102 -188h-124z" />
    <glyph glyph-name="fraction" unicode="&#x2044;" horiz-adv-x="405" 
d="M0 -105l290 820h116l-288 -820h-118z" />
    <glyph glyph-name="Euro" unicode="&#x20ac;" 
d="M7 374l28 106h54q9 114 71 181.5t172 67.5q214 0 236 -229h-122q-20 118 -115 118q-55 0 -81.5 -35t-35.5 -103h225l-28 -106h-202v-45h190l-28 -106h-156q15 -129 116 -129q49 0 76 30t39 89h120q-10 -106 -68.5 -167t-165.5 -61t-167 63t-75 175h-83l28 106h47v45h-75z
" />
    <glyph glyph-name="trademark" unicode="&#x2122;" horiz-adv-x="952" 
d="M682 297h-78q-21 59 -56.5 178t-52.5 170h-3q1 -60 1 -207v-141h-82v418h141q14 -45 36 -116.5l38 -123.5t22 -70q9 28 45.5 150t48.5 160h137v-418h-84v202q0 27 0.5 77.5t0.5 69.5h-3q-8 -24 -48 -153.5t-63 -195.5zM351 715v-67h-105v-351h-86v351h-105v67h296z" />
    <glyph glyph-name="Omega" unicode="&#x2126;" horiz-adv-x="805" 
d="M53 392q0 136 95.5 235.5t254.5 99.5q158 0 253.5 -99.5t95.5 -235.5q0 -91 -33 -157.5t-102 -122.5h133v-112h-298v105q168 97 168 280q0 100 -57.5 166t-159.5 66t-160 -66t-58 -166q0 -183 168 -280v-105h-298v112h133q-69 56 -102 122.5t-33 157.5z" />
    <glyph glyph-name="onethird" unicode="&#x2153;" horiz-adv-x="808" 
d="M263 0h-81l275 715h81q-62 -158 -275 -715zM138 588h-106v60q57 2 82 16.5t30 50.5h77v-439h-83v312zM581 207v69q85 0 85 54q0 24 -14 36.5t-37 12.5q-47 0 -52 -51h-79q1 54 37 88t96 34t96 -30.5t36 -82.5q0 -58 -53 -91q75 -33 75 -112q0 -63 -42.5 -101.5
t-113.5 -38.5q-69 0 -108.5 38.5t-44.5 101.5h83q3 -31 22.5 -49.5t49.5 -18.5q31 0 50 20t19 50q0 36 -23 53.5t-61 17.5h-21z" />
    <glyph glyph-name="twothirds" unicode="&#x2154;" horiz-adv-x="906" 
d="M364 0h-81l275 715h81q-62 -158 -275 -715zM682 207v69q85 0 85 54q0 24 -14 36.5t-37 12.5q-47 0 -52 -51h-79q1 54 37 88t96 34t96 -30.5t36 -82.5q0 -58 -53 -91q75 -33 75 -112q0 -63 -42.5 -101.5t-113.5 -38.5q-69 0 -108.5 38.5t-44.5 101.5h83q3 -31 22.5 -49.5
t49.5 -18.5q31 0 50 20t19 50q0 36 -23 53.5t-61 17.5h-21zM51 274v73q86 70 153 140q51 55 51 100q0 28 -16.5 45t-45.5 17q-32 0 -49 -21.5t-18 -58.5h-79q-1 1 -1 5v12q0 61 42.5 100t105.5 39q67 0 107.5 -39t40.5 -98q0 -43 -29 -89q-27 -43 -82 -93q-9 -8 -67 -57h177
v-75h-290z" />
    <glyph glyph-name="oneeighth" unicode="&#x215b;" horiz-adv-x="816" 
d="M459 124q0 83 71 115q-53 38 -53 95q0 49 38.5 83t102.5 34t103 -33.5t39 -83.5q0 -58 -53 -95q72 -38 72 -115q0 -61 -44.5 -98t-116.5 -37q-71 0 -115 37t-44 98zM618 203q-33 0 -52.5 -19.5t-19.5 -52.5q0 -31 19 -51t53 -20t53.5 20.5t19.5 50.5q0 33 -19 52.5
t-54 19.5zM618 378q-27 0 -43 -15t-16 -39t16 -40t43 -16q28 0 44 16t16 40t-16 39t-44 15zM263 0h-81l275 715h81q-62 -158 -275 -715zM138 588h-106v60q57 2 82 16.5t30 50.5h77v-439h-83v312z" />
    <glyph glyph-name="threeeighths" unicode="&#x215c;" horiz-adv-x="905" 
d="M550 124q0 83 71 115q-53 38 -53 95q0 49 38.5 83t102.5 34t103 -33.5t39 -83.5q0 -58 -53 -95q72 -38 72 -115q0 -61 -44.5 -98t-116.5 -37q-71 0 -115 37t-44 98zM709 203q-33 0 -52.5 -19.5t-19.5 -52.5q0 -31 19 -51t53 -20t53.5 20.5t19.5 50.5q0 33 -19 52.5
t-54 19.5zM709 378q-27 0 -43 -15t-16 -39t16 -40t43 -16q28 0 44 16t16 40t-16 39t-44 15zM354 0h-81l275 715h81q-62 -158 -275 -715zM153 483v69q85 0 85 54q0 24 -14 36.5t-37 12.5q-47 0 -52 -51h-79q1 54 37 88t96 34t96 -30.5t36 -82.5q0 -58 -53 -91q75 -33 75 -112
q0 -63 -42.5 -101.5t-113.5 -38.5q-69 0 -108.5 38.5t-44.5 101.5h83q3 -31 22.5 -49.5t49.5 -18.5q31 0 50 20t19 50q0 36 -23 53.5t-61 17.5h-21z" />
    <glyph glyph-name="fiveeighths" unicode="&#x215d;" horiz-adv-x="906" 
d="M51 475l26 240h239v-72h-172l-11 -90q31 18 70 18q64 0 103.5 -39t39.5 -105q0 -68 -44 -112.5t-113 -44.5q-67 0 -108 38.5t-47 101.5h82q13 -67 71 -67q36 0 55.5 22t19.5 59q0 35 -20 56t-55 21q-44 0 -62 -38zM550 124q0 83 71 115q-53 38 -53 95q0 49 38.5 83
t102.5 34t103 -33.5t39 -83.5q0 -58 -53 -95q72 -38 72 -115q0 -61 -44.5 -98t-116.5 -37q-71 0 -115 37t-44 98zM709 203q-33 0 -52.5 -19.5t-19.5 -52.5q0 -31 19 -51t53 -20t53.5 20.5t19.5 50.5q0 33 -19 52.5t-54 19.5zM709 378q-27 0 -43 -15t-16 -39t16 -40t43 -16
q28 0 44 16t16 40t-16 39t-44 15zM354 0h-81l275 715h81q-62 -158 -275 -715z" />
    <glyph glyph-name="seveneighths" unicode="&#x215e;" horiz-adv-x="823" 
d="M469 124q0 83 71 115q-53 38 -53 95q0 49 38.5 83t102.5 34t103 -33.5t39 -83.5q0 -58 -53 -95q72 -38 72 -115q0 -61 -44.5 -98t-116.5 -37q-71 0 -115 37t-44 98zM628 203q-33 0 -52.5 -19.5t-19.5 -52.5q0 -31 19 -51t53 -20t53.5 20.5t19.5 50.5q0 33 -19 52.5
t-54 19.5zM628 378q-27 0 -43 -15t-16 -39t16 -40t43 -16q28 0 44 16t16 40t-16 39t-44 15zM273 0h-81l275 715h81q-62 -158 -275 -715zM161 275h-96q70 177 168 361v1q-12 -1 -34 -1h-165v79h289v-69v-2l-15 -31q-79 -160 -147 -338z" />
    <glyph glyph-name="arrowleft" unicode="&#x2190;" horiz-adv-x="820" 
d="M781 270h-565q8 -8 36.5 -37.5t60 -61t58.5 -57.5q70 -72 112 -114h-153q-26 27 -144 152.5t-165 173.5q49 49 174.5 182t134.5 142h153l-112 -114q-22 -22 -57.5 -58.5t-60 -61t-37.5 -36.5h565v-110z" />
    <glyph glyph-name="arrowup" unicode="&#x2191;" horiz-adv-x="720" 
d="M303 0v554l-155 -155l-113 -111v153q14 14 145 137t180 172q49 -51 184.5 -177.5t140.5 -131.5v-153l-113 111q-93 89 -155 155v-554h-114z" />
    <glyph glyph-name="arrowright" unicode="&#x2192;" horiz-adv-x="820" 
d="M604 270h-565v110h565q-58 54 -155 156q-73 73 -112 114h153q26 -27 144 -152t165 -172q-50 -50 -171 -179t-138 -147h-153l112 114z" />
    <glyph glyph-name="arrowdown" unicode="&#x2193;" horiz-adv-x="720" 
d="M303 160v554h114v-554q62 66 155 155l113 111v-153q-304 -288 -325 -309q-46 45 -169.5 161.5t-155.5 147.5v153l113 -111z" />
    <glyph glyph-name="uni2196" unicode="&#x2196;" horiz-adv-x="750" 
d="M613 -20l-400 401q0 -14 0.5 -94t0.5 -128q0 -104 -1 -161l-105 108q0 50 2 221t2 232q61 0 229 2.5t219 2.5l106 -102q-57 -1 -159 -1h-219l403 -403z" />
    <glyph glyph-name="uni2197" unicode="&#x2197;" horiz-adv-x="750" 
d="M536 381l-400 -401l-78 78l403 403h-219q-102 0 -159 1l106 102q51 0 219 -2.5t229 -2.5q0 -61 2 -232t2 -221l-105 -108q-1 57 -1 161q0 48 0.5 128t0.5 94z" />
    <glyph glyph-name="uni2198" unicode="&#x2198;" horiz-adv-x="750" 
d="M137 581l400 -401q0 14 -0.5 94t-0.5 128q0 104 1 161l105 -108q0 -50 -2 -221t-2 -232q-61 0 -229 -2.5t-219 -2.5l-106 102q110 0 159 1h219l-403 403z" />
    <glyph glyph-name="uni2199" unicode="&#x2199;" horiz-adv-x="750" 
d="M212 180l400 401l78 -78l-403 -403h219q49 -1 159 -1l-106 -102q-51 0 -219 2.5t-229 2.5q0 61 -2 232t-2 221l105 108q1 -57 1 -161q0 -48 -0.5 -128t-0.5 -94z" />
    <glyph glyph-name="partialdiff" unicode="&#x2202;" horiz-adv-x="629" 
d="M120 715h205q263 -165 263 -435q0 -137 -73 -216t-204 -79q-124 0 -198.5 75t-74.5 200q0 126 74 201.5t183 75.5q66 0 98 -22l3 3q-75 100 -276 197zM311 88q69 0 108 47t39 128q0 78 -39.5 127t-107.5 49t-107.5 -49t-39.5 -127q0 -81 39 -128t108 -47z" />
    <glyph glyph-name="Delta" unicode="&#x2206;" horiz-adv-x="721" 
d="M284 715h153l260 -715h-673zM361 610l-176 -506h352z" />
    <glyph glyph-name="product" unicode="&#x220f;" horiz-adv-x="816" 
d="M676 607v-720h-123v720h-290v-720h-123v720h-107v108h750v-108h-107z" />
    <glyph glyph-name="summation" unicode="&#x2211;" horiz-adv-x="632" 
d="M41 -15l250 312l-246 315v103h533v-108h-378l236 -300l-247 -311h400v-109h-548v98z" />
    <glyph glyph-name="minus" unicode="&#x2212;" 
d="M72 268v107h442v-107h-442z" />
    <glyph glyph-name="uni2219" unicode="&#x2219;" horiz-adv-x="255" 
d="M63 253v134h129v-134h-129z" />
    <glyph glyph-name="radical" unicode="&#x221a;" 
d="M19 422v103h185l62 -194q8 -27 22.5 -78t27.5 -92h2l47 182l100 372h126l-220 -715h-117q-47 135 -145 422h-90z" />
    <glyph glyph-name="infinity" unicode="&#x221e;" horiz-adv-x="857" 
d="M233 512q35 0 71.5 -16.5t58 -33t67.5 -55.5q42 37 65.5 55t59 34t69.5 16q80 0 127 -49t47 -129q0 -72 -44 -123.5t-126 -51.5q-39 0 -78.5 18.5t-62.5 37.5t-59 54q-71 -65 -104 -84q-46 -26 -95 -26q-82 0 -126 51.5t-44 123.5q0 80 47 129t127 49zM621 264
q34 0 53 19.5t19 53.5q0 31 -19 51.5t-51 20.5q-47 0 -133 -74q6 -5 21 -17t21.5 -17t19.5 -14t22 -13t21.5 -7t25.5 -3zM236 264q15 0 28 3t29 13t22.5 14t27.5 21.5t24 19.5q-86 74 -133 74q-32 0 -51 -20.5t-19 -51.5q0 -34 19 -53.5t53 -19.5z" />
    <glyph glyph-name="integral" unicode="&#x222b;" 
d="M389 483l-54 -395q-21 -148 -67 -207.5t-149 -59.5q-35 0 -62 8l11 92q18 -5 34 -5q58 0 79.5 38t32.5 126l55 406q16 122 66.5 181.5t149.5 59.5q33 0 45 -4l-12 -96q-9 3 -26 3q-50 0 -72 -36.5t-31 -110.5z" />
    <glyph glyph-name="approxequal" unicode="&#x2248;" 
d="M486 504l68 -49q-30 -54 -64.5 -83.5t-81.5 -29.5q-13 0 -25.5 2t-28 7.5t-22.5 8t-26.5 11.5t-22.5 10l-26 11q-44 21 -72 21q-53 0 -82 -68l-68 50q64 118 150 118q38 0 117 -35l13 -6q66 -30 91 -30q46 0 80 62zM484 254l68 -49q-30 -54 -64.5 -83.5t-81.5 -29.5
q-13 0 -25.5 2t-28 7.5t-22.5 8t-26.5 11.5t-22.5 10l-26 11q-44 21 -72 21q-53 0 -82 -68l-68 50q64 118 150 118q38 0 117 -35l13 -6q66 -30 91 -30q46 0 80 62z" />
    <glyph glyph-name="notequal" unicode="&#x2260;" 
d="M72 352v105h230l50 103h109l-50 -103h103v-105h-154l-27 -56h181v-105h-232l-54 -111h-109l54 111h-101v105h152l27 56h-179z" />
    <glyph glyph-name="lessequal" unicode="&#x2264;" 
d="M90 310v91l396 179v-115q-217 -84 -265 -104v-3q7 -3 57.5 -23t108 -43t99.5 -41v-117q-67 30 -198.5 88t-197.5 88zM486 0h-396v107h396v-107z" />
    <glyph glyph-name="greaterequal" unicode="&#x2265;" 
d="M496 401v-91q-67 -30 -198.5 -88t-197.5 -88v117q42 18 99.5 41t108 43t57.5 23v3q-48 20 -265 104v115zM496 0h-396v107h396v-107z" />
    <glyph glyph-name="dotmath" unicode="&#x22c5;" horiz-adv-x="255" 
d="M63 253v134h129v-134h-129z" />
    <glyph glyph-name="lozenge" unicode="&#x25ca;" 
d="M345 0h-104l-220 356l220 359h104l219 -359zM293 125l134 231l-134 234l-135 -234z" />
    <glyph glyph-name="commaaccent" unicode="&#xf6c3;" horiz-adv-x="269" 
d="M236 -49l-83 -119h-116l59 119h140z" />
    <glyph glyph-name="uniF8FF" unicode="&#xf8ff;" horiz-adv-x="529" 
d="M265 115q-90 0 -152.5 62t-62.5 152q0 89 62.5 150.5t152.5 61.5q88 0 151 -61.5t63 -150.5t-63 -151.5t-151 -62.5z" />
    <glyph glyph-name="acute.caps" horiz-adv-x="427" 
d="M390 876l-131 -115h-132l106 115h157z" />
    <glyph glyph-name="grave.caps" horiz-adv-x="512" 
d="M262 761l-131 115h157l106 -115h-132z" />
    <glyph glyph-name="circumflex.caps" horiz-adv-x="503" 
d="M184 875h135q19 -20 54 -57t54 -57h-119l-55 58l-56 -58h-119q68 72 106 114z" />
    <glyph glyph-name="caron.caps" horiz-adv-x="502" 
d="M319 761h-135q-38 42 -106 114h119l56 -58l55 58h119q-19 -20 -54 -57t-54 -57z" />
    <glyph glyph-name="tilde.caps" horiz-adv-x="470" 
d="M241 779q-31 18 -46 18q-14 0 -20 -7.5t-9 -26.5h-75q0 49 27 85t67 36q26 0 72 -22q37 -18 47 -18q14 0 19.5 7.5t8.5 26.5h72q0 -50 -24.5 -85.5t-64.5 -35.5q-28 0 -74 22z" />
    <glyph glyph-name="macron.caps" horiz-adv-x="428" 
d="M110 773v85h273v-85h-273z" />
    <glyph glyph-name="breve.caps" horiz-adv-x="465" 
d="M249 751q-62 0 -101 33.5t-47 91.5h82q14 -49 66 -49q46 0 66 49h81q-8 -58 -46.5 -91.5t-100.5 -33.5z" />
    <glyph glyph-name="dotaccent.caps" horiz-adv-x="328" 
d="M108 763v110h112v-110h-112z" />
    <glyph glyph-name="ring.caps" horiz-adv-x="405" 
d="M246 738q-41 0 -69 28.5t-28 70.5q0 40 29 68.5t69 28.5q41 0 69.5 -28.5t28.5 -68.5q0 -42 -28.5 -70.5t-70.5 -28.5zM203 837q0 -19 12.5 -32t30.5 -13q19 0 31.5 12.5t12.5 32.5q0 17 -13 30t-31 13t-30.5 -13t-12.5 -30z" />
    <glyph glyph-name="cedilla.caps" horiz-adv-x="369" 
d="M95 -163l93 114h123l-76 -114h-140z" />
    <glyph glyph-name="ogonek.caps" horiz-adv-x="331" 
d="M188 -49l93 -114h-140l-76 114h123z" />
    <glyph glyph-name="hungarumlaut.caps" horiz-adv-x="612" 
d="M387 876l-131 -115h-125l106 115h150zM588 876l-131 -115h-125l106 115h150z" />
    <glyph glyph-name="dieresis.caps" horiz-adv-x="491" 
d="M114 763v110h112v-110h-112zM301 763v110h111v-110h-111z" />
    <glyph glyph-name="horn" horiz-adv-x="264" 
d="M231 715l-70 -191h-105l55 191h120z" />
    <glyph glyph-name="zero.plf" horiz-adv-x="608" 
d="M304 729q75 0 126.5 -30.5t78 -86t37 -117t10.5 -139.5q0 -84 -11.5 -147.5t-38.5 -116t-78 -80t-124 -27.5t-124 27.5t-78 80t-38.5 116t-11.5 147.5q0 78 10.5 139.5t37 117t78 86t126.5 30.5zM304 618q-36 0 -60.5 -20t-37 -59t-17 -81.5t-4.5 -101.5
q0 -127 26 -195.5t93 -68.5q35 0 59 19t37 56.5t18 82t5 106.5q0 59 -4.5 101.5t-17 81.5t-37 59t-60.5 20z" />
    <glyph glyph-name="one.plf" horiz-adv-x="425" 
d="M201 0v511h-172v95q93 2 135.5 26t51.5 83h110v-715h-125z" />
    <glyph glyph-name="two.plf" horiz-adv-x="576" 
d="M522 0h-468v104l74 67l138 127q69 64 99 111.5t30 97.5q0 51 -29.5 81.5t-80.5 30.5q-58 0 -87 -36.5t-30 -96.5h-119q0 2 -1 4v3q0 102 62.5 169t174.5 67q109 0 173 -61.5t64 -157.5q0 -52 -20 -100.5t-58.5 -92.5t-72 -75t-84.5 -73t-73 -62h308v-107z" />
    <glyph glyph-name="three.plf" horiz-adv-x="578" 
d="M36 206h122q6 -53 38 -83.5t89 -30.5q55 0 88.5 35.5t33.5 87.5q0 62 -40 92.5t-106 30.5h-28v100q141 0 141 100q-1 43 -26.5 65t-65.5 22q-39 0 -65 -23t-31 -65h-115q2 85 60.5 138.5t153.5 53.5q96 0 154 -51.5t58 -135.5q0 -96 -96 -148q63 -21 97.5 -69t34.5 -114
q0 -100 -68 -162t-183 -62q-109 0 -174.5 61t-71.5 158z" />
    <glyph glyph-name="four.plf" horiz-adv-x="598" 
d="M558 251v-105h-94v-146h-113v146h-324v98l214 308q109 161 111 163h112v-464h94zM353 555h-2q-62 -101 -78 -125l-47 -69q-42 -62 -50 -73q-12 -17 -25 -37h200v176q0 21 1 66t1 62z" />
    <glyph glyph-name="five.plf" horiz-adv-x="573" 
d="M63 329q2 20 44 386h378v-110h-280q-4 -21 -7.5 -58.5t-5.5 -49.5l-8 -57q56 37 124 37q101 0 164 -66.5t63 -173.5q0 -109 -70 -180.5t-181 -71.5q-104 0 -171 58.5t-77 152.5h123q9 -48 39.5 -77t82.5 -29q62 0 96 39t34 104q0 59 -35 99t-94 40q-74 0 -107 -61
q-71 13 -112 18z" />
    <glyph glyph-name="six.plf" horiz-adv-x="607" 
d="M549 531h-123q-7 38 -34.5 65t-74.5 27q-72 0 -108 -61t-38 -158h2q57 63 160 63q101 0 163.5 -65.5t62.5 -171.5q0 -107 -69.5 -175.5t-179.5 -68.5q-130 0 -195 87.5t-65 254.5q0 193 67 297t201 104q99 0 159 -54t72 -144zM308 366q-55 0 -91 -37.5t-36 -96.5
q0 -60 36 -97.5t92 -37.5q54 0 90 38t36 95q0 58 -36.5 97t-90.5 39z" />
    <glyph glyph-name="seven.plf" horiz-adv-x="499" 
d="M218 0h-137q54 139 150 351q95 204 120 251v1q-19 -1 -55 -1h-263v113h448v-104v-2l-24 -50q-138 -286 -239 -559z" />
    <glyph glyph-name="eight.plf" horiz-adv-x="594" 
d="M170 387q-94 58 -94 156q0 79 61 132.5t160 53.5q100 0 160.5 -53.5t60.5 -133.5q0 -103 -94 -155q125 -57 125 -187q0 -97 -70 -156.5t-182 -59.5t-181.5 59.5t-69.5 156.5q0 132 124 187zM297 332q-57 0 -91 -34t-34 -89q0 -52 34 -86.5t91 -34.5q56 0 90 34.5t34 86.5
q0 55 -34 89t-90 34zM297 622q-47 0 -74.5 -27t-27.5 -67q0 -41 27.5 -68.5t74.5 -27.5t74.5 27.5t27.5 68.5q0 40 -27.5 67t-74.5 27z" />
    <glyph glyph-name="nine.plf" horiz-adv-x="607" 
d="M56 183h125q7 -39 34.5 -65t75.5 -26q135 0 144 224h-2q-55 -66 -163 -66q-98 0 -160 65.5t-62 169.5q0 106 69 175t179 69q128 0 194.5 -89t66.5 -254q0 -195 -66.5 -298t-200.5 -103q-100 0 -161 54t-73 144zM298 620q-54 0 -90 -37.5t-36 -94.5q0 -58 36 -96.5
t91 -38.5q54 0 90 37t36 95q0 61 -35.5 98t-91.5 37z" />
    <glyph glyph-name="Gtilde" horiz-adv-x="792" 
d="M373 378h362v-378h-115v34v38q-79 -86 -229 -86q-151 0 -250 103.5t-99 267.5q0 162 101 267t264 105q122 0 209.5 -63.5t118.5 -163.5h-144q-52 118 -185 118q-109 0 -171 -73t-62 -188q0 -118 64 -192t173 -74q96 0 150 51.5t60 132.5h-247v101zM404 779q-31 18 -46 18
q-14 0 -20 -7.5t-9 -26.5h-75q0 49 27 85t67 36q26 0 72 -22q37 -18 47 -18q14 0 19.5 7.5t8.5 26.5h72q0 -50 -24.5 -85.5t-64.5 -35.5q-28 0 -74 22z" />
    <glyph glyph-name="gtilde" horiz-adv-x="648" 
d="M579 525v-438q0 -130 -71.5 -204.5t-200.5 -74.5q-98 0 -163.5 46.5t-86.5 126.5h129q32 -72 121 -72q84 0 121.5 50t37.5 150h-2q-23 -37 -69 -61.5t-110 -24.5q-113 0 -179.5 71.5t-66.5 185.5q0 116 68.5 188.5t174.5 72.5q121 0 182 -86q-1 12 -1 35v35h116zM313 440
q-69 0 -109 -43.5t-40 -115.5q0 -71 39.5 -115t109.5 -44q66 0 108 43t42 119q0 70 -40.5 113t-109.5 43zM325 613q-31 18 -46 18q-14 0 -20 -8.5t-9 -28.5h-75q0 49 27 86.5t67 37.5q26 0 72 -22q37 -18 47 -18q13 0 19 8.5t9 28.5h72q0 -51 -24.5 -87.5t-64.5 -36.5
q-28 0 -74 22z" />
    <glyph glyph-name="Mcircumflex" horiz-adv-x="943" 
d="M85 0v715h200l128 -380q7 -23 27.5 -89.5t30.5 -97.5h1q12 34 36.5 108.5t28.5 85.5l127 373h194v-715h-126v364q0 40 1 129.5t1 115.5h-1q-4 -16 -15.5 -51.5t-30 -92.5t-30.5 -93l-125 -372h-125l-150 447q-13 39 -28.5 95t-20.5 72h-1q2 -118 2 -240v-374h-124z
M402 875h135q19 -20 54 -57t54 -57h-119l-55 58l-56 -58h-119q68 72 106 114z" />
    <glyph glyph-name="mcircumflex" horiz-adv-x="931" 
d="M186 525v-33q0 -21 -1 -33q48 83 158 83q109 0 157 -89q63 89 177 89q91 0 140 -56t49 -160v-326h-122v280q0 82 -24 121t-77 39q-55 0 -84.5 -37.5t-29.5 -98.5v-304h-122v283q0 81 -24 119t-78 38q-57 0 -85 -40t-28 -107v-293h-122v444q0 53 -1 81h117zM405 715h135
q19 -22 55.5 -61.5t52.5 -57.5h-119l-55 62l-56 -62h-119q22 23 60.5 67z" />
    <glyph glyph-name="Mmacron" horiz-adv-x="943" 
d="M85 0v715h200l128 -380q7 -23 27.5 -89.5t30.5 -97.5h1q12 34 36.5 108.5t28.5 85.5l127 373h194v-715h-126v364q0 40 1 129.5t1 115.5h-1q-4 -16 -15.5 -51.5t-30 -92.5t-30.5 -93l-125 -372h-125l-150 447q-13 39 -28.5 95t-20.5 72h-1q2 -118 2 -240v-374h-124z
M334 773v85h273v-85h-273z" />
    <glyph glyph-name="mmacron" horiz-adv-x="931" 
d="M186 525v-33q0 -21 -1 -33q48 83 158 83q109 0 157 -89q63 89 177 89q91 0 140 -56t49 -160v-326h-122v280q0 82 -24 121t-77 39q-55 0 -84.5 -37.5t-29.5 -98.5v-304h-122v283q0 81 -24 119t-78 38q-57 0 -85 -40t-28 -107v-293h-122v444q0 53 -1 81h117zM339 618v85
h273v-85h-273z" />
    <glyph glyph-name="Ncircumflex" horiz-adv-x="763" 
d="M85 0v715h156l238 -410q13 -23 41.5 -71t36.5 -62l1 1q0 17 -0.5 84t-0.5 105v353h121v-715h-151l-230 392q-24 42 -54 92t-34 58h-1q0 -17 0.5 -107t0.5 -125v-310h-124zM316 875h135q19 -20 54 -57t54 -57h-119l-55 58l-56 -58h-119q68 72 106 114z" />
    <glyph glyph-name="ncircumflex" horiz-adv-x="605" 
d="M186 526v-33q0 -22 -1 -33q0 -1 1 -1q55 83 164 83q90 0 140 -57t50 -159v-326h-122v271q0 83 -24 126t-83 43t-89 -41t-30 -106v-293h-122v446q0 53 -1 80h117zM253 715h135q19 -22 55.5 -61.5t52.5 -57.5h-119l-55 62l-56 -62h-119q22 23 60.5 67z" />
    <glyph glyph-name="Ndieresis" horiz-adv-x="763" 
d="M85 0v715h156l238 -410q13 -23 41.5 -71t36.5 -62l1 1q0 17 -0.5 84t-0.5 105v353h121v-715h-151l-230 392q-24 42 -54 92t-34 58h-1q0 -17 0.5 -107t0.5 -125v-310h-124zM237 763v110h112v-110h-112zM424 763v110h111v-110h-111z" />
    <glyph glyph-name="ndieresis" horiz-adv-x="605" 
d="M186 526v-33q0 -22 -1 -33q0 -1 1 -1q55 83 164 83q90 0 140 -57t50 -159v-326h-122v271q0 83 -24 126t-83 43t-89 -41t-30 -106v-293h-122v446q0 53 -1 80h117zM181 603v110h112v-110h-112zM368 603v110h111v-110h-111z" />
    <glyph glyph-name="Nmacron" horiz-adv-x="763" 
d="M85 0v715h156l238 -410q13 -23 41.5 -71t36.5 -62l1 1q0 17 -0.5 84t-0.5 105v353h121v-715h-151l-230 392q-24 42 -54 92t-34 58h-1q0 -17 0.5 -107t0.5 -125v-310h-124zM252 773v85h273v-85h-273z" />
    <glyph glyph-name="nmacron" horiz-adv-x="605" 
d="M186 526v-33q0 -22 -1 -33q0 -1 1 -1q55 83 164 83q90 0 140 -57t50 -159v-326h-122v271q0 83 -24 126t-83 43t-89 -41t-30 -106v-293h-122v446q0 53 -1 80h117zM192 618v85h273v-85h-273z" />
    <glyph glyph-name="Pmacron" horiz-adv-x="619" 
d="M85 0v715h212q73 0 111.5 -6.5t79.5 -27.5q47 -25 72.5 -72t25.5 -108q0 -121 -87 -179q-38 -25 -85 -33t-118 -8h-84v-281h-127zM212 604v-213h107q64 0 102.5 26.5t38.5 82.5q0 104 -147 104h-101zM181 773v85h273v-85h-273z" />
    <glyph glyph-name="pmacron" horiz-adv-x="646" 
d="M185 525v-34v-36q24 38 70 62.5t110 24.5q108 0 175.5 -77.5t67.5 -200.5q0 -121 -67 -198.5t-179 -77.5q-58 0 -102.5 23.5t-68.5 59.5h-1q2 -25 2 -103v-148h-122v705h115zM337 442q-70 0 -110.5 -50t-40.5 -130q0 -76 42.5 -125t108.5 -49q67 0 106.5 50t39.5 128
q0 77 -39.5 126.5t-106.5 49.5zM215 618v85h273v-85h-273z" />
    <glyph glyph-name="at.case" horiz-adv-x="823" 
d="M548 538h89l-51 -289q-6 -34 24 -34q42 0 74.5 57t32.5 134q0 113 -78 187.5t-207 74.5q-139 0 -227.5 -90.5t-88.5 -226.5q0 -141 92 -227t235 -86q126 0 222 77l58 -26q-120 -115 -286 -115q-173 0 -283 105t-110 272q0 161 110 270.5t278 109.5q150 0 250.5 -88
t100.5 -220q0 -119 -61 -195.5t-153 -76.5q-62 0 -76 39q-42 -42 -116 -42q-73 0 -115.5 45t-42.5 125q0 93 55 161t146 68q81 0 121 -52zM429 470q-57 0 -88 -45t-31 -107q0 -44 23 -71.5t67 -27.5q58 0 90 45.5t32 106.5q0 99 -93 99z" />
    <glyph glyph-name="bar.case" horiz-adv-x="307" 
d="M97 -42v793h113v-793h-113z" />
    <glyph glyph-name="plus.case" 
d="M72 308v107h167v175h107v-175h168v-107h-168v-176h-107v176h-167z" />
    <glyph glyph-name="minus.case" 
d="M72 308v107h442v-107h-442z" />
    <glyph glyph-name="plusminus.case" 
d="M72 350v107h167v134h107v-134h168v-107h-168v-136h-107v136h-167zM514 40h-442v107h442v-107z" />
    <glyph glyph-name="multiply.case" 
d="M141 137l-73 73l151 151l-151 151l73 73l151 -151l152 152l73 -73l-152 -152l152 -152l-73 -73l-152 152z" />
    <glyph glyph-name="divide.case" 
d="M72 308v107h442v-107h-442zM233 470v120h117v-120h-117zM233 132v120h117v-120h-117z" />
    <glyph glyph-name="equal.case" 
d="M72 231v105h442v-105h-442zM72 392v105h442v-105h-442z" />
    <glyph glyph-name="notequal.case" 
d="M72 392v105h230l50 103h109l-50 -103h103v-105h-154l-27 -56h181v-105h-232l-54 -111h-109l54 111h-101v105h152l27 56h-179z" />
    <glyph glyph-name="approxequal.case" 
d="M486 504l68 -49q-30 -54 -64.5 -83.5t-81.5 -29.5q-13 0 -25.5 2t-28 7.5t-22.5 8t-26.5 11.5t-22.5 10l-26 11q-44 21 -72 21q-53 0 -82 -68l-68 50q64 118 150 118q38 0 117 -35l13 -6q66 -30 91 -30q46 0 80 62zM484 254l68 -49q-30 -54 -64.5 -83.5t-81.5 -29.5
q-13 0 -25.5 2t-28 7.5t-22.5 8t-26.5 11.5t-22.5 10l-26 11q-44 21 -72 21q-53 0 -82 -68l-68 50q64 118 150 118q38 0 117 -35l13 -6q66 -30 91 -30q46 0 80 62z" />
    <glyph glyph-name="logicalnot.case" 
d="M32 400v107h504v-330h-109v223h-395z" />
    <glyph glyph-name="parenleft.case" horiz-adv-x="342" 
d="M41 349q0 152 70 280.5t185 179.5v-115q-135 -135 -135 -344q0 -207 135 -342v-115q-114 49 -184.5 178.5t-70.5 277.5z" />
    <glyph glyph-name="parenright.case" horiz-adv-x="342" 
d="M301 349q0 -148 -70.5 -277.5t-184.5 -178.5v115q135 135 135 342q0 209 -135 344v115q115 -51 185 -179.5t70 -280.5z" />
    <glyph glyph-name="hyphen.case" horiz-adv-x="402" 
d="M65 301v105h272v-105h-272z" />
    <glyph glyph-name="bracketleft.case" horiz-adv-x="369" 
d="M327 19v-82h-230v828h230v-82h-113v-664h113z" />
    <glyph glyph-name="bracketright.case" horiz-adv-x="368" 
d="M42 -63v82h113v664h-113v82h229v-828h-229z" />
    <glyph glyph-name="braceleft.case" horiz-adv-x="335" 
d="M40 330v41q37 11 51 32t14 77v163q0 72 28.5 99t111.5 27q4 0 12.5 -0.5t11.5 -0.5h12v-79q-36 -2 -49 -18t-13 -63v-104q0 -82 -11 -108t-56 -44v-2q44 -18 55.5 -44.5t11.5 -107.5v-105q0 -47 13 -63t49 -18v-79q-4 -1 -12 -1h-24q-83 0 -111.5 27t-28.5 99v163
q0 56 -14 77t-51 32z" />
    <glyph glyph-name="braceright.case" horiz-adv-x="335" 
d="M295 371v-41q-37 -11 -51 -32t-14 -77v-163q0 -72 -28.5 -99t-111.5 -27h-24q-8 0 -12 1v79q36 2 49 18t13 63v105q0 81 11.5 107.5t55.5 44.5v2q-45 18 -56 44t-11 108v104q0 47 -13 63t-49 18v79h12q3 0 11 0.5t13 0.5q83 0 111.5 -27t28.5 -99v-163q0 -56 14 -77
t51 -32z" />
    <glyph glyph-name="guillemotleft.case" horiz-adv-x="527" 
d="M274 533l-96 -187l96 -188h-124l-102 188l102 187h124zM472 533l-91 -187l91 -188h-122l-102 188l102 187h122z" />
    <glyph glyph-name="guillemotright.case" horiz-adv-x="527" 
d="M349 346l-96 187h124l102 -187l-102 -188h-124zM146 346l-91 187h122l102 -187l-102 -188h-122z" />
    <glyph glyph-name="endash.case" horiz-adv-x="608" 
d="M66 311v103h476v-103h-476z" />
    <glyph glyph-name="emdash.case" horiz-adv-x="973" 
d="M66 311v103h841v-103h-841z" />
    <glyph glyph-name="guilsinglleft.case" horiz-adv-x="327" 
d="M272 533l-91 -187l91 -188h-122l-102 188l102 187h122z" />
    <glyph glyph-name="guilsinglright.case" horiz-adv-x="328" 
d="M150 346l-96 187h124l102 -187l-102 -188h-124z" />
    <glyph glyph-name="brokenbar.case" horiz-adv-x="253" 
d="M70 478v303h113v-303h-113zM70 -12v303h113v-303h-113z" />
    <glyph glyph-name="registered.alt" horiz-adv-x="835" 
d="M274 141v431h150q75 0 114 -25q52 -36 52 -103q0 -100 -96 -128l106 -175h-100l-97 164h-42v-164h-87zM361 497v-117h58q85 0 85 59q0 58 -85 58h-58zM794 360q0 -158 -110 -267.5t-268 -109.5q-156 0 -265.5 110t-109.5 267t109.5 266.5t267.5 109.5q156 0 266 -110
t110 -266zM731 360q0 131 -92 223.5t-221 92.5q-131 0 -222 -92t-91 -224q0 -131 91 -224.5t221 -93.5t222 93t92 225z" />
    <glyph glyph-name="less.case" 
d="M79 307v105q226 117 396 208v-125q-240 -113 -275 -130v-3q66 -33 275 -132v-128q-79 42 -227 118t-169 87z" />
    <glyph glyph-name="greater.case" 
d="M507 412v-105q-21 -11 -169 -87t-227 -118v128q209 99 275 132v3q-35 17 -275 130v125q170 -91 396 -208z" />
    <glyph glyph-name="lessequal.case" 
d="M90 350v91l396 179v-115q-217 -84 -265 -104v-3q7 -3 57.5 -23t108 -43t99.5 -41v-117q-67 30 -198.5 88t-197.5 88zM486 40h-396v107h396v-107z" />
    <glyph glyph-name="greaterequal.case" 
d="M497 441v-91q-67 -30 -198.5 -88t-197.5 -88v117q42 18 99.5 41t108 43t57.5 23v3q-48 20 -265 104v115zM497 40h-396v107h396v-107z" />
    <glyph glyph-name="infinity.case" horiz-adv-x="833" 
d="M222 542q35 0 71.5 -16.5t58 -33t67.5 -55.5q42 37 65.5 55t59 34t69.5 16q80 0 127 -49t47 -129q0 -72 -44 -123.5t-126 -51.5q-39 0 -78.5 18.5t-62.5 37.5t-59 54q-71 -65 -104 -84q-46 -26 -95 -26q-82 0 -126 51.5t-44 123.5q0 80 47 129t127 49zM610 294
q34 0 53 19.5t19 53.5q0 31 -19 51.5t-51 20.5q-47 0 -133 -74q6 -5 21 -17t21.5 -17t19.5 -14t22 -13t21.5 -7t25.5 -3zM225 294q15 0 28 3t29 13t22.5 14t27.5 21.5t24 19.5q-86 74 -133 74q-32 0 -51 -20.5t-19 -51.5q0 -34 19 -53.5t53 -19.5z" />
    <glyph glyph-name="uni00AD.case" horiz-adv-x="402" 
d="M65 301v105h272v-105h-272z" />
    <glyph glyph-name="zero.posf" horiz-adv-x="610" 
d="M305 715q75 0 126.5 -30t78 -84.5t37 -114.5t10.5 -137q0 -82 -11.5 -144t-38.5 -114t-78 -79t-124 -27t-124 27t-78 79t-38.5 114t-11.5 144q0 77 10.5 137t37 114.5t78 84.5t126.5 30zM305 606q-36 0 -60.5 -20t-37 -58t-17 -80t-4.5 -99q0 -124 26 -191.5t93 -67.5
q35 0 59 19t37 55.5t18 80.5t5 104q0 57 -4.5 99t-17 80t-37 58t-60.5 20z" />
    <glyph glyph-name="one.posf" horiz-adv-x="426" 
d="M202 0v501h-172v93q94 2 135.5 25.5t51.5 81.5h110v-701h-125z" />
    <glyph glyph-name="two.posf" horiz-adv-x="577" 
d="M522 0h-468v102l74 66l138 124q69 63 99 109.5t30 95.5q0 51 -29.5 80.5t-80.5 29.5q-58 0 -87 -35.5t-30 -94.5h-119q0 1 -0.5 3t-0.5 3q0 100 63 166t174 66q109 0 173 -60.5t64 -154.5q0 -51 -20 -98.5t-58.5 -90.5t-72 -73.5t-85 -72t-72.5 -60.5h308v-105z" />
    <glyph glyph-name="three.posf" horiz-adv-x="578" 
d="M36 202h122q13 -112 127 -112q55 0 88.5 34.5t33.5 86.5q0 60 -40.5 90t-105.5 30h-28v98q141 0 141 98q-1 42 -26.5 64t-65.5 22t-65.5 -23t-30.5 -64h-115q2 83 60.5 136t153.5 53q96 0 154 -51t58 -133q0 -93 -96 -145q64 -20 98 -67t34 -112q0 -98 -68 -159t-183 -61
q-109 0 -174.5 60.5t-71.5 154.5z" />
    <glyph glyph-name="four.posf" horiz-adv-x="600" 
d="M559 246v-103h-94v-143h-113v143h-324v96l214 302q101 150 111 160h112v-455h94zM354 544h-2q-56 -91 -78 -122l-47 -68l-50 -72q-9 -12 -25 -36h200v173q0 59 2 125z" />
    <glyph glyph-name="five.posf" horiz-adv-x="573" 
d="M63 322q7 58 14.5 121t16 138.5t13.5 119.5h378v-108h-280q-4 -20 -7.5 -57t-5.5 -49l-8 -56q55 36 124 36q101 0 164 -65t63 -170q0 -106 -70 -176.5t-181 -70.5q-104 0 -171 57.5t-77 149.5h123q9 -47 39.5 -75.5t82.5 -28.5q61 0 95.5 39t34.5 101q0 59 -35 98t-94 39
q-72 0 -107 -60q-72 13 -112 17z" />
    <glyph glyph-name="six.posf" horiz-adv-x="607" 
d="M549 521h-123q-7 38 -34.5 64t-74.5 26q-72 0 -108 -60t-38 -155h2q60 62 160 62q101 0 163.5 -63.5t62.5 -168.5t-69 -172.5t-180 -67.5q-130 0 -195 86t-65 250q0 190 67 291.5t201 101.5q99 0 159 -53t72 -141zM308 359q-54 0 -90.5 -37t-36.5 -94q0 -60 35.5 -96.5
t92.5 -36.5q54 0 90 37.5t36 93.5q0 57 -36.5 95t-90.5 38z" />
    <glyph glyph-name="seven.posf" horiz-adv-x="502" 
d="M220 0h-137q46 116 150 344q92 196 120 246v1q-19 -1 -55 -1h-263v111h448v-102v-2l-24 -49q-136 -276 -239 -548z" />
    <glyph glyph-name="eight.posf" horiz-adv-x="595" 
d="M170 379q-94 58 -94 153q0 77 61 130t160 53t160 -53t61 -131q0 -100 -94 -152q60 -27 92.5 -74t32.5 -109q0 -95 -70 -153.5t-182 -58.5q-111 0 -181 58.5t-70 153.5q0 128 124 183zM297 325q-57 0 -91 -33t-34 -87q0 -52 33.5 -85.5t91.5 -33.5q56 0 90 33.5t34 85.5
q0 54 -33.5 87t-90.5 33zM297 610q-47 0 -74.5 -26.5t-27.5 -65.5q0 -40 27.5 -67.5t74.5 -27.5t74.5 27.5t27.5 67.5q0 39 -27.5 65.5t-74.5 26.5z" />
    <glyph glyph-name="nine.posf" horiz-adv-x="607" 
d="M56 179h125q6 -38 34 -63.5t76 -25.5q135 0 144 220h-2q-52 -65 -163 -65q-98 0 -160 64.5t-62 165.5q0 105 69 172.5t179 67.5q130 0 195.5 -87t65.5 -250q0 -190 -66.5 -291.5t-200.5 -101.5q-99 0 -160.5 53t-73.5 141zM298 608q-54 0 -90 -37t-36 -93q0 -57 36 -94.5
t91 -37.5q54 0 90 36t36 93q0 60 -35.5 96.5t-91.5 36.5z" />
    <glyph glyph-name="zero.slash" 
d="M293 730q254 0 254 -374q0 -66 -7 -119.5t-24.5 -101.5t-45.5 -80t-73 -51t-104 -19t-104 19t-73 51t-45.5 80t-24.5 101.5t-7 119.5q0 374 254 374zM411 356q0 92 -11 145l-143 -403q17 -6 36 -6q67 0 92.5 68t25.5 196zM293 619q-36 0 -60.5 -20.5t-36.5 -59.5
t-16.5 -82t-4.5 -101q0 -84 10 -143l143 400q-15 6 -35 6z" />
    <glyph glyph-name="zero.sub" horiz-adv-x="461" 
d="M230 -50q49 0 67.5 50.5t18.5 145.5q0 43 -3 74t-11.5 60t-26.5 44.5t-45 15.5q-50 0 -67.5 -51.5t-17.5 -142.5q0 -94 18.5 -145t66.5 -51zM230 426q193 0 193 -281q0 -62 -9 -109.5t-29.5 -87t-59.5 -60.5t-95 -21t-94.5 21t-59 60.5t-29.5 87t-9 109.5q0 281 192 281z
" />
    <glyph glyph-name="one.sub" horiz-adv-x="322" 
d="M151 258h-129v75q70 1 100.5 19t37.5 62h88v-537h-97v381z" />
    <glyph glyph-name="two.sub" horiz-adv-x="431" 
d="M40 -123v82q98 84 159 142q51 51 72.5 85t21.5 70q0 37 -21 60t-59 23q-42 0 -63 -27t-22 -72h-92q-1 5 -1 13q0 74 48 122.5t130 48.5t130 -46.5t48 -118.5q0 -103 -136 -222q-44 -38 -92 -77h228v-83h-351z" />
    <glyph glyph-name="three.sub" horiz-adv-x="432" 
d="M172 124v76q103 0 103 71q0 31 -19 48t-47 17q-27 0 -46 -17t-22 -47h-89q2 63 45.5 103.5t113.5 40.5q74 0 116.5 -38t42.5 -102q0 -72 -69 -109q97 -32 97 -138q0 -76 -51 -122t-138 -46q-82 0 -130 45.5t-54 118.5h94q4 -37 29 -60t63 -23q41 0 65.5 26t24.5 64
q0 46 -30 69t-78 23h-21z" />
    <glyph glyph-name="four.sub" horiz-adv-x="450" 
d="M262 -15h-241v76l161 230q1 1 53 78l30 45h85v-347h69v-82h-69v-108h-88v108zM262 67v130q0 40 2 88q-42 -64 -56 -88q-15 -24 -54 -78l-36 -52h144z" />
    <glyph glyph-name="five.sub" horiz-adv-x="430" 
d="M120 21l1 -1q7 -34 30 -55.5t60 -21.5q44 0 69.5 29.5t25.5 75.5q0 44 -25.5 73.5t-68.5 29.5q-50 0 -78 -45l-37 6l-50 9q19 150 34 289h282v-86h-206l-15 -117q38 24 88 24q77 0 124.5 -49.5t47.5 -130.5q0 -82 -52.5 -135.5t-137.5 -53.5q-78 0 -128 44t-58 115h94z
" />
    <glyph glyph-name="six.sub" horiz-adv-x="457" 
d="M414 274h-95q-4 29 -24.5 49t-55.5 20q-99 0 -103 -158q45 43 116 43q77 0 123.5 -49t46.5 -129q0 -81 -52 -132t-136 -51q-197 0 -197 256q0 146 50.5 224t151.5 78q76 0 121 -41.5t54 -109.5zM233 -47q40 0 66.5 27.5t26.5 69.5q0 43 -26.5 71.5t-66.5 28.5t-66 -27
t-26 -71t26 -71.5t66 -27.5z" />
    <glyph glyph-name="seven.sub" horiz-adv-x="376" 
d="M164 -123h-106q73 183 201 448h-233v89h335v-81q-94 -195 -197 -456z" />
    <glyph glyph-name="eight.sub" horiz-adv-x="440" 
d="M220 420q73 0 117 -40.5t44 -100.5q0 -69 -63 -115q89 -42 89 -140q0 -74 -52 -118.5t-135 -44.5t-134.5 44.5t-51.5 118.5q0 97 89 140q-63 46 -63 115q0 60 44 100.5t116 40.5zM220 337q-33 0 -52.5 -20t-19.5 -49q0 -30 20 -50t52 -20q33 0 52.5 20t19.5 50
q0 29 -19.5 49t-52.5 20zM220 121q-41 0 -65.5 -25t-24.5 -65q0 -39 24.5 -64t65.5 -25t65.5 25t24.5 64q0 40 -24.5 65t-65.5 25z" />
    <glyph glyph-name="nine.sub" horiz-adv-x="458" 
d="M42 16h96q6 -28 26.5 -47t54.5 -19q95 0 101 159q-43 -45 -118 -45t-121 49t-46 127q0 81 52 133t135 52q98 0 148.5 -66t50.5 -191q0 -146 -51 -223.5t-152 -77.5q-75 0 -121.5 40.5t-54.5 108.5zM223 340q-39 0 -65.5 -27.5t-26.5 -69.5q0 -43 26.5 -71t65.5 -28
q40 0 66.5 26.5t26.5 70.5t-26.5 71.5t-66.5 27.5z" />
    <glyph glyph-name="zero.sup" horiz-adv-x="459" 
d="M229 375q49 0 67.5 50.5t18.5 145.5q0 43 -3 74t-11.5 60t-26.5 44.5t-45 15.5q-50 0 -67.5 -51.5t-17.5 -142.5q0 -94 18.5 -145t66.5 -51zM229 851q193 0 193 -281q0 -62 -9 -109.5t-29.5 -87t-59.5 -60.5t-95 -21t-94.5 21t-59 60.5t-29.5 87t-9 109.5q0 281 192 281z
" />
    <glyph glyph-name="one.sup" horiz-adv-x="321" 
d="M150 683h-129v75q70 1 100.5 19t37.5 62h88v-537h-97v381z" />
    <glyph glyph-name="two.sup" horiz-adv-x="430" 
d="M39 302v82q98 84 159 142q51 51 72.5 85t21.5 70q0 37 -21 60t-59 23q-42 0 -63 -27t-22 -72h-92q-1 5 -1 13q0 74 48 122.5t130 48.5t130 -46.5t48 -118.5q0 -103 -136 -222q-43 -38 -92 -77h228v-83h-351z" />
    <glyph glyph-name="three.sup" horiz-adv-x="431" 
d="M172 549v76q103 0 103 71q0 31 -19 48t-47 17q-27 0 -46 -17t-22 -47h-89q2 63 45.5 103.5t113.5 40.5q74 0 116.5 -38t42.5 -102q0 -72 -69 -109q97 -32 97 -138q0 -76 -51 -122t-138 -46q-82 0 -130 45.5t-54 118.5h94q4 -37 29 -60t63 -23q41 0 65.5 26t24.5 64
q0 46 -30 69t-78 23h-21z" />
    <glyph glyph-name="four.sup" horiz-adv-x="449" 
d="M261 410h-241v76l161 230q1 1 53 78l30 45h85v-347h69v-82h-69v-108h-88v108zM261 492v130q0 40 2 88q-42 -64 -56 -88q-15 -24 -54 -78l-36 -52h144z" />
    <glyph glyph-name="five.sup" horiz-adv-x="429" 
d="M120 446l1 -1q7 -34 30 -55.5t60 -21.5q44 0 69.5 29.5t25.5 75.5q0 44 -25.5 73.5t-68.5 29.5q-50 0 -78 -45l-37 6l-50 9q19 150 34 289h282v-86h-206l-15 -117q38 24 88 24q77 0 124.5 -49.5t47.5 -130.5q0 -82 -52.5 -135.5t-137.5 -53.5q-78 0 -128 44t-58 115h94z
" />
    <glyph glyph-name="six.sup" horiz-adv-x="456" 
d="M413 699h-95q-4 29 -24.5 49t-55.5 20q-99 0 -103 -158q45 43 116 43q77 0 123.5 -49t46.5 -129q0 -81 -52 -132t-136 -51q-197 0 -197 256q0 146 50.5 224t151.5 78q76 0 121 -41.5t54 -109.5zM232 378q40 0 66.5 27.5t26.5 69.5q0 43 -26.5 71.5t-66.5 28.5t-66 -27
t-26 -71t26 -71.5t66 -27.5z" />
    <glyph glyph-name="seven.sup" horiz-adv-x="375" 
d="M163 302h-106q73 183 201 448h-233v89h335v-81q-94 -195 -197 -456z" />
    <glyph glyph-name="eight.sup" horiz-adv-x="439" 
d="M219 845q73 0 117 -40.5t44 -100.5q0 -69 -63 -115q89 -42 89 -140q0 -74 -52 -118.5t-135 -44.5t-134.5 44.5t-51.5 118.5q0 97 89 140q-63 46 -63 115q0 60 44 100.5t116 40.5zM219 762q-33 0 -52.5 -20t-19.5 -49q0 -30 20 -50t52 -20q33 0 52.5 20t19.5 50
q0 29 -19.5 49t-52.5 20zM219 546q-41 0 -65.5 -25t-24.5 -65q0 -39 24.5 -64t65.5 -25t65.5 25t24.5 64q0 40 -24.5 65t-65.5 25z" />
    <glyph glyph-name="nine.sup" horiz-adv-x="457" 
d="M42 441h96q6 -28 26.5 -47t54.5 -19q95 0 101 159q-43 -45 -118 -45t-121 49t-46 127q0 81 52 133t135 52q98 0 148.5 -66t50.5 -191q0 -146 -51 -223.5t-152 -77.5q-75 0 -121.5 40.5t-54.5 108.5zM223 765q-39 0 -65.5 -27.5t-26.5 -69.5q0 -43 26.5 -71t65.5 -28
q40 0 66.5 26.5t26.5 70.5t-26.5 71.5t-66.5 27.5z" />
    <glyph glyph-name="a.sup" horiz-adv-x="417" 
d="M132 573h-94q6 57 51.5 96t120.5 39q84 0 124.5 -41t40.5 -135v-31q0 -10 -0.5 -28t-0.5 -25v-22q0 -71 5 -124h-86l-3 44q-48 -51 -125 -51q-62 0 -101.5 31t-39.5 86q0 115 241 135q1 0 5.5 0.5t6.5 0.5q5 0 7 1q-3 85 -76 85q-67 0 -76 -61zM270 481
q-79 -9 -112.5 -22.5t-33.5 -43.5q0 -50 67 -50q90 0 92 118q-8 -2 -13 -2z" />
    <glyph glyph-name="b.sup" horiz-adv-x="481" 
d="M46 302v537h95v-119q0 -44 -1 -71q43 58 127 58t134.5 -58.5t50.5 -148.5q0 -93 -51 -150t-132 -57q-89 0 -134 60v-51h-89zM247 628q-48 0 -79.5 -36t-31.5 -91q0 -58 30 -94.5t81 -36.5q50 0 79.5 36t29.5 92t-29.5 93t-79.5 37z" />
    <glyph glyph-name="c.sup" horiz-adv-x="437" 
d="M323 426h93q-17 -61 -65.5 -99.5t-120.5 -38.5q-92 0 -147 59t-55 151q0 91 56 149.5t147 58.5q75 0 122.5 -39.5t62.5 -104.5h-98q-26 66 -89 66q-47 0 -76 -36t-29 -93q0 -60 30 -96.5t81 -36.5q63 0 88 60z" />
    <glyph glyph-name="d.sup" horiz-adv-x="481" 
d="M435 839v-537h-89v51q-45 -60 -134 -60q-81 0 -132 57t-51 150q0 89 51 148t134 59q85 0 128 -58q-1 24 -1 71v119h94zM233 628q-50 0 -78.5 -36.5t-28.5 -93.5q0 -56 28.5 -92t78.5 -36q53 0 83 36.5t30 94.5q0 56 -32 91.5t-81 35.5z" />
    <glyph glyph-name="e.sup" horiz-adv-x="446" 
d="M421 470h-150q-26 0 -74 0.5t-72 0.5q7 -46 36 -76t71 -30q63 0 90 47h94q-19 -55 -68 -90t-118 -35q-92 0 -147 57.5t-55 150.5q0 91 56 150t145 59q92 0 143 -60t51 -151q0 -13 -1 -18q0 -1 -0.5 -3zM229 630q-42 0 -69 -24t-34 -68h202q-6 43 -32 67.5t-67 24.5z
M328 537l1 1h-1v-1z" />
    <glyph glyph-name="f.sup" horiz-adv-x="246" 
d="M231 841v-76q-14 2 -17 2q-46 0 -46 -44v-27h63v-72h-63v-322h-94v322h-51v72h51v24q0 56 34 90t93 34q15 0 30 -3z" />
    <glyph glyph-name="g.sup" horiz-adv-x="484" 
d="M232 235q119 0 117 144q-42 -62 -134 -62q-86 0 -135.5 53t-49.5 139q0 87 51 141t132 54q91 0 135 -59v48h90v-327q0 -98 -54 -154.5t-152 -56.5q-73 0 -123 36.5t-66 95.5h100q24 -52 89 -52zM237 393q49 0 80 31.5t31 87.5q0 51 -30 83t-81 32t-81 -32t-30 -85
q0 -52 30 -84.5t81 -32.5z" />
    <glyph glyph-name="h.sup" horiz-adv-x="441" 
d="M46 839h93v-142q0 -7 -0.5 -22.5t-0.5 -23.5q42 56 118 56q68 0 105.5 -42.5t37.5 -118.5v-244h-94v198q0 62 -18 94t-61 32q-42 0 -64 -30t-22 -78v-216h-94v537z" />
    <glyph glyph-name="i.sup" horiz-adv-x="187" 
d="M46 302v394h95v-394h-95zM45 751v88h97v-88h-97z" />
    <glyph glyph-name="j.sup" horiz-adv-x="186" 
d="M140 696v-410q0 -77 -24.5 -104t-101.5 -27q-30 0 -41 3v69q38 -3 55.5 7t17.5 41v421h94zM142 839v-88h-98v88h98z" />
    <glyph glyph-name="k.sup" horiz-adv-x="403" 
d="M413 302h-124q-21 25 -92 117l-57 73v-190h-94v537h94v-311l139 168h115l-107 -119q-48 -52 -56 -61q7 -11 113 -134z" />
    <glyph glyph-name="l.sup" horiz-adv-x="187" 
d="M46 302v537h95v-537h-95z" />
    <glyph glyph-name="m.sup" horiz-adv-x="686" 
d="M46 302v394h90v-48q39 59 117 59q79 0 117 -65q47 65 133 65q68 0 104.5 -42.5t36.5 -118.5v-244h-94v207q0 118 -74 118q-40 0 -62 -28t-22 -72v-225h-94v207q0 118 -74 118q-42 0 -62.5 -30t-20.5 -79v-216h-95z" />
    <glyph glyph-name="n.sup" horiz-adv-x="441" 
d="M46 302v333q0 41 -1 61h90v-48q44 59 121 59q68 0 105.5 -42.5t37.5 -118.5v-244h-94v198q0 62 -18 94.5t-61 32.5q-42 0 -64 -30.5t-22 -78.5v-216h-94z" />
    <glyph glyph-name="o.sup" horiz-adv-x="469" 
d="M232 365q51 0 80.5 35t29.5 95q0 57 -30 94t-80 37q-49 0 -78.5 -36.5t-29.5 -94.5q0 -60 28.5 -95t79.5 -35zM232 286q-94 0 -149 57.5t-55 150.5q0 94 56.5 152t149.5 58t150 -58.5t57 -151.5t-56.5 -150.5t-152.5 -57.5z" />
    <glyph glyph-name="p.sup" horiz-adv-x="481" 
d="M46 162v529h89v-49q45 60 134 60q81 0 132 -57t51 -150q0 -91 -50.5 -149t-134.5 -58t-127 58q1 -24 1 -71v-113h-95zM247 366q50 0 79.5 37t29.5 93q0 57 -29.5 93t-79.5 36q-51 0 -81 -37t-30 -95q0 -55 31.5 -91t79.5 -36z" />
    <glyph glyph-name="q.sup" horiz-adv-x="481" 
d="M435 691v-529h-94v113q0 44 1 71q-43 -58 -128 -58q-84 0 -134.5 58t-50.5 149q0 93 51 150t132 57q89 0 134 -60v49h89zM233 366q49 0 81 35.5t32 91.5q0 58 -30 95t-83 37q-50 0 -78.5 -35.5t-28.5 -93.5q0 -56 29 -93t78 -37z" />
    <glyph glyph-name="r.sup" horiz-adv-x="258" 
d="M247 703v-88q-14 2 -26 2q-48 0 -64.5 -32t-16.5 -97v-186h-94v323q0 47 -1 71h89v-45q23 54 91 54q12 0 22 -2z" />
    <glyph glyph-name="s.sup" horiz-adv-x="376" 
d="M22 426h88q16 -61 85 -61q29 0 47 12t18 33q0 13 -9.5 21.5t-20 12.5t-35.5 11l-44 12q-55 16 -85 42t-30 76q0 54 42.5 87t109.5 33q65 0 107 -32.5t47 -90.5h-83q-17 47 -73 47q-60 0 -60 -38q0 -17 13.5 -26t46.5 -18l42 -12q62 -17 91.5 -43.5t29.5 -74.5
q0 -58 -43.5 -93.5t-112.5 -35.5q-148 0 -171 138z" />
    <glyph glyph-name="t.sup" horiz-adv-x="264" 
d="M73 620h-59v72h59v106h94v-106h71v-72h-71v-213q0 -47 46 -47q14 0 17 1l-2 -70q-18 -2 -28 -2q-62 0 -94.5 23t-32.5 78v230z" />
    <glyph glyph-name="u.sup" horiz-adv-x="440" 
d="M299 695h95v-393h-89v54q-41 -66 -120 -66q-68 0 -105.5 43t-37.5 129v233h94v-207q0 -117 79 -117q84 0 84 122v202z" />
    <glyph glyph-name="v.sup" horiz-adv-x="395" 
d="M155 302l-1 1q-38 95 -75 195l-75 197h102l51 -153l17 -48l26 -77l26 81l18 53l48 144h100l-151 -393h-86z" />
    <glyph glyph-name="w.sup" horiz-adv-x="590" 
d="M135 302l-1 1q-22 62 -73 225q-9 26 -26 82t-27 85h96l45 -153q11 -37 22 -82l13 -47q4 16 10.5 43t9.5 40q11 50 14 62l33 137h88l39 -153l34 -130l17 65q7 28 20 74l41 144h92l-126 -393h-96q-18 58 -67 243q-8 -30 -30.5 -117.5t-33.5 -125.5h-94z" />
    <glyph glyph-name="x.sup" horiz-adv-x="386" 
d="M-1 302l-1 2l141 199l-128 192h108l37 -58l38 -60q42 66 43 68l32 50h106l-65 -96l-63 -94q46 -64 94 -135l49 -68h-110l-48 73l-39 61l-42 -65q-9 -13 -24 -36.5t-21 -32.5h-107z" />
    <glyph glyph-name="y.sup" horiz-adv-x="398" 
d="M185 166h-94l60 150q-75 194 -148 379h104q14 -38 33 -95.5t20 -61.5l40 -118q10 26 52 152q6 20 20.5 62t20.5 61h102q-57 -143 -74 -189q-13 -33 -43.5 -110.5t-47.5 -118.5q-22 -53 -45 -111z" />
    <glyph glyph-name="z.sup" horiz-adv-x="373" 
d="M28 302v70l155 195l28 36l16 19q-27 -1 -90 -1h-103v74h303v-71l-145 -185q-1 -3 -5.5 -8t-5.5 -7l-40 -49h44q9 0 27 0.5t28 0.5h106v-74h-318z" />
    <glyph glyph-name="a.sub" horiz-adv-x="417" 
d="M132 148h-94q6 57 51.5 96t120.5 39q84 0 124.5 -41t40.5 -135v-31q0 -10 -0.5 -28t-0.5 -25v-22q0 -71 5 -124h-86l-3 44q-48 -51 -125 -51q-62 0 -101.5 31t-39.5 86q0 115 241 135q1 0 5.5 0.5t6.5 0.5q5 0 7 1q-3 85 -76 85q-67 0 -76 -61zM270 56
q-79 -9 -112.5 -22.5t-33.5 -43.5q0 -50 67 -50q90 0 92 118q-8 -2 -13 -2z" />
    <glyph glyph-name="b.sub" horiz-adv-x="481" 
d="M46 -123v537h95v-119q0 -44 -1 -71q43 58 127 58t134.5 -58.5t50.5 -148.5q0 -93 -51 -150t-132 -57q-89 0 -134 60v-51h-89zM247 203q-48 0 -79.5 -36t-31.5 -91q0 -58 30 -94.5t81 -36.5q50 0 79.5 36t29.5 92t-29.5 93t-79.5 37z" />
    <glyph glyph-name="c.sub" horiz-adv-x="440" 
d="M324 1h93q-17 -61 -65.5 -99.5t-120.5 -38.5q-92 0 -147 59t-55 151q0 91 56 149.5t147 58.5q75 0 122.5 -39.5t62.5 -104.5h-98q-26 66 -89 66q-47 0 -76 -36t-29 -93q0 -60 30 -96.5t81 -36.5q63 0 88 60z" />
    <glyph glyph-name="d.sub" horiz-adv-x="481" 
d="M435 414v-537h-89v51q-45 -60 -134 -60q-81 0 -132 57t-51 150q0 89 51 148t134 59q85 0 128 -58q-1 24 -1 71v119h94zM233 203q-50 0 -78.5 -36.5t-28.5 -93.5q0 -56 28.5 -92t78.5 -36q53 0 83 36.5t30 94.5q0 56 -32 91.5t-81 35.5z" />
    <glyph glyph-name="e.sub" horiz-adv-x="448" 
d="M422 45h-150q-26 0 -74 0.5t-72 0.5q7 -46 36 -76t71 -30q63 0 90 47h94q-19 -55 -68 -90t-118 -35q-92 0 -147 57.5t-55 150.5q0 91 56 150t145 59q92 0 143 -60t51 -151q0 -13 -1 -18l-1 -2v-3zM230 205q-42 0 -69 -24t-34 -68h202q-6 43 -32 67.5t-67 24.5zM329 112
l1 1h-1v-1z" />
    <glyph glyph-name="f.sub" horiz-adv-x="245" 
d="M231 416v-76q-14 2 -17 2q-46 0 -46 -44v-27h63v-72h-63v-322h-94v322h-51v72h51v24q0 55 34 89.5t93 34.5q15 0 30 -3z" />
    <glyph glyph-name="g.sub" horiz-adv-x="484" 
d="M232 -190q119 0 117 144q-42 -62 -134 -62q-86 0 -135.5 53t-49.5 139q0 87 51 141t132 54q91 0 135 -59v48h90v-327q0 -98 -54 -154.5t-152 -56.5q-73 0 -123 36.5t-66 95.5h100q24 -52 89 -52zM237 -32q49 0 80 31.5t31 87.5q0 51 -30 83t-81 32t-81 -32t-30 -85
q0 -52 30 -84.5t81 -32.5z" />
    <glyph glyph-name="h.sub" horiz-adv-x="441" 
d="M46 414h93v-142q0 -7 -0.5 -22.5t-0.5 -23.5q42 56 118 56q68 0 105.5 -42.5t37.5 -118.5v-244h-94v198q0 62 -18 94t-61 32q-42 0 -64 -30t-22 -78v-216h-94v537z" />
    <glyph glyph-name="i.sub" horiz-adv-x="187" 
d="M46 -123v394h95v-394h-95zM45 326v88h97v-88h-97z" />
    <glyph glyph-name="j.sub" horiz-adv-x="186" 
d="M140 271v-410q0 -77 -24.5 -104t-101.5 -27q-30 0 -41 3v69q38 -3 55.5 7t17.5 41v421h94zM142 414v-88h-98v88h98z" />
    <glyph glyph-name="k.sub" horiz-adv-x="404" 
d="M413 -123h-124q-21 25 -92 117l-57 73v-190h-94v537h94v-311l139 168h115l-107 -119q-48 -52 -56 -61q7 -11 113 -134z" />
    <glyph glyph-name="l.sub" horiz-adv-x="187" 
d="M46 -123v537h95v-537h-95z" />
    <glyph glyph-name="m.sub" horiz-adv-x="686" 
d="M46 -123v394h90v-48q39 59 117 59q79 0 117 -65q47 65 133 65q68 0 104.5 -42.5t36.5 -118.5v-244h-94v207q0 118 -74 118q-40 0 -62 -28t-22 -72v-225h-94v207q0 118 -74 118q-42 0 -62.5 -30t-20.5 -79v-216h-95z" />
    <glyph glyph-name="n.sub" horiz-adv-x="441" 
d="M46 -123v333q0 41 -1 61h90v-48q44 59 121 59q68 0 105.5 -42.5t37.5 -118.5v-244h-94v198q0 62 -18 94.5t-61 32.5q-42 0 -64 -30.5t-22 -78.5v-216h-94z" />
    <glyph glyph-name="o.sub" horiz-adv-x="469" 
d="M232 -60q51 0 80.5 35t29.5 95q0 57 -30 94t-80 37q-49 0 -78.5 -36.5t-29.5 -94.5q0 -60 28.5 -95t79.5 -35zM232 -139q-94 0 -149 57.5t-55 150.5q0 94 56.5 152t149.5 58t150 -58.5t57 -151.5t-56.5 -150.5t-152.5 -57.5z" />
    <glyph glyph-name="p.sub" horiz-adv-x="481" 
d="M46 -263v529h89v-49q45 60 134 60q81 0 132 -57t51 -150q0 -91 -50.5 -149t-134.5 -58t-127 58q1 -24 1 -71v-113h-95zM247 -59q50 0 79.5 37t29.5 93q0 57 -29.5 93t-79.5 36q-51 0 -81 -37t-30 -95q0 -55 31.5 -91t79.5 -36z" />
    <glyph glyph-name="q.sub" horiz-adv-x="481" 
d="M435 266v-529h-94v113q0 44 1 71q-43 -58 -128 -58q-84 0 -134.5 58t-50.5 149q0 93 51 150t132 57q89 0 134 -60v49h89zM233 -59q49 0 81 35.5t32 91.5q0 58 -30 95t-83 37q-50 0 -78.5 -35.5t-28.5 -93.5q0 -56 29 -93t78 -37z" />
    <glyph glyph-name="r.sub" horiz-adv-x="257" 
d="M247 278v-88q-14 2 -26 2q-48 0 -64.5 -32t-16.5 -97v-186h-94v323q0 47 -1 71h89v-45q23 54 91 54q12 0 22 -2z" />
    <glyph glyph-name="s.sub" horiz-adv-x="376" 
d="M22 1h88q16 -61 85 -61q29 0 47 12t18 33q0 13 -9.5 21.5t-20 12.5t-35.5 11l-44 12q-55 16 -85 42t-30 76q0 54 42.5 87t109.5 33q65 0 107 -32.5t47 -90.5h-83q-17 47 -73 47q-60 0 -60 -38q0 -17 13.5 -26t46.5 -18l42 -12q62 -17 91.5 -43.5t29.5 -74.5
q0 -58 -43.5 -93.5t-112.5 -35.5q-148 0 -171 138z" />
    <glyph glyph-name="t.sub" horiz-adv-x="262" 
d="M72 195h-59v72h59v106h94v-106h71v-72h-71v-213q0 -47 46 -47q14 0 17 1l-2 -70q-18 -2 -28 -2q-62 0 -94.5 23t-32.5 78v230z" />
    <glyph glyph-name="u.sub" horiz-adv-x="439" 
d="M298 270h95v-393h-89v54q-41 -66 -120 -66q-68 0 -105.5 43t-37.5 129v233h94v-207q0 -117 79 -117q84 0 84 122v202z" />
    <glyph glyph-name="v.sub" horiz-adv-x="397" 
d="M156 -123l-1 1q-37 94 -75 195l-75 197h102l51 -153l17 -48l26 -77l26 81l18 53l48 144h100l-151 -393h-86z" />
    <glyph glyph-name="w.sub" horiz-adv-x="592" 
d="M136 -123l-1 1q-22 62 -73 225q-9 26 -26 82t-27 85h96l45 -153q11 -37 22 -82l13 -47q4 16 10.5 43t9.5 40q11 50 14 62l33 137h88l39 -153l34 -130l17 65q7 28 20 74l41 144h92l-126 -393h-96q-18 58 -67 243q-8 -30 -30.5 -117.5t-33.5 -125.5h-94z" />
    <glyph glyph-name="x.sub" horiz-adv-x="386" 
d="M-1 -123l-1 2l141 199l-128 192h108l37 -58l38 -60q42 66 43 68l32 50h106l-65 -96l-63 -94q46 -64 94 -135l49 -68h-110l-48 73l-39 61l-42 -65q-9 -13 -24 -36.5t-21 -32.5h-107z" />
    <glyph glyph-name="y.sub" horiz-adv-x="400" 
d="M186 -259h-94l60 150q-75 194 -148 379h104q14 -38 33 -95.5t20 -61.5l40 -118q10 26 52 152q6 19 20.5 61t20.5 62h102q-57 -143 -74 -189q-13 -33 -43.5 -110.5t-47.5 -118.5q-22 -53 -45 -111z" />
    <glyph glyph-name="z.sub" horiz-adv-x="373" 
d="M28 -123v70l155 195l28 36l16 19q-27 -1 -90 -1h-103v74h303v-71l-145 -185q-1 -2 -5.5 -7t-5.5 -8l-40 -49h44q9 0 27 0.5t28 0.5h106v-74h-318z" />
    <glyph glyph-name="zero.tosf" 
d="M293 715q75 0 126.5 -30t78 -84.5t37 -114.5t10.5 -137q0 -82 -11.5 -144t-38.5 -114t-78 -79t-124 -27t-124 27t-78 79t-38.5 114t-11.5 144q0 77 10.5 137t37 114.5t78 84.5t126.5 30zM293 606q-36 0 -60.5 -20t-37 -58t-17 -80t-4.5 -99q0 -124 26 -191.5t93 -67.5
q35 0 59 19t37 55.5t18 80.5t5 104q0 57 -4.5 99t-17 80t-37 58t-60.5 20z" />
    <glyph glyph-name="one.tosf" 
d="M282 0v501h-172v93q94 2 135.5 25.5t51.5 81.5h110v-701h-125z" />
    <glyph glyph-name="two.tosf" 
d="M526 0h-468v102l74 66l138 124q69 63 99 109.5t30 95.5q0 51 -29.5 80.5t-80.5 29.5q-58 0 -87 -35.5t-30 -94.5h-119q0 1 -0.5 3t-0.5 3q0 100 63 166t174 66q109 0 173 -60.5t64 -154.5q0 -51 -20 -98.5t-58.5 -90.5t-72 -73.5t-85 -72t-72.5 -60.5h308v-105z" />
    <glyph glyph-name="three.tosf" 
d="M40 202h122q13 -112 127 -112q55 0 88.5 34.5t33.5 86.5q0 60 -40.5 90t-105.5 30h-28v98q141 0 141 98q0 42 -25.5 64t-66.5 22q-40 0 -65.5 -23t-30.5 -64h-115q2 83 60.5 136t153.5 53q96 0 154 -51t58 -133q0 -93 -96 -145q64 -20 98 -67t34 -112q0 -98 -68 -159
t-183 -61q-109 0 -174.5 60.5t-71.5 154.5z" />
    <glyph glyph-name="four.tosf" 
d="M552 246v-103h-94v-143h-113v143h-324v96l214 302q101 150 111 160h112v-455h94zM347 544h-2q-56 -91 -78 -122l-47 -68l-50 -72q-9 -12 -25 -36h200v173q0 59 2 125z" />
    <glyph glyph-name="five.tosf" 
d="M68 324q7 58 14.5 121t16 138.5t13.5 119.5h378v-108h-280q-4 -20 -7.5 -57t-5.5 -49l-8 -56q55 36 124 36q101 0 164 -65t63 -170q0 -106 -70 -176.5t-181 -70.5q-104 0 -171 57.5t-77 149.5h123q9 -47 39.5 -75.5t82.5 -28.5q61 0 95.5 39t34.5 101q0 59 -35 98t-94 39
q-72 0 -107 -60q-72 13 -112 17z" />
    <glyph glyph-name="six.tosf" 
d="M538 523h-123q-7 38 -34.5 64t-74.5 26q-72 0 -108 -60t-38 -155h2q60 62 160 62q101 0 163.5 -63.5t62.5 -168.5t-69 -172.5t-180 -67.5q-130 0 -195 86t-65 250q0 190 67 291.5t201 101.5q99 0 159 -53t72 -141zM297 361q-54 0 -90.5 -37t-36.5 -94q0 -60 35.5 -96.5
t92.5 -36.5q54 0 90 37.5t36 93.5q0 57 -36.5 95t-90.5 38z" />
    <glyph glyph-name="seven.tosf" 
d="M262 0h-137q46 116 150 344q92 196 120 246v1q-19 -1 -55 -1h-263v111h448v-102v-2l-24 -49q-136 -276 -239 -548z" />
    <glyph glyph-name="eight.tosf" 
d="M165 382q-94 58 -94 153q0 77 61 130t160 53t160 -53t61 -131q0 -100 -94 -152q60 -27 92.5 -74t32.5 -109q0 -95 -70 -153.5t-182 -58.5q-111 0 -181 58.5t-70 153.5q0 128 124 183zM292 328q-57 0 -91 -33t-34 -87q0 -52 33.5 -85.5t91.5 -33.5q56 0 90 33.5t34 85.5
q0 54 -33.5 87t-90.5 33zM292 613q-47 0 -74.5 -26.5t-27.5 -65.5q0 -40 27.5 -67.5t74.5 -27.5t74.5 27.5t27.5 67.5q0 39 -27.5 65.5t-74.5 26.5z" />
    <glyph glyph-name="nine.tosf" 
d="M45 181h125q6 -38 34 -63.5t76 -25.5q135 0 144 220h-2q-52 -65 -163 -65q-98 0 -160 64.5t-62 165.5q0 105 69 172.5t179 67.5q130 0 195.5 -87t65.5 -250q0 -190 -66.5 -291.5t-200.5 -101.5q-99 0 -160.5 53t-73.5 141zM287 610q-54 0 -90 -37t-36 -93q0 -57 36 -94.5
t91 -37.5q54 0 90 36t36 93q0 60 -35.5 96.5t-91.5 36.5z" />
    <glyph glyph-name="zero.slashplf" horiz-adv-x="612" 
d="M306 730q254 0 254 -374q0 -66 -7 -119.5t-24.5 -101.5t-45.5 -80t-73 -51t-104 -19t-104 19t-73 51t-45.5 80t-24.5 101.5t-7 119.5q0 374 254 374zM424 356q0 92 -11 145l-143 -403q16 -6 36 -6q67 0 92.5 68t25.5 196zM306 619q-36 0 -60.5 -20.5t-36.5 -59.5
t-16.5 -82t-4.5 -101q0 -84 10 -143l143 400q-15 6 -35 6z" />
    <glyph glyph-name="idotaccent" horiz-adv-x="262" 
d="M70 525h122v-525h-122v525zM68 601v114h125v-114h-125z" />
    </font>
</defs>
</svg>
