<?xml version="1.0" standalone="no"?>
<!DOCTYPE svg PUBLIC "-//W3C//DTD SVG 1.1//EN" "http://www.w3.org/Graphics/SVG/1.1/DTD/svg11.dtd" >
<svg>
<metadata>
Created by FontForge 20120731 at Tue Oct 18 20:20:26 2016
 By ,,,
(c) 2010 Klim Type Foundry. All rights reserved.
</metadata>
<defs>
<font id="TiemposText-Bold" horiz-adv-x="600" >
  <font-face 
    font-family="Tiempos Text Bold"
    font-weight="700"
    font-stretch="normal"
    units-per-em="1000"
    panose-1="2 2 8 3 6 3 3 6 4 3"
    ascent="761"
    descent="-239"
    x-height="550"
    cap-height="702"
    bbox="-160 -250 1382 1061"
    underline-thickness="30"
    underline-position="-80"
    unicode-range="U+0020-FB04"
  />
<missing-glyph horiz-adv-x="960" 
 />
    <glyph glyph-name="ff" unicode="ff" horiz-adv-x="762" 
d="M334 756q103 0 160 -54q64 68 186 68q158 0 158 -96q0 -40 -35 -64h-90v38q0 31 -7.5 47t-29.5 16q-47 0 -47 -71v-90h116v-75h-114v-353q0 -16 3.5 -25.5t16 -15.5t23 -8t36.5 -6v-67h-323v67q35 5 45.5 14.5t10.5 42.5v351h-157v-351q0 -33 10.5 -42.5t45.5 -14.5v-67
h-305v67q37 5 49 14.5t12 42.5v351h-76v62l76 18v6q0 90 70.5 142.5t165.5 52.5zM443 561q0 27 5 54q-16 31 -42 53t-55 22q-67 0 -67 -78v-62h159v11z" />
    <glyph glyph-name="fi" unicode="fi" horiz-adv-x="716" 
d="M342 0h-305v67q37 5 49 14.5t12 42.5v351h-76v62l76 18v6q0 73 42 122t100.5 68t129.5 19q89 0 136 -24.5t47 -71.5q0 -40 -35 -64h-113v38q0 63 -49 63q-30 0 -51 -29.5t-21 -78.5v-53h268l39 14h40v-440q0 -33 12 -42.5t49 -14.5v-67h-305v67q35 5 45.5 14.5t10.5 42.5
v351h-157v-351q0 -33 10.5 -42.5t45.5 -14.5v-67z" />
    <glyph glyph-name="fl" unicode="fl" horiz-adv-x="716" 
d="M98 124v351h-76v62l76 18v6q0 56 20.5 98.5t55 65.5t72 34t78.5 11q89 0 159 -36l115 27h33v-637q0 -33 12 -42.5t49 -14.5v-67h-305v67q35 5 45.5 14.5t10.5 42.5v514q-36 72 -92 72q-67 0 -67 -78v-82h96v-75h-94v-351q0 -33 10.5 -42.5t45.5 -14.5v-67h-305v67
q37 5 49 14.5t12 42.5z" />
    <glyph glyph-name="ffi" unicode="ffi" horiz-adv-x="1061" 
d="M334 756q106 0 164 -58q75 72 217 72q89 0 136 -24.5t47 -71.5q0 -40 -35 -64h-113v38q0 63 -49 63q-30 0 -51 -29.5t-21 -78.5v-53h268l39 14h40v-440q0 -33 12 -42.5t49 -14.5v-67h-305v67q35 5 45.5 14.5t10.5 42.5v351h-157v-351q0 -33 10.5 -42.5t45.5 -14.5v-67
h-300v67q35 5 45.5 14.5t10.5 42.5v351h-157v-351q0 -33 10.5 -42.5t45.5 -14.5v-67h-305v67q37 5 49 14.5t12 42.5v351h-76v62l76 18v6q0 90 70.5 142.5t165.5 52.5zM284 612v-62h159v11q0 29 6 53q-16 31 -42 53.5t-56 22.5q-67 0 -67 -78z" />
    <glyph glyph-name="ffl" unicode="ffl" horiz-adv-x="1061" 
d="M98 555v6q0 90 70.5 142.5t165.5 52.5q101 0 159 -53q63 67 176 67q89 0 159 -36l115 27h33v-637q0 -33 12 -42.5t49 -14.5v-67h-305v67q35 5 45.5 14.5t10.5 42.5v514q-36 72 -92 72q-67 0 -67 -78v-82h96v-75h-94v-351q0 -33 10.5 -42.5t45.5 -14.5v-67h-300v67
q35 5 45.5 14.5t10.5 42.5v351h-157v-351q0 -33 10.5 -42.5t45.5 -14.5v-67h-305v67q37 5 49 14.5t12 42.5v351h-76v62zM443 561q0 27 5 55q-16 30 -42 52t-55 22q-67 0 -67 -78v-62h159v11z" />
    <glyph glyph-name="f_b" unicode="fb" horiz-adv-x="1035" 
d="M442 58l1 580q-36 72 -92 72q-67 0 -67 -78v-82h96v-75h-94v-351q0 -33 10.5 -42.5t45.5 -14.5v-67h-305v67q37 5 49 14.5t12 42.5v351h-76v62l76 18v6q0 56 20.5 98.5t55 65.5t72 34t78.5 11q89 0 159 -36l115 27h33v-298q51 97 159 97q97 0 154.5 -67.5t57.5 -188.5
q0 -144 -85.5 -229t-216.5 -85q-171 0 -258 68zM701 59q52 0 80.5 52.5t28.5 138.5q0 92 -33.5 143t-88.5 51q-32 0 -57 -13v-274q0 -48 16 -73t54 -25z" />
    <glyph glyph-name="f_f_b" unicode="ffb" horiz-adv-x="1380" 
d="M788 58v580q-36 72 -92 72q-67 0 -67 -78v-82h96v-75h-94v-351q0 -33 10.5 -42.5t45.5 -14.5v-67h-300v67q35 5 45.5 14.5t10.5 42.5v351h-157v-351q0 -33 10.5 -42.5t45.5 -14.5v-67h-305v67q37 5 49 14.5t12 42.5v351h-76v62l76 18v6q0 90 70.5 142.5t165.5 52.5
q101 0 159 -53q63 67 176 67q89 0 159 -36l115 27h33v-298q51 97 159 97q97 0 154.5 -67.5t57.5 -188.5q0 -144 -85.5 -229t-216.5 -85q-170 0 -257 68zM1046 59q52 0 80.5 52.5t28.5 138.5q0 92 -33.5 143t-88.5 51q-32 0 -57 -13v-274q0 -48 16 -73t54 -25zM443 561
q0 27 5 55q-16 30 -42 52t-55 22q-67 0 -67 -78v-62h159v11z" />
    <glyph glyph-name="f_h" unicode="fh" horiz-adv-x="1057" 
d="M443 124v514q-36 72 -92 72q-67 0 -67 -78v-82h96v-75h-94v-351q0 -33 10.5 -42.5t45.5 -14.5v-67h-305v67q37 5 49 14.5t12 42.5v351h-76v62l76 18v6q0 56 20.5 98.5t55 65.5t72 34t78.5 11q89 0 159 -36l115 27h33v-306q94 105 193 105q153 0 153 -164v-272
q0 -33 12 -42.5t48 -14.5v-67h-304v67q35 5 45.5 14.5t10.5 42.5v254q0 32 -14 47.5t-48 15.5q-45 0 -96 -17v-300q0 -33 10.5 -42.5t45.5 -14.5v-67h-300v67q36 5 46 14.5t10 42.5z" />
    <glyph glyph-name="f_f_h" unicode="ffh" horiz-adv-x="1402" 
d="M788 124v514q-36 72 -92 72q-67 0 -67 -78v-82h96v-75h-94v-351q0 -33 10.5 -42.5t45.5 -14.5v-67h-300v67q35 5 45.5 14.5t10.5 42.5v351h-157v-351q0 -33 10.5 -42.5t45.5 -14.5v-67h-305v67q37 5 49 14.5t12 42.5v351h-76v62l76 18v6q0 90 70.5 142.5t165.5 52.5
q101 0 159 -53q63 67 176 67q89 0 159 -36l115 27h33v-306q94 105 193 105q153 0 153 -164v-272q0 -33 12 -42.5t48 -14.5v-67h-304v67q35 5 45.5 14.5t10.5 42.5v254q0 32 -14 47.5t-48 15.5q-45 0 -96 -17v-300q0 -33 10.5 -42.5t45.5 -14.5v-67h-300v67q36 5 46 14.5
t10 42.5zM443 561q0 27 5 55q-16 30 -42 52t-55 22q-67 0 -67 -78v-62h159v11z" />
    <glyph glyph-name="f_idieresis" unicode="f&#xef;" horiz-adv-x="716" 
d="M558 691q0 36 26.5 62t61.5 26q38 0 64.5 -26t26.5 -62t-26.5 -62t-64.5 -26q-35 0 -61.5 26t-26.5 62zM98 555v12q0 110 68 159.5t174 49.5q81 0 125.5 -25t44.5 -71q0 -45 -36 -70h-109v40q0 69 -37 69q-44 0 -44 -71v-98h268l39 14h40v-440q0 -33 12 -42.5t49 -14.5
v-67h-305v67q35 5 45.5 14.5t10.5 42.5v351h-157v-351q0 -33 10.5 -42.5t45.5 -14.5v-67h-305v67q37 5 49 14.5t12 42.5v351h-76v62z" />
    <glyph glyph-name="f_f_idieresis" unicode="ff&#xef;" horiz-adv-x="1061" 
d="M334 756q99 0 156 -50q62 70 195 70q81 0 125.5 -25t44.5 -71q0 -45 -36 -70h-109v40q0 69 -37 69q-44 0 -44 -71v-98h268l39 14h40v-440q0 -33 12 -42.5t49 -14.5v-67h-305v67q35 5 45.5 14.5t10.5 42.5v351h-157v-351q0 -33 10.5 -42.5t45.5 -14.5v-67h-300v67
q35 5 45.5 14.5t10.5 42.5v351h-157v-351q0 -33 10.5 -42.5t45.5 -14.5v-67h-305v67q37 5 49 14.5t12 42.5v351h-76v62l76 18v6q0 90 70.5 142.5t165.5 52.5zM903 691q0 36 26.5 62t61.5 26q38 0 64.5 -26t26.5 -62t-26.5 -62t-64.5 -26q-35 0 -61.5 26t-26.5 62zM443 550
v17q0 30 4 51q-40 72 -96 72q-67 0 -67 -78v-62h159z" />
    <glyph glyph-name="f_j" unicode="fj" horiz-adv-x="692" 
d="M442 475h-156v-351q0 -33 10.5 -42.5t45.5 -14.5v-67h-305v67q37 5 49 14.5t12 42.5v351h-76v62l76 18v6q0 73 42 122t100.5 68t129.5 19q89 0 136 -24.5t47 -71.5q0 -40 -35 -64h-113v38q0 63 -49 63q-30 0 -51 -29.5t-21 -78.5v-53h268l39 14h40v-430q0 -80 -18 -129
t-54 -90q-72 -81 -155 -122l-36 34l41 69q22 37 27.5 80t5.5 115v384z" />
    <glyph glyph-name="f_f_j" unicode="ffj" horiz-adv-x="1037" 
d="M787 475h-156v-351q0 -33 10.5 -42.5t45.5 -14.5v-67h-300v67q35 5 45.5 14.5t10.5 42.5v351h-157v-351q0 -33 10.5 -42.5t45.5 -14.5v-67h-305v67q37 5 49 14.5t12 42.5v351h-76v62l76 18v6q0 90 70.5 142.5t165.5 52.5q106 0 164 -58q75 72 217 72q89 0 136 -24.5
t47 -71.5q0 -40 -35 -64h-113v38q0 63 -49 63q-30 0 -51 -29.5t-21 -78.5v-53h268l39 14h40v-430q0 -80 -18 -129t-54 -90q-72 -81 -155 -122l-36 34l41 69q22 37 27.5 80t5.5 115v384zM443 561q0 29 6 53q-16 31 -42 53.5t-56 22.5q-67 0 -67 -78v-62h159v11z" />
    <glyph glyph-name="f_k" unicode="fk" horiz-adv-x="1023" 
d="M638 292l127 122q27 29 27 38q0 16 -13 21.5t-50 10.5v66h264v-66q-60 -16 -81 -30q-6 -5 -12 -11l-89 -88l202 -303v-52h-192zM443 124v514q-36 72 -92 72q-67 0 -67 -78v-82h96v-75h-94v-351q0 -33 10.5 -42.5t45.5 -14.5v-67h-305v67q37 5 49 14.5t12 42.5v351h-76v62
l76 18v6q0 56 20.5 98.5t55 65.5t72 34t78.5 11q89 0 159 -36l115 27h33v-637q0 -33 12 -42.5t49 -14.5v-67h-305v67q36 5 46 14.5t10 42.5z" />
    <glyph glyph-name="f_f_k" unicode="ffk" horiz-adv-x="1368" 
d="M788 124v514q-36 72 -92 72q-67 0 -67 -78v-82h96v-75h-94v-351q0 -33 10.5 -42.5t45.5 -14.5v-67h-300v67q35 5 45.5 14.5t10.5 42.5v351h-157v-351q0 -33 10.5 -42.5t45.5 -14.5v-67h-305v67q37 5 49 14.5t12 42.5v351h-76v62l76 18v6q0 90 70.5 142.5t165.5 52.5
q101 0 159 -53q63 67 176 67q89 0 159 -36l115 27h33v-637q0 -33 12 -42.5t49 -14.5v-67h-305v67q36 5 46 14.5t10 42.5zM983 292l127 122q27 29 27 38q0 16 -13 21.5t-50 10.5v66h264v-66q-60 -16 -81 -30q-6 -5 -12 -11l-89 -88l202 -303v-52h-192zM443 561q0 27 5 55
q-16 30 -42 52t-55 22q-67 0 -67 -78v-62h159v11z" />
    <glyph glyph-name=".notdef" horiz-adv-x="960" 
 />
    <glyph glyph-name=".null" horiz-adv-x="0" 
 />
    <glyph glyph-name="nonmarkingreturn" horiz-adv-x="333" 
 />
    <glyph glyph-name="space" unicode=" " horiz-adv-x="190" 
 />
    <glyph glyph-name="exclam" unicode="!" horiz-adv-x="336" 
d="M66 94q0 44 30 75t71 31q43 0 72.5 -31t29.5 -75q0 -42 -30 -72.5t-72 -30.5q-41 0 -71 30.5t-30 72.5zM271 702l-59 -461h-88l-59 461h206z" />
    <glyph glyph-name="quotedbl" unicode="&#x22;" horiz-adv-x="467" 
d="M141 447h-36l-43 148q-22 76 -22 94q0 34 22 57.5t61 23.5t61 -23.5t22 -57.5q0 -18 -22 -94zM362 447h-36l-43 148q-22 76 -22 94q0 34 22 57.5t61 23.5t61 -23.5t22 -57.5q0 -18 -22 -94z" />
    <glyph glyph-name="numbersign" unicode="#" horiz-adv-x="589" 
d="M513 209h-129l-70 -219l-72 26l62 193h-110l-70 -219l-72 26l62 193h-64v71h86l46 142h-106v71h129l70 219l72 -26l-62 -193h110l70 219l72 -26l-62 -193h64v-71h-87l-45 -142h106v-71zM262 422l-45 -142h109l46 142h-110z" />
    <glyph glyph-name="dollar" unicode="$" horiz-adv-x="602" 
d="M185 -113l20 110q-102 17 -158 60l-11 167h97q14 -114 85 -152l34 188l-15 5q-99 30 -146.5 81.5t-47.5 135.5q0 107 72 168.5t187 61.5q21 0 31 -1l19 103h55l-20 -109q81 -13 140 -53v-153h-82q-15 97 -71 130l-33 -183l36 -11q93 -30 141 -80.5t48 -137.5
q0 -112 -77 -169.5t-200 -57.5q-6 0 -16 0.5t-15 0.5l-18 -104h-55zM314 242l-10 3l-34 -189q22 -2 35 -2q47 0 76.5 24.5t29.5 68.5q0 34 -21.5 56.5t-75.5 38.5zM191 562q0 -38 21.5 -60t67.5 -36l9 -3l33 183q-15 3 -33 3q-46 0 -72 -25.5t-26 -61.5z" />
    <glyph glyph-name="percent" unicode="%" horiz-adv-x="930" 
d="M164 523q0 -63 15.5 -101.5t44.5 -38.5q28 0 43.5 38.5t15.5 101.5q0 64 -15.5 102.5t-43.5 38.5q-29 0 -44.5 -38.5t-15.5 -102.5zM202 -19l448 741h78l-450 -741h-76zM35 523q0 90 54.5 139.5t134.5 49.5q79 0 133.5 -49.5t54.5 -139.5q0 -89 -54.5 -138.5
t-133.5 -49.5q-80 0 -134.5 49.5t-54.5 138.5zM766 179q0 63 -15.5 101.5t-44.5 38.5q-28 0 -43.5 -38.5t-15.5 -101.5q0 -64 15.5 -102.5t43.5 -38.5q29 0 44.5 38.5t15.5 102.5zM895 179q0 -90 -54.5 -139.5t-134.5 -49.5q-79 0 -133.5 49.5t-54.5 139.5q0 89 54.5 138.5
t133.5 49.5q80 0 134.5 -49.5t54.5 -138.5z" />
    <glyph glyph-name="ampersand" unicode="&#x26;" horiz-adv-x="752" 
d="M13 184q0 74 44 118.5t125 72.5q-60 78 -60 148q0 86 61.5 137.5t166.5 51.5q97 0 154.5 -40.5t57.5 -110.5q0 -108 -167 -162l152 -181q15 33 15 71q0 24 -10 34t-36 10v67h216v-67q-53 0 -72.5 -14.5t-30.5 -57.5q-11 -47 -40 -93l40 -47q25 -29 46 -40.5t55 -11.5v-69
h-218q-20 12 -56 42q-90 -52 -191 -52q-111 0 -181.5 52t-70.5 142zM346 80q30 0 63 11q-16 18 -28 34l-169 212q-27 -34 -27 -95q0 -73 44 -117.5t117 -44.5zM287 585q0 -26 12 -53.5t24.5 -45t35.5 -44.5l4 -5q50 40 50 130q0 35 -17 58t-46 23q-30 0 -46.5 -18t-16.5 -45
z" />
    <glyph glyph-name="quotesingle" unicode="'" horiz-adv-x="246" 
d="M141 447h-36l-43 148q-22 76 -22 94q0 34 22 57.5t61 23.5t61 -23.5t22 -57.5q0 -18 -22 -94z" />
    <glyph glyph-name="parenleft" unicode="(" horiz-adv-x="388" 
d="M60 314q0 125 57 248t155 208h96q-160 -171 -160 -456q0 -284 160 -455h-96q-98 85 -155 207.5t-57 247.5z" />
    <glyph glyph-name="parenright" unicode=")" horiz-adv-x="388" 
d="M328 314q0 -125 -57 -247.5t-155 -207.5h-96q160 171 160 455q0 285 -160 456h96q98 -85 155 -208t57 -248z" />
    <glyph glyph-name="asterisk" unicode="*" horiz-adv-x="500" 
d="M402 406l-129 115l35 -169h-116l34 168l-128 -114l-58 101l163 54l-163 54l58 101l129 -115l-35 169h116l-35 -168l129 114l58 -101l-163 -54l163 -54z" />
    <glyph glyph-name="plus" unicode="+" horiz-adv-x="604" 
d="M255 594h93v-183h183v-93h-183v-184h-93v184h-183v93h183v183z" />
    <glyph glyph-name="comma" unicode="," horiz-adv-x="305" 
d="M170 11h-43q-67 14 -67 91q0 39 25.5 65t70.5 26q51 0 82 -33t31 -94q0 -93 -54.5 -147.5t-158.5 -57.5v62q114 10 114 88z" />
    <glyph glyph-name="hyphen" unicode="-" horiz-adv-x="360" 
d="M310 247h-260v116h260v-116z" />
    <glyph glyph-name="period" unicode="." horiz-adv-x="305" 
d="M45 97q0 47 31 77.5t76 30.5q46 0 77 -30.5t31 -77.5t-31 -77t-77 -30q-45 0 -76 30t-31 77z" />
    <glyph glyph-name="slash" unicode="/" horiz-adv-x="442" 
d="M404 770l-272 -891h-107l272 891h107z" />
    <glyph glyph-name="zero" unicode="0" horiz-adv-x="680" 
d="M340 712q136 0 219 -95t83 -266t-83 -266t-219 -95t-219 95t-83 266t83 266t219 95zM340 638q-53 0 -76 -70.5t-23 -216.5t23 -217t76 -71q54 0 76.5 70t22.5 218q0 147 -22.5 217t-76.5 70z" />
    <glyph glyph-name="one" unicode="1" horiz-adv-x="486" 
d="M295 711h57v-570q0 -44 21.5 -55.5t97.5 -16.5v-69h-422v69q82 5 100 16t18 56v369h-118v63l36 7q69 11 116 42t94 89z" />
    <glyph glyph-name="two" unicode="2" horiz-adv-x="572" 
d="M179 148h171q52 0 77 15.5t61 78.5h49l-22 -242h-515v57l199 190q60 56 85 105.5t25 105.5t-30 84t-83 28q-30 0 -57.5 -10.5t-42.5 -22.5t-37 -32l-37 41q93 166 265 166q102 0 160.5 -50.5t58.5 -141.5q0 -52 -24 -100.5t-73.5 -96t-100.5 -86t-129 -89.5z" />
    <glyph glyph-name="three" unicode="3" horiz-adv-x="582" 
d="M334 394q96 -5 152.5 -53t56.5 -134q0 -69 -42 -120t-105 -74t-136 -23q-112 0 -176 42.5t-64 104.5q0 29 14 49.5t33 29.5h110v-36q0 -127 100 -127q41 0 63.5 26.5t22.5 76.5q0 71 -40 114t-112 43h-21l-14 43q79 32 112 65.5t33 72.5q0 37 -23 59.5t-66 22.5
q-70 0 -140 -68l-40 36q89 168 265 168q83 0 134 -43t51 -115q0 -63 -48 -104.5t-120 -55.5z" />
    <glyph glyph-name="four" unicode="4" horiz-adv-x="653" 
d="M107 260h222v292zM329 137v44h-322v64l344 457h153v-442h127v-79h-127v-44q0 -40 15 -53t65 -15v-69h-336v69q50 2 65.5 15.5t15.5 52.5z" />
    <glyph glyph-name="five" unicode="5" horiz-adv-x="565" 
d="M487 702v-170h-320l-11 -67q175 -2 274 -62t99 -185q0 -108 -72.5 -167.5t-188.5 -59.5q-114 0 -178 41.5t-64 104.5q0 27 14 49t33 31h111v-28q0 -133 102 -133q45 0 68.5 25.5t23.5 65.5q0 74 -76 115t-232 41l66 399h351z" />
    <glyph glyph-name="six" unicode="6" horiz-adv-x="633" 
d="M521 657q-142 -18 -207 -83.5t-84 -179.5q73 73 172 73q85 0 143 -58t58 -159q0 -125 -79.5 -192.5t-192.5 -67.5q-132 0 -214 83t-82 223q0 87 29.5 161.5t86 132t147 90.5t203.5 33zM284 368q-28 0 -58 -10q-3 -33 -3 -62q0 -98 28.5 -167t88.5 -69q45 0 71 38t26 105
q0 71 -39.5 118t-113.5 47z" />
    <glyph glyph-name="seven" unicode="7" horiz-adv-x="540" 
d="M408 530h-237q-34 0 -54.5 -20t-37.5 -70h-60l44 262h486v-46l-291 -656h-138z" />
    <glyph glyph-name="eight" unicode="8" horiz-adv-x="616" 
d="M550 549q0 -57 -38 -92t-99 -46l14 -6q78 -34 115 -79t37 -116q0 -103 -73.5 -161.5t-196.5 -58.5q-127 0 -200.5 46t-73.5 128q0 60 38.5 96t104.5 49l-8 5q-52 23 -82.5 69t-30.5 109q0 103 68.5 161.5t182.5 58.5q112 0 177 -43.5t65 -119.5zM347 237l-131 52
q-40 -32 -40 -102q0 -58 36 -93.5t97 -35.5q52 0 84.5 23.5t32.5 65.5q0 58 -79 90zM284 467l82 -35q49 38 49 108q0 46 -29 75t-78 29q-48 0 -74.5 -24t-26.5 -62q0 -59 77 -91z" />
    <glyph glyph-name="nine" unicode="9" horiz-adv-x="633" 
d="M112 45q142 18 207 83.5t84 179.5q-73 -73 -172 -73q-85 0 -143 58t-58 159q0 125 79.5 192.5t192.5 67.5q132 0 214 -83t82 -223q0 -87 -29.5 -161.5t-86 -132t-147 -90.5t-203.5 -33zM349 334q28 0 58 10q3 33 3 62q0 98 -28.5 167t-88.5 69q-45 0 -71 -38t-26 -105
q0 -71 39.5 -118t113.5 -47z" />
    <glyph glyph-name="colon" unicode=":" horiz-adv-x="305" 
d="M45 97q0 47 31 77.5t76 30.5q46 0 77 -30.5t31 -77.5t-31 -77t-77 -30q-45 0 -76 30t-31 77zM45 396q0 47 31 77.5t76 30.5q46 0 77 -30.5t31 -77.5t-31 -77t-77 -30q-45 0 -76 30t-31 77z" />
    <glyph glyph-name="semicolon" unicode=";" horiz-adv-x="305" 
d="M45 396q0 47 31 77.5t76 30.5q46 0 77 -30.5t31 -77.5t-31 -77t-77 -30q-45 0 -76 30t-31 77zM170 11h-43q-67 14 -67 91q0 39 25.5 65t70.5 26q51 0 82 -33t31 -94q0 -93 -54.5 -147.5t-158.5 -57.5v62q114 10 114 88z" />
    <glyph glyph-name="less" unicode="&#x3c;" horiz-adv-x="463" 
d="M54 357v10l337 209v-108l-182 -105l182 -108v-108z" />
    <glyph glyph-name="equal" unicode="=" horiz-adv-x="615" 
d="M78 236v88h460v-88h-460zM78 406v87h460v-87h-460z" />
    <glyph glyph-name="greater" unicode="&#x3e;" horiz-adv-x="463" 
d="M409 367v-10l-337 -210v108l181 108l-181 105v108z" />
    <glyph glyph-name="question" unicode="?" horiz-adv-x="480" 
d="M304 579q0 63 -61 63q-68 0 -68 -82v-53h-110q-39 19 -39 66q0 62 58.5 100t159.5 38q106 0 163 -42t57 -125q0 -59 -28.5 -99t-88.5 -74q-48 -27 -64.5 -50.5t-16.5 -55.5v-26h-54q-62 36 -62 103q0 70 61 117q4 3 15.5 12t15.5 12.5t14 11.5t14 12.5t11 12.5t10 13.5
t6.5 13.5t5 15.5t1.5 16.5zM136 94q0 44 29.5 75t71.5 31q43 0 72.5 -31t29.5 -75q0 -42 -30 -72.5t-72 -30.5t-71.5 30.5t-29.5 72.5z" />
    <glyph glyph-name="at" unicode="@" horiz-adv-x="907" 
d="M606 77q-70 0 -94.5 42.5t-12.5 109.5h-5q-73 -152 -169 -152q-45 0 -75 35t-30 94q0 106 75 196t182 90q58 0 87 -40l80 30h56l-35 -94l-51 -179q-9 -29 -2.5 -51.5t28.5 -22.5q55 0 95.5 61.5t40.5 172.5q0 112 -80 192t-210 80q-161 0 -256.5 -108.5t-95.5 -281.5
q0 -157 97.5 -239.5t245.5 -82.5q82 0 142.5 16.5t127.5 52.5l18 -33q-119 -102 -302 -102q-113 0 -206 44.5t-150 133t-57 205.5q0 192 123 319.5t313 127.5q169 0 270 -95.5t101 -228.5q0 -76 -23.5 -135t-61.5 -91.5t-80 -49t-86 -16.5zM392 172q35 0 76.5 71t60.5 165
q-13 34 -36 34q-53 0 -92 -72.5t-39 -147.5q0 -50 30 -50z" />
    <glyph glyph-name="A" unicode="A" horiz-adv-x="758" 
d="M463 153l-24 60h-244l-23 -60q-9 -27 -9 -40q0 -24 13 -33t57 -11v-69h-226v69q24 4 36.5 11.5t20.5 25.5l205 517l-35 80h205l254 -597q8 -18 21 -25.5t37 -11.5v-69h-347v69q43 2 56.5 11t13.5 33q0 16 -11 40zM315 522l-93 -240h189z" />
    <glyph glyph-name="B" unicode="B" horiz-adv-x="720" 
d="M31 0v69q50 2 64.5 15t14.5 53v428q0 40 -14.5 53t-64.5 15v69h383q116 0 179.5 -44.5t63.5 -131.5q0 -71 -53.5 -112.5t-133.5 -50.5q99 -6 160.5 -50t61.5 -122q0 -191 -277 -191h-384zM350 325h-42v-190q0 -39 16.5 -53.5t56.5 -14.5h6q49 0 78 33.5t29 92.5
q0 132 -144 132zM331 630h-23v-234h29q127 0 127 122q0 112 -133 112z" />
    <glyph glyph-name="C" unicode="C" horiz-adv-x="706" 
d="M416 68q60 0 94 42t62 139h97l-16 -193q-97 -66 -252 -66q-172 0 -269.5 96t-97.5 251q0 169 106 272t263 103q155 0 240 -74v-163h-96q-21 81 -53.5 122.5t-92.5 41.5q-42 0 -73 -22.5t-48 -62.5t-24.5 -86.5t-7.5 -101.5q0 -136 43 -217t125 -81z" />
    <glyph glyph-name="D" unicode="D" horiz-adv-x="803" 
d="M329 630h-21v-488q0 -42 15 -56t53 -14h9q172 0 172 279q0 131 -59 205t-169 74zM31 633v69h325q197 0 305 -88.5t108 -251.5q0 -170 -100.5 -266t-276.5 -96h-361v69q50 2 64.5 15t14.5 53v428q0 40 -14.5 53t-64.5 15z" />
    <glyph glyph-name="E" unicode="E" horiz-adv-x="680" 
d="M520 247h-66q-7 45 -23 61.5t-49 16.5h-74v-188q0 -39 19 -53t61 -14h25q50 0 82.5 28.5t83.5 109.5h76l-31 -208h-593v69q50 2 64.5 15t14.5 53v428q0 40 -14.5 53t-64.5 15v69h588v-192h-78q-26 67 -53 94.5t-83 27.5h-97v-234h74q33 0 49 16.5t23 61.5h66v-229z" />
    <glyph glyph-name="F" unicode="F" horiz-adv-x="629" 
d="M424 0h-393v69q50 2 64.5 15t14.5 53v428q0 40 -14.5 53t-64.5 15v69h575v-193h-78q-26 67 -53.5 95t-83.5 28h-83v-242h56q34 0 49.5 16.5t22.5 61.5h67v-229h-67q-7 46 -22.5 62.5t-49.5 16.5h-56v-186q0 -38 25 -51.5t91 -16.5v-64z" />
    <glyph glyph-name="G" unicode="G" horiz-adv-x="766" 
d="M34 337q0 168 108.5 271.5t264.5 103.5q153 0 240 -74v-163h-96q-22 81 -55 122.5t-91 41.5q-81 0 -120.5 -79t-39.5 -194q0 -297 176 -297q35 0 62 10v128q0 39 -14.5 52t-62.5 14v71h335v-71q-49 -1 -63 -13.5t-14 -52.5v-144q-99 -72 -270 -72q-173 0 -266.5 95.5
t-93.5 250.5z" />
    <glyph glyph-name="H" unicode="H" horiz-adv-x="864" 
d="M556 137v188h-248v-188q0 -40 15 -53t64 -15v-69h-356v69q50 2 64.5 15t14.5 53v428q0 40 -14.5 53t-64.5 15v69h356v-69q-49 -2 -64 -15t-15 -53v-167h248v167q0 40 -15 53t-64 15v69h356v-69q-50 -2 -64.5 -15t-14.5 -53v-428q0 -40 14.5 -53t64.5 -15v-69h-356v69
q49 2 64 15t15 53z" />
    <glyph glyph-name="I" unicode="I" horiz-adv-x="418" 
d="M387 0h-356v69q50 2 64.5 15t14.5 53v428q0 40 -14.5 53t-64.5 15v69h356v-69q-50 -2 -64.5 -15t-14.5 -53v-428q0 -40 14.5 -53t64.5 -15v-69z" />
    <glyph glyph-name="J" unicode="J" horiz-adv-x="612" 
d="M514 565v-339q0 -236 -268 -236q-114 0 -176 39t-62 112q0 57 50 91h135v-51q0 -59 12 -90.5t47 -31.5q38 0 50 32.5t12 101.5v372q0 40 -14 53t-63 15v69h357v-69q-50 -2 -65 -15t-15 -53z" />
    <glyph glyph-name="K" unicode="K" horiz-adv-x="790" 
d="M504 426l181 -286q27 -42 48 -57t53 -15v-68h-226q-40 26 -88 105l-154 252l209 200q29 27 29 45q0 31 -61 31v69h264v-69q-30 -1 -45 -8.5t-37 -28.5zM110 137v428q0 40 -14.5 53t-64.5 15v69h356v-69q-49 -2 -63 -15t-14 -53v-428q0 -40 14 -53t63 -15v-69h-356v69
q50 2 64.5 15t14.5 53z" />
    <glyph glyph-name="L" unicode="L" horiz-adv-x="662" 
d="M310 565v-426q0 -39 16.5 -53t58.5 -14h25q45 0 70 27.5t90 141.5h82l-38 -241h-583v69q50 2 64.5 15t14.5 53v428q0 39 -14.5 52t-64.5 15v70h356v-70q-49 -2 -63 -14.5t-14 -52.5z" />
    <glyph glyph-name="M" unicode="M" horiz-adv-x="1005" 
d="M710 158l-47 326l-172 -484h-79l-182 485l-44 -327q-2 -16 -2 -25q0 -35 20.5 -48t74.5 -16v-69h-271v69q43 2 60.5 14.5t22.5 46.5l63 430q0 40 -17.5 55.5t-66.5 17.5v69h287q2 -24 16 -64l135 -363l127 363q15 44 17 64h282v-69q-49 -2 -66 -17.5t-17 -55.5l62 -430
q5 -35 22.5 -47t61.5 -14v-69h-380v69q55 3 75 16t20 48q0 9 -2 25z" />
    <glyph glyph-name="N" unicode="N" horiz-adv-x="778" 
d="M110 137v447q-21 28 -36 37t-43 12v69h272l289 -380v243q0 39 -19 52.5t-69 15.5v69h256v-69q-49 -2 -63.5 -15t-14.5 -53v-565h-81l-401 503v-366q0 -39 18.5 -52.5t69.5 -15.5v-69h-257v69q50 2 64.5 15t14.5 53z" />
    <glyph glyph-name="O" unicode="O" horiz-adv-x="766" 
d="M395 64q65 0 96 74.5t31 196.5q0 141 -38 222t-113 81q-65 0 -96 -74.5t-31 -196.5q0 -141 38 -222t113 -81zM392 712q106 0 185 -48.5t117 -126t38 -172.5q0 -170 -101 -272.5t-257 -102.5q-106 0 -185 48.5t-117 126t-38 172.5q0 170 101 272.5t257 102.5z" />
    <glyph glyph-name="P" unicode="P" horiz-adv-x="687" 
d="M387 268h-77v-131q0 -38 24 -51.5t90 -16.5v-69h-393v69q50 2 64.5 15t14.5 53v428q0 40 -14.5 53t-64.5 15v69h356q139 0 210 -60t71 -156q0 -218 -281 -218zM310 630v-296h28q64 0 99 39t35 113q0 67 -38.5 105.5t-102.5 38.5h-21z" />
    <glyph glyph-name="Q" unicode="Q" horiz-adv-x="766" 
d="M392 712q106 0 185 -48.5t117 -126t38 -172.5q0 -140 -70 -236t-187 -127l65 -50q43 -33 71 -47t65 -14v-35q-42 -34 -118 -34q-119 0 -202 111l-47 62q-130 20 -202.5 116t-72.5 226q0 170 101 272.5t257 102.5zM395 64q65 0 96 74.5t31 196.5q0 141 -38 222t-113 81
q-65 0 -96 -74.5t-31 -196.5q0 -141 38 -222t113 -81z" />
    <glyph glyph-name="R" unicode="R" horiz-adv-x="762" 
d="M329 630h-22v-273h20q79 0 116 34.5t37 106.5q0 65 -39.5 98.5t-111.5 33.5zM31 702h370q138 0 207 -53.5t69 -151.5q0 -63 -39 -109.5t-101 -64.5l114 -182q27 -43 48 -57t59 -15v-69h-229q-43 37 -83 110l-97 179h-42v-152q0 -40 13.5 -53t62.5 -15v-69h-352v69
q50 2 64.5 15t14.5 53v428q0 40 -14.5 52.5t-64.5 12.5v72z" />
    <glyph glyph-name="S" unicode="S" horiz-adv-x="614" 
d="M295 -10q-73 0 -137.5 19t-104.5 48l-11 167h101q21 -86 60 -125.5t108 -39.5q48 0 77 22.5t29 65.5q0 38 -29.5 59.5t-110.5 43.5q-121 32 -174.5 84.5t-53.5 147.5q0 107 72 168.5t187 61.5q142 0 225 -60v-153h-86q-25 73 -56.5 109t-95.5 36q-47 0 -72.5 -23
t-25.5 -59q0 -44 30 -65.5t111 -41.5q120 -30 177 -83.5t57 -154.5q0 -112 -77 -169.5t-200 -57.5z" />
    <glyph glyph-name="T" unicode="T" horiz-adv-x="714" 
d="M30 702h654l15 -237h-79q-42 104 -63 131q-30 39 -82 39h-20v-498q0 -39 17 -52.5t67 -15.5v-69h-366v69q51 2 68.5 15.5t17.5 52.5v498h-21q-28 0 -47 -7.5t-37.5 -36t-26 -45t-30.5 -72.5q-3 -6 -4 -9h-78z" />
    <glyph glyph-name="U" unicode="U" horiz-adv-x="775" 
d="M298 565v-297q0 -84 29.5 -128t101.5 -44q73 0 113 40t40 141v288q0 39 -18.5 52.5t-69.5 15.5v69h261v-69q-49 -2 -64 -15t-15 -53v-318q0 -126 -77.5 -191.5t-198.5 -65.5q-146 0 -224 65t-78 193v317q0 40 -14.5 53t-63.5 15v69h354v-69q-48 -2 -62 -15t-14 -53z" />
    <glyph glyph-name="V" unicode="V" horiz-adv-x="735" 
d="M438 259l116 290q10 25 10 40q0 23 -13.5 32.5t-56.5 11.5v69h234v-69q-24 -4 -37 -11t-21 -26l-256 -600h-58l-292 600q-9 19 -21 26t-36 11v69h357v-69q-43 -2 -57 -11.5t-14 -32.5q0 -17 10 -40z" />
    <glyph glyph-name="W" unicode="W" horiz-adv-x="1031" 
d="M756 278l93 253q15 43 15 58q0 23 -13.5 32.5t-55.5 11.5v69h229v-69q-17 -3 -25.5 -5.5t-18.5 -10.5t-15 -21l-225 -600h-75l-138 385l-145 -385h-73l-245 600q-13 29 -57 37v69h338v-69q-32 -3 -45.5 -13t-13.5 -31q0 -17 13 -50l104 -268l84 221l-35 104
q-12 30 -50 37v69h328v-69q-43 -2 -56 -11.5t-13 -32.5q0 -20 14 -62z" />
    <glyph glyph-name="X" unicode="X" horiz-adv-x="754" 
d="M639 599l-169 -201l215 -295q22 -28 62 -34v-69h-341v69q26 0 36.5 7.5t10.5 25.5q0 14 -22 43l-98 133l-110 -133q-20 -24 -20 -43q0 -18 12 -25.5t43 -7.5v-69h-251v69q53 0 79 34l195 242l-186 254q-24 32 -56 34v69h348v-69q-55 0 -55 -32q0 -15 23 -44l68 -91l74 91
q21 24 21 44q0 32 -52 32v69h248v-69q-47 0 -75 -34z" />
    <glyph glyph-name="Y" unicode="Y" horiz-adv-x="711" 
d="M413 343l104 190q24 43 24 61q0 20 -16 28.5t-51 10.5v69h230v-69q-23 -4 -35.5 -11.5t-22.5 -25.5l-189 -340v-119q0 -39 17 -52.5t68 -15.5v-69h-366v69q50 2 67.5 15.5t17.5 52.5v120l-197 339q-11 19 -23 26t-34 11v69h346v-69q-38 -1 -51.5 -9.5t-13.5 -29.5
q0 -18 23 -61z" />
    <glyph glyph-name="Z" unicode="Z" horiz-adv-x="649" 
d="M257 72h128q54 0 83 28t86 134h76l-35 -234h-573v48l359 581h-121q-17 0 -30.5 -2.5t-24.5 -10.5t-18 -14t-16 -21t-13.5 -24.5t-14.5 -31t-16 -33.5h-71v210h557v-49z" />
    <glyph glyph-name="bracketleft" unicode="[" horiz-adv-x="357" 
d="M209 658v-687q0 -36 22.5 -46t90.5 -14v-52h-237v911h237v-52q-68 -4 -90.5 -14t-22.5 -46z" />
    <glyph glyph-name="backslash" unicode="\" horiz-adv-x="442" 
d="M310 -121l-272 891h107l272 -891h-107z" />
    <glyph glyph-name="bracketright" unicode="]" horiz-adv-x="357" 
d="M148 -29v687q0 36 -22.5 46t-90.5 14v52h237v-911h-237v52q68 4 90.5 14t22.5 46z" />
    <glyph glyph-name="asciicircum" unicode="^" horiz-adv-x="490" 
d="M185 770h120l145 -290h-117l-88 188l-88 -188h-117z" />
    <glyph glyph-name="underscore" unicode="_" horiz-adv-x="440" 
d="M420 -169h-400v103h400v-103z" />
    <glyph glyph-name="grave" unicode="`" horiz-adv-x="500" 
d="M122 766h184l67 -160h-96z" />
    <glyph glyph-name="a" unicode="a" horiz-adv-x="591" 
d="M279 102q25 0 45 13v165l-59 -24q-26 -11 -37.5 -28t-11.5 -47q0 -36 16.5 -57.5t46.5 -21.5zM510 342q0 -2 -0.5 -97t-0.5 -98q0 -26 6 -39t24 -13q21 0 42 6l9 -51q-64 -60 -146 -60q-85 0 -117 91q-63 -87 -158 -87q-64 0 -102.5 38t-38.5 103q0 60 35.5 91.5
t99.5 53.5l161 56v62q0 57 -12.5 79t-43.5 22q-51 0 -51 -62q0 -38 9 -69l-120 -18q-43 15 -43 70q0 70 60.5 105t161.5 35q115 0 170 -47.5t55 -170.5z" />
    <glyph glyph-name="b" unicode="b" horiz-adv-x="663" 
d="M70 626l-55 59v37l210 39h34v-298q51 97 159 97q97 0 154.5 -67.5t57.5 -188.5q0 -144 -85.5 -229t-216.5 -85q-171 0 -258 68v568zM329 59q52 0 80.5 52.5t28.5 138.5q0 92 -33.5 143t-88.5 51q-32 0 -57 -13v-274q0 -48 16 -73t54 -25z" />
    <glyph glyph-name="c" unicode="c" horiz-adv-x="542" 
d="M203 332q0 -92 37.5 -146.5t109.5 -54.5q83 0 137 72l34 -23q-50 -190 -238 -190q-110 0 -180.5 72t-70.5 192q0 134 79 220t207 86q82 0 139 -38.5t57 -107.5q0 -61 -43 -78h-97v52q0 49 -15 75t-53 26q-43 0 -73 -41.5t-30 -115.5z" />
    <glyph glyph-name="d" unicode="d" horiz-adv-x="676" 
d="M404 -10v98q-52 -98 -166 -98q-92 0 -148.5 68t-56.5 188q0 144 79 225.5t203 81.5q60 0 89 -24v97l-55 59v37l211 39h32v-616q0 -53 38 -54h24v-69l-212 -32h-38zM334 487q-52 0 -80.5 -51t-28.5 -136q0 -92 32.5 -143.5t90.5 -51.5q27 0 56 12v271q0 51 -15.5 75
t-54.5 24z" />
    <glyph glyph-name="e" unicode="e" horiz-adv-x="561" 
d="M306 560q104 0 162 -65t58 -164v-39h-327q0 -72 42.5 -115.5t109.5 -43.5q91 0 144 68l33 -22q-20 -88 -81 -138.5t-155 -50.5q-114 0 -187 72.5t-73 194.5q0 134 79.5 218.5t194.5 84.5zM289 491q-75 0 -88 -139h164q-2 139 -76 139z" />
    <glyph glyph-name="f" unicode="f" horiz-adv-x="417" 
d="M286 475v-353q0 -16 3.5 -25.5t16 -15.5t23 -8t36.5 -6v-67h-327v67q36 5 48 14.5t12 42.5v351h-76v62l76 18v6q0 57 19 99t53 65t74.5 34t90.5 11q158 0 158 -96q0 -40 -35 -64h-90v38q0 31 -7.5 47t-29.5 16q-47 0 -47 -71v-90h116v-75h-114z" />
    <glyph glyph-name="g" unicode="g" horiz-adv-x="597" 
d="M286 197q-62 0 -108 15q-26 -31 -26 -47q0 -21 24 -21h241q87 0 131.5 -39.5t44.5 -109.5q0 -95 -84 -148.5t-226 -53.5q-124 0 -193 29.5t-69 87.5q0 34 27 55t62 27q-73 28 -73 104q0 39 25.5 68.5t81.5 60.5q-96 45 -96 144q0 88 69 139.5t178 51.5q51 0 101 -13
l185 7v-92h-44l-78 17v-6q70 -31 70 -102q0 -81 -68 -127.5t-175 -46.5zM397 -33h-258q-7 -8 -7 -30q0 -83 154 -83q163 0 163 75q0 38 -52 38zM293 254q54 0 54 108q0 63 -17 101.5t-50 38.5q-54 0 -54 -108q0 -61 17 -100.5t50 -39.5z" />
    <glyph glyph-name="h" unicode="h" horiz-adv-x="697" 
d="M271 761v-306q94 105 193 105q153 0 153 -164v-272q0 -33 12 -42.5t48 -14.5v-67h-304v67q35 5 45.5 14.5t10.5 42.5v254q0 32 -14 47.5t-48 15.5q-45 0 -96 -17v-300q0 -33 10.5 -42.5t45.5 -14.5v-67h-305v67q37 5 49 14.5t12 42.5v502l-56 59v37l212 39h32z" />
    <glyph glyph-name="i" unicode="i" horiz-adv-x="366" 
d="M281 561v-437q0 -33 12 -42.5t49 -14.5v-67h-310v67q37 5 49 14.5t12 42.5v295l-56 60v31l211 51h33zM185 593q-47 0 -75 27.5t-28 67.5t28 67.5t75 27.5q46 0 74 -27.5t28 -67.5t-28 -67.5t-74 -27.5z" />
    <glyph glyph-name="j" unicode="j" horiz-adv-x="323" 
d="M262 561v-429q0 -80 -18 -129t-54 -90q-72 -81 -155 -122l-36 34l41 69q22 37 27.5 80t5.5 115v330l-55 60v31l211 51h33zM166 593q-47 0 -75 27.5t-28 67.5t28 67.5t75 27.5q46 0 74 -27.5t28 -67.5t-28 -67.5t-74 -27.5z" />
    <glyph glyph-name="k" unicode="k" horiz-adv-x="663" 
d="M278 292l127 122q27 29 27 38q0 16 -13 21.5t-50 10.5v66h264v-66q-60 -16 -81 -30q-6 -5 -12 -11l-89 -88l202 -303v-52h-192zM271 761v-637q0 -33 12 -42.5t49 -14.5v-67h-310v67q37 5 49 14.5t12 42.5v502l-56 59v37l212 39h32z" />
    <glyph glyph-name="l" unicode="l" horiz-adv-x="355" 
d="M270 761v-637q0 -33 12 -42.5t48 -14.5v-67h-308v67q37 5 48.5 14.5t11.5 42.5v502l-55 59v37l210 39h33z" />
    <glyph glyph-name="m" unicode="m" horiz-adv-x="1035" 
d="M1015 0h-300v67q34 5 43 14t9 43v254q0 34 -14.5 48.5t-50.5 14.5q-29 0 -84 -17v-300q0 -34 9 -43t44 -14v-67h-294v67q35 5 44 14t9 43v254q0 34 -14.5 48.5t-50.5 14.5q-29 0 -84 -17v-300q0 -34 9 -43t44 -14v-67h-302v67q37 5 49 14.5t12 42.5v291l-56 59v36l211 55
h33v-110q27 31 47 49.5t58 37t79 18.5q52 0 92 -27.5t54 -82.5q100 110 199 110q145 0 145 -162v-274q0 -33 12 -42.5t48 -14.5v-67z" />
    <glyph glyph-name="n" unicode="n" horiz-adv-x="706" 
d="M438 124v254q0 32 -13.5 47.5t-47.5 15.5q-45 0 -96 -17v-300q0 -33 10.5 -42.5t45.5 -14.5v-67h-305v67q37 5 49 14.5t12 42.5v291l-56 59v36l211 55h33v-110q92 105 193 105q152 0 152 -164v-272q0 -33 12 -42.5t48 -14.5v-67h-303v67q35 5 45 14.5t10 42.5z" />
    <glyph glyph-name="o" unicode="o" horiz-adv-x="637" 
d="M328 61q39 0 61 50.5t22 133.5q0 108 -27 176.5t-75 68.5q-40 0 -62 -51t-22 -134q0 -108 27.5 -176t75.5 -68zM310 -10q-124 0 -201 78.5t-77 197.5q0 133 82.5 213.5t211.5 80.5q125 0 202 -78.5t77 -196.5q0 -134 -83 -214.5t-212 -80.5z" />
    <glyph glyph-name="p" unicode="p" horiz-adv-x="679" 
d="M275 12v-85q0 -33 12 -42.5t48 -14.5v-67h-309v67q37 5 49 14.5t12 42.5v488l-56 59v36l211 55h33v-102q53 97 160 97q96 0 153.5 -67.5t57.5 -188.5q0 -144 -80 -229t-205 -85q-57 0 -86 22zM346 59q51 0 80 53t29 138q0 92 -33.5 143t-88.5 51q-32 0 -58 -13v-268
q0 -52 16 -78t55 -26z" />
    <glyph glyph-name="q" unicode="q" horiz-adv-x="658" 
d="M315 560q106 0 167 -64l47 63h69l-6 -123v-509q0 -33 12 -42.5t49 -14.5v-67h-309v67q36 5 48 14.5t12 42.5v161q-52 -98 -166 -98q-92 0 -148.5 68t-56.5 188q0 145 79 229.5t203 84.5zM334 494q-52 0 -80.5 -54t-28.5 -140q0 -92 32.5 -143.5t90.5 -51.5q27 0 56 12
v278q0 51 -15.5 75t-54.5 24z" />
    <glyph glyph-name="r" unicode="r" horiz-adv-x="486" 
d="M281 565v-175q29 97 63 133.5t89 36.5q24 0 45 -12v-158h-24q-122 0 -173 -36v-232q0 -16 3.5 -25.5t16 -15.5t23 -8t37.5 -6v-67h-329v67q37 5 49 14.5t12 42.5v291l-56 59v36l210 55h34z" />
    <glyph glyph-name="s" unicode="s" horiz-adv-x="516" 
d="M254 -10q-122 0 -207 58l-6 121h86q14 -58 45.5 -85.5t87.5 -27.5q39 0 62 14.5t23 42.5q0 29 -22.5 43.5t-90.5 29.5q-99 22 -145 65.5t-46 119.5q0 90 58.5 139.5t159.5 49.5q110 0 181 -47v-110h-83q-24 91 -106 91q-34 0 -52 -15.5t-18 -41.5q0 -27 21.5 -42
t87.5 -27q191 -36 191 -183q0 -93 -59.5 -144t-167.5 -51z" />
    <glyph glyph-name="t" unicode="t" horiz-adv-x="422" 
d="M264 677v-127h133v-75h-133v-308q0 -69 62 -69q36 0 74 19l20 -51q-74 -76 -185 -76q-161 0 -161 159v326h-66v55q49 16 102.5 57t94.5 90h59z" />
    <glyph glyph-name="u" unicode="u" horiz-adv-x="687" 
d="M413 -10v98q-77 -98 -188 -98q-69 0 -109 42.5t-40 127.5v231q0 51 -38 59l-15 5v57l207 48h35v-382q0 -76 61 -76q39 0 87 16v273q0 51 -38 59l-14 5v57l205 48h36v-415q0 -27 8 -40t29 -14h24v-69l-212 -32h-38z" />
    <glyph glyph-name="v" unicode="v" horiz-adv-x="621" 
d="M616 550v-66q-28 -10 -39 -17t-17 -23l-215 -448h-57l-227 448q-8 16 -19 23.5t-37 16.5v66h336v-66q-41 -5 -54 -12t-13 -24q0 -13 9 -32l85 -196l89 196q8 21 8 32q0 17 -13 24t-54 12v66h218z" />
    <glyph glyph-name="w" unicode="w" horiz-adv-x="900" 
d="M674 242l69 173q7 18 7 33q0 17 -11 24.5t-35 11.5v66h191v-66q-28 -10 -39 -17t-17 -23l-186 -448h-61l-130 315l-140 -315h-60l-201 448q-7 16 -18 23.5t-38 16.5v66h307v-66q-38 -7 -38 -33q0 -12 10 -37l70 -178l70 162l-18 46q-7 18 -16.5 27t-27.5 13v66h286v-66
q-27 -4 -36.5 -11t-9.5 -23q0 -13 8 -35z" />
    <glyph glyph-name="x" unicode="x" horiz-adv-x="623" 
d="M72 107l138 171l-134 166l-4 4q-3 5 -3.5 5.5t-3.5 4t-4.5 4.5t-4.5 4t-6 4.5t-6.5 4t-8 5t-9.5 4.5v66h319v-66q-17 -2 -25.5 -4.5t-15 -8t-6.5 -15.5q0 -13 18 -36l50 -63l52 63q17 18 17 35q0 14 -9.5 19.5t-33.5 9.5v66h203v-66q-50 -26 -64 -43l-118 -144l146 -190
q27 -36 59 -40v-67h-330v67q29 3 41.5 9.5t12.5 22.5q0 12 -16 32l-71 89l-67 -88q-14 -18 -14 -33t12 -21.5t40 -10.5v-67h-221v67q39 6 67 40z" />
    <glyph glyph-name="y" unicode="y" horiz-adv-x="622" 
d="M275 -2l-214 446q-7 15 -18 23t-38 17v66h336v-66q-41 -6 -54.5 -12.5t-13.5 -23.5q0 -12 11 -39l84 -204l86 205q11 27 11 38q0 17 -13 24t-53 12v66h218v-66q-27 -9 -38 -16.5t-18 -23.5l-231 -517q-32 -71 -68.5 -103t-88.5 -32q-61 0 -86 39v95h60q57 0 80.5 10.5
t42.5 51.5z" />
    <glyph glyph-name="z" unicode="z" horiz-adv-x="575" 
d="M26 0v47l280 435h-84q-39 0 -58 -26t-54 -113h-69v207h488v-50l-272 -431h77q47 0 71.5 26t66.5 113h70l-23 -208h-493z" />
    <glyph glyph-name="braceleft" unicode="{" horiz-adv-x="393" 
d="M50 297v36q83 17 83 100v209q0 128 225 128v-41q-41 -5 -68 -28.5t-27 -69.5v-204q0 -50 -20 -73.5t-71 -38.5q51 -15 71 -38.5t20 -73.5v-204q0 -46 27 -69.5t68 -28.5v-42q-225 0 -225 128v210q0 83 -83 100z" />
    <glyph glyph-name="bar" unicode="|" horiz-adv-x="302" 
d="M202 770v-911h-102v911h102z" />
    <glyph glyph-name="braceright" unicode="}" horiz-adv-x="393" 
d="M343 333v-36q-83 -17 -83 -100v-210q0 -128 -225 -128v42q41 5 68 28.5t27 69.5v204q0 50 20 73.5t71 38.5q-51 15 -71 38.5t-20 73.5v204q0 46 -27 69.5t-68 28.5v41q225 0 225 -128v-209q0 -83 83 -100z" />
    <glyph glyph-name="asciitilde" unicode="~" horiz-adv-x="582" 
d="M470 447l62 -19q-50 -184 -172 -184q-29 0 -83.5 31.5t-75.5 31.5q-50 0 -89 -62l-62 19q50 184 172 184q29 0 83.5 -31.5t75.5 -31.5q50 0 89 62z" />
    <glyph glyph-name="uni00A0" unicode="&#xa0;" horiz-adv-x="190" 
 />
    <glyph glyph-name="exclamdown" unicode="&#xa1;" horiz-adv-x="336" 
d="M66 449q0 42 30 72.5t71 30.5q42 0 72 -30.5t30 -72.5q0 -44 -29.5 -75t-72.5 -31q-41 0 -71 31t-30 75zM212 302l59 -461h-206l59 461h88z" />
    <glyph glyph-name="cent" unicode="&#xa2;" horiz-adv-x="603" 
d="M216 -117l21 116q-91 21 -144.5 89.5t-53.5 173.5q0 136 86 221t215 87l20 107h58l-20 -110q73 -10 116 -44t43 -94q0 -51 -49 -70h-77v44q0 77 -46 96l-66 -365q27 -8 54 -8q87 0 150 80l45 -23q-54 -193 -255 -193q-13 0 -20 1l-19 -108h-58zM206 327q0 -111 61 -164
l62 344q-54 -1 -88.5 -47.5t-34.5 -132.5z" />
    <glyph glyph-name="sterling" unicode="&#xa3;" horiz-adv-x="722" 
d="M105 334v58h102l2 40q5 136 67.5 208t179.5 72q91 0 146 -31t55 -100q0 -56 -46 -76h-107v63q0 84 -48 84q-44 0 -51 -77l-16 -183h160v-58h-165l-3 -38q-6 -79 -25 -123q130 -37 199 -37q44 0 57.5 18t13.5 68l45 11q19 -36 19 -89q0 -74 -42.5 -114t-123.5 -40
q-112 0 -215 85q-27 -41 -75 -63t-105 -22q-55 0 -88.5 31t-33.5 83q0 54 33.5 85t86.5 31q43 0 74 -13l4 127h-100zM130 47q63 0 66 91q-35 20 -69 20q-26 0 -39.5 -15t-13.5 -39q0 -27 15.5 -42t40.5 -15z" />
    <glyph glyph-name="currency" unicode="&#xa4;" horiz-adv-x="582" 
d="M57 159l72 74q-35 49 -35 116t36 117l-73 73l45 44l73 -73q50 36 116 36t116 -36l73 72l44 -44l-72 -73q36 -51 36 -116t-36 -117l73 -72l-45 -44l-73 72q-50 -36 -116 -36q-65 0 -117 36l-73 -73zM180 349q0 -50 32 -83.5t79 -33.5t79 33.5t32 83.5t-32 83.5t-79 33.5
t-79 -33.5t-32 -83.5z" />
    <glyph glyph-name="yen" unicode="&#xa5;" horiz-adv-x="711" 
d="M102 332v58h82l-120 206q-11 19 -23 26t-34 11v69h346v-69q-38 -1 -51.5 -9.5t-13.5 -29.5q0 -18 23 -61l102 -191l104 191q24 43 24 61q0 20 -16 28.5t-51 10.5v69h230v-69q-23 -4 -35.5 -11.5t-22.5 -25.5l-115 -206h92v-58h-124l-38 -68h162v-57h-166v-70
q0 -39 17 -52.5t68 -15.5v-69h-366v69q50 2 67.5 15.5t17.5 52.5v70h-159v57h155l-40 68h-115z" />
    <glyph glyph-name="brokenbar" unicode="&#xa6;" horiz-adv-x="302" 
d="M202 770v-376h-102v376h102zM202 235v-376h-102v376h102z" />
    <glyph glyph-name="section" unicode="&#xa7;" horiz-adv-x="531" 
d="M230 -203q-72 0 -118 31.5t-46 82.5q0 45 45 61h94v-36q0 -90 65 -90q29 0 43.5 19.5t14.5 46.5q0 23 -16 55t-35.5 58t-54 70t-52.5 70q-60 84 -91.5 156t-31.5 152q0 107 72.5 173t181.5 66q72 0 118 -31.5t46 -82.5q0 -45 -45 -61h-94v36q0 90 -65 90
q-29 0 -43.5 -19.5t-14.5 -46.5q0 -23 16 -55t35.5 -58t54 -70t52.5 -70q60 -85 92 -156.5t32 -151.5q0 -107 -73 -173t-182 -66zM392 -92q29 45 29 128q0 113 -125 277q-47 62 -74.5 101t-55 94.5t-27.5 92.5q-29 -45 -29 -128q0 -113 125 -277q47 -62 74.5 -101t55 -94.5
t27.5 -92.5z" />
    <glyph glyph-name="dieresis" unicode="&#xa8;" horiz-adv-x="500" 
d="M50 691q0 36 26 62t63 26t63.5 -26t26.5 -62t-26.5 -62t-63.5 -26t-63 26t-26 62zM270 691q0 36 26.5 62t61.5 26q38 0 64.5 -26t26.5 -62t-26.5 -62t-64.5 -26q-35 0 -61.5 26t-26.5 62z" />
    <glyph glyph-name="copyright" unicode="&#xa9;" horiz-adv-x="796" 
d="M82 351q0 -135 89.5 -228.5t226.5 -93.5t226.5 93.5t89.5 228.5t-89.5 228.5t-226.5 93.5t-226.5 -93.5t-89.5 -228.5zM40 351q0 151 101.5 256t256.5 105t256.5 -105t101.5 -256t-101.5 -256t-256.5 -105t-256.5 105t-101.5 256zM426 192q23 0 39.5 15.5t23.5 33
t18 52.5h67l-9 -113q-58 -39 -148 -39q-101 0 -158 56t-57 147q0 99 62 159.5t154 60.5t141 -43v-96h-66q-23 91 -76 91q-47 0 -63.5 -42.5t-16.5 -120.5q0 -70 23 -115.5t66 -45.5z" />
    <glyph glyph-name="ordfeminine" unicode="&#xaa;" horiz-adv-x="478" 
d="M210 396q23 0 43 14v111l-40 -16q-46 -20 -46 -59q0 -24 12.5 -37t30.5 -13zM386 568q0 -24 -1 -80t-1 -60q0 -38 24 -38q15 0 28 4l7 -36q-45 -43 -97 -43q-63 0 -91 63q-19 -27 -51.5 -43.5t-67.5 -16.5q-45 0 -73 27t-28 72q0 44 25 66.5t71 37.5l122 39v45
q0 71 -40 71q-38 0 -38 -43q0 -25 7 -50l-94 -14q-32 12 -32 52q0 49 45.5 75t120.5 26q84 0 124 -34.5t40 -119.5z" />
    <glyph glyph-name="guillemotleft" unicode="&#xab;" horiz-adv-x="564" 
d="M35 271v10l181 200h87l-113 -205l113 -205h-87zM260 271v10l181 200h88l-114 -205l114 -205h-88z" />
    <glyph glyph-name="registered" unicode="&#xae;" horiz-adv-x="555" 
d="M262 580h-6v-89h6q45 0 45 45q0 44 -45 44zM164 608h115q51 0 75.5 -20t24.5 -51q0 -50 -52 -67l45 -56q14 -20 29 -21v-23h-64q-16 8 -30 31l-42 64h-9v-47q0 -15 4 -20t20 -5v-23h-116v23q17 0 21.5 5t4.5 20v142q0 15 -4.5 19t-21.5 6v23zM87 484q0 -79 54.5 -136
t135.5 -57q82 0 136.5 57t54.5 136q0 80 -54.5 137t-136.5 57q-81 0 -135.5 -57.5t-54.5 -136.5zM50 484q0 96 64.5 162t162.5 66q99 0 163.5 -66t64.5 -162q0 -95 -65 -161t-163 -66t-162.5 66t-64.5 161z" />
    <glyph glyph-name="macron" unicode="&#xaf;" horiz-adv-x="500" 
d="M96 626v101h308v-101h-308z" />
    <glyph glyph-name="degree" unicode="&#xb0;" horiz-adv-x="376" 
d="M99 551q0 -42 24 -68.5t65 -26.5t65 26.5t24 68.5t-24 68.5t-65 26.5t-65 -26.5t-24 -68.5zM25 551q0 69 47 115t116 46t116 -46t47 -115t-47 -115t-116 -46t-116 46t-47 115z" />
    <glyph glyph-name="plusminus" unicode="&#xb1;" horiz-adv-x="604" 
d="M255 621h93v-135h178v-92h-178v-136h-93v136h-177v92h177v135zM78 115v93h448v-93h-448z" />
    <glyph glyph-name="twosuperior" unicode="&#xb2;" horiz-adv-x="451" 
d="M173 395h110q29 0 41 8t36 42h41l-13 -158h-363v47l126 110q47 41 68 71t21 67q0 31 -18 48.5t-51 17.5q-53 0 -96 -53l-34 35q26 50 78 84t120 34q65 0 104.5 -35t39.5 -96q0 -35 -16.5 -67t-51 -60.5t-64.5 -48t-78 -46.5z" />
    <glyph glyph-name="threesuperior" unicode="&#xb3;" horiz-adv-x="441" 
d="M261 537q60 -1 97.5 -32.5t37.5 -83.5q0 -69 -55.5 -106t-141.5 -37q-81 0 -122.5 26.5t-41.5 68.5q0 38 32 53h87v-25q0 -78 51 -78q50 0 50 71q0 92 -81 92h-18l-10 30q47 19 65.5 37t18.5 43q0 21 -14.5 34.5t-40.5 13.5q-49 0 -84 -45l-36 25q23 53 71 86.5t115 33.5
q60 0 96 -28.5t36 -78.5q0 -42 -31 -67.5t-81 -32.5z" />
    <glyph glyph-name="acute" unicode="&#xb4;" horiz-adv-x="500" 
d="M194 766h184l-155 -160h-97z" />
    <glyph glyph-name="mu" unicode="&#xb5;" horiz-adv-x="682" 
d="M249 -6l13 -155v-26l-186 -10v588q0 51 -38 59l-15 5v57l207 48h35v-382q0 -76 61 -76q34 0 82 16v273q0 51 -38 59l-14 5v57l205 48h36v-415q0 -27 8 -40t29 -14h24v-69l-212 -32h-38v98q-61 -79 -129 -91q-17 -3 -30 -3z" />
    <glyph glyph-name="paragraph" unicode="&#xb6;" horiz-adv-x="669" 
d="M323 -197v391q-129 0 -203.5 73.5t-74.5 180.5t74.5 180.5t203.5 73.5h316v-69q-61 0 -81.5 -14t-20.5 -59v-757h-74v840h-66v-840h-74zM323 249v398q-50 -6 -76.5 -63t-26.5 -136t26.5 -136t76.5 -63z" />
    <glyph glyph-name="periodcentered" unicode="&#xb7;" horiz-adv-x="315" 
d="M50 305q0 47 31 77.5t76 30.5q46 0 77 -30.5t31 -77.5t-31 -77t-77 -30q-45 0 -76 30t-31 77z" />
    <glyph glyph-name="cedilla" unicode="&#xb8;" horiz-adv-x="500" 
d="M148 -233l-11 49q115 0 115 39q0 32 -85 36l48 117h50l-19 -52q97 -10 97 -78q0 -53 -57 -82t-138 -29z" />
    <glyph glyph-name="onesuperior" unicode="&#xb9;" horiz-adv-x="391" 
d="M228 748h50v-363q0 -28 12.5 -35.5t60.5 -10.5v-52h-296v52q54 3 64.5 9.5t10.5 36.5v218h-75v48l28 6q56 12 85.5 32t59.5 59z" />
    <glyph glyph-name="ordmasculine" unicode="&#xba;" horiz-adv-x="477" 
d="M245 365q29 0 44 36.5t15 99.5q0 80 -19 125t-52 45q-29 0 -44.5 -36.5t-15.5 -99.5q0 -79 19.5 -124.5t52.5 -45.5zM233 315q-92 0 -147.5 54.5t-55.5 141.5q0 96 59 153t156 57q92 0 147 -54t55 -142q0 -96 -59 -153t-155 -57z" />
    <glyph glyph-name="guillemotright" unicode="&#xbb;" horiz-adv-x="564" 
d="M303 281v-10l-179 -200h-89l114 205l-114 205h89zM529 281v-10l-180 -200h-88l114 205l-114 205h88z" />
    <glyph glyph-name="onequarter" unicode="&#xbc;" horiz-adv-x="963" 
d="M539 104h139v181zM825 -71h-147v118h-212v48l226 294h133v-285h88v-57h-88v-118zM225 748h50v-363q0 -28 12.5 -35.5t60.5 -10.5v-52h-296v52q54 3 64.5 9.5t10.5 36.5v218h-75v48l28 6q56 12 85.5 32t59.5 59zM227 0l449 741h77l-450 -741h-76z" />
    <glyph glyph-name="onehalf" unicode="&#xbd;" horiz-adv-x="955" 
d="M228 748h50v-363q0 -28 12.5 -35.5t60.5 -10.5v-52h-296v52q54 3 64.5 9.5t10.5 36.5v218h-75v48l28 6q56 12 85.5 32t59.5 59zM230 0l449 741h77l-450 -741h-76zM677 37h110q29 0 41 8t36 42h41l-13 -158h-363v47l126 110q47 41 68 71t21 67q0 31 -18 48.5t-51 17.5
q-53 0 -96 -53l-34 35q26 50 78 84t120 34q65 0 104.5 -35t39.5 -96q0 -35 -16.5 -67t-51 -60.5t-64.5 -48t-78 -46.5z" />
    <glyph glyph-name="threequarters" unicode="&#xbe;" horiz-adv-x="983" 
d="M261 537q60 -1 97.5 -32.5t37.5 -83.5q0 -69 -55.5 -106t-141.5 -37q-81 0 -122.5 26.5t-41.5 68.5q0 38 32 53h87v-25q0 -78 51 -78q50 0 50 71q0 92 -81 92h-18l-10 30q47 19 65.5 37t18.5 43q0 21 -14.5 34.5t-40.5 13.5q-49 0 -84 -45l-36 25q23 53 71 86.5t115 33.5
q60 0 96 -28.5t36 -78.5q0 -42 -31 -67.5t-81 -32.5zM559 104h139v181zM845 -71h-147v118h-212v48l226 294h133v-285h88v-57h-88v-118zM247 0l449 741h77l-450 -741h-76z" />
    <glyph glyph-name="questiondown" unicode="&#xbf;" horiz-adv-x="480" 
d="M186 -37q0 -63 61 -63q68 0 68 82v53h110q39 -19 39 -66q0 -62 -58.5 -100t-159.5 -38q-106 0 -163 42t-57 125q0 59 28.5 99t88.5 74q48 27 64.5 50.5t16.5 55.5v26h54q62 -36 62 -103q0 -70 -61 -117q-4 -3 -15.5 -12t-15.5 -12.5t-14 -11.5t-14 -12.5t-11 -12.5
t-10 -13.5t-6.5 -13.5t-5 -15.5t-1.5 -16.5zM354 448q0 -44 -29.5 -75t-71.5 -31q-43 0 -72.5 31t-29.5 75q0 42 30 72.5t72 30.5t71.5 -30.5t29.5 -72.5z" />
    <glyph glyph-name="Agrave" unicode="&#xc0;" horiz-adv-x="758" 
d="M463 153l-24 60h-244l-23 -60q-9 -27 -9 -40q0 -24 13 -33t57 -11v-69h-226v69q24 4 36.5 11.5t20.5 25.5l205 517l-35 80h205l254 -597q8 -18 21 -25.5t37 -11.5v-69h-347v69q43 2 56.5 11t13.5 33q0 16 -11 40zM315 522l-93 -240h189zM161 909h185l72 -158h-101z" />
    <glyph glyph-name="Aacute" unicode="&#xc1;" horiz-adv-x="758" 
d="M463 153l-24 60h-244l-23 -60q-9 -27 -9 -40q0 -24 13 -33t57 -11v-69h-226v69q24 4 36.5 11.5t20.5 25.5l205 517l-35 80h205l254 -597q8 -18 21 -25.5t37 -11.5v-69h-347v69q43 2 56.5 11t13.5 33q0 16 -11 40zM315 522l-93 -240h189zM369 909h185l-156 -158h-101z" />
    <glyph glyph-name="Acircumflex" unicode="&#xc2;" horiz-adv-x="758" 
d="M463 153l-24 60h-244l-23 -60q-9 -27 -9 -40q0 -24 13 -33t57 -11v-69h-226v69q24 4 36.5 11.5t20.5 25.5l205 517l-35 80h205l254 -597q8 -18 21 -25.5t37 -11.5v-69h-347v69q43 2 56.5 11t13.5 33q0 16 -11 40zM421 918l138 -169h-95l-111 80l-111 -80h-95l138 169h136
zM315 522l-93 -240h189z" />
    <glyph glyph-name="Atilde" unicode="&#xc3;" horiz-adv-x="758" 
d="M463 153l-24 60h-244l-23 -60q-9 -27 -9 -40q0 -24 13 -33t57 -11v-69h-226v69q24 4 36.5 11.5t20.5 25.5l205 517l-35 80h205l254 -597q8 -18 21 -25.5t37 -11.5v-69h-347v69q43 2 56.5 11t13.5 33q0 16 -11 40zM502 901l60 -12q-39 -92 -67.5 -120.5t-73.5 -28.5
q-30 0 -75 30t-61 30q-20 0 -33.5 -13.5t-31.5 -41.5l-60 12q39 92 67 120.5t74 28.5q36 0 78 -30t58 -30q19 0 33.5 14t31.5 41zM315 522l-93 -240h189z" />
    <glyph glyph-name="Adieresis" unicode="&#xc4;" horiz-adv-x="758" 
d="M463 153l-24 60h-244l-23 -60q-9 -27 -9 -40q0 -24 13 -33t57 -11v-69h-226v69q24 4 36.5 11.5t20.5 25.5l205 517l-35 80h205l254 -597q8 -18 21 -25.5t37 -11.5v-69h-347v69q43 2 56.5 11t13.5 33q0 16 -11 40zM154 831q0 36 26 62t63 26t63.5 -26t26.5 -62t-26.5 -62
t-63.5 -26t-63 26t-26 62zM374 831q0 36 26.5 62t61.5 26q38 0 64.5 -26t26.5 -62t-26.5 -62t-64.5 -26q-35 0 -61.5 26t-26.5 62zM315 522l-93 -240h189z" />
    <glyph glyph-name="Aring" unicode="&#xc5;" horiz-adv-x="758" 
d="M463 153l-24 60h-244l-23 -60q-9 -27 -9 -40q0 -24 13 -33t57 -11v-69h-226v69q24 4 36.5 11.5t20.5 25.5l205 517l-35 80h205l254 -597q8 -18 21 -25.5t37 -11.5v-69h-347v69q43 2 56.5 11t13.5 33q0 16 -11 40zM240 840q0 43 32 72t81 29t81 -29t32 -72t-32 -72
t-81 -29t-81 29t-32 72zM315 522l-93 -240h189zM399 840q0 19 -12 31.5t-34 12.5t-34 -12.5t-12 -31.5t12 -31.5t34 -12.5t34 12.5t12 31.5z" />
    <glyph glyph-name="AE" unicode="&#xc6;" horiz-adv-x="1057" 
d="M64 106l139 204v2h1l191 281q-8 21 -26 29.5t-61 10.5v69h688v-192h-78q-26 67 -53 94.5t-83 27.5h-97v-234h74q33 0 49 16.5t23 61.5h66v-229h-66q-7 45 -23 61.5t-49 16.5h-74v-188q0 -39 19 -53t61 -14h25q50 0 82.5 28.5t83.5 109.5h76l-31 -208h-593v69
q50 2 64.5 15t14.5 53v106h-233l-48 -71q-24 -35 -24 -60q0 -24 14 -32.5t58 -10.5v-69h-247v69q20 4 32 11.5t25 25.5zM487 586l-186 -274h186v274z" />
    <glyph glyph-name="Ccedilla" unicode="&#xc7;" horiz-adv-x="706" 
d="M289 -233l-11 49q115 0 115 39q0 32 -85 36l41 102q-149 14 -232 107.5t-83 236.5q0 169 106 272t263 103q155 0 240 -74v-163h-96q-21 81 -53.5 122.5t-92.5 41.5q-42 0 -73 -22.5t-48 -62.5t-24.5 -86.5t-7.5 -101.5q0 -136 43 -217t125 -81q60 0 94 42t62 139h97
l-16 -193q-97 -66 -252 -66h-2l-12 -34q97 -10 97 -78q0 -53 -57 -82t-138 -29z" />
    <glyph glyph-name="Egrave" unicode="&#xc8;" horiz-adv-x="680" 
d="M520 247h-66q-7 45 -23 61.5t-49 16.5h-74v-188q0 -39 19 -53t61 -14h25q50 0 82.5 28.5t83.5 109.5h76l-31 -208h-593v69q50 2 64.5 15t14.5 53v428q0 40 -14.5 53t-64.5 15v69h588v-192h-78q-26 67 -53 94.5t-83 27.5h-97v-234h74q33 0 49 16.5t23 61.5h66v-229z
M159 909h185l72 -158h-101z" />
    <glyph glyph-name="Eacute" unicode="&#xc9;" horiz-adv-x="680" 
d="M520 247h-66q-7 45 -23 61.5t-49 16.5h-74v-188q0 -39 19 -53t61 -14h25q50 0 82.5 28.5t83.5 109.5h76l-31 -208h-593v69q50 2 64.5 15t14.5 53v428q0 40 -14.5 53t-64.5 15v69h588v-192h-78q-26 67 -53 94.5t-83 27.5h-97v-234h74q33 0 49 16.5t23 61.5h66v-229z
M367 909h185l-156 -158h-101z" />
    <glyph glyph-name="Ecircumflex" unicode="&#xca;" horiz-adv-x="680" 
d="M520 247h-66q-7 45 -23 61.5t-49 16.5h-74v-188q0 -39 19 -53t61 -14h25q50 0 82.5 28.5t83.5 109.5h76l-31 -208h-593v69q50 2 64.5 15t14.5 53v428q0 40 -14.5 53t-64.5 15v69h588v-192h-78q-26 67 -53 94.5t-83 27.5h-97v-234h74q33 0 49 16.5t23 61.5h66v-229z
M419 918l138 -169h-95l-111 80l-111 -80h-95l138 169h136z" />
    <glyph glyph-name="Edieresis" unicode="&#xcb;" horiz-adv-x="680" 
d="M520 247h-66q-7 45 -23 61.5t-49 16.5h-74v-188q0 -39 19 -53t61 -14h25q50 0 82.5 28.5t83.5 109.5h76l-31 -208h-593v69q50 2 64.5 15t14.5 53v428q0 40 -14.5 53t-64.5 15v69h588v-192h-78q-26 67 -53 94.5t-83 27.5h-97v-234h74q33 0 49 16.5t23 61.5h66v-229z
M152 831q0 36 26 62t63 26t63.5 -26t26.5 -62t-26.5 -62t-63.5 -26t-63 26t-26 62zM372 831q0 36 26.5 62t61.5 26q38 0 64.5 -26t26.5 -62t-26.5 -62t-64.5 -26q-35 0 -61.5 26t-26.5 62z" />
    <glyph glyph-name="Igrave" unicode="&#xcc;" horiz-adv-x="418" 
d="M387 0h-356v69q50 2 64.5 15t14.5 53v428q0 40 -14.5 53t-64.5 15v69h356v-69q-50 -2 -64.5 -15t-14.5 -53v-428q0 -40 14.5 -53t64.5 -15v-69zM17 909h185l72 -158h-101z" />
    <glyph glyph-name="Iacute" unicode="&#xcd;" horiz-adv-x="418" 
d="M387 0h-356v69q50 2 64.5 15t14.5 53v428q0 40 -14.5 53t-64.5 15v69h356v-69q-50 -2 -64.5 -15t-14.5 -53v-428q0 -40 14.5 -53t64.5 -15v-69zM225 909h185l-156 -158h-101z" />
    <glyph glyph-name="Icircumflex" unicode="&#xce;" horiz-adv-x="418" 
d="M387 0h-356v69q50 2 64.5 15t14.5 53v428q0 40 -14.5 53t-64.5 15v69h356v-69q-50 -2 -64.5 -15t-14.5 -53v-428q0 -40 14.5 -53t64.5 -15v-69zM277 918l138 -169h-95l-111 80l-111 -80h-95l138 169h136z" />
    <glyph glyph-name="Idieresis" unicode="&#xcf;" horiz-adv-x="418" 
d="M387 0h-356v69q50 2 64.5 15t14.5 53v428q0 40 -14.5 53t-64.5 15v69h356v-69q-50 -2 -64.5 -15t-14.5 -53v-428q0 -40 14.5 -53t64.5 -15v-69zM10 831q0 36 26 62t63 26t63.5 -26t26.5 -62t-26.5 -62t-63.5 -26t-63 26t-26 62zM230 831q0 36 26.5 62t61.5 26
q38 0 64.5 -26t26.5 -62t-26.5 -62t-64.5 -26q-35 0 -61.5 26t-26.5 62z" />
    <glyph glyph-name="Eth" unicode="&#xd0;" horiz-adv-x="810" 
d="M38 327v71h79v167q0 40 -14.5 53t-64.5 15v69h325q197 0 305 -88.5t108 -251.5q0 -170 -100.5 -266t-276.5 -96h-361v69q50 2 64.5 15t14.5 53v190h-79zM336 630h-21v-232h121v-71h-121v-185q0 -42 15 -56t53 -14h9q172 0 172 279q0 131 -59 205t-169 74z" />
    <glyph glyph-name="Ntilde" unicode="&#xd1;" horiz-adv-x="778" 
d="M110 137v447q-21 28 -36 37t-43 12v69h272l289 -380v243q0 39 -19 52.5t-69 15.5v69h256v-69q-49 -2 -63.5 -15t-14.5 -53v-565h-81l-401 503v-366q0 -39 18.5 -52.5t69.5 -15.5v-69h-257v69q50 2 64.5 15t14.5 53zM541 901l60 -12q-39 -92 -67.5 -120.5t-73.5 -28.5
q-30 0 -75 30t-61 30q-20 0 -33.5 -13.5t-31.5 -41.5l-60 12q39 92 67 120.5t74 28.5q36 0 78 -30t58 -30q19 0 33.5 14t31.5 41z" />
    <glyph glyph-name="Ograve" unicode="&#xd2;" horiz-adv-x="766" 
d="M395 64q65 0 96 74.5t31 196.5q0 141 -38 222t-113 81q-65 0 -96 -74.5t-31 -196.5q0 -141 38 -222t113 -81zM392 712q106 0 185 -48.5t117 -126t38 -172.5q0 -170 -101 -272.5t-257 -102.5q-106 0 -185 48.5t-117 126t-38 172.5q0 170 101 272.5t257 102.5zM199 909h185
l72 -158h-101z" />
    <glyph glyph-name="Oacute" unicode="&#xd3;" horiz-adv-x="766" 
d="M395 64q65 0 96 74.5t31 196.5q0 141 -38 222t-113 81q-65 0 -96 -74.5t-31 -196.5q0 -141 38 -222t113 -81zM392 712q106 0 185 -48.5t117 -126t38 -172.5q0 -170 -101 -272.5t-257 -102.5q-106 0 -185 48.5t-117 126t-38 172.5q0 170 101 272.5t257 102.5zM407 909h185
l-156 -158h-101z" />
    <glyph glyph-name="Ocircumflex" unicode="&#xd4;" horiz-adv-x="766" 
d="M395 64q65 0 96 74.5t31 196.5q0 141 -38 222t-113 81q-65 0 -96 -74.5t-31 -196.5q0 -141 38 -222t113 -81zM392 712q106 0 185 -48.5t117 -126t38 -172.5q0 -170 -101 -272.5t-257 -102.5q-106 0 -185 48.5t-117 126t-38 172.5q0 170 101 272.5t257 102.5zM459 918
l138 -169h-95l-111 80l-111 -80h-95l138 169h136z" />
    <glyph glyph-name="Otilde" unicode="&#xd5;" horiz-adv-x="766" 
d="M395 64q65 0 96 74.5t31 196.5q0 141 -38 222t-113 81q-65 0 -96 -74.5t-31 -196.5q0 -141 38 -222t113 -81zM392 712q106 0 185 -48.5t117 -126t38 -172.5q0 -170 -101 -272.5t-257 -102.5q-106 0 -185 48.5t-117 126t-38 172.5q0 170 101 272.5t257 102.5zM532 901
l60 -12q-39 -92 -67.5 -120.5t-73.5 -28.5q-30 0 -75 30t-61 30q-20 0 -33.5 -13.5t-31.5 -41.5l-60 12q39 92 67 120.5t74 28.5q36 0 78 -30t58 -30q19 0 33.5 14t31.5 41z" />
    <glyph glyph-name="Odieresis" unicode="&#xd6;" horiz-adv-x="766" 
d="M395 64q65 0 96 74.5t31 196.5q0 141 -38 222t-113 81q-65 0 -96 -74.5t-31 -196.5q0 -141 38 -222t113 -81zM392 712q106 0 185 -48.5t117 -126t38 -172.5q0 -170 -101 -272.5t-257 -102.5q-106 0 -185 48.5t-117 126t-38 172.5q0 170 101 272.5t257 102.5zM192 831
q0 36 26 62t63 26t63.5 -26t26.5 -62t-26.5 -62t-63.5 -26t-63 26t-26 62zM412 831q0 36 26.5 62t61.5 26q38 0 64.5 -26t26.5 -62t-26.5 -62t-64.5 -26q-35 0 -61.5 26t-26.5 62z" />
    <glyph glyph-name="multiply" unicode="&#xd7;" horiz-adv-x="526" 
d="M199 361l-133 133l64 65l133 -135l132 135l65 -65l-134 -133l134 -132l-65 -65l-132 134l-133 -134l-64 65z" />
    <glyph glyph-name="Oslash" unicode="&#xd8;" horiz-adv-x="770" 
d="M642 728l-44 -77q66 -47 101 -122t35 -164q0 -170 -101 -272.5t-257 -102.5q-72 0 -139 25l-48 -84l-61 32l48 85q-68 46 -104 122.5t-36 166.5q0 170 101 272.5t257 102.5q79 0 144 -28l43 76zM242 367q0 -103 18 -171l218 384q-38 58 -105 58q-66 0 -98.5 -75.5
t-32.5 -195.5zM397 64q66 0 98.5 75.5t32.5 195.5q0 96 -17 164l-217 -382q37 -53 103 -53z" />
    <glyph glyph-name="Ugrave" unicode="&#xd9;" horiz-adv-x="775" 
d="M298 565v-297q0 -84 29.5 -128t101.5 -44q73 0 113 40t40 141v288q0 39 -18.5 52.5t-69.5 15.5v69h261v-69q-49 -2 -64 -15t-15 -53v-318q0 -126 -77.5 -191.5t-198.5 -65.5q-146 0 -224 65t-78 193v317q0 40 -14.5 53t-63.5 15v69h354v-69q-48 -2 -62 -15t-14 -53z
M231 909h185l72 -158h-101z" />
    <glyph glyph-name="Uacute" unicode="&#xda;" horiz-adv-x="775" 
d="M298 565v-297q0 -84 29.5 -128t101.5 -44q73 0 113 40t40 141v288q0 39 -18.5 52.5t-69.5 15.5v69h261v-69q-49 -2 -64 -15t-15 -53v-318q0 -126 -77.5 -191.5t-198.5 -65.5q-146 0 -224 65t-78 193v317q0 40 -14.5 53t-63.5 15v69h354v-69q-48 -2 -62 -15t-14 -53z
M439 909h185l-156 -158h-101z" />
    <glyph glyph-name="Ucircumflex" unicode="&#xdb;" horiz-adv-x="775" 
d="M298 565v-297q0 -84 29.5 -128t101.5 -44q73 0 113 40t40 141v288q0 39 -18.5 52.5t-69.5 15.5v69h261v-69q-49 -2 -64 -15t-15 -53v-318q0 -126 -77.5 -191.5t-198.5 -65.5q-146 0 -224 65t-78 193v317q0 40 -14.5 53t-63.5 15v69h354v-69q-48 -2 -62 -15t-14 -53z
M491 918l138 -169h-95l-111 80l-111 -80h-95l138 169h136z" />
    <glyph glyph-name="Udieresis" unicode="&#xdc;" horiz-adv-x="775" 
d="M298 565v-297q0 -84 29.5 -128t101.5 -44q73 0 113 40t40 141v288q0 39 -18.5 52.5t-69.5 15.5v69h261v-69q-49 -2 -64 -15t-15 -53v-318q0 -126 -77.5 -191.5t-198.5 -65.5q-146 0 -224 65t-78 193v317q0 40 -14.5 53t-63.5 15v69h354v-69q-48 -2 -62 -15t-14 -53z
M224 831q0 36 26 62t63 26t63.5 -26t26.5 -62t-26.5 -62t-63.5 -26t-63 26t-26 62zM444 831q0 36 26.5 62t61.5 26q38 0 64.5 -26t26.5 -62t-26.5 -62t-64.5 -26q-35 0 -61.5 26t-26.5 62z" />
    <glyph glyph-name="Yacute" unicode="&#xdd;" horiz-adv-x="711" 
d="M413 343l104 190q24 43 24 61q0 20 -16 28.5t-51 10.5v69h230v-69q-23 -4 -35.5 -11.5t-22.5 -25.5l-189 -340v-119q0 -39 17 -52.5t68 -15.5v-69h-366v69q50 2 67.5 15.5t17.5 52.5v120l-197 339q-11 19 -23 26t-34 11v69h346v-69q-38 -1 -51.5 -9.5t-13.5 -29.5
q0 -18 23 -61zM403 909h185l-156 -158h-101z" />
    <glyph glyph-name="Thorn" unicode="&#xde;" horiz-adv-x="691" 
d="M308 483v-265h21q143 0 143 136q0 65 -41 97t-109 32h-14zM308 555h70q142 0 216 -54t74 -147q0 -202 -290 -202h-70v-15q0 -38 25 -51.5t91 -16.5v-69h-393v69q50 2 64.5 15t14.5 53v428q0 40 -14.5 53t-64.5 15v69h356v-69q-50 -2 -64.5 -15t-14.5 -53v-10z" />
    <glyph glyph-name="germandbls" unicode="&#xdf;" horiz-adv-x="775" 
d="M511 452q0 -16 14.5 -30t59.5 -39q79 -43 117.5 -86.5t38.5 -118.5q0 -87 -61 -137.5t-161 -50.5q-104 0 -169 60l-6 121h86q8 -56 32.5 -85.5t59.5 -29.5q29 0 46.5 15t17.5 41q0 29 -18.5 49.5t-74.5 53.5q-70 41 -100.5 77t-30.5 88q0 29 14 53.5t34 43.5t39.5 38.5
t33.5 46.5t14 59q0 42 -23.5 67t-66.5 25q-56 0 -89 -40.5t-33 -110.5v-562h-247v67q36 5 48 14.5t12 42.5v341h-76v62l76 18q14 79 62 131.5t108.5 73t131.5 20.5q101 0 168.5 -38.5t67.5 -110.5q0 -35 -19.5 -62.5t-43 -41t-43 -31t-19.5 -34.5z" />
    <glyph glyph-name="agrave" unicode="&#xe0;" horiz-adv-x="591" 
d="M279 102q25 0 45 13v165l-59 -24q-26 -11 -37.5 -28t-11.5 -47q0 -36 16.5 -57.5t46.5 -21.5zM510 342q0 -2 -0.5 -97t-0.5 -98q0 -26 6 -39t24 -13q21 0 42 6l9 -51q-64 -60 -146 -60q-85 0 -117 91q-63 -87 -158 -87q-64 0 -102.5 38t-38.5 103q0 60 35.5 91.5
t99.5 53.5l161 56v62q0 57 -12.5 79t-43.5 22q-51 0 -51 -62q0 -38 9 -69l-120 -18q-43 15 -43 70q0 70 60.5 105t161.5 35q115 0 170 -47.5t55 -170.5zM105 766h184l67 -160h-96z" />
    <glyph glyph-name="aacute" unicode="&#xe1;" horiz-adv-x="591" 
d="M279 102q25 0 45 13v165l-59 -24q-26 -11 -37.5 -28t-11.5 -47q0 -36 16.5 -57.5t46.5 -21.5zM510 342q0 -2 -0.5 -97t-0.5 -98q0 -26 6 -39t24 -13q21 0 42 6l9 -51q-64 -60 -146 -60q-85 0 -117 91q-63 -87 -158 -87q-64 0 -102.5 38t-38.5 103q0 60 35.5 91.5
t99.5 53.5l161 56v62q0 57 -12.5 79t-43.5 22q-51 0 -51 -62q0 -38 9 -69l-120 -18q-43 15 -43 70q0 70 60.5 105t161.5 35q115 0 170 -47.5t55 -170.5zM296 766h184l-155 -160h-97z" />
    <glyph glyph-name="acircumflex" unicode="&#xe2;" horiz-adv-x="591" 
d="M279 102q25 0 45 13v165l-59 -24q-26 -11 -37.5 -28t-11.5 -47q0 -36 16.5 -57.5t46.5 -21.5zM510 342q0 -2 -0.5 -97t-0.5 -98q0 -26 6 -39t24 -13q21 0 42 6l9 -51q-64 -60 -146 -60q-85 0 -117 91q-63 -87 -158 -87q-64 0 -102.5 38t-38.5 103q0 60 35.5 91.5
t99.5 53.5l161 56v62q0 57 -12.5 79t-43.5 22q-51 0 -51 -62q0 -38 9 -69l-120 -18q-43 15 -43 70q0 70 60.5 105t161.5 35q115 0 170 -47.5t55 -170.5zM361 766l138 -169h-95l-111 80l-111 -80h-95l138 169h136z" />
    <glyph glyph-name="atilde" unicode="&#xe3;" horiz-adv-x="591" 
d="M279 102q25 0 45 13v165l-59 -24q-26 -11 -37.5 -28t-11.5 -47q0 -36 16.5 -57.5t46.5 -21.5zM510 342q0 -2 -0.5 -97t-0.5 -98q0 -26 6 -39t24 -13q21 0 42 6l9 -51q-64 -60 -146 -60q-85 0 -117 91q-63 -87 -158 -87q-64 0 -102.5 38t-38.5 103q0 60 35.5 91.5
t99.5 53.5l161 56v62q0 57 -12.5 79t-43.5 22q-51 0 -51 -62q0 -38 9 -69l-120 -18q-43 15 -43 70q0 70 60.5 105t161.5 35q115 0 170 -47.5t55 -170.5zM444 773l60 -12q-39 -92 -67.5 -120.5t-73.5 -28.5q-30 0 -75 30t-61 30q-20 0 -33.5 -13.5t-31.5 -41.5l-60 12
q39 92 67 120.5t74 28.5q36 0 78 -30t58 -30q19 0 33.5 14t31.5 41z" />
    <glyph glyph-name="adieresis" unicode="&#xe4;" horiz-adv-x="591" 
d="M279 102q25 0 45 13v165l-59 -24q-26 -11 -37.5 -28t-11.5 -47q0 -36 16.5 -57.5t46.5 -21.5zM510 342q0 -2 -0.5 -97t-0.5 -98q0 -26 6 -39t24 -13q21 0 42 6l9 -51q-64 -60 -146 -60q-85 0 -117 91q-63 -87 -158 -87q-64 0 -102.5 38t-38.5 103q0 60 35.5 91.5
t99.5 53.5l161 56v62q0 57 -12.5 79t-43.5 22q-51 0 -51 -62q0 -38 9 -69l-120 -18q-43 15 -43 70q0 70 60.5 105t161.5 35q115 0 170 -47.5t55 -170.5zM94 691q0 36 26 62t63 26t63.5 -26t26.5 -62t-26.5 -62t-63.5 -26t-63 26t-26 62zM314 691q0 36 26.5 62t61.5 26
q38 0 64.5 -26t26.5 -62t-26.5 -62t-64.5 -26q-35 0 -61.5 26t-26.5 62z" />
    <glyph glyph-name="aring" unicode="&#xe5;" horiz-adv-x="591" 
d="M279 102q25 0 45 13v165l-59 -24q-26 -11 -37.5 -28t-11.5 -47q0 -36 16.5 -57.5t46.5 -21.5zM510 342q0 -2 -0.5 -97t-0.5 -98q0 -26 6 -39t24 -13q21 0 42 6l9 -51q-64 -60 -146 -60q-85 0 -117 91q-63 -87 -158 -87q-64 0 -102.5 38t-38.5 103q0 60 35.5 91.5
t99.5 53.5l161 56v62q0 57 -12.5 79t-43.5 22q-51 0 -51 -62q0 -38 9 -69l-120 -18q-43 15 -43 70q0 70 60.5 105t161.5 35q115 0 170 -47.5t55 -170.5zM177 698q0 43 32 72t81 29t81 -29t32 -72t-32 -72t-81 -29t-81 29t-32 72zM336 698q0 19 -12 31.5t-34 12.5t-34 -12.5
t-12 -31.5t12 -31.5t34 -12.5t34 12.5t12 31.5z" />
    <glyph glyph-name="ae" unicode="&#xe6;" horiz-adv-x="858" 
d="M603 560q104 0 162 -65t58 -164v-39h-327q0 -72 42.5 -115.5t109.5 -43.5q91 0 144 68l33 -22q-20 -88 -81 -138.5t-155 -50.5q-71 0 -126.5 29t-88.5 83q-70 -108 -195 -108q-68 0 -109.5 39.5t-41.5 101.5q0 61 37.5 94.5t104.5 52.5l170 47l3 11q-2 84 -20 121.5
t-55 37.5q-51 0 -51 -62q0 -38 9 -69l-120 -18q-43 15 -43 70q0 69 58 104.5t151 35.5q119 0 164 -60q71 60 167 60zM586 491q-75 0 -88 -139h164q-2 139 -76 139zM334 257v14l-67 -19q-51 -15 -51 -79q0 -30 17 -50.5t46 -20.5q42 0 80 27q-25 56 -25 128z" />
    <glyph glyph-name="ccedilla" unicode="&#xe7;" horiz-adv-x="542" 
d="M186 -233l-11 49q115 0 115 39q0 32 -85 36l41 101q-96 11 -155 82t-59 180q0 134 79 220t207 86q82 0 139 -38.5t57 -107.5q0 -61 -43 -78h-97v52q0 49 -15 75t-53 26q-43 0 -73 -41.5t-30 -115.5q0 -92 37.5 -146.5t109.5 -54.5q83 0 137 72l34 -23q-49 -183 -225 -189
l-12 -35q97 -10 97 -78q0 -53 -57 -82t-138 -29z" />
    <glyph glyph-name="egrave" unicode="&#xe8;" horiz-adv-x="561" 
d="M306 560q104 0 162 -65t58 -164v-39h-327q0 -72 42.5 -115.5t109.5 -43.5q91 0 144 68l33 -22q-20 -88 -81 -138.5t-155 -50.5q-114 0 -187 72.5t-73 194.5q0 134 79.5 218.5t194.5 84.5zM289 491q-75 0 -88 -139h164q-2 139 -76 139zM106 766h184l67 -160h-96z" />
    <glyph glyph-name="eacute" unicode="&#xe9;" horiz-adv-x="561" 
d="M306 560q104 0 162 -65t58 -164v-39h-327q0 -72 42.5 -115.5t109.5 -43.5q91 0 144 68l33 -22q-20 -88 -81 -138.5t-155 -50.5q-114 0 -187 72.5t-73 194.5q0 134 79.5 218.5t194.5 84.5zM289 491q-75 0 -88 -139h164q-2 139 -76 139zM307 766h184l-155 -160h-97z" />
    <glyph glyph-name="ecircumflex" unicode="&#xea;" horiz-adv-x="561" 
d="M306 560q104 0 162 -65t58 -164v-39h-327q0 -72 42.5 -115.5t109.5 -43.5q91 0 144 68l33 -22q-20 -88 -81 -138.5t-155 -50.5q-114 0 -187 72.5t-73 194.5q0 134 79.5 218.5t194.5 84.5zM289 491q-75 0 -88 -139h164q-2 139 -76 139zM368 766l138 -169h-95l-111 80
l-111 -80h-95l138 169h136z" />
    <glyph glyph-name="edieresis" unicode="&#xeb;" horiz-adv-x="561" 
d="M306 560q104 0 162 -65t58 -164v-39h-327q0 -72 42.5 -115.5t109.5 -43.5q91 0 144 68l33 -22q-20 -88 -81 -138.5t-155 -50.5q-114 0 -187 72.5t-73 194.5q0 134 79.5 218.5t194.5 84.5zM289 491q-75 0 -88 -139h164q-2 139 -76 139zM102 691q0 36 26 62t63 26t63.5 -26
t26.5 -62t-26.5 -62t-63.5 -26t-63 26t-26 62zM322 691q0 36 26.5 62t61.5 26q38 0 64.5 -26t26.5 -62t-26.5 -62t-64.5 -26q-35 0 -61.5 26t-26.5 62z" />
    <glyph glyph-name="igrave" unicode="&#xec;" horiz-adv-x="366" 
d="M281 561v-437q0 -33 12 -42.5t49 -14.5v-67h-310v67q37 5 49 14.5t12 42.5v295l-56 60v31l211 51h33zM-11 766h184l67 -160h-96z" />
    <glyph glyph-name="iacute" unicode="&#xed;" horiz-adv-x="366" 
d="M281 561v-437q0 -33 12 -42.5t49 -14.5v-67h-310v67q37 5 49 14.5t12 42.5v295l-56 60v31l211 51h33zM200 766h184l-155 -160h-97z" />
    <glyph glyph-name="icircumflex" unicode="&#xee;" horiz-adv-x="366" 
d="M281 561v-437q0 -33 12 -42.5t49 -14.5v-67h-310v67q37 5 49 14.5t12 42.5v295l-56 60v31l211 51h33zM255 766l138 -169h-95l-111 80l-111 -80h-95l138 169h136z" />
    <glyph glyph-name="idieresis" unicode="&#xef;" horiz-adv-x="366" 
d="M281 561v-437q0 -33 12 -42.5t49 -14.5v-67h-310v67q37 5 49 14.5t12 42.5v295l-56 60v31l211 51h33zM-12 691q0 36 26 62t63 26t63.5 -26t26.5 -62t-26.5 -62t-63.5 -26t-63 26t-26 62zM208 691q0 36 26.5 62t61.5 26q38 0 64.5 -26t26.5 -62t-26.5 -62t-64.5 -26
q-35 0 -61.5 26t-26.5 62z" />
    <glyph glyph-name="eth" unicode="&#xf0;" horiz-adv-x="629" 
d="M159 570l-19 44l131 51q-69 50 -153 70l22 41q135 -19 234 -71l119 46l19 -44l-87 -34q88 -63 130 -152.5t42 -188.5q0 -157 -74.5 -249.5t-212.5 -92.5q-124 0 -201 78.5t-77 197.5q0 125 76 198t182 73q70 0 114 -44q-28 77 -90 137zM328 61q39 0 61 50.5t22 133.5
q0 107 -27 172t-75 65q-40 0 -62 -47.5t-22 -129.5q0 -108 27.5 -176t75.5 -68z" />
    <glyph glyph-name="ntilde" unicode="&#xf1;" horiz-adv-x="706" 
d="M438 124v254q0 32 -13.5 47.5t-47.5 15.5q-45 0 -96 -17v-300q0 -33 10.5 -42.5t45.5 -14.5v-67h-305v67q37 5 49 14.5t12 42.5v291l-56 59v36l211 55h33v-110q92 105 193 105q152 0 152 -164v-272q0 -33 12 -42.5t48 -14.5v-67h-303v67q35 5 45 14.5t10 42.5zM506 773
l60 -12q-39 -92 -67.5 -120.5t-73.5 -28.5q-30 0 -75 30t-61 30q-20 0 -33.5 -13.5t-31.5 -41.5l-60 12q39 92 67 120.5t74 28.5q36 0 78 -30t58 -30q19 0 33.5 14t31.5 41z" />
    <glyph glyph-name="ograve" unicode="&#xf2;" horiz-adv-x="637" 
d="M328 61q39 0 61 50.5t22 133.5q0 108 -27 176.5t-75 68.5q-40 0 -62 -51t-22 -134q0 -108 27.5 -176t75.5 -68zM310 -10q-124 0 -201 78.5t-77 197.5q0 133 82.5 213.5t211.5 80.5q125 0 202 -78.5t77 -196.5q0 -134 -83 -214.5t-212 -80.5zM126 766h184l67 -160h-96z
" />
    <glyph glyph-name="oacute" unicode="&#xf3;" horiz-adv-x="637" 
d="M328 61q39 0 61 50.5t22 133.5q0 108 -27 176.5t-75 68.5q-40 0 -62 -51t-22 -134q0 -108 27.5 -176t75.5 -68zM310 -10q-124 0 -201 78.5t-77 197.5q0 133 82.5 213.5t211.5 80.5q125 0 202 -78.5t77 -196.5q0 -134 -83 -214.5t-212 -80.5zM337 766h184l-155 -160h-97z
" />
    <glyph glyph-name="ocircumflex" unicode="&#xf4;" horiz-adv-x="637" 
d="M328 61q39 0 61 50.5t22 133.5q0 108 -27 176.5t-75 68.5q-40 0 -62 -51t-22 -134q0 -108 27.5 -176t75.5 -68zM310 -10q-124 0 -201 78.5t-77 197.5q0 133 82.5 213.5t211.5 80.5q125 0 202 -78.5t77 -196.5q0 -134 -83 -214.5t-212 -80.5zM392 766l138 -169h-95
l-111 80l-111 -80h-95l138 169h136z" />
    <glyph glyph-name="otilde" unicode="&#xf5;" horiz-adv-x="637" 
d="M328 61q39 0 61 50.5t22 133.5q0 108 -27 176.5t-75 68.5q-40 0 -62 -51t-22 -134q0 -108 27.5 -176t75.5 -68zM310 -10q-124 0 -201 78.5t-77 197.5q0 133 82.5 213.5t211.5 80.5q125 0 202 -78.5t77 -196.5q0 -134 -83 -214.5t-212 -80.5zM465 773l60 -12
q-39 -92 -67.5 -120.5t-73.5 -28.5q-30 0 -75 30t-61 30q-20 0 -33.5 -13.5t-31.5 -41.5l-60 12q39 92 67 120.5t74 28.5q36 0 78 -30t58 -30q19 0 33.5 14t31.5 41z" />
    <glyph glyph-name="odieresis" unicode="&#xf6;" horiz-adv-x="637" 
d="M328 61q39 0 61 50.5t22 133.5q0 108 -27 176.5t-75 68.5q-40 0 -62 -51t-22 -134q0 -108 27.5 -176t75.5 -68zM310 -10q-124 0 -201 78.5t-77 197.5q0 133 82.5 213.5t211.5 80.5q125 0 202 -78.5t77 -196.5q0 -134 -83 -214.5t-212 -80.5zM125 691q0 36 26 62t63 26
t63.5 -26t26.5 -62t-26.5 -62t-63.5 -26t-63 26t-26 62zM345 691q0 36 26.5 62t61.5 26q38 0 64.5 -26t26.5 -62t-26.5 -62t-64.5 -26q-35 0 -61.5 26t-26.5 62z" />
    <glyph glyph-name="divide" unicode="&#xf7;" horiz-adv-x="604" 
d="M72 318v93h459v-93h-459zM231 179q0 30 20.5 50t48.5 20q30 0 51 -20t21 -50t-21 -50.5t-51 -20.5q-28 0 -48.5 20.5t-20.5 50.5zM231 550q0 29 20.5 49.5t48.5 20.5q30 0 51 -20.5t21 -49.5t-21 -50.5t-51 -21.5q-28 0 -48.5 21.5t-20.5 50.5z" />
    <glyph glyph-name="oslash" unicode="&#xf8;" horiz-adv-x="637" 
d="M534 585l-43 -73q54 -37 84 -96t30 -131q0 -134 -83 -214.5t-212 -80.5q-64 0 -117 22l-54 -90l-49 26l54 91q-53 37 -82.5 96t-29.5 131q0 133 82.5 213.5t211.5 80.5q61 0 116 -22l43 73zM328 61q40 0 64 51.5t24 132.5q0 76 -10 126l-155 -261q28 -49 77 -49zM220 305
q0 -73 9 -124l155 260q-28 49 -75 49q-41 0 -65 -51.5t-24 -133.5z" />
    <glyph glyph-name="ugrave" unicode="&#xf9;" horiz-adv-x="687" 
d="M413 -10v98q-77 -98 -188 -98q-69 0 -109 42.5t-40 127.5v231q0 51 -38 59l-15 5v57l207 48h35v-382q0 -76 61 -76q39 0 87 16v273q0 51 -38 59l-14 5v57l205 48h36v-415q0 -27 8 -40t29 -14h24v-69l-212 -32h-38zM154 766h184l67 -160h-96z" />
    <glyph glyph-name="uacute" unicode="&#xfa;" horiz-adv-x="687" 
d="M413 -10v98q-77 -98 -188 -98q-69 0 -109 42.5t-40 127.5v231q0 51 -38 59l-15 5v57l207 48h35v-382q0 -76 61 -76q39 0 87 16v273q0 51 -38 59l-14 5v57l205 48h36v-415q0 -27 8 -40t29 -14h24v-69l-212 -32h-38zM365 766h184l-155 -160h-97z" />
    <glyph glyph-name="ucircumflex" unicode="&#xfb;" horiz-adv-x="687" 
d="M413 -10v98q-77 -98 -188 -98q-69 0 -109 42.5t-40 127.5v231q0 51 -38 59l-15 5v57l207 48h35v-382q0 -76 61 -76q39 0 87 16v273q0 51 -38 59l-14 5v57l205 48h36v-415q0 -27 8 -40t29 -14h24v-69l-212 -32h-38zM420 766l138 -169h-95l-111 80l-111 -80h-95l138 169
h136z" />
    <glyph glyph-name="udieresis" unicode="&#xfc;" horiz-adv-x="687" 
d="M413 -10v98q-77 -98 -188 -98q-69 0 -109 42.5t-40 127.5v231q0 51 -38 59l-15 5v57l207 48h35v-382q0 -76 61 -76q39 0 87 16v273q0 51 -38 59l-14 5v57l205 48h36v-415q0 -27 8 -40t29 -14h24v-69l-212 -32h-38zM143 691q0 36 26 62t63 26t63.5 -26t26.5 -62t-26.5 -62
t-63.5 -26t-63 26t-26 62zM363 691q0 36 26.5 62t61.5 26q38 0 64.5 -26t26.5 -62t-26.5 -62t-64.5 -26q-35 0 -61.5 26t-26.5 62z" />
    <glyph glyph-name="yacute" unicode="&#xfd;" horiz-adv-x="622" 
d="M275 -2l-214 446q-7 15 -18 23t-38 17v66h336v-66q-41 -6 -54.5 -12.5t-13.5 -23.5q0 -12 11 -39l84 -204l86 205q11 27 11 38q0 17 -13 24t-53 12v66h218v-66q-27 -9 -38 -16.5t-18 -23.5l-231 -517q-32 -71 -68.5 -103t-88.5 -32q-61 0 -86 39v95h60q57 0 80.5 10.5
t42.5 51.5zM370 766h184l-155 -160h-97z" />
    <glyph glyph-name="thorn" unicode="&#xfe;" horiz-adv-x="663" 
d="M259 431v-268q0 -52 15.5 -78t54.5 -26q51 0 80 53t29 138q0 92 -33.5 143t-88.5 51q-32 0 -57 -13zM70 -73v699l-55 59v37l210 39h34v-298q51 97 159 97q97 0 154.5 -67.5t57.5 -188.5q0 -144 -80.5 -229t-205.5 -85q-57 0 -86 22v-85q0 -33 12 -42.5t48 -14.5v-67h-309
v67q37 5 49 14.5t12 42.5z" />
    <glyph glyph-name="ydieresis" unicode="&#xff;" horiz-adv-x="622" 
d="M275 -2l-214 446q-7 15 -18 23t-38 17v66h336v-66q-41 -6 -54.5 -12.5t-13.5 -23.5q0 -12 11 -39l84 -204l86 205q11 27 11 38q0 17 -13 24t-53 12v66h218v-66q-27 -9 -38 -16.5t-18 -23.5l-231 -517q-32 -71 -68.5 -103t-88.5 -32q-61 0 -86 39v95h60q57 0 80.5 10.5
t42.5 51.5zM158 691q0 36 26 62t63 26t63.5 -26t26.5 -62t-26.5 -62t-63.5 -26t-63 26t-26 62zM378 691q0 36 26.5 62t61.5 26q38 0 64.5 -26t26.5 -62t-26.5 -62t-64.5 -26q-35 0 -61.5 26t-26.5 62z" />
    <glyph glyph-name="Amacron" unicode="&#x100;" horiz-adv-x="758" 
d="M463 153l-24 60h-244l-23 -60q-9 -27 -9 -40q0 -24 13 -33t57 -11v-69h-226v69q24 4 36.5 11.5t20.5 25.5l205 517l-35 80h205l254 -597q8 -18 21 -25.5t37 -11.5v-69h-347v69q43 2 56.5 11t13.5 33q0 16 -11 40zM194 758v106h318v-106h-318zM315 522l-93 -240h189z" />
    <glyph glyph-name="amacron" unicode="&#x101;" horiz-adv-x="591" 
d="M279 102q25 0 45 13v165l-59 -24q-26 -11 -37.5 -28t-11.5 -47q0 -36 16.5 -57.5t46.5 -21.5zM510 342q0 -2 -0.5 -97t-0.5 -98q0 -26 6 -39t24 -13q21 0 42 6l9 -51q-64 -60 -146 -60q-85 0 -117 91q-63 -87 -158 -87q-64 0 -102.5 38t-38.5 103q0 60 35.5 91.5
t99.5 53.5l161 56v62q0 57 -12.5 79t-43.5 22q-51 0 -51 -62q0 -38 9 -69l-120 -18q-43 15 -43 70q0 70 60.5 105t161.5 35q115 0 170 -47.5t55 -170.5zM138 626v101h308v-101h-308z" />
    <glyph glyph-name="Abreve" unicode="&#x102;" horiz-adv-x="758" 
d="M463 153l-24 60h-244l-23 -60q-9 -27 -9 -40q0 -24 13 -33t57 -11v-69h-226v69q24 4 36.5 11.5t20.5 25.5l205 517l-35 80h205l254 -597q8 -18 21 -25.5t37 -11.5v-69h-347v69q43 2 56.5 11t13.5 33q0 16 -11 40zM353 746q-75 0 -117 45t-42 125h70q11 -78 89 -78t89 78
h70q0 -80 -42 -125t-117 -45zM315 522l-93 -240h189z" />
    <glyph glyph-name="abreve" unicode="&#x103;" horiz-adv-x="591" 
d="M279 102q25 0 45 13v165l-59 -24q-26 -11 -37.5 -28t-11.5 -47q0 -36 16.5 -57.5t46.5 -21.5zM510 342q0 -2 -0.5 -97t-0.5 -98q0 -26 6 -39t24 -13q21 0 42 6l9 -51q-64 -60 -146 -60q-85 0 -117 91q-63 -87 -158 -87q-64 0 -102.5 38t-38.5 103q0 60 35.5 91.5
t99.5 53.5l161 56v62q0 57 -12.5 79t-43.5 22q-51 0 -51 -62q0 -38 9 -69l-120 -18q-43 15 -43 70q0 70 60.5 105t161.5 35q115 0 170 -47.5t55 -170.5zM286 603q-75 0 -117 45t-42 125h70q11 -78 89 -78t89 78h70q0 -80 -42 -125t-117 -45z" />
    <glyph glyph-name="Aogonek" unicode="&#x104;" horiz-adv-x="758" 
d="M463 153l-24 60h-244l-23 -60q-9 -27 -9 -40q0 -24 13 -33t57 -11v-69h-226v69q24 4 36.5 11.5t20.5 25.5l205 517l-35 80h205l254 -597q8 -18 21 -25.5t37 -11.5v-69h-313q-51 -31 -51 -77q0 -56 45 -56q36 0 70 20l19 -28q-35 -39 -66.5 -56t-72.5 -17t-71 28.5
t-30 76.5q0 86 125 148q39 20 53.5 35.5t14.5 38.5q0 16 -11 40zM315 522l-93 -240h189z" />
    <glyph glyph-name="aogonek" unicode="&#x105;" horiz-adv-x="591" 
d="M510 342q0 -2 -0.5 -97t-0.5 -98q0 -26 6 -39t24 -13q21 0 42 6l9 -51q-9 -5 -30.5 -17t-31.5 -18t-27 -17t-25.5 -19.5t-18 -20.5t-13.5 -24t-4 -26q0 -41 43 -41q36 0 70 20l19 -28q-67 -75 -145 -75q-41 0 -68.5 23t-27.5 61q0 73 84 126q-63 13 -88 87
q-63 -87 -158 -87q-64 0 -102.5 38t-38.5 103q0 60 35.5 91.5t99.5 53.5l161 56v62q0 57 -12.5 79t-43.5 22q-51 0 -51 -62q0 -38 9 -69l-120 -18q-43 15 -43 70q0 70 60.5 105t161.5 35q115 0 170 -47.5t55 -170.5zM279 102q25 0 45 13v165l-59 -24q-26 -11 -37.5 -28
t-11.5 -47q0 -36 16.5 -57.5t46.5 -21.5z" />
    <glyph glyph-name="Cacute" unicode="&#x106;" horiz-adv-x="706" 
d="M416 68q60 0 94 42t62 139h97l-16 -193q-97 -66 -252 -66q-172 0 -269.5 96t-97.5 251q0 169 106 272t263 103q155 0 240 -74v-163h-96q-21 81 -53.5 122.5t-92.5 41.5q-42 0 -73 -22.5t-48 -62.5t-24.5 -86.5t-7.5 -101.5q0 -136 43 -217t125 -81zM409 909h185
l-156 -158h-101z" />
    <glyph glyph-name="cacute" unicode="&#x107;" horiz-adv-x="542" 
d="M203 332q0 -92 37.5 -146.5t109.5 -54.5q83 0 137 72l34 -23q-50 -190 -238 -190q-110 0 -180.5 72t-70.5 192q0 134 79 220t207 86q82 0 139 -38.5t57 -107.5q0 -61 -43 -78h-97v52q0 49 -15 75t-53 26q-43 0 -73 -41.5t-30 -115.5zM317 766h184l-155 -160h-97z" />
    <glyph glyph-name="Ccircumflex" unicode="&#x108;" horiz-adv-x="706" 
d="M416 68q60 0 94 42t62 139h97l-16 -193q-97 -66 -252 -66q-172 0 -269.5 96t-97.5 251q0 169 106 272t263 103q155 0 240 -74v-163h-96q-21 81 -53.5 122.5t-92.5 41.5q-42 0 -73 -22.5t-48 -62.5t-24.5 -86.5t-7.5 -101.5q0 -136 43 -217t125 -81zM466 918l138 -169h-95
l-111 80l-111 -80h-95l138 169h136z" />
    <glyph glyph-name="ccircumflex" unicode="&#x109;" horiz-adv-x="542" 
d="M203 332q0 -92 37.5 -146.5t109.5 -54.5q83 0 137 72l34 -23q-50 -190 -238 -190q-110 0 -180.5 72t-70.5 192q0 134 79 220t207 86q82 0 139 -38.5t57 -107.5q0 -61 -43 -78h-97v52q0 49 -15 75t-53 26q-43 0 -73 -41.5t-30 -115.5zM370 766l138 -169h-95l-111 80
l-111 -80h-95l138 169h136z" />
    <glyph glyph-name="Cdotaccent" unicode="&#x10a;" horiz-adv-x="706" 
d="M416 68q60 0 94 42t62 139h97l-16 -193q-97 -66 -252 -66q-172 0 -269.5 96t-97.5 251q0 169 106 272t263 103q155 0 240 -74v-163h-96q-21 81 -53.5 122.5t-92.5 41.5q-42 0 -73 -22.5t-48 -62.5t-24.5 -86.5t-7.5 -101.5q0 -136 43 -217t125 -81zM399 743
q-47 0 -75 27.5t-28 67.5t28 67.5t75 27.5q46 0 74 -27.5t28 -67.5t-28 -67.5t-74 -27.5z" />
    <glyph glyph-name="cdotaccent" unicode="&#x10b;" horiz-adv-x="542" 
d="M203 332q0 -92 37.5 -146.5t109.5 -54.5q83 0 137 72l34 -23q-50 -190 -238 -190q-110 0 -180.5 72t-70.5 192q0 134 79 220t207 86q82 0 139 -38.5t57 -107.5q0 -61 -43 -78h-97v52q0 49 -15 75t-53 26q-43 0 -73 -41.5t-30 -115.5zM303 598q-47 0 -75 27.5t-28 67.5
t28 67.5t75 27.5q46 0 74 -27.5t28 -67.5t-28 -67.5t-74 -27.5z" />
    <glyph glyph-name="Ccaron" unicode="&#x10c;" horiz-adv-x="706" 
d="M416 68q60 0 94 42t62 139h97l-16 -193q-97 -66 -252 -66q-172 0 -269.5 96t-97.5 251q0 169 106 272t263 103q155 0 240 -74v-163h-96q-21 81 -53.5 122.5t-92.5 41.5q-42 0 -73 -22.5t-48 -62.5t-24.5 -86.5t-7.5 -101.5q0 -136 43 -217t125 -81zM604 921l-138 -169
h-136l-138 169h95l111 -80l111 80h95z" />
    <glyph glyph-name="ccaron" unicode="&#x10d;" horiz-adv-x="542" 
d="M203 332q0 -92 37.5 -146.5t109.5 -54.5q83 0 137 72l34 -23q-50 -190 -238 -190q-110 0 -180.5 72t-70.5 192q0 134 79 220t207 86q82 0 139 -38.5t57 -107.5q0 -61 -43 -78h-97v52q0 49 -15 75t-53 26q-43 0 -73 -41.5t-30 -115.5zM508 775l-138 -169h-136l-138 169h95
l111 -80l111 80h95z" />
    <glyph glyph-name="Dcaron" unicode="&#x10e;" horiz-adv-x="803" 
d="M329 630h-21v-488q0 -42 15 -56t53 -14h9q172 0 172 279q0 131 -59 205t-169 74zM31 633v69h325q197 0 305 -88.5t108 -251.5q0 -170 -100.5 -266t-276.5 -96h-361v69q50 2 64.5 15t14.5 53v428q0 40 -14.5 53t-64.5 15zM606 921l-138 -169h-136l-138 169h95l111 -80
l111 80h95z" />
    <glyph glyph-name="dcaron" unicode="&#x10f;" horiz-adv-x="693" 
d="M404 -10v98q-52 -98 -166 -98q-92 0 -148.5 68t-56.5 188q0 144 79 225.5t203 81.5q60 0 89 -24v97l-55 59v37l211 39h32v-616q0 -53 38 -54h24v-69l-212 -32h-38zM334 487q-52 0 -80.5 -51t-28.5 -136q0 -92 32.5 -143.5t90.5 -51.5q27 0 56 12v271q0 51 -15.5 75
t-54.5 24zM821 766l-93 -205h-76l14 205h155z" />
    <glyph glyph-name="Dcroat" unicode="&#x110;" horiz-adv-x="810" 
d="M38 327v71h79v167q0 40 -14.5 53t-64.5 15v69h325q197 0 305 -88.5t108 -251.5q0 -170 -100.5 -266t-276.5 -96h-361v69q50 2 64.5 15t14.5 53v190h-79zM336 630h-21v-232h121v-71h-121v-185q0 -42 15 -56t53 -14h9q172 0 172 279q0 131 -59 205t-169 74z" />
    <glyph glyph-name="dcroat" unicode="&#x111;" horiz-adv-x="682" 
d="M654 577h-62v-432q0 -53 38 -54h24v-69l-212 -32h-38v98q-52 -98 -166 -98q-92 0 -148.5 68t-56.5 188q0 139 77 212.5t187 73.5q36 0 65.5 -10t41.5 -24v79h-117v51h117v53h-55v47l211 33h32v-133h62v-51zM334 466q-109 0 -109 -166q0 -92 32.5 -143.5t90.5 -51.5
q27 0 56 12v250q0 51 -15.5 75t-54.5 24z" />
    <glyph glyph-name="Emacron" unicode="&#x112;" horiz-adv-x="680" 
d="M520 247h-66q-7 45 -23 61.5t-49 16.5h-74v-188q0 -39 19 -53t61 -14h25q50 0 82.5 28.5t83.5 109.5h76l-31 -208h-593v69q50 2 64.5 15t14.5 53v428q0 40 -14.5 53t-64.5 15v69h588v-192h-78q-26 67 -53 94.5t-83 27.5h-97v-234h74q33 0 49 16.5t23 61.5h66v-229z
M192 758v106h318v-106h-318z" />
    <glyph glyph-name="emacron" unicode="&#x113;" horiz-adv-x="561" 
d="M306 560q104 0 162 -65t58 -164v-39h-327q0 -72 42.5 -115.5t109.5 -43.5q91 0 144 68l33 -22q-20 -88 -81 -138.5t-155 -50.5q-114 0 -187 72.5t-73 194.5q0 134 79.5 218.5t194.5 84.5zM289 491q-75 0 -88 -139h164q-2 139 -76 139zM143 626v101h308v-101h-308z" />
    <glyph glyph-name="Ebreve" unicode="&#x114;" horiz-adv-x="680" 
d="M520 247h-66q-7 45 -23 61.5t-49 16.5h-74v-188q0 -39 19 -53t61 -14h25q50 0 82.5 28.5t83.5 109.5h76l-31 -208h-593v69q50 2 64.5 15t14.5 53v428q0 40 -14.5 53t-64.5 15v69h588v-192h-78q-26 67 -53 94.5t-83 27.5h-97v-234h74q33 0 49 16.5t23 61.5h66v-229z
M351 746q-75 0 -117 45t-42 125h70q11 -78 89 -78t89 78h70q0 -80 -42 -125t-117 -45z" />
    <glyph glyph-name="ebreve" unicode="&#x115;" horiz-adv-x="561" 
d="M306 560q104 0 162 -65t58 -164v-39h-327q0 -72 42.5 -115.5t109.5 -43.5q91 0 144 68l33 -22q-20 -88 -81 -138.5t-155 -50.5q-114 0 -187 72.5t-73 194.5q0 134 79.5 218.5t194.5 84.5zM289 491q-75 0 -88 -139h164q-2 139 -76 139zM297 603q-75 0 -117 45t-42 125h70
q11 -78 89 -78t89 78h70q0 -80 -42 -125t-117 -45z" />
    <glyph glyph-name="Edotaccent" unicode="&#x116;" horiz-adv-x="680" 
d="M520 247h-66q-7 45 -23 61.5t-49 16.5h-74v-188q0 -39 19 -53t61 -14h25q50 0 82.5 28.5t83.5 109.5h76l-31 -208h-593v69q50 2 64.5 15t14.5 53v428q0 40 -14.5 53t-64.5 15v69h588v-192h-78q-26 67 -53 94.5t-83 27.5h-97v-234h74q33 0 49 16.5t23 61.5h66v-229z
M352 743q-47 0 -75 27.5t-28 67.5t28 67.5t75 27.5q46 0 74 -27.5t28 -67.5t-28 -67.5t-74 -27.5z" />
    <glyph glyph-name="edotaccent" unicode="&#x117;" horiz-adv-x="561" 
d="M306 560q104 0 162 -65t58 -164v-39h-327q0 -72 42.5 -115.5t109.5 -43.5q91 0 144 68l33 -22q-20 -88 -81 -138.5t-155 -50.5q-114 0 -187 72.5t-73 194.5q0 134 79.5 218.5t194.5 84.5zM289 491q-75 0 -88 -139h164q-2 139 -76 139zM297 598q-47 0 -75 27.5t-28 67.5
t28 67.5t75 27.5q46 0 74 -27.5t28 -67.5t-28 -67.5t-74 -27.5z" />
    <glyph glyph-name="Eogonek" unicode="&#x118;" horiz-adv-x="680" 
d="M520 247h-66q-7 45 -23 61.5t-49 16.5h-74v-188q0 -39 19 -53t61 -14h25q50 0 82.5 28.5t83.5 109.5h76l-31 -208h-90q-60 -40 -60 -92q0 -41 43 -41q36 0 70 20l19 -28q-68 -75 -145 -75q-41 0 -68.5 23t-27.5 61q0 76 94 132h-428v69q50 2 64.5 15t14.5 53v428
q0 40 -14.5 53t-64.5 15v69h588v-192h-78q-26 67 -53 94.5t-83 27.5h-97v-234h74q33 0 49 16.5t23 61.5h66v-229z" />
    <glyph glyph-name="eogonek" unicode="&#x119;" horiz-adv-x="561" 
d="M306 560q104 0 162 -65t58 -164v-39h-327q0 -72 42.5 -115.5t109.5 -43.5q91 0 144 68l33 -22q-28 -124 -131 -169q-77 -43 -77 -102q0 -41 43 -41q36 0 70 20l19 -28q-67 -75 -145 -75q-41 0 -68.5 23t-27.5 61q0 70 78 122q-113 1 -185 73.5t-72 193.5
q0 134 79.5 218.5t194.5 84.5zM289 491q-75 0 -88 -139h164q-2 139 -76 139z" />
    <glyph glyph-name="Ecaron" unicode="&#x11a;" horiz-adv-x="680" 
d="M520 247h-66q-7 45 -23 61.5t-49 16.5h-74v-188q0 -39 19 -53t61 -14h25q50 0 82.5 28.5t83.5 109.5h76l-31 -208h-593v69q50 2 64.5 15t14.5 53v428q0 40 -14.5 53t-64.5 15v69h588v-192h-78q-26 67 -53 94.5t-83 27.5h-97v-234h74q33 0 49 16.5t23 61.5h66v-229z
M557 921l-138 -169h-136l-138 169h95l111 -80l111 80h95z" />
    <glyph glyph-name="ecaron" unicode="&#x11b;" horiz-adv-x="561" 
d="M306 560q104 0 162 -65t58 -164v-39h-327q0 -72 42.5 -115.5t109.5 -43.5q91 0 144 68l33 -22q-20 -88 -81 -138.5t-155 -50.5q-114 0 -187 72.5t-73 194.5q0 134 79.5 218.5t194.5 84.5zM289 491q-75 0 -88 -139h164q-2 139 -76 139zM503 775l-138 -169h-136l-138 169
h95l111 -80l111 80h95z" />
    <glyph glyph-name="Gcircumflex" unicode="&#x11c;" horiz-adv-x="766" 
d="M34 337q0 168 108.5 271.5t264.5 103.5q153 0 240 -74v-163h-96q-22 81 -55 122.5t-91 41.5q-81 0 -120.5 -79t-39.5 -194q0 -297 176 -297q35 0 62 10v128q0 39 -14.5 52t-62.5 14v71h335v-71q-49 -1 -63 -13.5t-14 -52.5v-144q-99 -72 -270 -72q-173 0 -266.5 95.5
t-93.5 250.5zM471 918l138 -169h-95l-111 80l-111 -80h-95l138 169h136z" />
    <glyph glyph-name="gcircumflex" unicode="&#x11d;" horiz-adv-x="597" 
d="M286 197q-62 0 -108 15q-26 -31 -26 -47q0 -21 24 -21h241q87 0 131.5 -39.5t44.5 -109.5q0 -95 -84 -148.5t-226 -53.5q-124 0 -193 29.5t-69 87.5q0 34 27 55t62 27q-73 28 -73 104q0 39 25.5 68.5t81.5 60.5q-96 45 -96 144q0 88 69 139.5t178 51.5q51 0 101 -13
l185 7v-92h-44l-78 17v-6q70 -31 70 -102q0 -81 -68 -127.5t-175 -46.5zM375 766l138 -169h-95l-111 80l-111 -80h-95l138 169h136zM397 -33h-258q-7 -8 -7 -30q0 -83 154 -83q163 0 163 75q0 38 -52 38zM293 254q54 0 54 108q0 63 -17 101.5t-50 38.5q-54 0 -54 -108
q0 -61 17 -100.5t50 -39.5z" />
    <glyph glyph-name="Gbreve" unicode="&#x11e;" horiz-adv-x="766" 
d="M34 337q0 168 108.5 271.5t264.5 103.5q153 0 240 -74v-163h-96q-22 81 -55 122.5t-91 41.5q-81 0 -120.5 -79t-39.5 -194q0 -297 176 -297q35 0 62 10v128q0 39 -14.5 52t-62.5 14v71h335v-71q-49 -1 -63 -13.5t-14 -52.5v-144q-99 -72 -270 -72q-173 0 -266.5 95.5
t-93.5 250.5zM400 746q-75 0 -117 45t-42 125h70q11 -78 89 -78t89 78h70q0 -80 -42 -125t-117 -45z" />
    <glyph glyph-name="gbreve" unicode="&#x11f;" horiz-adv-x="597" 
d="M286 197q-62 0 -108 15q-26 -31 -26 -47q0 -21 24 -21h241q87 0 131.5 -39.5t44.5 -109.5q0 -95 -84 -148.5t-226 -53.5q-124 0 -193 29.5t-69 87.5q0 34 27 55t62 27q-73 28 -73 104q0 39 25.5 68.5t81.5 60.5q-96 45 -96 144q0 88 69 139.5t178 51.5q51 0 101 -13
l185 7v-92h-44l-78 17v-6q70 -31 70 -102q0 -81 -68 -127.5t-175 -46.5zM307 603q-75 0 -117 45t-42 125h70q11 -78 89 -78t89 78h70q0 -80 -42 -125t-117 -45zM397 -33h-258q-7 -8 -7 -30q0 -83 154 -83q163 0 163 75q0 38 -52 38zM293 254q54 0 54 108q0 63 -17 101.5
t-50 38.5q-54 0 -54 -108q0 -61 17 -100.5t50 -39.5z" />
    <glyph glyph-name="Gdotaccent" unicode="&#x120;" horiz-adv-x="766" 
d="M34 337q0 168 108.5 271.5t264.5 103.5q153 0 240 -74v-163h-96q-22 81 -55 122.5t-91 41.5q-81 0 -120.5 -79t-39.5 -194q0 -297 176 -297q35 0 62 10v128q0 39 -14.5 52t-62.5 14v71h335v-71q-49 -1 -63 -13.5t-14 -52.5v-144q-99 -72 -270 -72q-173 0 -266.5 95.5
t-93.5 250.5zM404 743q-47 0 -75 27.5t-28 67.5t28 67.5t75 27.5q46 0 74 -27.5t28 -67.5t-28 -67.5t-74 -27.5z" />
    <glyph glyph-name="gdotaccent" unicode="&#x121;" horiz-adv-x="597" 
d="M286 197q-62 0 -108 15q-26 -31 -26 -47q0 -21 24 -21h241q87 0 131.5 -39.5t44.5 -109.5q0 -95 -84 -148.5t-226 -53.5q-124 0 -193 29.5t-69 87.5q0 34 27 55t62 27q-73 28 -73 104q0 39 25.5 68.5t81.5 60.5q-96 45 -96 144q0 88 69 139.5t178 51.5q51 0 101 -13
l185 7v-92h-44l-78 17v-6q70 -31 70 -102q0 -81 -68 -127.5t-175 -46.5zM397 -33h-258q-7 -8 -7 -30q0 -83 154 -83q163 0 163 75q0 38 -52 38zM308 598q-47 0 -75 27.5t-28 67.5t28 67.5t75 27.5q46 0 74 -27.5t28 -67.5t-28 -67.5t-74 -27.5zM293 254q54 0 54 108
q0 63 -17 101.5t-50 38.5q-54 0 -54 -108q0 -61 17 -100.5t50 -39.5z" />
    <glyph glyph-name="Gcommaaccent" unicode="&#x122;" horiz-adv-x="766" 
d="M34 337q0 168 108.5 271.5t264.5 103.5q153 0 240 -74v-163h-96q-22 81 -55 122.5t-91 41.5q-81 0 -120.5 -79t-39.5 -194q0 -297 176 -297q35 0 62 10v128q0 39 -14.5 52t-62.5 14v71h335v-71q-49 -1 -63 -13.5t-14 -52.5v-144q-99 -72 -270 -72q-173 0 -266.5 95.5
t-93.5 250.5zM429 -158h-59q-50 13 -50 62q0 28 23 46t62 18q45 0 71.5 -27.5t26.5 -70.5q0 -54 -42.5 -87t-134.5 -33v45q49 0 75 13t28 34z" />
    <glyph glyph-name="gcommaaccent" unicode="&#x123;" horiz-adv-x="597" 
d="M286 197q-62 0 -108 15q-26 -31 -26 -47q0 -21 24 -21h241q87 0 131.5 -39.5t44.5 -109.5q0 -95 -84 -148.5t-226 -53.5q-124 0 -193 29.5t-69 87.5q0 34 27 55t62 27q-73 28 -73 104q0 39 25.5 68.5t81.5 60.5q-96 45 -96 144q0 88 69 139.5t178 51.5q51 0 101 -13
l185 7v-92h-44l-78 17v-6q70 -31 70 -102q0 -81 -68 -127.5t-175 -46.5zM397 -33h-258q-7 -8 -7 -30q0 -83 154 -83q163 0 163 75q0 38 -52 38zM290 721h59q50 -13 50 -62q0 -28 -23 -46t-62 -18q-45 0 -71.5 27.5t-26.5 70.5q0 54 42.5 87t134.5 33v-45q-49 0 -75 -13
t-28 -34zM293 254q54 0 54 108q0 63 -17 101.5t-50 38.5q-54 0 -54 -108q0 -61 17 -100.5t50 -39.5z" />
    <glyph glyph-name="Hcircumflex" unicode="&#x124;" horiz-adv-x="864" 
d="M556 137v188h-248v-188q0 -40 15 -53t64 -15v-69h-356v69q50 2 64.5 15t14.5 53v428q0 40 -14.5 53t-64.5 15v69h356v-69q-49 -2 -64 -15t-15 -53v-167h248v167q0 40 -15 53t-64 15v69h356v-69q-50 -2 -64.5 -15t-14.5 -53v-428q0 -40 14.5 -53t64.5 -15v-69h-356v69
q49 2 64 15t15 53zM500 918l138 -169h-95l-111 80l-111 -80h-95l138 169h136z" />
    <glyph glyph-name="hcircumflex" unicode="&#x125;" horiz-adv-x="697" 
d="M271 761v-306q94 105 193 105q153 0 153 -164v-272q0 -33 12 -42.5t48 -14.5v-67h-304v67q35 5 45.5 14.5t10.5 42.5v254q0 32 -14 47.5t-48 15.5q-45 0 -96 -17v-300q0 -33 10.5 -42.5t45.5 -14.5v-67h-305v67q37 5 49 14.5t12 42.5v502l-56 59v37l212 39h32zM407 958
l138 -169h-95l-111 80l-111 -80h-95l138 169h136z" />
    <glyph glyph-name="Hbar" unicode="&#x126;" horiz-adv-x="878" 
d="M38 449v71h79v45q0 40 -14.5 53t-64.5 15v69h356v-69q-49 -2 -64 -15t-15 -53v-45h248v45q0 40 -15 53t-64 15v69h356v-69q-50 -2 -64.5 -15t-14.5 -53v-45h79v-71h-79v-312q0 -40 14.5 -53t64.5 -15v-69h-356v69q49 2 64 15t15 53v148h-248v-148q0 -40 15 -53t64 -15
v-69h-356v69q50 2 64.5 15t14.5 53v312h-79zM315 358h248v91h-248v-91z" />
    <glyph glyph-name="hbar" unicode="&#x127;" horiz-adv-x="703" 
d="M400 577h-123v-126q94 105 193 105q153 0 153 -164v-268q0 -33 12 -42.5t48 -14.5v-67h-304v67q35 5 45.5 14.5t10.5 42.5v250q0 32 -14 47.5t-48 15.5q-45 0 -96 -17v-296q0 -33 10.5 -42.5t45.5 -14.5v-67h-305v67q37 5 49 14.5t12 42.5v453h-56v51h56v53h-56v47
l212 33h32v-133h123v-51z" />
    <glyph glyph-name="Itilde" unicode="&#x128;" horiz-adv-x="418" 
d="M387 0h-356v69q50 2 64.5 15t14.5 53v428q0 40 -14.5 53t-64.5 15v69h356v-69q-50 -2 -64.5 -15t-14.5 -53v-428q0 -40 14.5 -53t64.5 -15v-69zM350 901l60 -12q-39 -92 -67.5 -120.5t-73.5 -28.5q-30 0 -75 30t-61 30q-20 0 -33.5 -13.5t-31.5 -41.5l-60 12
q39 92 67 120.5t74 28.5q36 0 78 -30t58 -30q19 0 33.5 14t31.5 41z" />
    <glyph glyph-name="itilde" unicode="&#x129;" horiz-adv-x="366" 
d="M318 773l60 -12q-39 -91 -66.5 -120t-66.5 -29q-27 0 -65.5 30t-51.5 30q-20 0 -33.5 -13.5t-31.5 -41.5l-60 12q39 92 66.5 120.5t68.5 28.5q24 0 46.5 -15t39.5 -30t29 -15q19 0 33.5 14t31.5 41zM281 561v-437q0 -33 12 -42.5t49 -14.5v-67h-310v67q37 5 49 14.5
t12 42.5v295l-56 60v31l211 51h33z" />
    <glyph glyph-name="Imacron" unicode="&#x12a;" horiz-adv-x="418" 
d="M387 0h-356v69q50 2 64.5 15t14.5 53v428q0 40 -14.5 53t-64.5 15v69h356v-69q-50 -2 -64.5 -15t-14.5 -53v-428q0 -40 14.5 -53t64.5 -15v-69zM50 758v106h318v-106h-318z" />
    <glyph glyph-name="imacron" unicode="&#x12b;" horiz-adv-x="366" 
d="M46 626v101h276v-101h-276zM281 561v-437q0 -33 12 -42.5t49 -14.5v-67h-310v67q37 5 49 14.5t12 42.5v295l-56 60v31l211 51h33z" />
    <glyph glyph-name="Ibreve" unicode="&#x12c;" horiz-adv-x="418" 
d="M387 0h-356v69q50 2 64.5 15t14.5 53v428q0 40 -14.5 53t-64.5 15v69h356v-69q-50 -2 -64.5 -15t-14.5 -53v-428q0 -40 14.5 -53t64.5 -15v-69zM209 746q-75 0 -117 45t-42 125h70q11 -78 89 -78t89 78h70q0 -80 -42 -125t-117 -45z" />
    <glyph glyph-name="ibreve" unicode="&#x12d;" horiz-adv-x="366" 
d="M281 561v-437q0 -33 12 -42.5t49 -14.5v-67h-310v67q37 5 49 14.5t12 42.5v295l-56 60v31l211 51h33zM187 603q-75 0 -117 45t-42 125h70q11 -78 89 -78t89 78h70q0 -80 -42 -125t-117 -45z" />
    <glyph glyph-name="Iogonek" unicode="&#x12e;" horiz-adv-x="418" 
d="M387 0h-129q-60 -40 -60 -92q0 -41 43 -41q36 0 70 20l19 -28q-68 -75 -145 -75q-41 0 -68.5 23t-27.5 61q0 76 94 132h-152v69q50 2 64.5 15t14.5 53v428q0 40 -14.5 53t-64.5 15v69h356v-69q-50 -2 -64.5 -15t-14.5 -53v-428q0 -40 14.5 -53t64.5 -15v-69z" />
    <glyph glyph-name="iogonek" unicode="&#x12f;" horiz-adv-x="366" 
d="M281 561v-437q0 -33 12 -42.5t49 -14.5v-67h-106q-60 -40 -60 -92q0 -41 43 -41q36 0 70 20l19 -28q-68 -75 -145 -75q-41 0 -68.5 23t-27.5 61q0 76 94 132h-129v67q37 5 49 14.5t12 42.5v295l-56 60v31l211 51h33zM185 593q-47 0 -75 27.5t-28 67.5t28 67.5t75 27.5
q46 0 74 -27.5t28 -67.5t-28 -67.5t-74 -27.5z" />
    <glyph glyph-name="Idotaccent" unicode="&#x130;" horiz-adv-x="418" 
d="M387 0h-356v69q50 2 64.5 15t14.5 53v428q0 40 -14.5 53t-64.5 15v69h356v-69q-50 -2 -64.5 -15t-14.5 -53v-428q0 -40 14.5 -53t64.5 -15v-69zM210 743q-47 0 -75 27.5t-28 67.5t28 67.5t75 27.5q46 0 74 -27.5t28 -67.5t-28 -67.5t-74 -27.5z" />
    <glyph glyph-name="dotlessi" unicode="&#x131;" horiz-adv-x="366" 
d="M281 561v-437q0 -33 12 -42.5t49 -14.5v-67h-310v67q37 5 49 14.5t12 42.5v295l-56 60v31l211 51h33z" />
    <glyph glyph-name="IJ" unicode="&#x132;" horiz-adv-x="1030" 
d="M387 0h-356v69q50 2 64.5 15t14.5 53v428q0 40 -14.5 53t-64.5 15v69h356v-69q-50 -2 -64.5 -15t-14.5 -53v-428q0 -40 14.5 -53t64.5 -15v-69zM932 565v-339q0 -236 -268 -236q-114 0 -176 39t-62 112q0 57 50 91h135v-51q0 -59 12 -90.5t47 -31.5q38 0 50 32.5
t12 101.5v372q0 40 -14 53t-63 15v69h357v-69q-50 -2 -65 -15t-15 -53z" />
    <glyph glyph-name="ij" unicode="&#x133;" horiz-adv-x="689" 
d="M281 561v-437q0 -33 12 -42.5t49 -14.5v-67h-310v67q37 5 49 14.5t12 42.5v295l-56 60v31l211 51h33zM185 593q-47 0 -75 27.5t-28 67.5t28 67.5t75 27.5q46 0 74 -27.5t28 -67.5t-28 -67.5t-74 -27.5zM628 561v-429q0 -80 -18 -129t-54 -90q-72 -81 -155 -122l-36 34
l41 69q22 37 27.5 80t5.5 115v330l-55 60v31l211 51h33zM532 593q-47 0 -75 27.5t-28 67.5t28 67.5t75 27.5q46 0 74 -27.5t28 -67.5t-28 -67.5t-74 -27.5z" />
    <glyph glyph-name="Jcircumflex" unicode="&#x134;" horiz-adv-x="612" 
d="M514 565v-339q0 -236 -268 -236q-114 0 -176 39t-62 112q0 57 50 91h135v-51q0 -59 12 -90.5t47 -31.5q38 0 50 32.5t12 101.5v372q0 40 -14 53t-63 15v69h357v-69q-50 -2 -65 -15t-15 -53zM471 918l138 -169h-95l-111 80l-111 -80h-95l138 169h136z" />
    <glyph glyph-name="jcircumflex" unicode="&#x135;" horiz-adv-x="323" 
d="M262 561v-429q0 -80 -18 -129t-54 -90q-72 -81 -155 -122l-36 34l41 69q22 37 27.5 80t5.5 115v330l-55 60v31l211 51h33zM234 766l138 -169h-95l-111 80l-111 -80h-95l138 169h136z" />
    <glyph glyph-name="Kcommaaccent" unicode="&#x136;" horiz-adv-x="790" 
d="M504 426l181 -286q27 -42 48 -57t53 -15v-68h-226q-40 26 -88 105l-154 252l209 200q29 27 29 45q0 31 -61 31v69h264v-69q-30 -1 -45 -8.5t-37 -28.5zM110 137v428q0 40 -14.5 53t-64.5 15v69h356v-69q-49 -2 -63 -15t-14 -53v-428q0 -40 14 -53t63 -15v-69h-356v69
q50 2 64.5 15t14.5 53zM436 -158h-59q-50 13 -50 62q0 28 23 46t62 18q45 0 71.5 -27.5t26.5 -70.5q0 -54 -42.5 -87t-134.5 -33v45q49 0 75 13t28 34z" />
    <glyph glyph-name="kcommaaccent" unicode="&#x137;" horiz-adv-x="663" 
d="M278 292l127 122q27 29 27 38q0 16 -13 21.5t-50 10.5v66h264v-66q-60 -16 -81 -30q-6 -5 -12 -11l-89 -88l202 -303v-52h-192zM271 761v-637q0 -33 12 -42.5t49 -14.5v-67h-310v67q37 5 49 14.5t12 42.5v502l-56 59v37l212 39h32zM355 -158h-59q-50 13 -50 62
q0 28 23 46t62 18q45 0 71.5 -27.5t26.5 -70.5q0 -54 -42.5 -87t-134.5 -33v45q49 0 75 13t28 34z" />
    <glyph glyph-name="kgreenlandic" unicode="&#x138;" horiz-adv-x="663" 
d="M278 292l127 122q27 29 27 38q0 16 -13 21.5t-50 10.5v66h264v-66q-60 -16 -81 -30q-6 -5 -12 -11l-89 -88l202 -303v-52h-192zM271 560v-436q0 -33 12 -42.5t49 -14.5v-67h-310v67q37 5 49 14.5t12 42.5v301l-56 59v37l212 39h32z" />
    <glyph glyph-name="Lacute" unicode="&#x139;" horiz-adv-x="662" 
d="M310 565v-426q0 -39 16.5 -53t58.5 -14h25q45 0 70 27.5t90 141.5h82l-38 -241h-583v69q50 2 64.5 15t14.5 53v428q0 39 -14.5 52t-64.5 15v70h356v-70q-49 -2 -63 -14.5t-14 -52.5zM245 909h185l-156 -158h-101z" />
    <glyph glyph-name="lacute" unicode="&#x13a;" horiz-adv-x="355" 
d="M270 761v-637q0 -33 12 -42.5t48 -14.5v-67h-308v67q37 5 48.5 14.5t11.5 42.5v502l-55 59v37l210 39h33zM192 949h185l-156 -158h-101z" />
    <glyph glyph-name="Lcommaaccent" unicode="&#x13b;" horiz-adv-x="662" 
d="M310 565v-426q0 -39 16.5 -53t58.5 -14h25q45 0 70 27.5t90 141.5h82l-38 -241h-583v69q50 2 64.5 15t14.5 53v428q0 39 -14.5 52t-64.5 15v70h356v-70q-49 -2 -63 -14.5t-14 -52.5zM359 -158h-59q-50 13 -50 62q0 28 23 46t62 18q45 0 71.5 -27.5t26.5 -70.5
q0 -54 -42.5 -87t-134.5 -33v45q49 0 75 13t28 34z" />
    <glyph glyph-name="lcommaaccent" unicode="&#x13c;" horiz-adv-x="355" 
d="M270 761v-637q0 -33 12 -42.5t48 -14.5v-67h-308v67q37 5 48.5 14.5t11.5 42.5v502l-55 59v37l210 39h33zM194 -158h-59q-50 13 -50 62q0 28 23 46t62 18q45 0 71.5 -27.5t26.5 -70.5q0 -54 -42.5 -87t-134.5 -33v45q49 0 75 13t28 34z" />
    <glyph glyph-name="Lcaron" unicode="&#x13d;" horiz-adv-x="662" 
d="M310 565v-426q0 -39 16.5 -53t58.5 -14h25q45 0 70 27.5t90 141.5h82l-38 -241h-583v69q50 2 64.5 15t14.5 53v428q0 39 -14.5 52t-64.5 15v70h356v-70q-49 -2 -63 -14.5t-14 -52.5zM621 707l-93 -205h-76l14 205h155z" />
    <glyph glyph-name="lcaron" unicode="&#x13e;" horiz-adv-x="371" 
d="M270 761v-637q0 -33 12 -42.5t48 -14.5v-67h-308v67q37 5 48.5 14.5t11.5 42.5v502l-55 59v37l210 39h33zM501 766l-93 -205h-76l14 205h155z" />
    <glyph glyph-name="Ldot" unicode="&#x13f;" horiz-adv-x="662" 
d="M310 565v-426q0 -39 16.5 -53t58.5 -14h25q45 0 70 27.5t90 141.5h82l-38 -241h-583v69q50 2 64.5 15t14.5 53v428q0 39 -14.5 52t-64.5 15v70h356v-70q-49 -2 -63 -14.5t-14 -52.5zM551 315q-47 0 -75 27.5t-28 67.5t28 67.5t75 27.5q46 0 74 -27.5t28 -67.5t-28 -67.5
t-74 -27.5z" />
    <glyph glyph-name="ldot" unicode="&#x140;" horiz-adv-x="517" 
d="M270 761v-637q0 -33 12 -42.5t48 -14.5v-67h-308v67q37 5 48.5 14.5t11.5 42.5v502l-55 59v37l210 39h33zM433 290q-47 0 -75 27.5t-28 67.5t28 67.5t75 27.5q46 0 74 -27.5t28 -67.5t-28 -67.5t-74 -27.5z" />
    <glyph glyph-name="Lslash" unicode="&#x141;" horiz-adv-x="669" 
d="M317 565v-142l132 48v-75l-132 -49v-208q0 -39 16.5 -53t58.5 -14h25q45 0 70 27.5t90 141.5h82l-38 -241h-583v69q50 2 64.5 15t14.5 53v144l-79 -28v75l79 28v209q0 39 -14.5 52t-64.5 15v70h356v-70q-49 -2 -63 -14.5t-14 -52.5z" />
    <glyph glyph-name="lslash" unicode="&#x142;" horiz-adv-x="388" 
d="M286 761v-257l85 46v-76l-85 -46v-304q0 -33 12 -42.5t48 -14.5v-67h-308v67q37 5 48.5 14.5t11.5 42.5v215l-79 -42v76l79 42v211l-55 59v37l210 39h33z" />
    <glyph glyph-name="Nacute" unicode="&#x143;" horiz-adv-x="778" 
d="M110 137v447q-21 28 -36 37t-43 12v69h272l289 -380v243q0 39 -19 52.5t-69 15.5v69h256v-69q-49 -2 -63.5 -15t-14.5 -53v-565h-81l-401 503v-366q0 -39 18.5 -52.5t69.5 -15.5v-69h-257v69q50 2 64.5 15t14.5 53zM411 909h185l-156 -158h-101z" />
    <glyph glyph-name="nacute" unicode="&#x144;" horiz-adv-x="706" 
d="M438 124v254q0 32 -13.5 47.5t-47.5 15.5q-45 0 -96 -17v-300q0 -33 10.5 -42.5t45.5 -14.5v-67h-305v67q37 5 49 14.5t12 42.5v291l-56 59v36l211 55h33v-110q92 105 193 105q152 0 152 -164v-272q0 -33 12 -42.5t48 -14.5v-67h-303v67q35 5 45 14.5t10 42.5zM378 766
h184l-155 -160h-97z" />
    <glyph glyph-name="Ncommaaccent" unicode="&#x145;" horiz-adv-x="778" 
d="M110 137v447q-21 28 -36 37t-43 12v69h272l289 -380v243q0 39 -19 52.5t-69 15.5v69h256v-69q-49 -2 -63.5 -15t-14.5 -53v-565h-81l-401 503v-366q0 -39 18.5 -52.5t69.5 -15.5v-69h-257v69q50 2 64.5 15t14.5 53zM413 -158h-59q-50 13 -50 62q0 28 23 46t62 18
q45 0 71.5 -27.5t26.5 -70.5q0 -54 -42.5 -87t-134.5 -33v45q49 0 75 13t28 34z" />
    <glyph glyph-name="ncommaaccent" unicode="&#x146;" horiz-adv-x="706" 
d="M438 124v254q0 32 -13.5 47.5t-47.5 15.5q-45 0 -96 -17v-300q0 -33 10.5 -42.5t45.5 -14.5v-67h-305v67q37 5 49 14.5t12 42.5v291l-56 59v36l211 55h33v-110q92 105 193 105q152 0 152 -164v-272q0 -33 12 -42.5t48 -14.5v-67h-303v67q35 5 45 14.5t10 42.5zM383 -158
h-59q-50 13 -50 62q0 28 23 46t62 18q45 0 71.5 -27.5t26.5 -70.5q0 -54 -42.5 -87t-134.5 -33v45q49 0 75 13t28 34z" />
    <glyph glyph-name="Ncaron" unicode="&#x147;" horiz-adv-x="778" 
d="M110 137v447q-21 28 -36 37t-43 12v69h272l289 -380v243q0 39 -19 52.5t-69 15.5v69h256v-69q-49 -2 -63.5 -15t-14.5 -53v-565h-81l-401 503v-366q0 -39 18.5 -52.5t69.5 -15.5v-69h-257v69q50 2 64.5 15t14.5 53zM601 921l-138 -169h-136l-138 169h95l111 -80l111 80
h95z" />
    <glyph glyph-name="ncaron" unicode="&#x148;" horiz-adv-x="706" 
d="M438 124v254q0 32 -13.5 47.5t-47.5 15.5q-45 0 -96 -17v-300q0 -33 10.5 -42.5t45.5 -14.5v-67h-305v67q37 5 49 14.5t12 42.5v291l-56 59v36l211 55h33v-110q92 105 193 105q152 0 152 -164v-272q0 -33 12 -42.5t48 -14.5v-67h-303v67q35 5 45 14.5t10 42.5zM571 775
l-138 -169h-136l-138 169h95l111 -80l111 80h95z" />
    <glyph glyph-name="Eng" unicode="&#x14a;" horiz-adv-x="778" 
d="M524 89l-324 414v-366q0 -39 18.5 -52.5t69.5 -15.5v-69h-257v69q50 2 64.5 15t14.5 53v447q-21 28 -36 37t-43 12v69h272l289 -380v243q0 39 -19 52.5t-69 15.5v69h256v-69q-49 -2 -63.5 -15t-14.5 -53v-433q0 -80 -18 -129t-54 -90q-76 -85 -150 -122l-36 34l40 60
q60 89 60 204z" />
    <glyph glyph-name="eng" unicode="&#x14b;" horiz-adv-x="687" 
d="M438 89v289q0 32 -13.5 47.5t-47.5 15.5q-45 0 -96 -17v-300q0 -33 10.5 -42.5t45.5 -14.5v-67h-305v67q37 5 49 14.5t12 42.5v291l-56 59v36l211 55h33v-110q92 105 193 105q152 0 152 -164v-264q0 -80 -18 -129t-54 -90q-72 -81 -155 -122l-36 34l41 69q22 37 28 80.5
t6 114.5z" />
    <glyph glyph-name="Omacron" unicode="&#x14c;" horiz-adv-x="766" 
d="M395 64q65 0 96 74.5t31 196.5q0 141 -38 222t-113 81q-65 0 -96 -74.5t-31 -196.5q0 -141 38 -222t113 -81zM392 712q106 0 185 -48.5t117 -126t38 -172.5q0 -170 -101 -272.5t-257 -102.5q-106 0 -185 48.5t-117 126t-38 172.5q0 170 101 272.5t257 102.5zM232 758v106
h318v-106h-318z" />
    <glyph glyph-name="omacron" unicode="&#x14d;" horiz-adv-x="637" 
d="M328 61q39 0 61 50.5t22 133.5q0 108 -27 176.5t-75 68.5q-40 0 -62 -51t-22 -134q0 -108 27.5 -176t75.5 -68zM310 -10q-124 0 -201 78.5t-77 197.5q0 133 82.5 213.5t211.5 80.5q125 0 202 -78.5t77 -196.5q0 -134 -83 -214.5t-212 -80.5zM170 626v101h308v-101h-308z
" />
    <glyph glyph-name="Obreve" unicode="&#x14e;" horiz-adv-x="766" 
d="M395 64q65 0 96 74.5t31 196.5q0 141 -38 222t-113 81q-65 0 -96 -74.5t-31 -196.5q0 -141 38 -222t113 -81zM392 712q106 0 185 -48.5t117 -126t38 -172.5q0 -170 -101 -272.5t-257 -102.5q-106 0 -185 48.5t-117 126t-38 172.5q0 170 101 272.5t257 102.5zM391 746
q-75 0 -117 45t-42 125h70q11 -78 89 -78t89 78h70q0 -80 -42 -125t-117 -45z" />
    <glyph glyph-name="obreve" unicode="&#x14f;" horiz-adv-x="637" 
d="M328 61q39 0 61 50.5t22 133.5q0 108 -27 176.5t-75 68.5q-40 0 -62 -51t-22 -134q0 -108 27.5 -176t75.5 -68zM310 -10q-124 0 -201 78.5t-77 197.5q0 133 82.5 213.5t211.5 80.5q125 0 202 -78.5t77 -196.5q0 -134 -83 -214.5t-212 -80.5zM324 603q-75 0 -117 45
t-42 125h70q11 -78 89 -78t89 78h70q0 -80 -42 -125t-117 -45z" />
    <glyph glyph-name="Ohungarumlaut" unicode="&#x150;" horiz-adv-x="766" 
d="M395 64q65 0 96 74.5t31 196.5q0 141 -38 222t-113 81q-65 0 -96 -74.5t-31 -196.5q0 -141 38 -222t113 -81zM392 712q106 0 185 -48.5t117 -126t38 -172.5q0 -170 -101 -272.5t-257 -102.5q-106 0 -185 48.5t-117 126t-38 172.5q0 170 101 272.5t257 102.5zM312 909h158
l-137 -158h-88zM507 909h158l-137 -158h-88z" />
    <glyph glyph-name="ohungarumlaut" unicode="&#x151;" horiz-adv-x="637" 
d="M328 61q39 0 61 50.5t22 133.5q0 108 -27 176.5t-75 68.5q-40 0 -62 -51t-22 -134q0 -108 27.5 -176t75.5 -68zM310 -10q-124 0 -201 78.5t-77 197.5q0 133 82.5 213.5t211.5 80.5q125 0 202 -78.5t77 -196.5q0 -134 -83 -214.5t-212 -80.5zM245 766h158l-137 -160h-88z
M440 766h158l-137 -160h-88z" />
    <glyph glyph-name="OE" unicode="&#x152;" horiz-adv-x="1056" 
d="M1000 0h-553q-197 0 -305 89t-108 254q0 166 108.5 262.5t286.5 96.5h566v-192h-78q-26 67 -53 94.5t-83 27.5h-97v-234h74q33 0 49 16.5t23 61.5h66v-229h-66q-7 45 -23 61.5t-49 16.5h-74v-188q0 -39 19 -53t61 -14h25q50 0 82.5 28.5t83.5 109.5h76zM486 70v562h-50
q-87 0 -138.5 -71t-51.5 -210q0 -131 59.5 -206t168.5 -75h12z" />
    <glyph glyph-name="oe" unicode="&#x153;" horiz-adv-x="946" 
d="M326 560q116 0 189 -75q78 75 176 75q104 0 162 -65t58 -164v-39h-327q0 -72 42.5 -115.5t109.5 -43.5q91 0 144 68l33 -22q-20 -88 -81 -138.5t-155 -50.5q-108 0 -179 74q-82 -74 -188 -74q-124 0 -201 78.5t-77 197.5q0 133 82.5 213.5t211.5 80.5zM328 61
q39 0 61 50.5t22 133.5q0 108 -27 176.5t-75 68.5q-40 0 -62 -51t-22 -134q0 -108 27.5 -176t75.5 -68zM674 491q-75 0 -88 -139h164q-2 139 -76 139z" />
    <glyph glyph-name="Racute" unicode="&#x154;" horiz-adv-x="762" 
d="M329 630h-22v-273h20q79 0 116 34.5t37 106.5q0 65 -39.5 98.5t-111.5 33.5zM31 702h370q138 0 207 -53.5t69 -151.5q0 -63 -39 -109.5t-101 -64.5l114 -182q27 -43 48 -57t59 -15v-69h-229q-43 37 -83 110l-97 179h-42v-152q0 -40 13.5 -53t62.5 -15v-69h-352v69
q50 2 64.5 15t14.5 53v428q0 40 -14.5 52.5t-64.5 12.5v72zM392 909h185l-156 -158h-101z" />
    <glyph glyph-name="racute" unicode="&#x155;" horiz-adv-x="486" 
d="M281 565v-175q29 97 63 133.5t89 36.5q24 0 45 -12v-158h-24q-122 0 -173 -36v-232q0 -16 3.5 -25.5t16 -15.5t23 -8t37.5 -6v-67h-329v67q37 5 49 14.5t12 42.5v291l-56 59v36l210 55h34zM290 766h184l-155 -160h-97z" />
    <glyph glyph-name="Rcommaaccent" unicode="&#x156;" horiz-adv-x="762" 
d="M329 630h-22v-273h20q79 0 116 34.5t37 106.5q0 65 -39.5 98.5t-111.5 33.5zM31 702h370q138 0 207 -53.5t69 -151.5q0 -63 -39 -109.5t-101 -64.5l114 -182q27 -43 48 -57t59 -15v-69h-229q-43 37 -83 110l-97 179h-42v-152q0 -40 13.5 -53t62.5 -15v-69h-352v69
q50 2 64.5 15t14.5 53v428q0 40 -14.5 52.5t-64.5 12.5v72zM404 -158h-59q-50 13 -50 62q0 28 23 46t62 18q45 0 71.5 -27.5t26.5 -70.5q0 -54 -42.5 -87t-134.5 -33v45q49 0 75 13t28 34z" />
    <glyph glyph-name="rcommaaccent" unicode="&#x157;" horiz-adv-x="486" 
d="M281 565v-175q29 97 63 133.5t89 36.5q24 0 45 -12v-158h-24q-122 0 -173 -36v-232q0 -16 3.5 -25.5t16 -15.5t23 -8t37.5 -6v-67h-329v67q37 5 49 14.5t12 42.5v291l-56 59v36l210 55h34zM217 -158h-59q-50 13 -50 62q0 28 23 46t62 18q45 0 71.5 -27.5t26.5 -70.5
q0 -54 -42.5 -87t-134.5 -33v45q49 0 75 13t28 34z" />
    <glyph glyph-name="Rcaron" unicode="&#x158;" horiz-adv-x="762" 
d="M329 630h-22v-273h20q79 0 116 34.5t37 106.5q0 65 -39.5 98.5t-111.5 33.5zM31 702h370q138 0 207 -53.5t69 -151.5q0 -63 -39 -109.5t-101 -64.5l114 -182q27 -43 48 -57t59 -15v-69h-229q-43 37 -83 110l-97 179h-42v-152q0 -40 13.5 -53t62.5 -15v-69h-352v69
q50 2 64.5 15t14.5 53v428q0 40 -14.5 52.5t-64.5 12.5v72zM582 921l-138 -169h-136l-138 169h95l111 -80l111 80h95z" />
    <glyph glyph-name="rcaron" unicode="&#x159;" horiz-adv-x="486" 
d="M281 565v-175q29 97 63 133.5t89 36.5q24 0 45 -12v-158h-24q-122 0 -173 -36v-232q0 -16 3.5 -25.5t16 -15.5t23 -8t37.5 -6v-67h-329v67q37 5 49 14.5t12 42.5v291l-56 59v36l210 55h34zM483 775l-138 -169h-136l-138 169h95l111 -80l111 80h95z" />
    <glyph glyph-name="Sacute" unicode="&#x15a;" horiz-adv-x="614" 
d="M295 -10q-73 0 -137.5 19t-104.5 48l-11 167h101q21 -86 60 -125.5t108 -39.5q48 0 77 22.5t29 65.5q0 38 -29.5 59.5t-110.5 43.5q-121 32 -174.5 84.5t-53.5 147.5q0 107 72 168.5t187 61.5q142 0 225 -60v-153h-86q-25 73 -56.5 109t-95.5 36q-47 0 -72.5 -23
t-25.5 -59q0 -44 30 -65.5t111 -41.5q120 -30 177 -83.5t57 -154.5q0 -112 -77 -169.5t-200 -57.5zM331 909h185l-156 -158h-101z" />
    <glyph glyph-name="sacute" unicode="&#x15b;" horiz-adv-x="516" 
d="M254 -10q-122 0 -207 58l-6 121h86q14 -58 45.5 -85.5t87.5 -27.5q39 0 62 14.5t23 42.5q0 29 -22.5 43.5t-90.5 29.5q-99 22 -145 65.5t-46 119.5q0 90 58.5 139.5t159.5 49.5q110 0 181 -47v-110h-83q-24 91 -106 91q-34 0 -52 -15.5t-18 -41.5q0 -27 21.5 -42
t87.5 -27q191 -36 191 -183q0 -93 -59.5 -144t-167.5 -51zM274 766h184l-155 -160h-97z" />
    <glyph glyph-name="Scircumflex" unicode="&#x15c;" horiz-adv-x="614" 
d="M295 -10q-73 0 -137.5 19t-104.5 48l-11 167h101q21 -86 60 -125.5t108 -39.5q48 0 77 22.5t29 65.5q0 38 -29.5 59.5t-110.5 43.5q-121 32 -174.5 84.5t-53.5 147.5q0 107 72 168.5t187 61.5q142 0 225 -60v-153h-86q-25 73 -56.5 109t-95.5 36q-47 0 -72.5 -23
t-25.5 -59q0 -44 30 -65.5t111 -41.5q120 -30 177 -83.5t57 -154.5q0 -112 -77 -169.5t-200 -57.5zM382 918l138 -169h-95l-111 80l-111 -80h-95l138 169h136z" />
    <glyph glyph-name="scircumflex" unicode="&#x15d;" horiz-adv-x="516" 
d="M254 -10q-122 0 -207 58l-6 121h86q14 -58 45.5 -85.5t87.5 -27.5q39 0 62 14.5t23 42.5q0 29 -22.5 43.5t-90.5 29.5q-99 22 -145 65.5t-46 119.5q0 90 58.5 139.5t159.5 49.5q110 0 181 -47v-110h-83q-24 91 -106 91q-34 0 -52 -15.5t-18 -41.5q0 -27 21.5 -42
t87.5 -27q191 -36 191 -183q0 -93 -59.5 -144t-167.5 -51zM326 766l138 -169h-95l-111 80l-111 -80h-95l138 169h136z" />
    <glyph glyph-name="Scedilla" unicode="&#x15e;" horiz-adv-x="614" 
d="M199 -233l-11 49q115 0 115 39q0 32 -85 36l41 101q-131 9 -206 65l-11 167h101q21 -86 60 -125.5t108 -39.5q48 0 77 22.5t29 65.5q0 38 -29.5 59.5t-110.5 43.5q-121 32 -174.5 84.5t-53.5 147.5q0 107 72 168.5t187 61.5q142 0 225 -60v-153h-86q-25 73 -56.5 109
t-95.5 36q-47 0 -72.5 -23t-25.5 -59q0 -44 30 -65.5t111 -41.5q120 -30 177 -83.5t57 -154.5q0 -109 -73 -166t-190 -61l-12 -34q97 -10 97 -78q0 -53 -57 -82t-138 -29z" />
    <glyph glyph-name="scedilla" unicode="&#x15f;" horiz-adv-x="516" 
d="M155 -233l-11 49q115 0 115 39q0 32 -85 36l41 101q-97 8 -168 56l-6 121h86q14 -58 45.5 -85.5t87.5 -27.5q39 0 62 14.5t23 42.5q0 29 -22.5 43.5t-90.5 29.5q-99 22 -145 65.5t-46 119.5q0 90 58.5 139.5t159.5 49.5q110 0 181 -47v-110h-83q-24 91 -106 91
q-34 0 -52 -15.5t-18 -41.5q0 -27 21.5 -42t87.5 -27q191 -36 191 -183q0 -91 -56.5 -141.5t-159.5 -53.5l-12 -34q97 -10 97 -78q0 -53 -57 -82t-138 -29z" />
    <glyph glyph-name="Scaron" unicode="&#x160;" horiz-adv-x="614" 
d="M295 -10q-73 0 -137.5 19t-104.5 48l-11 167h101q21 -86 60 -125.5t108 -39.5q48 0 77 22.5t29 65.5q0 38 -29.5 59.5t-110.5 43.5q-121 32 -174.5 84.5t-53.5 147.5q0 107 72 168.5t187 61.5q142 0 225 -60v-153h-86q-25 73 -56.5 109t-95.5 36q-47 0 -72.5 -23
t-25.5 -59q0 -44 30 -65.5t111 -41.5q120 -30 177 -83.5t57 -154.5q0 -112 -77 -169.5t-200 -57.5zM514 921l-138 -169h-136l-138 169h95l111 -80l111 80h95z" />
    <glyph glyph-name="scaron" unicode="&#x161;" horiz-adv-x="516" 
d="M254 -10q-122 0 -207 58l-6 121h86q14 -58 45.5 -85.5t87.5 -27.5q39 0 62 14.5t23 42.5q0 29 -22.5 43.5t-90.5 29.5q-99 22 -145 65.5t-46 119.5q0 90 58.5 139.5t159.5 49.5q110 0 181 -47v-110h-83q-24 91 -106 91q-34 0 -52 -15.5t-18 -41.5q0 -27 21.5 -42
t87.5 -27q191 -36 191 -183q0 -93 -59.5 -144t-167.5 -51zM459 775l-138 -169h-136l-138 169h95l111 -80l111 80h95z" />
    <glyph glyph-name="Tcedilla" unicode="&#x162;" horiz-adv-x="714" 
d="M30 702h654l15 -237h-79q-42 104 -63 131q-30 39 -82 39h-20v-498q0 -39 17 -52.5t67 -15.5v-69h-366v69q51 2 68.5 15.5t17.5 52.5v498h-21q-28 0 -47 -7.5t-37.5 -36t-26 -45t-30.5 -72.5q-3 -6 -4 -9h-78zM375 -158h-59q-50 13 -50 62q0 28 23 46t62 18
q45 0 71.5 -27.5t26.5 -70.5q0 -54 -42.5 -87t-134.5 -33v45q49 0 75 13t28 34z" />
    <glyph glyph-name="tcedilla" unicode="&#x163;" horiz-adv-x="422" 
d="M264 677v-127h133v-75h-133v-308q0 -69 62 -69q36 0 74 19l20 -51q-74 -76 -185 -76q-161 0 -161 159v326h-66v55q49 16 102.5 57t94.5 90h59zM232 -158h-59q-50 13 -50 62q0 28 23 46t62 18q45 0 71.5 -27.5t26.5 -70.5q0 -54 -42.5 -87t-134.5 -33v45q49 0 75 13t28 34
z" />
    <glyph glyph-name="Tcaron" unicode="&#x164;" horiz-adv-x="714" 
d="M30 702h654l15 -237h-79q-42 104 -63 131q-30 39 -82 39h-20v-498q0 -39 17 -52.5t67 -15.5v-69h-366v69q51 2 68.5 15.5t17.5 52.5v498h-21q-28 0 -47 -7.5t-37.5 -36t-26 -45t-30.5 -72.5q-3 -6 -4 -9h-78zM563 921l-138 -169h-136l-138 169h95l111 -80l111 80h95z" />
    <glyph glyph-name="tcaron" unicode="&#x165;" horiz-adv-x="422" 
d="M264 677v-127h133v-75h-133v-308q0 -69 62 -69q36 0 74 19l20 -51q-74 -76 -185 -76q-161 0 -161 159v326h-66v55q49 16 102.5 57t94.5 90h59zM483 822l-93 -205h-76l14 205h155z" />
    <glyph glyph-name="Tbar" unicode="&#x166;" horiz-adv-x="714" 
d="M30 702h654l15 -237h-79q-42 104 -63 131q-30 39 -82 39h-20v-234h99v-71h-99v-193q0 -39 17 -52.5t67 -15.5v-69h-366v69q51 2 68.5 15.5t17.5 52.5v193h-99v71h99v234h-21q-28 0 -47 -7.5t-37.5 -36t-26 -45t-30.5 -72.5q-3 -6 -4 -9h-78z" />
    <glyph glyph-name="tbar" unicode="&#x167;" horiz-adv-x="462" 
d="M284 677v-127h133v-75h-133v-95h133v-71h-133v-142q0 -69 62 -69q36 0 74 19l20 -51q-74 -76 -185 -76q-161 0 -161 159v160h-66v71h66v95h-66v55q49 16 102.5 57t94.5 90h59z" />
    <glyph glyph-name="Utilde" unicode="&#x168;" horiz-adv-x="775" 
d="M298 565v-297q0 -84 29.5 -128t101.5 -44q73 0 113 40t40 141v288q0 39 -18.5 52.5t-69.5 15.5v69h261v-69q-49 -2 -64 -15t-15 -53v-318q0 -126 -77.5 -191.5t-198.5 -65.5q-146 0 -224 65t-78 193v317q0 40 -14.5 53t-63.5 15v69h354v-69q-48 -2 -62 -15t-14 -53z
M564 901l60 -12q-39 -92 -67.5 -120.5t-73.5 -28.5q-30 0 -75 30t-61 30q-20 0 -33.5 -13.5t-31.5 -41.5l-60 12q39 92 67 120.5t74 28.5q36 0 78 -30t58 -30q19 0 33.5 14t31.5 41z" />
    <glyph glyph-name="utilde" unicode="&#x169;" horiz-adv-x="687" 
d="M413 -10v98q-77 -98 -188 -98q-69 0 -109 42.5t-40 127.5v231q0 51 -38 59l-15 5v57l207 48h35v-382q0 -76 61 -76q39 0 87 16v273q0 51 -38 59l-14 5v57l205 48h36v-415q0 -27 8 -40t29 -14h24v-69l-212 -32h-38zM485 773l60 -12q-39 -92 -67.5 -120.5t-73.5 -28.5
q-30 0 -75 30t-61 30q-20 0 -33.5 -13.5t-31.5 -41.5l-60 12q39 92 67 120.5t74 28.5q36 0 78 -30t58 -30q19 0 33.5 14t31.5 41z" />
    <glyph glyph-name="Umacron" unicode="&#x16a;" horiz-adv-x="775" 
d="M298 565v-297q0 -84 29.5 -128t101.5 -44q73 0 113 40t40 141v288q0 39 -18.5 52.5t-69.5 15.5v69h261v-69q-49 -2 -64 -15t-15 -53v-318q0 -126 -77.5 -191.5t-198.5 -65.5q-146 0 -224 65t-78 193v317q0 40 -14.5 53t-63.5 15v69h354v-69q-48 -2 -62 -15t-14 -53z
M264 758v106h318v-106h-318z" />
    <glyph glyph-name="umacron" unicode="&#x16b;" horiz-adv-x="687" 
d="M413 -10v98q-77 -98 -188 -98q-69 0 -109 42.5t-40 127.5v231q0 51 -38 59l-15 5v57l207 48h35v-382q0 -76 61 -76q39 0 87 16v273q0 51 -38 59l-14 5v57l205 48h36v-415q0 -27 8 -40t29 -14h24v-69l-212 -32h-38zM198 626v101h308v-101h-308z" />
    <glyph glyph-name="Ubreve" unicode="&#x16c;" horiz-adv-x="775" 
d="M298 565v-297q0 -84 29.5 -128t101.5 -44q73 0 113 40t40 141v288q0 39 -18.5 52.5t-69.5 15.5v69h261v-69q-49 -2 -64 -15t-15 -53v-318q0 -126 -77.5 -191.5t-198.5 -65.5q-146 0 -224 65t-78 193v317q0 40 -14.5 53t-63.5 15v69h354v-69q-48 -2 -62 -15t-14 -53z
M423 746q-75 0 -117 45t-42 125h70q11 -78 89 -78t89 78h70q0 -80 -42 -125t-117 -45z" />
    <glyph glyph-name="ubreve" unicode="&#x16d;" horiz-adv-x="687" 
d="M413 -10v98q-77 -98 -188 -98q-69 0 -109 42.5t-40 127.5v231q0 51 -38 59l-15 5v57l207 48h35v-382q0 -76 61 -76q39 0 87 16v273q0 51 -38 59l-14 5v57l205 48h36v-415q0 -27 8 -40t29 -14h24v-69l-212 -32h-38zM352 603q-75 0 -117 45t-42 125h70q11 -78 89 -78t89 78
h70q0 -80 -42 -125t-117 -45z" />
    <glyph glyph-name="Uring" unicode="&#x16e;" horiz-adv-x="775" 
d="M298 565v-297q0 -84 29.5 -128t101.5 -44q73 0 113 40t40 141v288q0 39 -18.5 52.5t-69.5 15.5v69h261v-69q-49 -2 -64 -15t-15 -53v-318q0 -126 -77.5 -191.5t-198.5 -65.5q-146 0 -224 65t-78 193v317q0 40 -14.5 53t-63.5 15v69h354v-69q-48 -2 -62 -15t-14 -53z
M310 840q0 43 32 72t81 29t81 -29t32 -72t-32 -72t-81 -29t-81 29t-32 72zM469 840q0 19 -12 31.5t-34 12.5t-34 -12.5t-12 -31.5t12 -31.5t34 -12.5t34 12.5t12 31.5z" />
    <glyph glyph-name="uring" unicode="&#x16f;" horiz-adv-x="687" 
d="M413 -10v98q-77 -98 -188 -98q-69 0 -109 42.5t-40 127.5v231q0 51 -38 59l-15 5v57l207 48h35v-382q0 -76 61 -76q39 0 87 16v273q0 51 -38 59l-14 5v57l205 48h36v-415q0 -27 8 -40t29 -14h24v-69l-212 -32h-38zM239 698q0 43 32 72t81 29t81 -29t32 -72t-32 -72
t-81 -29t-81 29t-32 72zM398 698q0 19 -12 31.5t-34 12.5t-34 -12.5t-12 -31.5t12 -31.5t34 -12.5t34 12.5t12 31.5z" />
    <glyph glyph-name="Uhungarumlaut" unicode="&#x170;" horiz-adv-x="775" 
d="M298 565v-297q0 -84 29.5 -128t101.5 -44q73 0 113 40t40 141v288q0 39 -18.5 52.5t-69.5 15.5v69h261v-69q-49 -2 -64 -15t-15 -53v-318q0 -126 -77.5 -191.5t-198.5 -65.5q-146 0 -224 65t-78 193v317q0 40 -14.5 53t-63.5 15v69h354v-69q-48 -2 -62 -15t-14 -53z
M344 909h158l-137 -158h-88zM539 909h158l-137 -158h-88z" />
    <glyph glyph-name="uhungarumlaut" unicode="&#x171;" horiz-adv-x="687" 
d="M413 -10v98q-77 -98 -188 -98q-69 0 -109 42.5t-40 127.5v231q0 51 -38 59l-15 5v57l207 48h35v-382q0 -76 61 -76q39 0 87 16v273q0 51 -38 59l-14 5v57l205 48h36v-415q0 -27 8 -40t29 -14h24v-69l-212 -32h-38zM249 766h158l-137 -160h-88zM444 766h158l-137 -160h-88
z" />
    <glyph glyph-name="Uogonek" unicode="&#x172;" horiz-adv-x="775" 
d="M528 43l13 -24q-93 -47 -93 -111q0 -41 43 -41q36 0 70 20l19 -28q-68 -75 -145 -75q-41 0 -68.5 23t-27.5 61q0 70 79 123q-6 -1 -18 -1q-146 0 -224 65t-78 193v317q0 40 -14.5 53t-63.5 15v69h354v-69q-48 -2 -62 -15t-14 -53v-297q0 -84 29.5 -128t101.5 -44
q73 0 113 40t40 141v288q0 39 -18.5 52.5t-69.5 15.5v69h261v-69q-49 -2 -64 -15t-15 -53v-318q0 -121 -72 -186t-186 -70q42 28 110 52z" />
    <glyph glyph-name="uogonek" unicode="&#x173;" horiz-adv-x="687" 
d="M663 22q-128 -25 -175 -52.5t-47 -61.5q0 -41 43 -41q36 0 70 20l19 -28q-67 -75 -145 -75q-41 0 -68.5 23t-27.5 61q0 66 81 119v101q-77 -98 -188 -98q-69 0 -109 42.5t-40 127.5v231q0 51 -38 59l-15 5v57l207 48h35v-382q0 -76 61 -76q39 0 87 16v273q0 51 -38 59
l-14 5v57l205 48h36v-415q0 -27 8 -40t29 -14h24v-69z" />
    <glyph glyph-name="Wcircumflex" unicode="&#x174;" horiz-adv-x="1031" 
d="M756 278l93 253q15 43 15 58q0 23 -13.5 32.5t-55.5 11.5v69h229v-69q-17 -3 -25.5 -5.5t-18.5 -10.5t-15 -21l-225 -600h-75l-138 385l-145 -385h-73l-245 600q-13 29 -57 37v69h338v-69q-32 -3 -45.5 -13t-13.5 -31q0 -17 13 -50l104 -268l84 221l-35 104
q-12 30 -50 37v69h328v-69q-43 -2 -56 -11.5t-13 -32.5q0 -20 14 -62zM625 918l138 -169h-95l-111 80l-111 -80h-95l138 169h136z" />
    <glyph glyph-name="wcircumflex" unicode="&#x175;" horiz-adv-x="900" 
d="M674 242l69 173q7 18 7 33q0 17 -11 24.5t-35 11.5v66h191v-66q-28 -10 -39 -17t-17 -23l-186 -448h-61l-130 315l-140 -315h-60l-201 448q-7 16 -18 23.5t-38 16.5v66h307v-66q-38 -7 -38 -33q0 -12 10 -37l70 -178l70 162l-18 46q-7 18 -16.5 27t-27.5 13v66h286v-66
q-27 -4 -36.5 -11t-9.5 -23q0 -13 8 -35zM558 766l138 -169h-95l-111 80l-111 -80h-95l138 169h136z" />
    <glyph glyph-name="Ycircumflex" unicode="&#x176;" horiz-adv-x="711" 
d="M413 343l104 190q24 43 24 61q0 20 -16 28.5t-51 10.5v69h230v-69q-23 -4 -35.5 -11.5t-22.5 -25.5l-189 -340v-119q0 -39 17 -52.5t68 -15.5v-69h-366v69q50 2 67.5 15.5t17.5 52.5v120l-197 339q-11 19 -23 26t-34 11v69h346v-69q-38 -1 -51.5 -9.5t-13.5 -29.5
q0 -18 23 -61zM455 918l138 -169h-95l-111 80l-111 -80h-95l138 169h136z" />
    <glyph glyph-name="ycircumflex" unicode="&#x177;" horiz-adv-x="622" 
d="M275 -2l-214 446q-7 15 -18 23t-38 17v66h336v-66q-41 -6 -54.5 -12.5t-13.5 -23.5q0 -12 11 -39l84 -204l86 205q11 27 11 38q0 17 -13 24t-53 12v66h218v-66q-27 -9 -38 -16.5t-18 -23.5l-231 -517q-32 -71 -68.5 -103t-88.5 -32q-61 0 -86 39v95h60q57 0 80.5 10.5
t42.5 51.5zM425 766l138 -169h-95l-111 80l-111 -80h-95l138 169h136z" />
    <glyph glyph-name="Ydieresis" unicode="&#x178;" horiz-adv-x="711" 
d="M413 343l104 190q24 43 24 61q0 20 -16 28.5t-51 10.5v69h230v-69q-23 -4 -35.5 -11.5t-22.5 -25.5l-189 -340v-119q0 -39 17 -52.5t68 -15.5v-69h-366v69q50 2 67.5 15.5t17.5 52.5v120l-197 339q-11 19 -23 26t-34 11v69h346v-69q-38 -1 -51.5 -9.5t-13.5 -29.5
q0 -18 23 -61zM188 831q0 36 26 62t63 26t63.5 -26t26.5 -62t-26.5 -62t-63.5 -26t-63 26t-26 62zM408 831q0 36 26.5 62t61.5 26q38 0 64.5 -26t26.5 -62t-26.5 -62t-64.5 -26q-35 0 -61.5 26t-26.5 62z" />
    <glyph glyph-name="Zacute" unicode="&#x179;" horiz-adv-x="649" 
d="M257 72h128q54 0 83 28t86 134h76l-35 -234h-573v48l359 581h-121q-17 0 -30.5 -2.5t-24.5 -10.5t-18 -14t-16 -21t-13.5 -24.5t-14.5 -31t-16 -33.5h-71v210h557v-49zM358 909h185l-156 -158h-101z" />
    <glyph glyph-name="zacute" unicode="&#x17a;" horiz-adv-x="575" 
d="M26 0v47l280 435h-84q-39 0 -58 -26t-54 -113h-69v207h488v-50l-272 -431h77q47 0 71.5 26t66.5 113h70l-23 -208h-493zM307 766h184l-155 -160h-97z" />
    <glyph glyph-name="Zdotaccent" unicode="&#x17b;" horiz-adv-x="649" 
d="M257 72h128q54 0 83 28t86 134h76l-35 -234h-573v48l359 581h-121q-17 0 -30.5 -2.5t-24.5 -10.5t-18 -14t-16 -21t-13.5 -24.5t-14.5 -31t-16 -33.5h-71v210h557v-49zM343 743q-47 0 -75 27.5t-28 67.5t28 67.5t75 27.5q46 0 74 -27.5t28 -67.5t-28 -67.5t-74 -27.5z
" />
    <glyph glyph-name="zdotaccent" unicode="&#x17c;" horiz-adv-x="575" 
d="M26 0v47l280 435h-84q-39 0 -58 -26t-54 -113h-69v207h488v-50l-272 -431h77q47 0 71.5 26t66.5 113h70l-23 -208h-493zM295 598q-47 0 -75 27.5t-28 67.5t28 67.5t75 27.5q46 0 74 -27.5t28 -67.5t-28 -67.5t-74 -27.5z" />
    <glyph glyph-name="Zcaron" unicode="&#x17d;" horiz-adv-x="649" 
d="M257 72h128q54 0 83 28t86 134h76l-35 -234h-573v48l359 581h-121q-17 0 -30.5 -2.5t-24.5 -10.5t-18 -14t-16 -21t-13.5 -24.5t-14.5 -31t-16 -33.5h-71v210h557v-49zM548 921l-138 -169h-136l-138 169h95l111 -80l111 80h95z" />
    <glyph glyph-name="zcaron" unicode="&#x17e;" horiz-adv-x="575" 
d="M26 0v47l280 435h-84q-39 0 -58 -26t-54 -113h-69v207h488v-50l-272 -431h77q47 0 71.5 26t66.5 113h70l-23 -208h-493zM500 775l-138 -169h-136l-138 169h95l111 -80l111 80h95z" />
    <glyph glyph-name="florin" unicode="&#x192;" horiz-adv-x="560" 
d="M45 289l8 62h93l5 42q18 161 80.5 240t179.5 79q62 0 105.5 -22t43.5 -71q0 -52 -47 -67h-64q0 26 -1 42.5t-5 33.5t-12.5 25.5t-21.5 8.5q-35 0 -41 -58l-28 -253h111l-5 -62h-112l-16 -145q-18 -161 -80.5 -240t-179.5 -79q-62 0 -105.5 22t-43.5 71q0 52 47 67h64
q0 -26 1 -42.5t5 -33.5t12.5 -25.5t21.5 -8.5q35 0 41 58l38 356h-94z" />
    <glyph glyph-name="Aringacute" unicode="&#x1fa;" horiz-adv-x="758" 
d="M463 153l-24 60h-244l-23 -60q-9 -27 -9 -40q0 -24 13 -33t57 -11v-69h-226v69q24 4 36.5 11.5t20.5 25.5l205 517l-35 80h205l254 -597q8 -18 21 -25.5t37 -11.5v-69h-347v69q43 2 56.5 11t13.5 33q0 16 -11 40zM231 824q0 41 33 65.5t85 24.5t85 -24.5t33 -65.5
t-33 -65.5t-85 -24.5t-85 24.5t-33 65.5zM315 522l-93 -240h189zM351 1061h185l-139 -120h-91zM401 824q0 39 -52 39t-52 -39t52 -39t52 39z" />
    <glyph glyph-name="aringacute" unicode="&#x1fb;" horiz-adv-x="591" 
d="M170 671q0 41 33 65.5t85 24.5t85 -24.5t33 -65.5t-33 -65.5t-85 -24.5t-85 24.5t-33 65.5zM340 671q0 39 -52 39t-52 -39t52 -39t52 39zM290 908h185l-139 -120h-91zM279 102q25 0 45 13v165l-59 -24q-26 -11 -37.5 -28t-11.5 -47q0 -36 16.5 -57.5t46.5 -21.5zM510 342
q0 -2 -0.5 -97t-0.5 -98q0 -26 6 -39t24 -13q21 0 42 6l9 -51q-64 -60 -146 -60q-85 0 -117 91q-63 -87 -158 -87q-64 0 -102.5 38t-38.5 103q0 60 35.5 91.5t99.5 53.5l161 56v62q0 57 -12.5 79t-43.5 22q-51 0 -51 -62q0 -38 9 -69l-120 -18q-43 15 -43 70q0 70 60.5 105
t161.5 35q115 0 170 -47.5t55 -170.5z" />
    <glyph glyph-name="AEacute" unicode="&#x1fc;" horiz-adv-x="1057" 
d="M64 106l139 204v2h1l191 281q-8 21 -26 29.5t-61 10.5v69h688v-192h-78q-26 67 -53 94.5t-83 27.5h-97v-234h74q33 0 49 16.5t23 61.5h66v-229h-66q-7 45 -23 61.5t-49 16.5h-74v-188q0 -39 19 -53t61 -14h25q50 0 82.5 28.5t83.5 109.5h76l-31 -208h-593v69
q50 2 64.5 15t14.5 53v106h-233l-48 -71q-24 -35 -24 -60q0 -24 14 -32.5t58 -10.5v-69h-247v69q20 4 32 11.5t25 25.5zM487 586l-186 -274h186v274zM633 909h185l-156 -158h-101z" />
    <glyph glyph-name="aeacute" unicode="&#x1fd;" horiz-adv-x="858" 
d="M603 560q104 0 162 -65t58 -164v-39h-327q0 -72 42.5 -115.5t109.5 -43.5q91 0 144 68l33 -22q-20 -88 -81 -138.5t-155 -50.5q-71 0 -126.5 29t-88.5 83q-70 -108 -195 -108q-68 0 -109.5 39.5t-41.5 101.5q0 61 37.5 94.5t104.5 52.5l170 47l3 11q-2 84 -20 121.5
t-55 37.5q-51 0 -51 -62q0 -38 9 -69l-120 -18q-43 15 -43 70q0 69 58 104.5t151 35.5q119 0 164 -60q71 60 167 60zM461 766h184l-155 -160h-97zM586 491q-75 0 -88 -139h164q-2 139 -76 139zM334 257v14l-67 -19q-51 -15 -51 -79q0 -30 17 -50.5t46 -20.5q42 0 80 27
q-25 56 -25 128z" />
    <glyph glyph-name="Oslashacute" unicode="&#x1fe;" horiz-adv-x="770" 
d="M642 728l-44 -77q66 -47 101 -122t35 -164q0 -170 -101 -272.5t-257 -102.5q-72 0 -139 25l-48 -84l-61 32l48 85q-68 46 -104 122.5t-36 166.5q0 170 101 272.5t257 102.5q79 0 144 -28l43 76zM242 367q0 -103 18 -171l218 384q-38 58 -105 58q-66 0 -98.5 -75.5
t-32.5 -195.5zM397 64q66 0 98.5 75.5t32.5 195.5q0 96 -17 164l-217 -382q37 -53 103 -53zM401 909h185l-156 -158h-101z" />
    <glyph glyph-name="oslashacute" unicode="&#x1ff;" horiz-adv-x="637" 
d="M534 585l-43 -73q54 -37 84 -96t30 -131q0 -134 -83 -214.5t-212 -80.5q-64 0 -117 22l-54 -90l-49 26l54 91q-53 37 -82.5 96t-29.5 131q0 133 82.5 213.5t211.5 80.5q61 0 116 -22l43 73zM328 61q40 0 64 51.5t24 132.5q0 76 -10 126l-155 -261q28 -49 77 -49zM220 305
q0 -73 9 -124l155 260q-28 49 -75 49q-41 0 -65 -51.5t-24 -133.5zM331 766h184l-155 -160h-97z" />
    <glyph glyph-name="Scommaaccent" unicode="&#x218;" horiz-adv-x="614" 
d="M295 -10q-73 0 -137.5 19t-104.5 48l-11 167h101q21 -86 60 -125.5t108 -39.5q48 0 77 22.5t29 65.5q0 38 -29.5 59.5t-110.5 43.5q-121 32 -174.5 84.5t-53.5 147.5q0 107 72 168.5t187 61.5q142 0 225 -60v-153h-86q-25 73 -56.5 109t-95.5 36q-47 0 -72.5 -23
t-25.5 -59q0 -44 30 -65.5t111 -41.5q120 -30 177 -83.5t57 -154.5q0 -112 -77 -169.5t-200 -57.5zM331 -158h-59q-50 13 -50 62q0 28 23 46t62 18q45 0 71.5 -27.5t26.5 -70.5q0 -54 -42.5 -87t-134.5 -33v45q49 0 75 13t28 34z" />
    <glyph glyph-name="scommaaccent" unicode="&#x219;" horiz-adv-x="516" 
d="M254 -10q-122 0 -207 58l-6 121h86q14 -58 45.5 -85.5t87.5 -27.5q39 0 62 14.5t23 42.5q0 29 -22.5 43.5t-90.5 29.5q-99 22 -145 65.5t-46 119.5q0 90 58.5 139.5t159.5 49.5q110 0 181 -47v-110h-83q-24 91 -106 91q-34 0 -52 -15.5t-18 -41.5q0 -27 21.5 -42
t87.5 -27q191 -36 191 -183q0 -93 -59.5 -144t-167.5 -51zM279 -158h-59q-50 13 -50 62q0 28 23 46t62 18q45 0 71.5 -27.5t26.5 -70.5q0 -54 -42.5 -87t-134.5 -33v45q49 0 75 13t28 34z" />
    <glyph glyph-name="uni0237" unicode="&#x237;" horiz-adv-x="323" 
d="M262 561v-429q0 -80 -18 -129t-54 -90q-72 -81 -155 -122l-36 34l41 69q22 37 27.5 80t5.5 115v330l-55 60v31l211 51h33z" />
    <glyph glyph-name="circumflex" unicode="&#x2c6;" horiz-adv-x="500" 
d="M318 766l138 -169h-95l-111 80l-111 -80h-95l138 169h136z" />
    <glyph glyph-name="caron" unicode="&#x2c7;" horiz-adv-x="500" 
d="M456 775l-138 -169h-136l-138 169h95l111 -80l111 80h95z" />
    <glyph glyph-name="breve" unicode="&#x2d8;" horiz-adv-x="500" 
d="M258 603q-75 0 -117 45t-42 125h70q11 -78 89 -78t89 78h70q0 -80 -42 -125t-117 -45z" />
    <glyph glyph-name="dotaccent" unicode="&#x2d9;" horiz-adv-x="500" 
d="M251 598q-47 0 -75 27.5t-28 67.5t28 67.5t75 27.5q46 0 74 -27.5t28 -67.5t-28 -67.5t-74 -27.5z" />
    <glyph glyph-name="ring" unicode="&#x2da;" horiz-adv-x="500" 
d="M148 698q0 43 32 72t81 29t81 -29t32 -72t-32 -72t-81 -29t-81 29t-32 72zM307 698q0 19 -12 31.5t-34 12.5t-34 -12.5t-12 -31.5t12 -31.5t34 -12.5t34 12.5t12 31.5z" />
    <glyph glyph-name="ogonek" unicode="&#x2db;" horiz-adv-x="500" 
d="M325 43l13 -24q-93 -47 -93 -111q0 -41 43 -41q36 0 70 20l19 -28q-67 -75 -145 -75q-41 0 -68.5 23t-27.5 61q0 106 189 175z" />
    <glyph glyph-name="tilde" unicode="&#x2dc;" horiz-adv-x="500" 
d="M391 773l60 -12q-39 -92 -67.5 -120.5t-73.5 -28.5q-30 0 -75 30t-61 30q-20 0 -33.5 -13.5t-31.5 -41.5l-60 12q39 92 67 120.5t74 28.5q36 0 78 -30t58 -30q19 0 33.5 14t31.5 41z" />
    <glyph glyph-name="hungarumlaut" unicode="&#x2dd;" horiz-adv-x="500" 
d="M112 766h158l-137 -160h-88zM307 766h158l-137 -160h-88z" />
    <glyph glyph-name="pi" unicode="&#x3c0;" horiz-adv-x="690" 
d="M369 157v265h-87q0 -149 -8.5 -235t-31.5 -187h-191v47q26 46 40 73.5t32.5 75.5t26.5 103.5t8 122.5h-108v128h590l-17 -128h-80v-275q0 -23 11.5 -37.5t30.5 -14.5q21 0 42 6l9 -51q-64 -60 -146 -60q-64 0 -92.5 40t-28.5 127z" />
    <glyph glyph-name="Wgrave" unicode="&#x1e80;" horiz-adv-x="1031" 
d="M756 278l93 253q15 43 15 58q0 23 -13.5 32.5t-55.5 11.5v69h229v-69q-17 -3 -25.5 -5.5t-18.5 -10.5t-15 -21l-225 -600h-75l-138 385l-145 -385h-73l-245 600q-13 29 -57 37v69h338v-69q-32 -3 -45.5 -13t-13.5 -31q0 -17 13 -50l104 -268l84 221l-35 104
q-12 30 -50 37v69h328v-69q-43 -2 -56 -11.5t-13 -32.5q0 -20 14 -62zM365 909h185l72 -158h-101z" />
    <glyph glyph-name="wgrave" unicode="&#x1e81;" horiz-adv-x="900" 
d="M674 242l69 173q7 18 7 33q0 17 -11 24.5t-35 11.5v66h191v-66q-28 -10 -39 -17t-17 -23l-186 -448h-61l-130 315l-140 -315h-60l-201 448q-7 16 -18 23.5t-38 16.5v66h307v-66q-38 -7 -38 -33q0 -12 10 -37l70 -178l70 162l-18 46q-7 18 -16.5 27t-27.5 13v66h286v-66
q-27 -4 -36.5 -11t-9.5 -23q0 -13 8 -35zM292 766h184l67 -160h-96z" />
    <glyph glyph-name="Wacute" unicode="&#x1e82;" horiz-adv-x="1031" 
d="M756 278l93 253q15 43 15 58q0 23 -13.5 32.5t-55.5 11.5v69h229v-69q-17 -3 -25.5 -5.5t-18.5 -10.5t-15 -21l-225 -600h-75l-138 385l-145 -385h-73l-245 600q-13 29 -57 37v69h338v-69q-32 -3 -45.5 -13t-13.5 -31q0 -17 13 -50l104 -268l84 221l-35 104
q-12 30 -50 37v69h328v-69q-43 -2 -56 -11.5t-13 -32.5q0 -20 14 -62zM573 909h185l-156 -158h-101z" />
    <glyph glyph-name="wacute" unicode="&#x1e83;" horiz-adv-x="900" 
d="M674 242l69 173q7 18 7 33q0 17 -11 24.5t-35 11.5v66h191v-66q-28 -10 -39 -17t-17 -23l-186 -448h-61l-130 315l-140 -315h-60l-201 448q-7 16 -18 23.5t-38 16.5v66h307v-66q-38 -7 -38 -33q0 -12 10 -37l70 -178l70 162l-18 46q-7 18 -16.5 27t-27.5 13v66h286v-66
q-27 -4 -36.5 -11t-9.5 -23q0 -13 8 -35zM503 766h184l-155 -160h-97z" />
    <glyph glyph-name="Wdieresis" unicode="&#x1e84;" horiz-adv-x="1031" 
d="M756 278l93 253q15 43 15 58q0 23 -13.5 32.5t-55.5 11.5v69h229v-69q-17 -3 -25.5 -5.5t-18.5 -10.5t-15 -21l-225 -600h-75l-138 385l-145 -385h-73l-245 600q-13 29 -57 37v69h338v-69q-32 -3 -45.5 -13t-13.5 -31q0 -17 13 -50l104 -268l84 221l-35 104
q-12 30 -50 37v69h328v-69q-43 -2 -56 -11.5t-13 -32.5q0 -20 14 -62zM358 831q0 36 26 62t63 26t63.5 -26t26.5 -62t-26.5 -62t-63.5 -26t-63 26t-26 62zM578 831q0 36 26.5 62t61.5 26q38 0 64.5 -26t26.5 -62t-26.5 -62t-64.5 -26q-35 0 -61.5 26t-26.5 62z" />
    <glyph glyph-name="wdieresis" unicode="&#x1e85;" horiz-adv-x="900" 
d="M674 242l69 173q7 18 7 33q0 17 -11 24.5t-35 11.5v66h191v-66q-28 -10 -39 -17t-17 -23l-186 -448h-61l-130 315l-140 -315h-60l-201 448q-7 16 -18 23.5t-38 16.5v66h307v-66q-38 -7 -38 -33q0 -12 10 -37l70 -178l70 162l-18 46q-7 18 -16.5 27t-27.5 13v66h286v-66
q-27 -4 -36.5 -11t-9.5 -23q0 -13 8 -35zM291 691q0 36 26 62t63 26t63.5 -26t26.5 -62t-26.5 -62t-63.5 -26t-63 26t-26 62zM511 691q0 36 26.5 62t61.5 26q38 0 64.5 -26t26.5 -62t-26.5 -62t-64.5 -26q-35 0 -61.5 26t-26.5 62z" />
    <glyph glyph-name="Ygrave" unicode="&#x1ef2;" horiz-adv-x="711" 
d="M413 343l104 190q24 43 24 61q0 20 -16 28.5t-51 10.5v69h230v-69q-23 -4 -35.5 -11.5t-22.5 -25.5l-189 -340v-119q0 -39 17 -52.5t68 -15.5v-69h-366v69q50 2 67.5 15.5t17.5 52.5v120l-197 339q-11 19 -23 26t-34 11v69h346v-69q-38 -1 -51.5 -9.5t-13.5 -29.5
q0 -18 23 -61zM195 909h185l72 -158h-101z" />
    <glyph glyph-name="ygrave" unicode="&#x1ef3;" horiz-adv-x="622" 
d="M275 -2l-214 446q-7 15 -18 23t-38 17v66h336v-66q-41 -6 -54.5 -12.5t-13.5 -23.5q0 -12 11 -39l84 -204l86 205q11 27 11 38q0 17 -13 24t-53 12v66h218v-66q-27 -9 -38 -16.5t-18 -23.5l-231 -517q-32 -71 -68.5 -103t-88.5 -32q-61 0 -86 39v95h60q57 0 80.5 10.5
t42.5 51.5zM159 766h184l67 -160h-96z" />
    <glyph glyph-name="endash" unicode="&#x2013;" horiz-adv-x="580" 
d="M530 262h-480v86h480v-86z" />
    <glyph glyph-name="emdash" unicode="&#x2014;" horiz-adv-x="1000" 
d="M950 348v-86h-900v86h900z" />
    <glyph glyph-name="quoteleft" unicode="&#x2018;" horiz-adv-x="320" 
d="M160 640h43q67 -14 67 -91q0 -39 -25.5 -65t-70.5 -26q-51 0 -80 32.5t-29 94.5q0 87 52.5 134.5t156.5 50.5v-59q-54 -5 -80.5 -20.5t-33.5 -50.5z" />
    <glyph glyph-name="quoteright" unicode="&#x2019;" horiz-adv-x="320" 
d="M170 588h-43q-67 14 -67 91q0 39 25.5 65t70.5 26q51 0 80 -32.5t29 -94.5q0 -87 -52.5 -134.5t-156.5 -50.5v59q54 5 80.5 20.5t33.5 50.5z" />
    <glyph glyph-name="quotesinglbase" unicode="&#x201a;" horiz-adv-x="320" 
d="M170 9h-43q-67 14 -67 91q0 39 25.5 65t70.5 26q51 0 80 -32.5t29 -94.5q0 -87 -52.5 -134.5t-156.5 -50.5v59q54 5 80.5 20.5t33.5 50.5z" />
    <glyph glyph-name="quotedblleft" unicode="&#x201c;" horiz-adv-x="577" 
d="M160 640h43q67 -14 67 -91q0 -39 -25.5 -65t-70.5 -26q-51 0 -80 32.5t-29 94.5q0 87 52.5 134.5t156.5 50.5v-59q-54 -5 -80.5 -20.5t-33.5 -50.5zM417 640h43q67 -14 67 -91q0 -39 -25.5 -65t-70.5 -26q-51 0 -80 32.5t-29 94.5q0 87 52.5 134.5t156.5 50.5v-59
q-54 -5 -80.5 -20.5t-33.5 -50.5z" />
    <glyph glyph-name="quotedblright" unicode="&#x201d;" horiz-adv-x="577" 
d="M427 588h-43q-67 14 -67 91q0 39 25.5 65t70.5 26q51 0 80 -32.5t29 -94.5q0 -87 -52.5 -134.5t-156.5 -50.5v59q54 5 80.5 20.5t33.5 50.5zM170 588h-43q-67 14 -67 91q0 39 25.5 65t70.5 26q51 0 80 -32.5t29 -94.5q0 -87 -52.5 -134.5t-156.5 -50.5v59q54 5 80.5 20.5
t33.5 50.5z" />
    <glyph glyph-name="quotedblbase" unicode="&#x201e;" horiz-adv-x="577" 
d="M427 9h-43q-67 14 -67 91q0 39 25.5 65t70.5 26q51 0 80 -32.5t29 -94.5q0 -87 -52.5 -134.5t-156.5 -50.5v59q54 5 80.5 20.5t33.5 50.5zM170 9h-43q-67 14 -67 91q0 39 25.5 65t70.5 26q51 0 80 -32.5t29 -94.5q0 -87 -52.5 -134.5t-156.5 -50.5v59q54 5 80.5 20.5
t33.5 50.5z" />
    <glyph glyph-name="dagger" unicode="&#x2020;" horiz-adv-x="502" 
d="M45 605l175 -22l-22 175h105l-23 -175l177 22v-101l-177 21l23 -303h-105l23 303l-176 -21v101z" />
    <glyph glyph-name="daggerdbl" unicode="&#x2021;" horiz-adv-x="502" 
d="M221 552l-176 -21v101l175 -22l-22 148h105l-23 -148l177 22v-101l-177 21v-124l177 21v-101l-177 22l23 -148h-105l22 148l-175 -22v101l176 -21v124z" />
    <glyph glyph-name="bullet" unicode="&#x2022;" horiz-adv-x="422" 
d="M50 309q0 68 47.5 116.5t113.5 48.5q67 0 114 -48.5t47 -116.5q0 -67 -47.5 -115.5t-113.5 -48.5t-113.5 48.5t-47.5 115.5z" />
    <glyph glyph-name="ellipsis" unicode="&#x2026;" horiz-adv-x="915" 
d="M45 97q0 47 31 77.5t76 30.5q46 0 77 -30.5t31 -77.5t-31 -77t-77 -30q-45 0 -76 30t-31 77zM350 97q0 47 31 77.5t76 30.5q46 0 77 -30.5t31 -77.5t-31 -77t-77 -30q-45 0 -76 30t-31 77zM655 97q0 47 31 77.5t76 30.5q46 0 77 -30.5t31 -77.5t-31 -77t-77 -30
q-45 0 -76 30t-31 77z" />
    <glyph glyph-name="perthousand" unicode="&#x2030;" horiz-adv-x="1340" 
d="M164 523q0 -63 15.5 -101.5t44.5 -38.5q28 0 43.5 38.5t15.5 101.5q0 64 -15.5 102.5t-43.5 38.5q-29 0 -44.5 -38.5t-15.5 -102.5zM202 -19l448 741h78l-450 -741h-76zM35 523q0 90 54.5 139.5t134.5 49.5q79 0 133.5 -49.5t54.5 -139.5q0 -89 -54.5 -138.5
t-133.5 -49.5q-80 0 -134.5 49.5t-54.5 138.5zM766 179q0 63 -15.5 101.5t-44.5 38.5q-28 0 -43.5 -38.5t-15.5 -101.5q0 -64 15.5 -102.5t43.5 -38.5q29 0 44.5 38.5t15.5 102.5zM895 179q0 -90 -54.5 -139.5t-134.5 -49.5q-79 0 -133.5 49.5t-54.5 139.5q0 89 54.5 138.5
t133.5 49.5q80 0 134.5 -49.5t54.5 -138.5zM1176 179q0 63 -15.5 101.5t-44.5 38.5q-28 0 -43.5 -38.5t-15.5 -101.5q0 -64 15.5 -102.5t43.5 -38.5q29 0 44.5 38.5t15.5 102.5zM1305 179q0 -90 -54.5 -139.5t-134.5 -49.5q-79 0 -133.5 49.5t-54.5 139.5q0 89 54.5 138.5
t133.5 49.5q80 0 134.5 -49.5t54.5 -138.5z" />
    <glyph glyph-name="guilsinglleft" unicode="&#x2039;" horiz-adv-x="338" 
d="M35 271v10l181 200h87l-113 -205l113 -205h-87z" />
    <glyph glyph-name="guilsinglright" unicode="&#x203a;" horiz-adv-x="338" 
d="M303 281v-10l-179 -200h-89l114 205l-114 205h89z" />
    <glyph glyph-name="fraction" unicode="&#x2044;" horiz-adv-x="283" 
d="M-160 0l517 780h86l-517 -780h-86z" />
    <glyph glyph-name="Euro" unicode="&#x20ac;" horiz-adv-x="713" 
d="M28 383v58h95q28 124 117.5 197.5t211.5 73.5q134 0 205 -67v-162h-90q-18 81 -44.5 118t-80.5 37q-112 0 -132 -197h203l-8 -58h-198v-17q0 -32 1 -47h190l-8 -59h-177q26 -191 137 -191q55 0 90 39t58 129h86l-13 -192q-80 -55 -228 -55q-133 0 -218.5 72t-106.5 198
h-90v59h84v18q0 31 2 46h-86z" />
    <glyph glyph-name="uni2117" unicode="&#x2117;" horiz-adv-x="796" 
d="M446 304h-52v-67q0 -23 10.5 -30t46.5 -8v-45h-216v45q28 1 34.5 8t6.5 30v233q0 23 -6.5 29t-34.5 7v45h209q78 0 118.5 -35.5t40.5 -85.5q0 -59 -40 -92.5t-117 -33.5zM394 503v-156h15q79 0 79 81q0 75 -79 75h-15zM82 351q0 -135 89.5 -228.5t226.5 -93.5t226.5 93.5
t89.5 228.5t-89.5 228.5t-226.5 93.5t-226.5 -93.5t-89.5 -228.5zM40 351q0 151 101.5 256t256.5 105t256.5 -105t101.5 -256t-101.5 -256t-256.5 -105t-256.5 105t-101.5 256z" />
    <glyph glyph-name="trademark" unicode="&#x2122;" horiz-adv-x="957" 
d="M50 702h327l6 -120h-36q-21 47 -35 64.5t-42 17.5h-8v-236q0 -20 9 -26.5t34 -8.5v-34h-183v34q25 2 33.5 8.5t8.5 26.5v236h-7q-29 0 -43 -17t-35 -65h-36zM638 501l49 162q8 20 8 39h154v-38q-24 0 -33 -7.5t-9 -28.5l31 -203q3 -18 11.5 -24t30.5 -8v-34h-187v34
q28 2 38 8t10 25q0 13 -4 37l-23 140l-82 -244h-44l-84 244l-21 -140q-4 -24 -4 -37q0 -19 10 -25t38 -8v-34h-140v34q23 2 31.5 7.5t11.5 24.5l31 203q0 20 -8.5 28t-31.5 8v38h152q2 -21 8 -39z" />
    <glyph glyph-name="Omega" unicode="&#x2126;" horiz-adv-x="756" 
d="M378 639q-62 0 -94.5 -68t-32.5 -171q0 -70 16.5 -133.5t33.5 -98t45 -78.5v-90h-271l-25 198h41q34 -61 55 -74.5t87 -13.5h53q-86 26 -153.5 107.5t-67.5 182.5q0 133 85.5 222.5t227.5 89.5t227.5 -89.5t85.5 -222.5q0 -101 -67.5 -182.5t-153.5 -107.5h53
q66 0 87 13.5t55 74.5h41l-25 -198h-271v90q28 44 45 78.5t33.5 98t16.5 133.5q0 103 -32.5 171t-94.5 68z" />
    <glyph glyph-name="uni2153" unicode="&#x2153;" horiz-adv-x="947" 
d="M228 748h50v-363q0 -28 12.5 -35.5t60.5 -10.5v-52h-296v52q54 3 64.5 9.5t10.5 36.5v218h-75v48l28 6q56 12 85.5 32t59.5 59zM230 0l449 741h77l-450 -741h-76zM757 182q60 -1 97.5 -32.5t37.5 -83.5q0 -69 -55.5 -106t-141.5 -37q-81 0 -122.5 26.5t-41.5 68.5
q0 38 32 53h87v-25q0 -78 51 -78q50 0 50 71q0 92 -81 92h-18l-10 30q47 19 65.5 37t18.5 43q0 21 -14.5 34.5t-40.5 13.5q-49 0 -84 -45l-36 25q23 53 71 86.5t115 33.5q60 0 96 -28.5t36 -78.5q0 -42 -31 -67.5t-81 -32.5z" />
    <glyph glyph-name="uni2154" unicode="&#x2154;" horiz-adv-x="986" 
d="M173 395h110q29 0 41 8t36 42h41l-13 -158h-363v47l126 110q47 41 68 71t21 67q0 31 -18 48.5t-51 17.5q-53 0 -96 -53l-34 35q26 50 78 84t120 34q65 0 104.5 -35t39.5 -96q0 -35 -16.5 -67t-51 -60.5t-64.5 -48t-78 -46.5zM269 0l449 741h77l-450 -741h-76zM796 182
q60 -1 97.5 -32.5t37.5 -83.5q0 -69 -55.5 -106t-141.5 -37q-81 0 -122.5 26.5t-41.5 68.5q0 38 32 53h87v-25q0 -78 51 -78q50 0 50 71q0 92 -81 92h-18l-10 30q47 19 65.5 37t18.5 43q0 21 -14.5 34.5t-40.5 13.5q-49 0 -84 -45l-36 25q23 53 71 86.5t115 33.5
q60 0 96 -28.5t36 -78.5q0 -42 -31 -67.5t-81 -32.5z" />
    <glyph glyph-name="uni215B" unicode="&#x215b;" horiz-adv-x="990" 
d="M917 287q0 -37 -29 -61.5t-73 -30.5q120 -45 120 -127q0 -72 -54 -108.5t-134 -36.5q-81 0 -137 28.5t-56 80.5q0 37 29 62.5t73 33.5q-88 44 -88 119q0 66 49.5 104.5t129.5 38.5q78 0 124 -28.5t46 -74.5zM767 81l-88 34q-19 -25 -19 -66q0 -36 24.5 -55.5t63.5 -19.5
q32 0 51.5 14t19.5 37q0 21 -12.5 33t-39.5 23zM731 226l57 -20q23 23 23 64q0 69 -65 69q-28 0 -45.5 -16.5t-17.5 -38.5q0 -40 48 -58zM228 748h50v-363q0 -28 12.5 -35.5t60.5 -10.5v-52h-296v52q54 3 64.5 9.5t10.5 36.5v218h-75v48l28 6q56 12 85.5 32t59.5 59zM230 0
l449 741h77l-450 -741h-76z" />
    <glyph glyph-name="uni215C" unicode="&#x215c;" horiz-adv-x="1007" 
d="M261 537q60 -1 97.5 -32.5t37.5 -83.5q0 -69 -55.5 -106t-141.5 -37q-81 0 -122.5 26.5t-41.5 68.5q0 38 32 53h87v-25q0 -78 51 -78q50 0 50 71q0 92 -81 92h-18l-10 30q47 19 65.5 37t18.5 43q0 21 -14.5 34.5t-40.5 13.5q-49 0 -84 -45l-36 25q23 53 71 86.5t115 33.5
q60 0 96 -28.5t36 -78.5q0 -42 -31 -67.5t-81 -32.5zM934 287q0 -37 -29 -61.5t-73 -30.5q120 -45 120 -127q0 -72 -54 -108.5t-134 -36.5q-81 0 -137 28.5t-56 80.5q0 37 29 62.5t73 33.5q-88 44 -88 119q0 66 49.5 104.5t129.5 38.5q78 0 124 -28.5t46 -74.5zM784 81
l-88 34q-19 -25 -19 -66q0 -36 24.5 -55.5t63.5 -19.5q32 0 51.5 14t19.5 37q0 21 -12.5 33t-39.5 23zM748 226l57 -20q23 23 23 64q0 69 -65 69q-28 0 -45.5 -16.5t-17.5 -38.5q0 -40 48 -58zM247 0l449 741h77l-450 -741h-76z" />
    <glyph glyph-name="uni215D" unicode="&#x215d;" horiz-adv-x="990" 
d="M344 736v-122h-221l-7 -40q60 0 105 -7t82.5 -23t56.5 -46t19 -74q0 -68 -49 -107.5t-130 -39.5q-80 0 -125 26t-45 68q0 40 33 54h91v-25q0 -75 59 -75q23 0 37 13.5t14 36.5q0 51 -50 74t-154 23l45 264h239zM917 287q0 -37 -29 -61.5t-73 -30.5q120 -45 120 -127
q0 -72 -54 -108.5t-134 -36.5q-81 0 -137 28.5t-56 80.5q0 37 29 62.5t73 33.5q-88 44 -88 119q0 66 49.5 104.5t129.5 38.5q78 0 124 -28.5t46 -74.5zM767 81l-88 34q-19 -25 -19 -66q0 -36 24.5 -55.5t63.5 -19.5q32 0 51.5 14t19.5 37q0 21 -12.5 33t-39.5 23zM731 226
l57 -20q23 23 23 64q0 69 -65 69q-28 0 -45.5 -16.5t-17.5 -38.5q0 -40 48 -58zM230 0l449 741h77l-450 -741h-76z" />
    <glyph glyph-name="uni215E" unicode="&#x215e;" horiz-adv-x="940" 
d="M304 604h-142q-42 0 -63 -61h-49l33 193h337v-34l-199 -415h-101zM867 287q0 -37 -29 -61.5t-73 -30.5q120 -45 120 -127q0 -72 -54 -108.5t-134 -36.5q-81 0 -137 28.5t-56 80.5q0 37 29 62.5t73 33.5q-88 44 -88 119q0 66 49.5 104.5t129.5 38.5q78 0 124 -28.5
t46 -74.5zM717 81l-88 34q-19 -25 -19 -66q0 -36 24.5 -55.5t63.5 -19.5q32 0 51.5 14t19.5 37q0 21 -12.5 33t-39.5 23zM681 226l57 -20q23 23 23 64q0 69 -65 69q-28 0 -45.5 -16.5t-17.5 -38.5q0 -40 48 -58zM180 0l449 741h77l-450 -741h-76z" />
    <glyph glyph-name="partialdiff" unicode="&#x2202;" horiz-adv-x="637" 
d="M290 537q70 0 114 -44q-30 84 -105.5 150.5t-180.5 91.5l22 41q99 -13 178.5 -45t130.5 -75t85 -98t48.5 -110.5t14.5 -115.5q0 -157 -74.5 -249.5t-212.5 -92.5q-124 0 -201 78.5t-77 197.5q0 125 76 198t182 73zM328 61q39 0 61 50.5t22 133.5q0 107 -27 172t-75 65
q-40 0 -62 -47.5t-22 -129.5q0 -108 27.5 -176t75.5 -68z" />
    <glyph glyph-name="Delta" unicode="&#x2206;" horiz-adv-x="682" 
d="M662 0h-642v51l295 651h47l300 -651v-51zM277 452l-173 -384h346z" />
    <glyph glyph-name="product" unicode="&#x220f;" horiz-adv-x="832" 
d="M25 702h782v-69q-50 -2 -64.5 -15t-14.5 -53v-625q0 -40 14.5 -53t64.5 -15v-69h-346v69q49 2 64 15t15 53v699h-248v-699q0 -40 15 -53t64 -15v-69h-346v69q50 2 64.5 15t14.5 53v625q0 40 -14.5 53t-64.5 15v69z" />
    <glyph glyph-name="summation" unicode="&#x2211;" horiz-adv-x="645" 
d="M175 -43h187q37 0 55.5 2t42 10.5t42 28t39.5 53.5h74l-47 -248h-548v65l254 371l-241 388v75h555v-192h-87q-30 74 -60 101.5t-95 27.5h-100l176 -286v-41z" />
    <glyph glyph-name="minus" unicode="&#x2212;" horiz-adv-x="604" 
d="M72 318v93h459v-93h-459z" />
    <glyph glyph-name="radical" unicode="&#x221a;" horiz-adv-x="624" 
d="M369 255l178 457h77l-280 -712h-94l-145 433q-10 30 -22.5 42t-37.5 15l-25 3v57h260z" />
    <glyph glyph-name="infinity" unicode="&#x221e;" horiz-adv-x="760" 
d="M324 348l-37 45q-33 40 -79 40q-33 0 -56 -23t-23 -62t23 -62t56 -23q46 0 79 40zM473 393l-37 -45l37 -45q33 -40 79 -40q33 0 56 23t23 62t-23 62t-56 23q-46 0 -79 -40zM380 285l-30 -35q-64 -74 -147 -74q-70 0 -116.5 47t-46.5 125t46.5 125t116.5 47q83 0 147 -74
l30 -35l30 35q64 74 147 74q70 0 116.5 -47t46.5 -125t-46.5 -125t-116.5 -47q-83 0 -147 74z" />
    <glyph glyph-name="integral" unicode="&#x222b;" horiz-adv-x="457" 
d="M284 582v-525q0 -253 -229 -253q-67 0 -103.5 25t-36.5 71q0 40 35 64h80v-38q0 -63 35 -63q19 0 26 17t7 54v525q0 253 229 253q67 0 103.5 -25t36.5 -71q0 -40 -35 -64h-80v38q0 63 -35 63q-19 0 -26 -17t-7 -54z" />
    <glyph glyph-name="approxequal" unicode="&#x2248;" horiz-adv-x="615" 
d="M78 378v90q63 42 123 42q40 0 106 -20t105 -20q63 0 126 41v-90q-63 -41 -126 -41q-39 0 -105 20t-106 20q-60 0 -123 -42zM78 223v89q62 41 123 41q40 0 106 -19.5t105 -19.5q65 0 126 40v-88q-60 -42 -126 -42q-39 0 -105 19.5t-106 19.5q-61 0 -123 -40z" />
    <glyph glyph-name="notequal" unicode="&#x2260;" horiz-adv-x="615" 
d="M78 407v85h272l70 104h87l-70 -104h101v-85h-159l-57 -84h216v-86h-274l-69 -103h-87l69 103h-99v86h157l57 84h-214z" />
    <glyph glyph-name="lessequal" unicode="&#x2264;" horiz-adv-x="483" 
d="M64 405v10l337 185v-106l-166 -85l166 -84v-105zM64 92v93h337v-93h-337z" />
    <glyph glyph-name="greaterequal" unicode="&#x2265;" horiz-adv-x="483" 
d="M419 415v-10l-337 -185v105l167 84l-167 85v106zM419 185v-93h-337v93h337z" />
    <glyph glyph-name="lozenge" unicode="&#x25ca;" horiz-adv-x="571" 
d="M30 351l206 351h98l207 -351l-207 -351h-98zM422 351l-137 246l-138 -246l138 -245z" />
    <glyph glyph-name="Tcedilla.sc" horiz-adv-x="651" 
d="M32 608h587l14 -213h-78q-14 36 -20.5 51.5t-19 39t-23 33t-26.5 17.5t-36 8h-10v-419q0 -32 16 -44t61 -14v-67h-343v67q45 2 61 14t16 44v419h-10q-20 0 -36 -8t-26.5 -17.5t-23 -33t-19 -39t-20.5 -51.5h-78zM343 -158h-59q-50 13 -50 62q0 28 23 46t62 18
q45 0 71.5 -27.5t26.5 -70.5q0 -54 -42.5 -87t-134.5 -33v45q49 0 75 13t28 34z" />
    <glyph glyph-name="i.dot" horiz-adv-x="366" 
d="M281 561v-437q0 -33 12 -42.5t49 -14.5v-67h-310v67q37 5 49 14.5t12 42.5v295l-56 60v31l211 51h33zM188 598q-47 0 -75 27.5t-28 67.5t28 67.5t75 27.5q46 0 74 -27.5t28 -67.5t-28 -67.5t-74 -27.5z" />
    <glyph glyph-name="space_uni0326" horiz-adv-x="500" 
d="M262 -158h-59q-50 13 -50 62q0 28 23 46t62 18q45 0 71.5 -27.5t26.5 -70.5q0 -54 -42.5 -87t-134.5 -33v45q49 0 75 13t28 34z" />
    <glyph glyph-name="space_uni0326.alt" horiz-adv-x="500" 
d="M227 721h59q50 -13 50 -62q0 -28 -23 -46t-62 -18q-45 0 -71.5 27.5t-26.5 70.5q0 54 42.5 87t134.5 33v-45q-49 0 -75 -13t-28 -34z" />
    <glyph glyph-name="space_dotbelowcomb" horiz-adv-x="500" 
d="M251 -212q-47 0 -75 27.5t-28 67.5t28 67.5t75 27.5q46 0 74 -27.5t28 -67.5t-28 -67.5t-74 -27.5z" />
    <glyph glyph-name="A.sc" horiz-adv-x="686" 
d="M403 140l-17 40h-208l-16 -40q-7 -18 -7 -35q0 -21 10 -28.5t47 -9.5v-67h-200v67q22 4 32.5 10t16.5 22l177 435l-37 81h195l227 -516q10 -24 51 -32v-67h-319v67q36 2 47 10t11 29q0 11 -10 34zM281 435l-77 -189h155z" />
    <glyph glyph-name="B.sc" horiz-adv-x="664" 
d="M319 279h-31v-156q0 -34 13.5 -46.5t46.5 -12.5h8q36 0 60 28.5t24 75.5q0 111 -121 111zM302 539h-14v-192h21q105 0 105 99q0 51 -28.5 72t-83.5 21zM383 0h-351v68q43 2 54.5 13t11.5 45v356q0 34 -11.5 45t-54.5 13v68h354q103 0 159 -39t56 -114q0 -62 -48.5 -98
t-119.5 -43q88 -4 143.5 -41.5t55.5 -106.5q0 -87 -62.5 -126.5t-186.5 -39.5z" />
    <glyph glyph-name="C.sc" horiz-adv-x="642" 
d="M378 65q51 0 79 36.5t52 121.5h97l-13 -173q-86 -60 -227 -60q-157 0 -244.5 83.5t-87.5 218.5q0 146 95 236t236 90q142 0 217 -67v-143h-96q-18 70 -44.5 106t-77.5 36q-34 0 -59 -20t-38 -55t-18.5 -73.5t-5.5 -84.5q0 -116 34.5 -184t100.5 -68z" />
    <glyph glyph-name="D.sc" horiz-adv-x="731" 
d="M298 539h-6v-410q0 -37 11.5 -48.5t42.5 -11.5h6q138 0 138 235q0 109 -49 172t-143 63zM359 0h-327v68q43 2 54.5 13t11.5 45v356q0 34 -11.5 45t-54.5 13v68h291q178 0 276 -75t98 -222q0 -145 -89 -228t-249 -83z" />
    <glyph glyph-name="E.sc" horiz-adv-x="615" 
d="M563 0h-531v68q43 2 54.5 13t11.5 45v356q0 34 -11.5 45t-54.5 13v68h526v-173h-78q-23 58 -46.5 82t-72.5 24h-73v-192h52q30 0 43.5 13t20.5 51h64v-199h-64q-7 38 -20.5 51.5t-43.5 13.5h-52v-155q0 -33 16 -45t51 -12h13q42 0 71.5 25.5t74.5 94.5h76z" />
    <glyph glyph-name="F.sc" horiz-adv-x="578" 
d="M388 0h-356v68q43 2 54.5 13t11.5 45v356q0 34 -11.5 45t-54.5 13v68h516v-172h-79q-21 57 -45.5 81t-74.5 24h-61v-198h36q30 0 43.5 13.5t20.5 51.5h65v-199h-65q-7 39 -20 52t-44 13h-36v-155q0 -31 21.5 -43t78.5 -14v-62z" />
    <glyph glyph-name="G.sc" horiz-adv-x="687" 
d="M34 292q0 145 98 235.5t237 90.5q138 0 216 -67v-143h-96q-21 71 -47 106.5t-75 35.5q-65 0 -96.5 -68.5t-31.5 -164.5q0 -252 144 -252q24 0 42 3v114q0 33 -11.5 43.5t-53.5 11.5v70h307v-70q-43 -1 -54.5 -11t-11.5 -44v-129q-88 -63 -245 -63q-156 0 -239 83.5
t-83 218.5z" />
    <glyph glyph-name="H.sc" horiz-adv-x="782" 
d="M750 68v-68h-326v68q43 2 54.5 13t11.5 45v152h-198v-152q0 -34 11.5 -45t54.5 -13v-68h-326v68q43 2 54.5 13t11.5 45v356q0 34 -11.5 45t-54.5 13v68h326v-68q-43 -2 -54.5 -13t-11.5 -45v-133h198v133q0 34 -11.5 45t-54.5 13v68h326v-68q-43 -2 -54.5 -13t-11.5 -45
v-356q0 -34 11.5 -45t54.5 -13z" />
    <glyph glyph-name="I.sc" horiz-adv-x="390" 
d="M358 68v-68h-326v68q43 2 54.5 13t11.5 45v356q0 34 -11.5 45t-54.5 13v68h326v-68q-43 -2 -54.5 -13t-11.5 -45v-356q0 -34 11.5 -45t54.5 -13z" />
    <glyph glyph-name="J.sc" horiz-adv-x="579" 
d="M490 483v-282q0 -211 -249 -211q-106 0 -167.5 37.5t-61.5 104.5q0 53 48 85h131v-49q0 -112 52 -112q23 0 35 16.5t14.5 37.5t2.5 58v315q0 34 -11 44.5t-53 12.5v68h326v-68q-43 -2 -55 -12.5t-12 -44.5z" />
    <glyph glyph-name="K.sc" horiz-adv-x="724" 
d="M479 374l150 -247q22 -35 39.5 -48t45.5 -13v-66h-215q-35 24 -76 95l-123 214l178 163q27 24 27 41q0 27 -48 27v68h235v-68q-26 -1 -39 -6.5t-30 -21.5zM358 68v-68h-326v68q43 2 54.5 13t11.5 45v356q0 34 -11.5 45t-54.5 13v68h326v-68q-43 -2 -54.5 -13t-11.5 -45
v-356q0 -34 11.5 -45t54.5 -13z" />
    <glyph glyph-name="L.sc" horiz-adv-x="606" 
d="M292 482v-355q0 -34 13.5 -46t48.5 -12h16q37 0 59 24t82 127h81l-34 -220h-526v68q43 2 54.5 13t11.5 45v356q0 34 -11.5 45t-54.5 13v68h326v-68q-43 -2 -54.5 -13t-11.5 -45z" />
    <glyph glyph-name="M.sc" horiz-adv-x="904" 
d="M626 145l-40 276l-149 -421h-67l-154 420l-37 -275q-2 -16 -2 -22q0 -30 18 -41.5t66 -14.5v-67h-246v67q38 2 53.5 13t19.5 40l56 357q0 35 -15.5 48t-58.5 15v68h263q3 -28 14 -58l107 -288l103 288q13 33 15 58h261v-68q-44 -2 -59 -15t-15 -48l55 -357
q5 -31 20.5 -41t54.5 -12v-67h-345v67q49 3 66.5 14t17.5 42q0 6 -2 22z" />
    <glyph glyph-name="N.sc" horiz-adv-x="695" 
d="M98 125v376q-17 23 -29 29t-37 10v68h249l244 -302v177q0 32 -15.5 43.5t-60.5 13.5v68h226v-68q-43 -2 -54 -12.5t-11 -44.5v-483h-79l-348 422v-297q0 -32 16 -44t60 -14v-67h-227v67q43 2 54.5 13t11.5 45z" />
    <glyph glyph-name="O.sc" horiz-adv-x="695" 
d="M359 59q51 0 74 62.5t23 164.5q0 263 -120 263q-51 0 -74 -62.5t-23 -164.5q0 -263 120 -263zM338 -10q-142 0 -223 87.5t-81 214.5q0 148 90.5 237t232.5 89t223 -87.5t81 -214.5q0 -148 -90.5 -237t-232.5 -89z" />
    <glyph glyph-name="P.sc" horiz-adv-x="627" 
d="M292 539v-250h15q52 0 82 34t30 96q0 56 -33 88t-86 32h-8zM390 0h-358v68q43 2 54.5 13t11.5 45v356q0 34 -11.5 45t-54.5 13v68h324q125 0 189 -52t64 -138q0 -191 -256 -191h-61v-102q0 -32 20 -43.5t78 -14.5v-67z" />
    <glyph glyph-name="Q.sc" horiz-adv-x="693" 
d="M355 616q143 0 223.5 -86.5t80.5 -213.5q0 -118 -59.5 -200t-159.5 -111l68 -52q28 -22 47.5 -29t54.5 -7v-35q-41 -36 -114 -36q-99 0 -186 105l-38 46q-113 19 -175.5 101t-62.5 194q0 147 89.5 235.5t231.5 88.5zM357 60q97 0 97 227q0 260 -119 260q-97 0 -97 -226
q0 -261 119 -261z" />
    <glyph glyph-name="R.sc" horiz-adv-x="698" 
d="M312 539h-23v-228h21q68 0 99.5 28.5t31.5 89.5q0 110 -129 110zM352 0h-320v68q43 2 54.5 13t11.5 45v356q0 34 -11.5 45t-54.5 13v68h352q123 0 185.5 -46t62.5 -130q0 -113 -123 -155l92 -147q23 -38 40.5 -50t50.5 -13v-67h-211q-42 39 -72 101l-73 153h-47v-129
q0 -35 10.5 -45.5t52.5 -12.5v-67z" />
    <glyph glyph-name="S.sc" horiz-adv-x="565" 
d="M272 -10q-136 0 -219 58l-10 145h101q18 -75 51 -106.5t94 -31.5q38 0 62 16.5t24 49.5q0 29 -25 45.5t-95 32.5q-106 25 -156 73.5t-50 134.5q0 99 65.5 155t167.5 56q128 0 206 -53v-130h-86q-11 31 -19.5 48t-23.5 36t-36 27.5t-50 8.5q-40 0 -61 -19t-21 -50
q0 -32 27 -49t95 -31q106 -22 158 -70t52 -142q0 -102 -69.5 -153t-181.5 -51z" />
    <glyph glyph-name="T.sc" horiz-adv-x="651" 
d="M32 608h587l14 -213h-78q-14 36 -20.5 51.5t-19 39t-23 33t-26.5 17.5t-36 8h-10v-419q0 -32 16 -44t61 -14v-67h-343v67q45 2 61 14t16 44v419h-10q-20 0 -36 -8t-26.5 -17.5t-23 -33t-19 -39t-20.5 -51.5h-78z" />
    <glyph glyph-name="U.sc" horiz-adv-x="699" 
d="M286 483v-246q0 -71 22.5 -107.5t83.5 -36.5q60 0 93 32.5t33 119.5v238q0 32 -15.5 43.5t-59.5 13.5v68h231v-68q-43 -2 -54.5 -12.5t-11.5 -44.5v-267q0 -111 -68.5 -168.5t-177.5 -57.5q-133 0 -202.5 57.5t-69.5 168.5v267q0 34 -11 44.5t-54 12.5v68h324v-68
q-42 -2 -52.5 -12.5t-10.5 -44.5z" />
    <glyph glyph-name="V.sc" horiz-adv-x="659" 
d="M394 254l93 214q9 20 9 34q0 20 -11 28t-47 10v68h209v-68q-21 -3 -32 -9t-19 -23l-225 -510h-50l-260 510q-8 17 -18.5 23t-30.5 9v68h325v-68q-36 -2 -47.5 -10t-11.5 -28q0 -13 9 -35z" />
    <glyph glyph-name="W.sc" horiz-adv-x="921" 
d="M674 254l73 193q14 37 14 55q0 20 -10.5 28t-46.5 10v68h205v-68q-42 -7 -52 -32l-198 -510h-65l-120 321l-127 -321h-67l-219 510q-11 26 -49 32v68h306v-68q-25 -3 -35.5 -12t-10.5 -26t12 -46l83 -209l69 178l-29 83q-12 27 -43 32v68h294v-68q-36 -2 -46.5 -10
t-10.5 -28q0 -17 14 -59z" />
    <glyph glyph-name="X.sc" horiz-adv-x="687" 
d="M379 131l-85 107l-85 -107q-16 -17 -16 -35q0 -29 42 -29v-67h-223v67q44 0 67 26l168 205l-171 217q-18 23 -44 25v68h318v-68q-42 0 -42 -28q0 -8 21 -35l55 -72l54 71q16 20 16 36q0 28 -39 28v68h219v-68q-38 0 -63 -25l-142 -169l196 -253q15 -19 50 -26v-67h-311
v67q34 0 34 29q0 10 -19 35z" />
    <glyph glyph-name="Y.sc" horiz-adv-x="644" 
d="M377 297l82 152q23 43 23 57q0 32 -55 34v68h205v-68q-21 -3 -32 -9.5t-19 -22.5l-162 -293v-90q0 -33 14 -44.5t58 -13.5v-67h-330v67q44 2 58 13.5t14 44.5v91l-172 292q-9 16 -19.5 22.5t-29.5 9.5v68h315v-68q-31 -1 -42 -8.5t-11 -25.5q0 -17 21 -57z" />
    <glyph glyph-name="Z.sc" horiz-adv-x="591" 
d="M251 69h93q47 0 73.5 23.5t77.5 119.5h75l-32 -212h-514v47l308 491h-91q-21 0 -36 -5t-26.5 -18.5t-17.5 -23t-18 -34.5t-18 -37h-71v188h501v-49z" />
    <glyph glyph-name="Aacute.sc" horiz-adv-x="686" 
d="M403 140l-17 40h-208l-16 -40q-7 -18 -7 -35q0 -21 10 -28.5t47 -9.5v-67h-200v67q22 4 32.5 10t16.5 22l177 435l-37 81h195l227 -516q10 -24 51 -32v-67h-319v67q36 2 47 10t11 29q0 11 -10 34zM327 816h184l-155 -160h-97zM281 435l-77 -189h155z" />
    <glyph glyph-name="Abreve.sc" horiz-adv-x="686" 
d="M403 140l-17 40h-208l-16 -40q-7 -18 -7 -35q0 -21 10 -28.5t47 -9.5v-67h-200v67q22 4 32.5 10t16.5 22l177 435l-37 81h195l227 -516q10 -24 51 -32v-67h-319v67q36 2 47 10t11 29q0 11 -10 34zM314 653q-75 0 -117 45t-42 125h70q11 -78 89 -78t89 78h70
q0 -80 -42 -125t-117 -45zM281 435l-77 -189h155z" />
    <glyph glyph-name="Acircumflex.sc" horiz-adv-x="686" 
d="M403 140l-17 40h-208l-16 -40q-7 -18 -7 -35q0 -21 10 -28.5t47 -9.5v-67h-200v67q22 4 32.5 10t16.5 22l177 435l-37 81h195l227 -516q10 -24 51 -32v-67h-319v67q36 2 47 10t11 29q0 11 -10 34zM382 816l138 -169h-95l-111 80l-111 -80h-95l138 169h136zM281 435
l-77 -189h155z" />
    <glyph glyph-name="Adieresis.sc" horiz-adv-x="686" 
d="M403 140l-17 40h-208l-16 -40q-7 -18 -7 -35q0 -21 10 -28.5t47 -9.5v-67h-200v67q22 4 32.5 10t16.5 22l177 435l-37 81h195l227 -516q10 -24 51 -32v-67h-319v67q36 2 47 10t11 29q0 11 -10 34zM115 741q0 36 26 62t63 26t63.5 -26t26.5 -62t-26.5 -62t-63.5 -26
t-63 26t-26 62zM335 741q0 36 26.5 62t61.5 26q38 0 64.5 -26t26.5 -62t-26.5 -62t-64.5 -26q-35 0 -61.5 26t-26.5 62zM281 435l-77 -189h155z" />
    <glyph glyph-name="Agrave.sc" horiz-adv-x="686" 
d="M403 140l-17 40h-208l-16 -40q-7 -18 -7 -35q0 -21 10 -28.5t47 -9.5v-67h-200v67q22 4 32.5 10t16.5 22l177 435l-37 81h195l227 -516q10 -24 51 -32v-67h-319v67q36 2 47 10t11 29q0 11 -10 34zM116 816h184l67 -160h-96zM281 435l-77 -189h155z" />
    <glyph glyph-name="Amacron.sc" horiz-adv-x="686" 
d="M403 140l-17 40h-208l-16 -40q-7 -18 -7 -35q0 -21 10 -28.5t47 -9.5v-67h-200v67q22 4 32.5 10t16.5 22l177 435l-37 81h195l227 -516q10 -24 51 -32v-67h-319v67q36 2 47 10t11 29q0 11 -10 34zM160 676v101h308v-101h-308zM281 435l-77 -189h155z" />
    <glyph glyph-name="Aogonek.sc" horiz-adv-x="686" 
d="M201 615h195l227 -516q10 -24 51 -32v-67h-306q-46 -28 -46 -77q0 -56 45 -56q36 0 70 20l19 -28q-35 -39 -66.5 -56t-72.5 -17t-71 28.5t-30 76.5q0 86 125 148q39 20 53.5 35.5t14.5 38.5q0 11 -12 40l-11 27h-208l-16 -40q-7 -18 -7 -35q0 -21 10 -28.5t47 -9.5v-67
h-200v67q22 4 32.5 10t16.5 22l177 435zM281 435l-77 -189h155z" />
    <glyph glyph-name="Aring.sc" horiz-adv-x="686" 
d="M403 140l-17 40h-208l-16 -40q-7 -18 -7 -35q0 -21 10 -28.5t47 -9.5v-67h-200v67q22 4 32.5 10t16.5 22l177 435l-37 81h195l227 -516q10 -24 51 -32v-67h-319v67q36 2 47 10t11 29q0 11 -10 34zM201 748q0 43 32 72t81 29t81 -29t32 -72t-32 -72t-81 -29t-81 29t-32 72
zM281 435l-77 -189h155zM360 748q0 19 -12 31.5t-34 12.5t-34 -12.5t-12 -31.5t12 -31.5t34 -12.5t34 12.5t12 31.5z" />
    <glyph glyph-name="Aringacute.sc" horiz-adv-x="686" 
d="M403 140l-17 40h-208l-16 -40q-7 -18 -7 -35q0 -21 10 -28.5t47 -9.5v-67h-200v67q22 4 32.5 10t16.5 22l177 435l-37 81h195l227 -516q10 -24 51 -32v-67h-319v67q36 2 47 10t11 29q0 11 -10 34zM195 729q0 41 33 65.5t85 24.5t85 -24.5t33 -65.5t-33 -65.5t-85 -24.5
t-85 24.5t-33 65.5zM315 966h185l-139 -120h-91zM281 435l-77 -189h155zM365 729q0 39 -52 39t-52 -39t52 -39t52 39z" />
    <glyph glyph-name="Atilde.sc" horiz-adv-x="686" 
d="M403 140l-17 40h-208l-16 -40q-7 -18 -7 -35q0 -21 10 -28.5t47 -9.5v-67h-200v67q22 4 32.5 10t16.5 22l177 435l-37 81h195l227 -516q10 -24 51 -32v-67h-319v67q36 2 47 10t11 29q0 11 -10 34zM459 823l60 -12q-39 -92 -67.5 -120.5t-73.5 -28.5q-30 0 -75 30t-61 30
q-20 0 -33.5 -13.5t-31.5 -41.5l-60 12q39 92 67 120.5t74 28.5q36 0 78 -30t58 -30q19 0 33.5 14t31.5 41zM281 435l-77 -189h155z" />
    <glyph glyph-name="AE.sc" horiz-adv-x="948" 
d="M61 99l279 406q-8 18 -23 25.5t-52 9.5v68h626v-173h-78q-23 58 -46.5 82t-72.5 24h-73v-192h52q30 0 43.5 13t20.5 51h64v-199h-64q-7 38 -20.5 51.5t-43.5 13.5h-52v-155q0 -33 16 -45t51 -12h13q42 0 71.5 25.5t74.5 94.5h76l-27 -187h-531v68q43 2 54.5 12.5
t11.5 44.5v83h-203l-33 -47q-23 -32 -23 -54q0 -21 11.5 -29.5t48.5 -10.5v-67h-220v67q31 6 49 32zM431 496l-157 -222h157v222z" />
    <glyph glyph-name="AEacute.sc" horiz-adv-x="948" 
d="M61 99l279 406q-8 18 -23 25.5t-52 9.5v68h626v-173h-78q-23 58 -46.5 82t-72.5 24h-73v-192h52q30 0 43.5 13t20.5 51h64v-199h-64q-7 38 -20.5 51.5t-43.5 13.5h-52v-155q0 -33 16 -45t51 -12h13q42 0 71.5 25.5t74.5 94.5h76l-27 -187h-531v68q43 2 54.5 12.5
t11.5 44.5v83h-203l-33 -47q-23 -32 -23 -54q0 -21 11.5 -29.5t48.5 -10.5v-67h-220v67q31 6 49 32zM585 816h184l-155 -160h-97zM431 496l-157 -222h157v222z" />
    <glyph glyph-name="Cacute.sc" horiz-adv-x="642" 
d="M378 65q51 0 79 36.5t52 121.5h97l-13 -173q-86 -60 -227 -60q-157 0 -244.5 83.5t-87.5 218.5q0 146 95 236t236 90q142 0 217 -67v-143h-96q-18 70 -44.5 106t-77.5 36q-34 0 -59 -20t-38 -55t-18.5 -73.5t-5.5 -84.5q0 -116 34.5 -184t100.5 -68zM380 816h184
l-155 -160h-97z" />
    <glyph glyph-name="Ccaron.sc" horiz-adv-x="642" 
d="M378 65q51 0 79 36.5t52 121.5h97l-13 -173q-86 -60 -227 -60q-157 0 -244.5 83.5t-87.5 218.5q0 146 95 236t236 90q142 0 217 -67v-143h-96q-18 70 -44.5 106t-77.5 36q-34 0 -59 -20t-38 -55t-18.5 -73.5t-5.5 -84.5q0 -116 34.5 -184t100.5 -68zM573 825l-138 -169
h-136l-138 169h95l111 -80l111 80h95z" />
    <glyph glyph-name="Ccedilla.sc" horiz-adv-x="642" 
d="M251 -233l-11 49q115 0 115 39q0 32 -85 36l42 102q-133 14 -205.5 95t-72.5 204q0 146 95 236t236 90q142 0 217 -67v-143h-96q-18 70 -44.5 106t-77.5 36q-34 0 -59 -20t-38 -55t-18.5 -73.5t-5.5 -84.5q0 -116 34.5 -184t100.5 -68q51 0 79 36.5t52 121.5h97l-13 -173
q-86 -60 -227 -60h-5l-12 -34q97 -10 97 -78q0 -53 -57 -82t-138 -29z" />
    <glyph glyph-name="Ccircumflex.sc" horiz-adv-x="642" 
d="M378 65q51 0 79 36.5t52 121.5h97l-13 -173q-86 -60 -227 -60q-157 0 -244.5 83.5t-87.5 218.5q0 146 95 236t236 90q142 0 217 -67v-143h-96q-18 70 -44.5 106t-77.5 36q-34 0 -59 -20t-38 -55t-18.5 -73.5t-5.5 -84.5q0 -116 34.5 -184t100.5 -68zM428 816l138 -169
h-95l-111 80l-111 -80h-95l138 169h136z" />
    <glyph glyph-name="Cdotaccent.sc" horiz-adv-x="642" 
d="M378 65q51 0 79 36.5t52 121.5h97l-13 -173q-86 -60 -227 -60q-157 0 -244.5 83.5t-87.5 218.5q0 146 95 236t236 90q142 0 217 -67v-143h-96q-18 70 -44.5 106t-77.5 36q-34 0 -59 -20t-38 -55t-18.5 -73.5t-5.5 -84.5q0 -116 34.5 -184t100.5 -68zM360 648
q-47 0 -75 27.5t-28 67.5t28 67.5t75 27.5q46 0 74 -27.5t28 -67.5t-28 -67.5t-74 -27.5z" />
    <glyph glyph-name="Dcaron.sc" horiz-adv-x="731" 
d="M298 539h-6v-410q0 -37 11.5 -48.5t42.5 -11.5h6q138 0 138 235q0 109 -49 172t-143 63zM359 0h-327v68q43 2 54.5 13t11.5 45v356q0 34 -11.5 45t-54.5 13v68h291q178 0 276 -75t98 -222q0 -145 -89 -228t-249 -83zM558 825l-138 -169h-136l-138 169h95l111 -80l111 80
h95z" />
    <glyph glyph-name="Dcroat.sc" horiz-adv-x="739" 
d="M367 0h-327v68q43 2 54.5 13t11.5 45v152h-66v71h66v133q0 34 -11.5 45t-54.5 13v68h291q178 0 276 -75t98 -222q0 -145 -89 -228t-249 -83zM306 539h-6v-190h107v-71h-107v-149q0 -37 11.5 -48.5t42.5 -11.5h6q138 0 138 235q0 109 -49 172t-143 63z" />
    <glyph glyph-name="Eacute.sc" horiz-adv-x="615" 
d="M563 0h-531v68q43 2 54.5 13t11.5 45v356q0 34 -11.5 45t-54.5 13v68h526v-173h-78q-23 58 -46.5 82t-72.5 24h-73v-192h52q30 0 43.5 13t20.5 51h64v-199h-64q-7 38 -20.5 51.5t-43.5 13.5h-52v-155q0 -33 16 -45t51 -12h13q42 0 71.5 25.5t74.5 94.5h76zM326 816h184
l-155 -160h-97z" />
    <glyph glyph-name="Ebreve.sc" horiz-adv-x="615" 
d="M563 0h-531v68q43 2 54.5 13t11.5 45v356q0 34 -11.5 45t-54.5 13v68h526v-173h-78q-23 58 -46.5 82t-72.5 24h-73v-192h52q30 0 43.5 13t20.5 51h64v-199h-64q-7 38 -20.5 51.5t-43.5 13.5h-52v-155q0 -33 16 -45t51 -12h13q42 0 71.5 25.5t74.5 94.5h76zM313 653
q-75 0 -117 45t-42 125h70q11 -78 89 -78t89 78h70q0 -80 -42 -125t-117 -45z" />
    <glyph glyph-name="Ecaron.sc" horiz-adv-x="615" 
d="M563 0h-531v68q43 2 54.5 13t11.5 45v356q0 34 -11.5 45t-54.5 13v68h526v-173h-78q-23 58 -46.5 82t-72.5 24h-73v-192h52q30 0 43.5 13t20.5 51h64v-199h-64q-7 38 -20.5 51.5t-43.5 13.5h-52v-155q0 -33 16 -45t51 -12h13q42 0 71.5 25.5t74.5 94.5h76zM519 825
l-138 -169h-136l-138 169h95l111 -80l111 80h95z" />
    <glyph glyph-name="Ecircumflex.sc" horiz-adv-x="615" 
d="M563 0h-531v68q43 2 54.5 13t11.5 45v356q0 34 -11.5 45t-54.5 13v68h526v-173h-78q-23 58 -46.5 82t-72.5 24h-73v-192h52q30 0 43.5 13t20.5 51h64v-199h-64q-7 38 -20.5 51.5t-43.5 13.5h-52v-155q0 -33 16 -45t51 -12h13q42 0 71.5 25.5t74.5 94.5h76zM381 816
l138 -169h-95l-111 80l-111 -80h-95l138 169h136z" />
    <glyph glyph-name="Edieresis.sc" horiz-adv-x="615" 
d="M563 0h-531v68q43 2 54.5 13t11.5 45v356q0 34 -11.5 45t-54.5 13v68h526v-173h-78q-23 58 -46.5 82t-72.5 24h-73v-192h52q30 0 43.5 13t20.5 51h64v-199h-64q-7 38 -20.5 51.5t-43.5 13.5h-52v-155q0 -33 16 -45t51 -12h13q42 0 71.5 25.5t74.5 94.5h76zM114 741
q0 36 26 62t63 26t63.5 -26t26.5 -62t-26.5 -62t-63.5 -26t-63 26t-26 62zM334 741q0 36 26.5 62t61.5 26q38 0 64.5 -26t26.5 -62t-26.5 -62t-64.5 -26q-35 0 -61.5 26t-26.5 62z" />
    <glyph glyph-name="Edotaccent.sc" horiz-adv-x="615" 
d="M563 0h-531v68q43 2 54.5 13t11.5 45v356q0 34 -11.5 45t-54.5 13v68h526v-173h-78q-23 58 -46.5 82t-72.5 24h-73v-192h52q30 0 43.5 13t20.5 51h64v-199h-64q-7 38 -20.5 51.5t-43.5 13.5h-52v-155q0 -33 16 -45t51 -12h13q42 0 71.5 25.5t74.5 94.5h76zM314 648
q-47 0 -75 27.5t-28 67.5t28 67.5t75 27.5q46 0 74 -27.5t28 -67.5t-28 -67.5t-74 -27.5z" />
    <glyph glyph-name="Egrave.sc" horiz-adv-x="615" 
d="M563 0h-531v68q43 2 54.5 13t11.5 45v356q0 34 -11.5 45t-54.5 13v68h526v-173h-78q-23 58 -46.5 82t-72.5 24h-73v-192h52q30 0 43.5 13t20.5 51h64v-199h-64q-7 38 -20.5 51.5t-43.5 13.5h-52v-155q0 -33 16 -45t51 -12h13q42 0 71.5 25.5t74.5 94.5h76zM115 816h184
l67 -160h-96z" />
    <glyph glyph-name="Emacron.sc" horiz-adv-x="615" 
d="M563 0h-531v68q43 2 54.5 13t11.5 45v356q0 34 -11.5 45t-54.5 13v68h526v-173h-78q-23 58 -46.5 82t-72.5 24h-73v-192h52q30 0 43.5 13t20.5 51h64v-199h-64q-7 38 -20.5 51.5t-43.5 13.5h-52v-155q0 -33 16 -45t51 -12h13q42 0 71.5 25.5t74.5 94.5h76zM159 676v101
h308v-101h-308z" />
    <glyph glyph-name="Eogonek.sc" horiz-adv-x="615" 
d="M563 0h-82q-60 -40 -60 -92q0 -41 43 -41q36 0 70 20l19 -28q-67 -75 -145 -75q-41 0 -68.5 23t-27.5 61q0 76 94 132h-374v68q43 2 54.5 13t11.5 45v356q0 34 -11.5 45t-54.5 13v68h526v-173h-78q-23 58 -46.5 82t-72.5 24h-73v-192h52q30 0 43.5 13t20.5 51h64v-199
h-64q-7 38 -20.5 51.5t-43.5 13.5h-52v-155q0 -33 16 -45t51 -12h13q42 0 71.5 25.5t74.5 94.5h76z" />
    <glyph glyph-name="Eth.sc" horiz-adv-x="739" 
d="M367 0h-327v68q43 2 54.5 13t11.5 45v152h-66v71h66v133q0 34 -11.5 45t-54.5 13v68h291q178 0 276 -75t98 -222q0 -145 -89 -228t-249 -83zM306 539h-6v-190h107v-71h-107v-149q0 -37 11.5 -48.5t42.5 -11.5h6q138 0 138 235q0 109 -49 172t-143 63z" />
    <glyph glyph-name="Gbreve.sc" horiz-adv-x="687" 
d="M34 292q0 145 98 235.5t237 90.5q138 0 216 -67v-143h-96q-21 71 -47 106.5t-75 35.5q-65 0 -96.5 -68.5t-31.5 -164.5q0 -252 144 -252q24 0 42 3v114q0 33 -11.5 43.5t-53.5 11.5v70h307v-70q-43 -1 -54.5 -11t-11.5 -44v-129q-88 -63 -245 -63q-156 0 -239 83.5
t-83 218.5zM365 653q-75 0 -117 45t-42 125h70q11 -78 89 -78t89 78h70q0 -80 -42 -125t-117 -45z" />
    <glyph glyph-name="Gcircumflex.sc" horiz-adv-x="687" 
d="M34 292q0 145 98 235.5t237 90.5q138 0 216 -67v-143h-96q-21 71 -47 106.5t-75 35.5q-65 0 -96.5 -68.5t-31.5 -164.5q0 -252 144 -252q24 0 42 3v114q0 33 -11.5 43.5t-53.5 11.5v70h307v-70q-43 -1 -54.5 -11t-11.5 -44v-129q-88 -63 -245 -63q-156 0 -239 83.5
t-83 218.5zM433 816l138 -169h-95l-111 80l-111 -80h-95l138 169h136z" />
    <glyph glyph-name="Gcommaaccent.sc" horiz-adv-x="687" 
d="M34 292q0 145 98 235.5t237 90.5q138 0 216 -67v-143h-96q-21 71 -47 106.5t-75 35.5q-65 0 -96.5 -68.5t-31.5 -164.5q0 -252 144 -252q24 0 42 3v114q0 33 -11.5 43.5t-53.5 11.5v70h307v-70q-43 -1 -54.5 -11t-11.5 -44v-129q-88 -63 -245 -63q-156 0 -239 83.5
t-83 218.5zM392 -158h-59q-50 13 -50 62q0 28 23 46t62 18q45 0 71.5 -27.5t26.5 -70.5q0 -54 -42.5 -87t-134.5 -33v45q49 0 75 13t28 34z" />
    <glyph glyph-name="Gdotaccent.sc" horiz-adv-x="687" 
d="M34 292q0 145 98 235.5t237 90.5q138 0 216 -67v-143h-96q-21 71 -47 106.5t-75 35.5q-65 0 -96.5 -68.5t-31.5 -164.5q0 -252 144 -252q24 0 42 3v114q0 33 -11.5 43.5t-53.5 11.5v70h307v-70q-43 -1 -54.5 -11t-11.5 -44v-129q-88 -63 -245 -63q-156 0 -239 83.5
t-83 218.5zM367 648q-47 0 -75 27.5t-28 67.5t28 67.5t75 27.5q46 0 74 -27.5t28 -67.5t-28 -67.5t-74 -27.5z" />
    <glyph glyph-name="Hbar.sc" horiz-adv-x="798" 
d="M106 380h-66v71h66v31q0 34 -11.5 45t-54.5 13v68h326v-68q-43 -2 -54.5 -13t-11.5 -45v-31h198v31q0 34 -11.5 45t-54.5 13v68h326v-68q-43 -2 -54.5 -13t-11.5 -45v-31h66v-71h-66v-254q0 -34 11.5 -45t54.5 -13v-68h-326v68q43 2 54.5 13t11.5 45v112h-198v-112
q0 -34 11.5 -45t54.5 -13v-68h-326v68q43 2 54.5 13t11.5 45v254zM300 309h198v71h-198v-71z" />
    <glyph glyph-name="Hcircumflex.sc" horiz-adv-x="782" 
d="M750 68v-68h-326v68q43 2 54.5 13t11.5 45v152h-198v-152q0 -34 11.5 -45t54.5 -13v-68h-326v68q43 2 54.5 13t11.5 45v356q0 34 -11.5 45t-54.5 13v68h326v-68q-43 -2 -54.5 -13t-11.5 -45v-133h198v133q0 34 -11.5 45t-54.5 13v68h326v-68q-43 -2 -54.5 -13t-11.5 -45
v-356q0 -34 11.5 -45t54.5 -13zM459 816l138 -169h-95l-111 80l-111 -80h-95l138 169h136z" />
    <glyph glyph-name="Iacute.sc" horiz-adv-x="390" 
d="M358 68v-68h-326v68q43 2 54.5 13t11.5 45v356q0 34 -11.5 45t-54.5 13v68h326v-68q-43 -2 -54.5 -13t-11.5 -45v-356q0 -34 11.5 -45t54.5 -13zM208 816h184l-155 -160h-97z" />
    <glyph glyph-name="Ibreve.sc" horiz-adv-x="390" 
d="M358 68v-68h-326v68q43 2 54.5 13t11.5 45v356q0 34 -11.5 45t-54.5 13v68h326v-68q-43 -2 -54.5 -13t-11.5 -45v-356q0 -34 11.5 -45t54.5 -13zM195 653q-75 0 -117 45t-42 125h70q11 -78 89 -78t89 78h70q0 -80 -42 -125t-117 -45z" />
    <glyph glyph-name="Icircumflex.sc" horiz-adv-x="390" 
d="M358 68v-68h-326v68q43 2 54.5 13t11.5 45v356q0 34 -11.5 45t-54.5 13v68h326v-68q-43 -2 -54.5 -13t-11.5 -45v-356q0 -34 11.5 -45t54.5 -13zM263 816l138 -169h-95l-111 80l-111 -80h-95l138 169h136z" />
    <glyph glyph-name="Idieresis.sc" horiz-adv-x="390" 
d="M358 68v-68h-326v68q43 2 54.5 13t11.5 45v356q0 34 -11.5 45t-54.5 13v68h326v-68q-43 -2 -54.5 -13t-11.5 -45v-356q0 -34 11.5 -45t54.5 -13zM-4 741q0 36 26 62t63 26t63.5 -26t26.5 -62t-26.5 -62t-63.5 -26t-63 26t-26 62zM216 741q0 36 26.5 62t61.5 26
q38 0 64.5 -26t26.5 -62t-26.5 -62t-64.5 -26q-35 0 -61.5 26t-26.5 62z" />
    <glyph glyph-name="Idotaccent.sc" horiz-adv-x="390" 
d="M358 68v-68h-326v68q43 2 54.5 13t11.5 45v356q0 34 -11.5 45t-54.5 13v68h326v-68q-43 -2 -54.5 -13t-11.5 -45v-356q0 -34 11.5 -45t54.5 -13zM196 648q-47 0 -75 27.5t-28 67.5t28 67.5t75 27.5q46 0 74 -27.5t28 -67.5t-28 -67.5t-74 -27.5z" />
    <glyph glyph-name="Igrave.sc" horiz-adv-x="390" 
d="M358 68v-68h-326v68q43 2 54.5 13t11.5 45v356q0 34 -11.5 45t-54.5 13v68h326v-68q-43 -2 -54.5 -13t-11.5 -45v-356q0 -34 11.5 -45t54.5 -13zM-3 816h184l67 -160h-96z" />
    <glyph glyph-name="Imacron.sc" horiz-adv-x="390" 
d="M358 68v-68h-326v68q43 2 54.5 13t11.5 45v356q0 34 -11.5 45t-54.5 13v68h326v-68q-43 -2 -54.5 -13t-11.5 -45v-356q0 -34 11.5 -45t54.5 -13zM41 676v101h308v-101h-308z" />
    <glyph glyph-name="Iogonek.sc" horiz-adv-x="390" 
d="M358 68v-68h-114q-60 -40 -60 -92q0 -41 43 -41q36 0 70 20l19 -28q-68 -75 -145 -75q-41 0 -68.5 23t-27.5 61q0 76 94 132h-137v68q43 2 54.5 13t11.5 45v356q0 34 -11.5 45t-54.5 13v68h326v-68q-43 -2 -54.5 -13t-11.5 -45v-356q0 -34 11.5 -45t54.5 -13z" />
    <glyph glyph-name="Itilde.sc" horiz-adv-x="390" 
d="M341 823l60 -12q-39 -92 -67.5 -120.5t-73.5 -28.5q-30 0 -75 30t-61 30q-20 0 -33.5 -13.5t-31.5 -41.5l-60 12q39 92 67 120.5t74 28.5q36 0 78 -30t58 -30q19 0 33.5 14t31.5 41zM358 68v-68h-326v68q43 2 54.5 13t11.5 45v356q0 34 -11.5 45t-54.5 13v68h326v-68
q-43 -2 -54.5 -13t-11.5 -45v-356q0 -34 11.5 -45t54.5 -13z" />
    <glyph glyph-name="IJ.sc" horiz-adv-x="959" 
d="M358 68v-68h-326v68q43 2 54.5 13t11.5 45v356q0 34 -11.5 45t-54.5 13v68h326v-68q-43 -2 -54.5 -13t-11.5 -45v-356q0 -34 11.5 -45t54.5 -13zM870 483v-282q0 -211 -249 -211q-106 0 -167.5 37.5t-61.5 104.5q0 53 48 85h131v-49q0 -112 52 -112q23 0 35 16.5
t14.5 37.5t2.5 58v315q0 34 -11 44.5t-53 12.5v68h326v-68q-43 -2 -55 -12.5t-12 -44.5z" />
    <glyph glyph-name="Jcircumflex.sc" horiz-adv-x="579" 
d="M490 483v-282q0 -211 -249 -211q-106 0 -167.5 37.5t-61.5 104.5q0 53 48 85h131v-49q0 -112 52 -112q23 0 35 16.5t14.5 37.5t2.5 58v315q0 34 -11 44.5t-53 12.5v68h326v-68q-43 -2 -55 -12.5t-12 -44.5zM457 816l138 -169h-95l-111 80l-111 -80h-95l138 169h136z" />
    <glyph glyph-name="Kcommaaccent.sc" horiz-adv-x="724" 
d="M479 374l150 -247q22 -35 39.5 -48t45.5 -13v-66h-215q-35 24 -76 95l-123 214l178 163q27 24 27 41q0 27 -48 27v68h235v-68q-26 -1 -39 -6.5t-30 -21.5zM358 68v-68h-326v68q43 2 54.5 13t11.5 45v356q0 34 -11.5 45t-54.5 13v68h326v-68q-43 -2 -54.5 -13t-11.5 -45
v-356q0 -34 11.5 -45t54.5 -13zM391 -158h-59q-50 13 -50 62q0 28 23 46t62 18q45 0 71.5 -27.5t26.5 -70.5q0 -54 -42.5 -87t-134.5 -33v45q49 0 75 13t28 34z" />
    <glyph glyph-name="Lacute.sc" horiz-adv-x="606" 
d="M292 482v-355q0 -34 13.5 -46t48.5 -12h16q37 0 59 24t82 127h81l-34 -220h-526v68q43 2 54.5 13t11.5 45v356q0 34 -11.5 45t-54.5 13v68h326v-68q-43 -2 -54.5 -13t-11.5 -45zM223 816h184l-155 -160h-97z" />
    <glyph glyph-name="Lcaron.sc" horiz-adv-x="606" 
d="M292 482v-355q0 -34 13.5 -46t48.5 -12h16q37 0 59 24t82 127h81l-34 -220h-526v68q43 2 54.5 13t11.5 45v356q0 34 -11.5 45t-54.5 13v68h326v-68q-43 -2 -54.5 -13t-11.5 -45zM575 608l-93 -205h-76l14 205h155z" />
    <glyph glyph-name="Lcommaaccent.sc" horiz-adv-x="606" 
d="M292 482v-355q0 -34 13.5 -46t48.5 -12h16q37 0 59 24t82 127h81l-34 -220h-526v68q43 2 54.5 13t11.5 45v356q0 34 -11.5 45t-54.5 13v68h326v-68q-43 -2 -54.5 -13t-11.5 -45zM330 -158h-59q-50 13 -50 62q0 28 23 46t62 18q45 0 71.5 -27.5t26.5 -70.5
q0 -54 -42.5 -87t-134.5 -33v45q49 0 75 13t28 34z" />
    <glyph glyph-name="Ldot.sc" horiz-adv-x="606" 
d="M292 482v-355q0 -34 13.5 -46t48.5 -12h16q37 0 59 24t82 127h81l-34 -220h-526v68q43 2 54.5 13t11.5 45v356q0 34 -11.5 45t-54.5 13v68h326v-68q-43 -2 -54.5 -13t-11.5 -45zM497 287q-47 0 -75 27.5t-28 67.5t28 67.5t75 27.5q46 0 74 -27.5t28 -67.5t-28 -67.5
t-74 -27.5z" />
    <glyph glyph-name="Lslash.sc" horiz-adv-x="614" 
d="M300 312v-185q0 -34 13.5 -46t48.5 -12h16q37 0 59 24t82 127h81l-34 -220h-526v68q43 2 54.5 13t11.5 45v122l-66 -23v73l66 24v160q0 34 -11.5 45t-54.5 13v68h326v-68q-43 -2 -54.5 -13t-11.5 -45v-97l125 46v-73z" />
    <glyph glyph-name="Nacute.sc" horiz-adv-x="695" 
d="M98 125v376q-17 23 -29 29t-37 10v68h249l244 -302v177q0 32 -15.5 43.5t-60.5 13.5v68h226v-68q-43 -2 -54 -12.5t-11 -44.5v-483h-79l-348 422v-297q0 -32 16 -44t60 -14v-67h-227v67q43 2 54.5 13t11.5 45zM374 816h184l-155 -160h-97z" />
    <glyph glyph-name="Ncaron.sc" horiz-adv-x="695" 
d="M98 125v376q-17 23 -29 29t-37 10v68h249l244 -302v177q0 32 -15.5 43.5t-60.5 13.5v68h226v-68q-43 -2 -54 -12.5t-11 -44.5v-483h-79l-348 422v-297q0 -32 16 -44t60 -14v-67h-227v67q43 2 54.5 13t11.5 45zM567 825l-138 -169h-136l-138 169h95l111 -80l111 80h95z
" />
    <glyph glyph-name="Ncommaaccent.sc" horiz-adv-x="695" 
d="M98 125v376q-17 23 -29 29t-37 10v68h249l244 -302v177q0 32 -15.5 43.5t-60.5 13.5v68h226v-68q-43 -2 -54 -12.5t-11 -44.5v-483h-79l-348 422v-297q0 -32 16 -44t60 -14v-67h-227v67q43 2 54.5 13t11.5 45zM379 -158h-59q-50 13 -50 62q0 28 23 46t62 18
q45 0 71.5 -27.5t26.5 -70.5q0 -54 -42.5 -87t-134.5 -33v45q49 0 75 13t28 34z" />
    <glyph glyph-name="Ntilde.sc" horiz-adv-x="695" 
d="M98 125v376q-17 23 -29 29t-37 10v68h249l244 -302v177q0 32 -15.5 43.5t-60.5 13.5v68h226v-68q-43 -2 -54 -12.5t-11 -44.5v-483h-79l-348 422v-297q0 -32 16 -44t60 -14v-67h-227v67q43 2 54.5 13t11.5 45zM502 823l60 -12q-39 -92 -67.5 -120.5t-73.5 -28.5
q-30 0 -75 30t-61 30q-20 0 -33.5 -13.5t-31.5 -41.5l-60 12q39 92 67 120.5t74 28.5q36 0 78 -30t58 -30q19 0 33.5 14t31.5 41z" />
    <glyph glyph-name="Eng.sc" horiz-adv-x="695" 
d="M465 80l-282 342v-297q0 -32 16 -44t60 -14v-67h-227v67q43 2 54.5 13t11.5 45v376q-17 23 -29 29t-37 10v68h249l244 -302v177q0 32 -15.5 43.5t-60.5 13.5v68h226v-68q-43 -2 -54 -12.5t-11 -44.5v-357q0 -79 -16 -126t-49 -84q-22 -24 -49.5 -43t-46 -28t-51.5 -23
l-30 29l26 35q71 96 71 194z" />
    <glyph glyph-name="Oacute.sc" horiz-adv-x="695" 
d="M359 59q51 0 74 62.5t23 164.5q0 263 -120 263q-51 0 -74 -62.5t-23 -164.5q0 -263 120 -263zM338 -10q-142 0 -223 87.5t-81 214.5q0 148 90.5 237t232.5 89t223 -87.5t81 -214.5q0 -148 -90.5 -237t-232.5 -89zM364 816h184l-155 -160h-97z" />
    <glyph glyph-name="Obreve.sc" horiz-adv-x="695" 
d="M359 59q51 0 74 62.5t23 164.5q0 263 -120 263q-51 0 -74 -62.5t-23 -164.5q0 -263 120 -263zM338 -10q-142 0 -223 87.5t-81 214.5q0 148 90.5 237t232.5 89t223 -87.5t81 -214.5q0 -148 -90.5 -237t-232.5 -89zM351 653q-75 0 -117 45t-42 125h70q11 -78 89 -78t89 78
h70q0 -80 -42 -125t-117 -45z" />
    <glyph glyph-name="Ocircumflex.sc" horiz-adv-x="695" 
d="M359 59q51 0 74 62.5t23 164.5q0 263 -120 263q-51 0 -74 -62.5t-23 -164.5q0 -263 120 -263zM338 -10q-142 0 -223 87.5t-81 214.5q0 148 90.5 237t232.5 89t223 -87.5t81 -214.5q0 -148 -90.5 -237t-232.5 -89zM419 816l138 -169h-95l-111 80l-111 -80h-95l138 169h136
z" />
    <glyph glyph-name="Odieresis.sc" horiz-adv-x="695" 
d="M359 59q51 0 74 62.5t23 164.5q0 263 -120 263q-51 0 -74 -62.5t-23 -164.5q0 -263 120 -263zM338 -10q-142 0 -223 87.5t-81 214.5q0 148 90.5 237t232.5 89t223 -87.5t81 -214.5q0 -148 -90.5 -237t-232.5 -89zM152 741q0 36 26 62t63 26t63.5 -26t26.5 -62t-26.5 -62
t-63.5 -26t-63 26t-26 62zM372 741q0 36 26.5 62t61.5 26q38 0 64.5 -26t26.5 -62t-26.5 -62t-64.5 -26q-35 0 -61.5 26t-26.5 62z" />
    <glyph glyph-name="Ograve.sc" horiz-adv-x="695" 
d="M359 59q51 0 74 62.5t23 164.5q0 263 -120 263q-51 0 -74 -62.5t-23 -164.5q0 -263 120 -263zM338 -10q-142 0 -223 87.5t-81 214.5q0 148 90.5 237t232.5 89t223 -87.5t81 -214.5q0 -148 -90.5 -237t-232.5 -89zM153 816h184l67 -160h-96z" />
    <glyph glyph-name="Ohungarumlaut.sc" horiz-adv-x="695" 
d="M359 59q51 0 74 62.5t23 164.5q0 263 -120 263q-51 0 -74 -62.5t-23 -164.5q0 -263 120 -263zM338 -10q-142 0 -223 87.5t-81 214.5q0 148 90.5 237t232.5 89t223 -87.5t81 -214.5q0 -148 -90.5 -237t-232.5 -89zM272 816h158l-137 -160h-88zM467 816h158l-137 -160h-88z
" />
    <glyph glyph-name="Omacron.sc" horiz-adv-x="695" 
d="M359 59q51 0 74 62.5t23 164.5q0 263 -120 263q-51 0 -74 -62.5t-23 -164.5q0 -263 120 -263zM338 -10q-142 0 -223 87.5t-81 214.5q0 148 90.5 237t232.5 89t223 -87.5t81 -214.5q0 -148 -90.5 -237t-232.5 -89zM197 676v101h308v-101h-308z" />
    <glyph glyph-name="Oslash.sc" horiz-adv-x="695" 
d="M338 -10q-81 0 -147 32l-67 -96l-50 34l66 94q-106 86 -106 238q0 148 90.5 237t232.5 89q86 0 153 -36l58 83l50 -34l-58 -82q101 -87 101 -233q0 -148 -90.5 -237t-232.5 -89zM237 322q0 -73 8 -118l187 268q-29 77 -96 77q-51 0 -75 -63t-24 -164zM359 59q51 0 75 63
t24 164q0 64 -7 107l-185 -265q29 -69 93 -69z" />
    <glyph glyph-name="Oslashacute.sc" horiz-adv-x="695" 
d="M338 -10q-81 0 -147 32l-67 -96l-50 34l66 94q-106 86 -106 238q0 148 90.5 237t232.5 89q86 0 153 -36l58 83l50 -34l-58 -82q101 -87 101 -233q0 -148 -90.5 -237t-232.5 -89zM237 322q0 -73 8 -118l187 268q-29 77 -96 77q-51 0 -75 -63t-24 -164zM359 59q51 0 75 63
t24 164q0 64 -7 107l-185 -265q29 -69 93 -69zM360 816h184l-155 -160h-97z" />
    <glyph glyph-name="Otilde.sc" horiz-adv-x="695" 
d="M359 59q51 0 74 62.5t23 164.5q0 263 -120 263q-51 0 -74 -62.5t-23 -164.5q0 -263 120 -263zM338 -10q-142 0 -223 87.5t-81 214.5q0 148 90.5 237t232.5 89t223 -87.5t81 -214.5q0 -148 -90.5 -237t-232.5 -89zM502 823l60 -12q-39 -92 -67.5 -120.5t-73.5 -28.5
q-30 0 -75 30t-61 30q-20 0 -33.5 -13.5t-31.5 -41.5l-60 12q39 92 67 120.5t74 28.5q36 0 78 -30t58 -30q19 0 33.5 14t31.5 41z" />
    <glyph glyph-name="OE.sc" horiz-adv-x="955" 
d="M903 0h-496q-178 0 -275.5 75.5t-97.5 224.5q0 141 98 224.5t259 83.5h507v-173h-78q-23 58 -46.5 82t-72.5 24h-73v-192h52q30 0 43.5 13t20.5 51h64v-199h-64q-7 38 -20.5 51.5t-43.5 13.5h-52v-155q0 -33 16 -45t51 -12h13q42 0 71.5 25.5t74.5 94.5h76zM438 67v474
h-40q-71 0 -114.5 -59.5t-43.5 -178.5q0 -114 50.5 -175t142.5 -61h5z" />
    <glyph glyph-name="Racute.sc" horiz-adv-x="698" 
d="M312 539h-23v-228h21q68 0 99.5 28.5t31.5 89.5q0 110 -129 110zM352 0h-320v68q43 2 54.5 13t11.5 45v356q0 34 -11.5 45t-54.5 13v68h352q123 0 185.5 -46t62.5 -130q0 -113 -123 -155l92 -147q23 -38 40.5 -50t50.5 -13v-67h-211q-42 39 -72 101l-73 153h-47v-129
q0 -35 10.5 -45.5t52.5 -12.5v-67zM361 816h184l-155 -160h-97z" />
    <glyph glyph-name="Rcaron.sc" horiz-adv-x="698" 
d="M312 539h-23v-228h21q68 0 99.5 28.5t31.5 89.5q0 110 -129 110zM352 0h-320v68q43 2 54.5 13t11.5 45v356q0 34 -11.5 45t-54.5 13v68h352q123 0 185.5 -46t62.5 -130q0 -113 -123 -155l92 -147q23 -38 40.5 -50t50.5 -13v-67h-211q-42 39 -72 101l-73 153h-47v-129
q0 -35 10.5 -45.5t52.5 -12.5v-67zM554 825l-138 -169h-136l-138 169h95l111 -80l111 80h95z" />
    <glyph glyph-name="Rcommaaccent.sc" horiz-adv-x="698" 
d="M312 539h-23v-228h21q68 0 99.5 28.5t31.5 89.5q0 110 -129 110zM352 0h-320v68q43 2 54.5 13t11.5 45v356q0 34 -11.5 45t-54.5 13v68h352q123 0 185.5 -46t62.5 -130q0 -113 -123 -155l92 -147q23 -38 40.5 -50t50.5 -13v-67h-211q-42 39 -72 101l-73 153h-47v-129
q0 -35 10.5 -45.5t52.5 -12.5v-67zM386 -158h-59q-50 13 -50 62q0 28 23 46t62 18q45 0 71.5 -27.5t26.5 -70.5q0 -54 -42.5 -87t-134.5 -33v45q49 0 75 13t28 34z" />
    <glyph glyph-name="Sacute.sc" horiz-adv-x="565" 
d="M272 -10q-136 0 -219 58l-10 145h101q18 -75 51 -106.5t94 -31.5q38 0 62 16.5t24 49.5q0 29 -25 45.5t-95 32.5q-106 25 -156 73.5t-50 134.5q0 99 65.5 155t167.5 56q128 0 206 -53v-130h-86q-11 31 -19.5 48t-23.5 36t-36 27.5t-50 8.5q-40 0 -61 -19t-21 -50
q0 -32 27 -49t95 -31q106 -22 158 -70t52 -142q0 -102 -69.5 -153t-181.5 -51zM309 816h184l-155 -160h-97z" />
    <glyph glyph-name="Scaron.sc" horiz-adv-x="565" 
d="M272 -10q-136 0 -219 58l-10 145h101q18 -75 51 -106.5t94 -31.5q38 0 62 16.5t24 49.5q0 29 -25 45.5t-95 32.5q-106 25 -156 73.5t-50 134.5q0 99 65.5 155t167.5 56q128 0 206 -53v-130h-86q-11 31 -19.5 48t-23.5 36t-36 27.5t-50 8.5q-40 0 -61 -19t-21 -50
q0 -32 27 -49t95 -31q106 -22 158 -70t52 -142q0 -102 -69.5 -153t-181.5 -51zM502 825l-138 -169h-136l-138 169h95l111 -80l111 80h95z" />
    <glyph glyph-name="Scedilla.sc" horiz-adv-x="565" 
d="M175 -233l-11 49q115 0 115 39q0 32 -85 36l41 100q-115 9 -182 57l-10 145h101q18 -75 51 -106.5t94 -31.5q38 0 62 16.5t24 49.5q0 29 -25 45.5t-95 32.5q-106 25 -156 73.5t-50 134.5q0 99 65.5 155t167.5 56q128 0 206 -53v-130h-86q-11 31 -19.5 48t-23.5 36
t-36 27.5t-50 8.5q-40 0 -61 -19t-21 -50q0 -32 27 -49t95 -31q106 -22 158 -70t52 -142q0 -99 -65.5 -150t-172.5 -54l-12 -34q97 -10 97 -78q0 -53 -57 -82t-138 -29z" />
    <glyph glyph-name="Scircumflex.sc" horiz-adv-x="565" 
d="M272 -10q-136 0 -219 58l-10 145h101q18 -75 51 -106.5t94 -31.5q38 0 62 16.5t24 49.5q0 29 -25 45.5t-95 32.5q-106 25 -156 73.5t-50 134.5q0 99 65.5 155t167.5 56q128 0 206 -53v-130h-86q-11 31 -19.5 48t-23.5 36t-36 27.5t-50 8.5q-40 0 -61 -19t-21 -50
q0 -32 27 -49t95 -31q106 -22 158 -70t52 -142q0 -102 -69.5 -153t-181.5 -51zM359 816l138 -169h-95l-111 80l-111 -80h-95l138 169h136z" />
    <glyph glyph-name="Scommaaccent.sc" horiz-adv-x="565" 
d="M272 -10q-136 0 -219 58l-10 145h101q18 -75 51 -106.5t94 -31.5q38 0 62 16.5t24 49.5q0 29 -25 45.5t-95 32.5q-106 25 -156 73.5t-50 134.5q0 99 65.5 155t167.5 56q128 0 206 -53v-130h-86q-11 31 -19.5 48t-23.5 36t-36 27.5t-50 8.5q-40 0 -61 -19t-21 -50
q0 -32 27 -49t95 -31q106 -22 158 -70t52 -142q0 -102 -69.5 -153t-181.5 -51zM319 -158h-59q-50 13 -50 62q0 28 23 46t62 18q45 0 71.5 -27.5t26.5 -70.5q0 -54 -42.5 -87t-134.5 -33v45q49 0 75 13t28 34z" />
    <glyph glyph-name="Tbar.sc" horiz-adv-x="651" 
d="M32 608h587l14 -213h-78q-14 36 -20.5 51.5t-19 39t-23 33t-26.5 17.5t-36 8h-10v-205h89v-71h-89v-143q0 -32 16 -44t61 -14v-67h-343v67q45 2 61 14t16 44v143h-89v71h89v205h-10q-20 0 -36 -8t-26.5 -17.5t-23 -33t-19 -39t-20.5 -51.5h-78z" />
    <glyph glyph-name="Tcaron.sc" horiz-adv-x="651" 
d="M32 608h587l14 -213h-78q-14 36 -20.5 51.5t-19 39t-23 33t-26.5 17.5t-36 8h-10v-419q0 -32 16 -44t61 -14v-67h-343v67q45 2 61 14t16 44v419h-10q-20 0 -36 -8t-26.5 -17.5t-23 -33t-19 -39t-20.5 -51.5h-78zM531 825l-138 -169h-136l-138 169h95l111 -80l111 80h95z
" />
    <glyph glyph-name="Thorn.sc" horiz-adv-x="631" 
d="M292 412v-220h9q55 0 87.5 28t32.5 87q0 53 -35 79t-89 26h-5zM292 481h58q127 0 194 -46t67 -129q0 -92 -66.5 -134t-197.5 -42h-55v-5q0 -32 21 -43.5t79 -14.5v-67h-360v68q43 2 54.5 12.5t11.5 44.5v358q0 34 -11.5 44.5t-54.5 12.5v68h326v-68q-44 -2 -55 -12
t-11 -43v-4z" />
    <glyph glyph-name="Uacute.sc" horiz-adv-x="699" 
d="M286 483v-246q0 -71 22.5 -107.5t83.5 -36.5q60 0 93 32.5t33 119.5v238q0 32 -15.5 43.5t-59.5 13.5v68h231v-68q-43 -2 -54.5 -12.5t-11.5 -44.5v-267q0 -111 -68.5 -168.5t-177.5 -57.5q-133 0 -202.5 57.5t-69.5 168.5v267q0 34 -11 44.5t-54 12.5v68h324v-68
q-42 -2 -52.5 -12.5t-10.5 -44.5zM399 816h184l-155 -160h-97z" />
    <glyph glyph-name="Ubreve.sc" horiz-adv-x="699" 
d="M286 483v-246q0 -71 22.5 -107.5t83.5 -36.5q60 0 93 32.5t33 119.5v238q0 32 -15.5 43.5t-59.5 13.5v68h231v-68q-43 -2 -54.5 -12.5t-11.5 -44.5v-267q0 -111 -68.5 -168.5t-177.5 -57.5q-133 0 -202.5 57.5t-69.5 168.5v267q0 34 -11 44.5t-54 12.5v68h324v-68
q-42 -2 -52.5 -12.5t-10.5 -44.5zM376 653q-75 0 -117 45t-42 125h70q11 -78 89 -78t89 78h70q0 -80 -42 -125t-117 -45z" />
    <glyph glyph-name="Ucircumflex.sc" horiz-adv-x="699" 
d="M286 483v-246q0 -71 22.5 -107.5t83.5 -36.5q60 0 93 32.5t33 119.5v238q0 32 -15.5 43.5t-59.5 13.5v68h231v-68q-43 -2 -54.5 -12.5t-11.5 -44.5v-267q0 -111 -68.5 -168.5t-177.5 -57.5q-133 0 -202.5 57.5t-69.5 168.5v267q0 34 -11 44.5t-54 12.5v68h324v-68
q-42 -2 -52.5 -12.5t-10.5 -44.5zM444 816l138 -169h-95l-111 80l-111 -80h-95l138 169h136z" />
    <glyph glyph-name="Udieresis.sc" horiz-adv-x="699" 
d="M286 483v-246q0 -71 22.5 -107.5t83.5 -36.5q60 0 93 32.5t33 119.5v238q0 32 -15.5 43.5t-59.5 13.5v68h231v-68q-43 -2 -54.5 -12.5t-11.5 -44.5v-267q0 -111 -68.5 -168.5t-177.5 -57.5q-133 0 -202.5 57.5t-69.5 168.5v267q0 34 -11 44.5t-54 12.5v68h324v-68
q-42 -2 -52.5 -12.5t-10.5 -44.5zM175 741q0 36 26 62t63 26t63.5 -26t26.5 -62t-26.5 -62t-63.5 -26t-63 26t-26 62zM395 741q0 36 26.5 62t61.5 26q38 0 64.5 -26t26.5 -62t-26.5 -62t-64.5 -26q-35 0 -61.5 26t-26.5 62z" />
    <glyph glyph-name="Ugrave.sc" horiz-adv-x="699" 
d="M286 483v-246q0 -71 22.5 -107.5t83.5 -36.5q60 0 93 32.5t33 119.5v238q0 32 -15.5 43.5t-59.5 13.5v68h231v-68q-43 -2 -54.5 -12.5t-11.5 -44.5v-267q0 -111 -68.5 -168.5t-177.5 -57.5q-133 0 -202.5 57.5t-69.5 168.5v267q0 34 -11 44.5t-54 12.5v68h324v-68
q-42 -2 -52.5 -12.5t-10.5 -44.5zM188 816h184l67 -160h-96z" />
    <glyph glyph-name="Uhungarumlaut.sc" horiz-adv-x="699" 
d="M286 483v-246q0 -71 22.5 -107.5t83.5 -36.5q60 0 93 32.5t33 119.5v238q0 32 -15.5 43.5t-59.5 13.5v68h231v-68q-43 -2 -54.5 -12.5t-11.5 -44.5v-267q0 -111 -68.5 -168.5t-177.5 -57.5q-133 0 -202.5 57.5t-69.5 168.5v267q0 34 -11 44.5t-54 12.5v68h324v-68
q-42 -2 -52.5 -12.5t-10.5 -44.5zM307 816h158l-137 -160h-88zM502 816h158l-137 -160h-88z" />
    <glyph glyph-name="Umacron.sc" horiz-adv-x="699" 
d="M286 483v-246q0 -71 22.5 -107.5t83.5 -36.5q60 0 93 32.5t33 119.5v238q0 32 -15.5 43.5t-59.5 13.5v68h231v-68q-43 -2 -54.5 -12.5t-11.5 -44.5v-267q0 -111 -68.5 -168.5t-177.5 -57.5q-133 0 -202.5 57.5t-69.5 168.5v267q0 34 -11 44.5t-54 12.5v68h324v-68
q-42 -2 -52.5 -12.5t-10.5 -44.5zM222 676v101h308v-101h-308z" />
    <glyph glyph-name="Uogonek.sc" horiz-adv-x="699" 
d="M286 483v-246q0 -71 22.5 -107.5t83.5 -36.5q60 0 93 32.5t33 119.5v238q0 32 -15.5 43.5t-59.5 13.5v68h231v-68q-43 -2 -54.5 -12.5t-11.5 -44.5v-267q0 -155 -132 -207q-79 -43 -79 -102q0 -40 43 -40q36 0 70 19l19 -27q-67 -74 -145 -74q-41 0 -68.5 22.5
t-27.5 60.5q0 70 81 122h-7q-133 0 -202.5 57.5t-69.5 168.5v267q0 34 -11 44.5t-54 12.5v68h324v-68q-42 -2 -52.5 -12.5t-10.5 -44.5z" />
    <glyph glyph-name="Uring.sc" horiz-adv-x="699" 
d="M286 483v-246q0 -71 22.5 -107.5t83.5 -36.5q60 0 93 32.5t33 119.5v238q0 32 -15.5 43.5t-59.5 13.5v68h231v-68q-43 -2 -54.5 -12.5t-11.5 -44.5v-267q0 -111 -68.5 -168.5t-177.5 -57.5q-133 0 -202.5 57.5t-69.5 168.5v267q0 34 -11 44.5t-54 12.5v68h324v-68
q-42 -2 -52.5 -12.5t-10.5 -44.5zM273 748q0 43 32 72t81 29t81 -29t32 -72t-32 -72t-81 -29t-81 29t-32 72zM432 748q0 19 -12 31.5t-34 12.5t-34 -12.5t-12 -31.5t12 -31.5t34 -12.5t34 12.5t12 31.5z" />
    <glyph glyph-name="Utilde.sc" horiz-adv-x="699" 
d="M286 483v-246q0 -71 22.5 -107.5t83.5 -36.5q60 0 93 32.5t33 119.5v238q0 32 -15.5 43.5t-59.5 13.5v68h231v-68q-43 -2 -54.5 -12.5t-11.5 -44.5v-267q0 -111 -68.5 -168.5t-177.5 -57.5q-133 0 -202.5 57.5t-69.5 168.5v267q0 34 -11 44.5t-54 12.5v68h324v-68
q-42 -2 -52.5 -12.5t-10.5 -44.5zM517 823l60 -12q-39 -92 -67.5 -120.5t-73.5 -28.5q-30 0 -75 30t-61 30q-20 0 -33.5 -13.5t-31.5 -41.5l-60 12q39 92 67 120.5t74 28.5q36 0 78 -30t58 -30q19 0 33.5 14t31.5 41z" />
    <glyph glyph-name="Wacute.sc" horiz-adv-x="921" 
d="M674 254l73 193q14 37 14 55q0 20 -10.5 28t-46.5 10v68h205v-68q-42 -7 -52 -32l-198 -510h-65l-120 321l-127 -321h-67l-219 510q-11 26 -49 32v68h306v-68q-25 -3 -35.5 -12t-10.5 -26t12 -46l83 -209l69 178l-29 83q-12 27 -43 32v68h294v-68q-36 -2 -46.5 -10
t-10.5 -28q0 -17 14 -59zM505 816h184l-155 -160h-97z" />
    <glyph glyph-name="Wcircumflex.sc" horiz-adv-x="921" 
d="M674 254l73 193q14 37 14 55q0 20 -10.5 28t-46.5 10v68h205v-68q-42 -7 -52 -32l-198 -510h-65l-120 321l-127 -321h-67l-219 510q-11 26 -49 32v68h306v-68q-25 -3 -35.5 -12t-10.5 -26t12 -46l83 -209l69 178l-29 83q-12 27 -43 32v68h294v-68q-36 -2 -46.5 -10
t-10.5 -28q0 -17 14 -59zM568 816l138 -169h-95l-111 80l-111 -80h-95l138 169h136z" />
    <glyph glyph-name="Wgrave.sc" horiz-adv-x="921" 
d="M674 254l73 193q14 37 14 55q0 20 -10.5 28t-46.5 10v68h205v-68q-42 -7 -52 -32l-198 -510h-65l-120 321l-127 -321h-67l-219 510q-11 26 -49 32v68h306v-68q-25 -3 -35.5 -12t-10.5 -26t12 -46l83 -209l69 178l-29 83q-12 27 -43 32v68h294v-68q-36 -2 -46.5 -10
t-10.5 -28q0 -17 14 -59zM294 816h184l67 -160h-96z" />
    <glyph glyph-name="Wdieresis.sc" horiz-adv-x="921" 
d="M674 254l73 193q14 37 14 55q0 20 -10.5 28t-46.5 10v68h205v-68q-42 -7 -52 -32l-198 -510h-65l-120 321l-127 -321h-67l-219 510q-11 26 -49 32v68h306v-68q-25 -3 -35.5 -12t-10.5 -26t12 -46l83 -209l69 178l-29 83q-12 27 -43 32v68h294v-68q-36 -2 -46.5 -10
t-10.5 -28q0 -17 14 -59zM293 741q0 36 26 62t63 26t63.5 -26t26.5 -62t-26.5 -62t-63.5 -26t-63 26t-26 62zM513 741q0 36 26.5 62t61.5 26q38 0 64.5 -26t26.5 -62t-26.5 -62t-64.5 -26q-35 0 -61.5 26t-26.5 62z" />
    <glyph glyph-name="Yacute.sc" horiz-adv-x="644" 
d="M377 297l82 152q23 43 23 57q0 32 -55 34v68h205v-68q-21 -3 -32 -9.5t-19 -22.5l-162 -293v-90q0 -33 14 -44.5t58 -13.5v-67h-330v67q44 2 58 13.5t14 44.5v91l-172 292q-9 16 -19.5 22.5t-29.5 9.5v68h315v-68q-31 -1 -42 -8.5t-11 -25.5q0 -17 21 -57zM372 816h184
l-155 -160h-97z" />
    <glyph glyph-name="Ycircumflex.sc" horiz-adv-x="644" 
d="M377 297l82 152q23 43 23 57q0 32 -55 34v68h205v-68q-21 -3 -32 -9.5t-19 -22.5l-162 -293v-90q0 -33 14 -44.5t58 -13.5v-67h-330v67q44 2 58 13.5t14 44.5v91l-172 292q-9 16 -19.5 22.5t-29.5 9.5v68h315v-68q-31 -1 -42 -8.5t-11 -25.5q0 -17 21 -57zM417 816
l138 -169h-95l-111 80l-111 -80h-95l138 169h136z" />
    <glyph glyph-name="Ydieresis.sc" horiz-adv-x="644" 
d="M377 297l82 152q23 43 23 57q0 32 -55 34v68h205v-68q-21 -3 -32 -9.5t-19 -22.5l-162 -293v-90q0 -33 14 -44.5t58 -13.5v-67h-330v67q44 2 58 13.5t14 44.5v91l-172 292q-9 16 -19.5 22.5t-29.5 9.5v68h315v-68q-31 -1 -42 -8.5t-11 -25.5q0 -17 21 -57zM150 741
q0 36 26 62t63 26t63.5 -26t26.5 -62t-26.5 -62t-63.5 -26t-63 26t-26 62zM370 741q0 36 26.5 62t61.5 26q38 0 64.5 -26t26.5 -62t-26.5 -62t-64.5 -26q-35 0 -61.5 26t-26.5 62z" />
    <glyph glyph-name="Ygrave.sc" horiz-adv-x="644" 
d="M377 297l82 152q23 43 23 57q0 32 -55 34v68h205v-68q-21 -3 -32 -9.5t-19 -22.5l-162 -293v-90q0 -33 14 -44.5t58 -13.5v-67h-330v67q44 2 58 13.5t14 44.5v91l-172 292q-9 16 -19.5 22.5t-29.5 9.5v68h315v-68q-31 -1 -42 -8.5t-11 -25.5q0 -17 21 -57zM161 816h184
l67 -160h-96z" />
    <glyph glyph-name="Zacute.sc" horiz-adv-x="591" 
d="M251 69h93q47 0 73.5 23.5t77.5 119.5h75l-32 -212h-514v47l308 491h-91q-21 0 -36 -5t-26.5 -18.5t-17.5 -23t-18 -34.5t-18 -37h-71v188h501v-49zM334 816h184l-155 -160h-97z" />
    <glyph glyph-name="Zcaron.sc" horiz-adv-x="591" 
d="M251 69h93q47 0 73.5 23.5t77.5 119.5h75l-32 -212h-514v47l308 491h-91q-21 0 -36 -5t-26.5 -18.5t-17.5 -23t-18 -34.5t-18 -37h-71v188h501v-49zM527 825l-138 -169h-136l-138 169h95l111 -80l111 80h95z" />
    <glyph glyph-name="Zdotaccent.sc" horiz-adv-x="591" 
d="M251 69h93q47 0 73.5 23.5t77.5 119.5h75l-32 -212h-514v47l308 491h-91q-21 0 -36 -5t-26.5 -18.5t-17.5 -23t-18 -34.5t-18 -37h-71v188h501v-49zM322 648q-47 0 -75 27.5t-28 67.5t28 67.5t75 27.5q46 0 74 -27.5t28 -67.5t-28 -67.5t-74 -27.5z" />
    <glyph glyph-name="ampersand.sc" horiz-adv-x="683" 
d="M12 159q0 65 39.5 103t112.5 62q-51 64 -51 126q0 78 56.5 123t154.5 45q88 0 141.5 -35t53.5 -97q0 -94 -146 -139l130 -152q13 29 13 55q0 17 -9 24.5t-31 7.5v65h190v-65q-45 0 -63.5 -13t-28.5 -49q-11 -36 -32 -70l33 -38q22 -25 40.5 -34.5t48.5 -9.5v-68h-203
q-23 15 -47 36q-84 -46 -174 -46q-101 0 -164.5 46.5t-63.5 122.5zM323 79q19 0 42 5l-26 32l-144 170q-25 -31 -25 -74q0 -58 42 -95.5t111 -37.5zM275 503q0 -42 63 -115l4 -5q40 37 40 110q0 28 -15 46t-40 18q-52 0 -52 -54z" />
    <glyph glyph-name="caron.Slovak" horiz-adv-x="500" 
d="M360 766l-93 -205h-76l14 205h155z" />
    <glyph glyph-name="cedilla.alt" horiz-adv-x="500" 
d="M193 -44h38q55 0 83.5 -20.5t28.5 -57.5q0 -53 -57 -82t-138 -29l-11 49q115 0 115 39q0 32 -85 36z" />
    <glyph glyph-name="grave.cap" horiz-adv-x="500" 
d="M121 909h185l72 -158h-101z" />
    <glyph glyph-name="acute.cap" horiz-adv-x="500" 
d="M193 909h185l-156 -158h-101z" />
    <glyph glyph-name="circumflex.cap" horiz-adv-x="500" 
d="M318 918l138 -169h-95l-111 80l-111 -80h-95l138 169h136z" />
    <glyph glyph-name="tilde.cap" horiz-adv-x="500" 
d="M391 901l60 -12q-39 -92 -67.5 -120.5t-73.5 -28.5q-30 0 -75 30t-61 30q-20 0 -33.5 -13.5t-31.5 -41.5l-60 12q39 92 67 120.5t74 28.5q36 0 78 -30t58 -30q19 0 33.5 14t31.5 41z" />
    <glyph glyph-name="macron.cap" horiz-adv-x="500" 
d="M91 758v106h318v-106h-318z" />
    <glyph glyph-name="breve.cap" horiz-adv-x="500" 
d="M250 746q-75 0 -117 45t-42 125h70q11 -78 89 -78t89 78h70q0 -80 -42 -125t-117 -45z" />
    <glyph glyph-name="dotaccent.cap" horiz-adv-x="500" 
d="M250 743q-47 0 -75 27.5t-28 67.5t28 67.5t75 27.5q46 0 74 -27.5t28 -67.5t-28 -67.5t-74 -27.5z" />
    <glyph glyph-name="dieresis.cap" horiz-adv-x="500" 
d="M50 831q0 36 26 62t63 26t63.5 -26t26.5 -62t-26.5 -62t-63.5 -26t-63 26t-26 62zM270 831q0 36 26.5 62t61.5 26q38 0 64.5 -26t26.5 -62t-26.5 -62t-64.5 -26q-35 0 -61.5 26t-26.5 62z" />
    <glyph glyph-name="ring.cap" horiz-adv-x="500" 
d="M137 840q0 43 32 72t81 29t81 -29t32 -72t-32 -72t-81 -29t-81 29t-32 72zM296 840q0 19 -12 31.5t-34 12.5t-34 -12.5t-12 -31.5t12 -31.5t34 -12.5t34 12.5t12 31.5z" />
    <glyph glyph-name="hungarumlaut.cap" horiz-adv-x="500" 
d="M112 909h158l-137 -158h-88zM307 909h158l-137 -158h-88z" />
    <glyph glyph-name="caron.cap" horiz-adv-x="500" 
d="M456 921l-138 -169h-136l-138 169h95l111 -80l111 80h95z" />
    <glyph glyph-name="exclamdown.cap" horiz-adv-x="336" 
d="M66 608q0 42 30 72.5t71 30.5q42 0 72 -30.5t30 -72.5q0 -44 -29.5 -75t-72.5 -31q-41 0 -71 31t-30 75zM212 461l59 -461h-206l59 461h88z" />
    <glyph glyph-name="questiondown.cap" horiz-adv-x="480" 
d="M186 122q0 -63 61 -63q68 0 68 82v53h110q39 -20 39 -66q0 -62 -58.5 -100t-159.5 -38q-106 0 -163 42t-57 125q0 59 28.5 99t88.5 74q48 27 64.5 50.5t16.5 55.5v26h54q62 -36 62 -103q0 -70 -61 -117q-4 -3 -15.5 -12t-15.5 -12.5t-14 -11.5t-14 -12.5t-11 -12.5
t-10 -13.5t-6.5 -13.5t-5 -15.5t-1.5 -16.5zM354 607q0 -44 -29.5 -75t-71.5 -31q-43 0 -72.5 31t-29.5 75q0 42 30 72.5t72 30.5t71.5 -30.5t29.5 -72.5z" />
    <glyph glyph-name="exclam.sc" horiz-adv-x="305" 
d="M255 608l-60 -383h-85l-60 383h205zM54 86q0 40 28.5 68.5t69.5 28.5t70 -28.5t29 -68.5t-29 -68t-70 -28t-69.5 28t-28.5 68z" />
    <glyph glyph-name="exclamdown.sc" horiz-adv-x="305" 
d="M195 383l60 -383h-205l60 383h85zM54 522q0 40 28.5 68t69.5 28t70 -28t29 -68t-29 -68.5t-70 -28.5t-69.5 28.5t-28.5 68.5z" />
    <glyph glyph-name="question.sc" horiz-adv-x="433" 
d="M264 507q0 46 -47 46q-56 0 -56 -68v-50h-103q-38 18 -38 62q0 55 52.5 88t146.5 33q199 0 199 -144q0 -96 -103 -149q-44 -22 -58.5 -41t-14.5 -43v-21h-52q-61 32 -61 91t51 94q44 30 64 52t20 50zM108 86q0 40 28.5 68.5t69.5 28.5t70 -28.5t29 -68.5t-29 -68t-70 -28
t-69.5 28t-28.5 68z" />
    <glyph glyph-name="questiondown.sc" horiz-adv-x="433" 
d="M169 101q0 -46 47 -46q56 0 56 68v50h103q38 -18 38 -62q0 -55 -52.5 -88t-146.5 -33q-199 0 -199 144q0 96 103 149q44 22 58.5 41t14.5 43v21h52q61 -32 61 -91t-51 -94q-44 -30 -64 -52t-20 -50zM325 522q0 -40 -28.5 -68.5t-69.5 -28.5t-70 28.5t-29 68.5t29 68
t70 28t69.5 -28t28.5 -68z" />
    <glyph glyph-name="guilsinglleft.cap" horiz-adv-x="338" 
d="M35 341v10l181 200h87l-113 -205l113 -205h-87z" />
    <glyph glyph-name="guilsinglright.cap" horiz-adv-x="338" 
d="M303 351v-10l-179 -200h-89l114 205l-114 205h89z" />
    <glyph glyph-name="guillemotleft.cap" horiz-adv-x="564" 
d="M35 341v10l181 200h87l-113 -205l113 -205h-87zM260 341v10l181 200h88l-114 -205l114 -205h-88z" />
    <glyph glyph-name="guillemotright.cap" horiz-adv-x="564" 
d="M303 351v-10l-179 -200h-89l114 205l-114 205h89zM529 351v-10l-180 -200h-88l114 205l-114 205h88z" />
    <glyph glyph-name="slash.cap" horiz-adv-x="442" 
d="M410 770l-272 -871h-107l272 871h107z" />
    <glyph glyph-name="backslash.cap" horiz-adv-x="442" 
d="M302 -101l-270 871h107l270 -871h-107z" />
    <glyph glyph-name="bar.cap" horiz-adv-x="302" 
d="M202 770v-871h-102v871h102z" />
    <glyph glyph-name="brokenbar.cap" horiz-adv-x="302" 
d="M202 770v-371h-102v371h102zM202 270v-371h-102v371h102z" />
    <glyph glyph-name="slash.sc" horiz-adv-x="429" 
d="M404 692l-272 -804h-107l272 804h107z" />
    <glyph glyph-name="backslash.sc" horiz-adv-x="429" 
d="M297 -112l-272 804h107l272 -804h-107z" />
    <glyph glyph-name="bar.sc" horiz-adv-x="302" 
d="M202 692v-804h-102v804h102z" />
    <glyph glyph-name="brokenbar.sc" horiz-adv-x="302" 
d="M202 225v-337h-102v337h102zM202 692v-337h-102v337h102z" />
    <glyph glyph-name="periodcentered.cap" horiz-adv-x="315" 
d="M50 355q0 47 31 77.5t76 30.5q46 0 77 -30.5t31 -77.5t-31 -77t-77 -30q-45 0 -76 30t-31 77z" />
    <glyph glyph-name="bullet.cap" horiz-adv-x="422" 
d="M50 359q0 68 47.5 116.5t113.5 48.5q67 0 114 -48.5t47 -116.5q0 -67 -47.5 -115.5t-113.5 -48.5t-113.5 48.5t-47.5 115.5z" />
    <glyph glyph-name="hyphen.cap" horiz-adv-x="360" 
d="M310 297h-260v116h260v-116z" />
    <glyph glyph-name="endash.cap" horiz-adv-x="580" 
d="M530 312h-480v86h480v-86z" />
    <glyph glyph-name="emdash.cap" horiz-adv-x="1000" 
d="M950 398v-86h-900v86h900z" />
    <glyph glyph-name="parenleft.cap" horiz-adv-x="388" 
d="M60 334q0 123 56 236t156 200h96q-90 -96 -125 -203t-35 -233t35 -233t125 -203h-96q-100 87 -156 200t-56 236z" />
    <glyph glyph-name="parenright.cap" horiz-adv-x="388" 
d="M328 334q0 -123 -56 -236t-156 -200h-96q90 96 125 203t35 233t-35 233t-125 203h96q100 -87 156 -200t56 -236z" />
    <glyph glyph-name="bracketleft.cap" horiz-adv-x="357" 
d="M209 658v-647q0 -36 22.5 -46t90.5 -14v-52h-237v871h237v-52q-68 -4 -90.5 -14t-22.5 -46z" />
    <glyph glyph-name="bracketright.cap" horiz-adv-x="357" 
d="M148 11v647q0 36 -22.5 46t-90.5 14v52h237v-871h-237v52q68 4 90.5 14t22.5 46z" />
    <glyph glyph-name="braceleft.cap" horiz-adv-x="393" 
d="M50 317v36q83 17 83 100v189q0 128 225 128v-41q-41 -5 -68 -28.5t-27 -69.5v-184q0 -50 -20 -73.5t-71 -38.5q51 -15 71 -38.5t20 -73.5v-183q0 -46 27 -69.5t68 -28.5v-42q-225 0 -225 128v189q0 83 -83 100z" />
    <glyph glyph-name="braceright.cap" horiz-adv-x="393" 
d="M343 353v-36q-83 -17 -83 -100v-189q0 -128 -225 -128v42q41 5 68 28.5t27 69.5v183q0 50 20 73.5t71 38.5q-51 15 -71 38.5t-20 73.5v184q0 46 -27 69.5t-68 28.5v41q225 0 225 -128v-189q0 -83 83 -100z" />
    <glyph glyph-name="parenleft.sc" horiz-adv-x="389" 
d="M60 290q0 114 55 218.5t155 183.5h99q-90 -88 -125.5 -187t-35.5 -215t35.5 -215t125.5 -187h-99q-100 79 -155 183.5t-55 218.5z" />
    <glyph glyph-name="parenright.sc" horiz-adv-x="389" 
d="M329 290q0 -114 -55 -218.5t-155 -183.5h-99q90 88 125.5 187t35.5 215t-35.5 215t-125.5 187h99q100 -79 155 -183.5t55 -218.5z" />
    <glyph glyph-name="bracketleft.sc" horiz-adv-x="357" 
d="M209 580v-579q0 -36 22.5 -46t90.5 -14v-52h-237v803h237v-52q-68 -4 -90.5 -14t-22.5 -46z" />
    <glyph glyph-name="bracketright.sc" horiz-adv-x="357" 
d="M148 1v579q0 36 -22.5 46t-90.5 14v52h237v-803h-237v52q68 4 90.5 14t22.5 46z" />
    <glyph glyph-name="braceleft.sc" horiz-adv-x="383" 
d="M162 290q51 -15 71 -38.5t20 -73.5v-150q0 -46 27 -69.5t68 -28.5v-42q-225 0 -225 128v156q0 83 -83 100v36q83 17 83 100v156q0 128 225 128v-42q-41 -5 -68 -28.5t-27 -69.5v-150q0 -50 -20 -73.5t-71 -38.5z" />
    <glyph glyph-name="braceright.sc" horiz-adv-x="383" 
d="M221 290q-51 15 -71 38.5t-20 73.5v150q0 46 -27 69.5t-68 28.5v42q225 0 225 -128v-156q0 -83 83 -100v-36q-83 -17 -83 -100v-156q0 -128 -225 -128v42q41 5 68 28.5t27 69.5v150q0 50 20 73.5t71 38.5z" />
    <glyph glyph-name="at.cap" horiz-adv-x="907" 
d="M606 145q-70 0 -94.5 42.5t-12.5 109.5h-5q-73 -152 -169 -152q-45 0 -75 35t-30 94q0 106 75 196t182 90q58 0 87 -40l80 30h56l-35 -94l-51 -179q-9 -29 -2.5 -51.5t28.5 -22.5q55 0 95.5 61.5t40.5 172.5q0 112 -80 192t-210 80q-161 0 -256.5 -108.5t-95.5 -281.5
q0 -157 97.5 -239.5t245.5 -82.5q82 0 142.5 16.5t127.5 52.5l18 -33q-119 -102 -302 -102q-113 0 -206 44.5t-150 133t-57 205.5q0 192 123 319.5t313 127.5q169 0 270 -95.5t101 -228.5q0 -76 -23.5 -135t-61.5 -91.5t-80 -49t-86 -16.5zM392 240q35 0 76.5 71t60.5 165
q-13 34 -36 34q-53 0 -92 -72.5t-39 -147.5q0 -50 30 -50z" />
    <glyph glyph-name="florin.op" horiz-adv-x="555" 
d="M45 259l8 62h90l3 27q18 161 80.5 240t179.5 79q62 0 105.5 -22t43.5 -71q0 -52 -47 -67h-64q0 26 -1 42.5t-5 33.5t-12.5 25.5t-21.5 8.5q-35 0 -41 -58l-26 -238h114l-5 -62h-116l-12 -115q-18 -161 -80.5 -240t-179.5 -79q-62 0 -105.5 22t-43.5 71q0 52 47 67h64
q0 -26 1 -42.5t5 -33.5t12.5 -25.5t21.5 -8.5q35 0 41 58l35 326h-91z" />
    <glyph glyph-name="Euro.op" horiz-adv-x="683" 
d="M28 359v54h87q28 116 114.5 185t202.5 69q127 0 196 -63v-152h-86q-17 76 -42.5 111t-76.5 35q-52 0 -81.5 -50.5t-37.5 -134.5h187l-7 -54h-183v-16q0 -31 1 -45h175l-8 -55h-163q23 -179 130 -179q49 0 81.5 37t54.5 121h82l-12 -180q-77 -52 -218 -52
q-126 0 -209.5 67.5t-104.5 185.5h-82v55h76v17q0 29 2 44h-78z" />
    <glyph glyph-name="dollar.op" horiz-adv-x="575" 
d="M179 -113l19 109q-96 15 -151 57l-11 156h92q14 -108 83 -142l32 175l-16 5q-93 27 -138.5 76.5t-45.5 127.5q0 100 68 158t177 58q5 0 15.5 -0.5t15.5 -0.5l18 97h55l-19 -103q80 -15 129 -50v-142h-78q-13 87 -64 118l-31 -169l31 -9q179 -55 179 -205
q0 -105 -73.5 -159t-189.5 -54q-16 0 -24 1l-18 -104h-55zM299 226l-4 1l-32 -175q9 -1 28 -1q45 0 73 22.5t28 64.5q0 31 -20.5 52.5t-72.5 35.5zM183 526q0 -36 20.5 -56.5t64.5 -33.5l9 -3l31 171q-15 3 -32 3q-44 0 -68.5 -23.5t-24.5 -57.5z" />
    <glyph glyph-name="sterling.op" horiz-adv-x="672" 
d="M98 313v55h92l1 37q5 128 65 195t169 67q84 0 135 -29t51 -94q0 -53 -42 -71h-99v59q0 79 -45 79q-40 0 -47 -73l-15 -170h146v-55h-151l-3 -36q-7 -77 -22 -114q93 -29 170 -29q44 0 61 17.5t17 63.5l42 10q17 -34 17 -83q0 -71 -39.5 -111.5t-114.5 -40.5
q-103 0 -199 80q-25 -39 -68.5 -59.5t-92.5 -20.5q-55 0 -87 29t-32 78q0 51 31.5 80t80.5 29q36 0 65 -12l4 119h-90zM121 44q55 0 58 85q-32 19 -60 19q-25 0 -37.5 -14t-12.5 -37q0 -26 14 -39.5t38 -13.5z" />
    <glyph glyph-name="yen.op" horiz-adv-x="682" 
d="M101 315v55h72l-109 186q-10 18 -21.5 25t-32.5 11v65h327v-65q-37 -1 -49.5 -9.5t-12.5 -27.5t21 -58l98 -182l99 182q23 43 23 58q0 34 -64 37v65h220v-65q-39 -7 -55 -36l-105 -186h83v-55h-114l-36 -65h150v-54h-159v-66q0 -37 16.5 -50t64.5 -15v-65h-346v65
q49 2 65.5 15t16.5 50v66h-152v54h143l-38 65h-105z" />
    <glyph glyph-name="florin.lt" 
d="M95 289l8 62h93l5 42q18 161 80.5 240t179.5 79q62 0 105.5 -22t43.5 -71q0 -52 -47 -67h-64q0 26 -1 42.5t-5 33.5t-12.5 25.5t-21.5 8.5q-35 0 -41 -58l-28 -253h111l-5 -62h-112l-16 -145q-18 -161 -80.5 -240t-179.5 -79q-62 0 -105.5 22t-43.5 71q0 52 47 67h64
q0 -26 1 -42.5t5 -33.5t12.5 -25.5t21.5 -8.5q35 0 41 58l38 356h-94z" />
    <glyph glyph-name="Euro.lt" 
d="M12 383v58h64q26 124 107.5 197.5t192.5 73.5q120 0 186 -67v-162h-94q-8 37 -12 54.5t-12 41.5t-17.5 34t-24.5 17.5t-35 7.5q-94 0 -107 -197h166l-8 -58h-160v-17v-47h153l-8 -59h-142q7 -91 32.5 -141t77.5 -50q48 0 74 37.5t48 130.5h90l-12 -192q-73 -55 -206 -55
q-120 0 -197.5 72t-96.5 198h-59v59h54v18q0 31 2 46h-56z" />
    <glyph glyph-name="dollar.lt" 
d="M188 -113l20 110q-102 17 -158 60l-11 167h97q14 -114 85 -152l34 188l-15 5q-99 30 -146.5 81.5t-47.5 135.5q0 107 72 168.5t187 61.5q21 0 31 -1l19 103h55l-20 -109q81 -13 140 -53v-153h-82q-15 97 -71 130l-33 -183l36 -11q93 -30 141 -80.5t48 -137.5
q0 -112 -77 -169.5t-200 -57.5q-6 0 -16 0.5t-15 0.5l-18 -104h-55zM317 242l-10 3l-34 -189q22 -2 35 -2q47 0 76.5 24.5t29.5 68.5q0 34 -21.5 56.5t-75.5 38.5zM194 562q0 -38 21.5 -60t67.5 -36l9 -3l33 183q-15 3 -33 3q-46 0 -72 -25.5t-26 -61.5z" />
    <glyph glyph-name="cent.lt" 
d="M221 -117l21 116q-89 21 -142 89.5t-53 173.5q0 137 85.5 222t212.5 86l20 107h58l-20 -111q71 -10 112 -43.5t41 -93.5q0 -51 -48 -70h-76v44q0 76 -42 95l-66 -365q22 -7 51 -7q85 0 148 80l44 -23q-52 -193 -251 -193q-12 0 -18 1l-19 -108h-58zM211 327
q0 -113 60 -165l63 345q-54 0 -88.5 -46.5t-34.5 -133.5z" />
    <glyph glyph-name="sterling.lt" 
d="M87 334v58h83v39q0 136 57 208.5t164 72.5q78 0 125.5 -30.5t47.5 -97.5q0 -58 -43 -79h-99v63q0 46 -4.5 65t-22.5 19q-20 0 -27 -18.5t-10 -58.5l-14 -183h127v-58h-131l-2 -38q-7 -84 -22 -123q84 -32 145 -32q37 0 51.5 19t14.5 62l44 11q16 -37 16 -89
q0 -75 -37 -114.5t-107 -39.5q-78 0 -168 85q-49 -85 -148 -85q-61 0 -93 30.5t-32 83.5q0 51 31.5 82.5t76.5 31.5q35 0 60 -11v127h-83zM111 50q52 0 55 88q-26 18 -53 18q-22 0 -35 -14t-13 -38q0 -54 46 -54z" />
    <glyph glyph-name="yen.lt" 
d="M72 341v59h67l-90 196q-8 18 -18.5 25.5t-30.5 11.5v69h313v-69q-32 -1 -44 -9.5t-12 -29.5q0 -15 19 -64l77 -200l83 203q20 51 20 61q0 20 -13.5 28.5t-43.5 10.5v69h201v-69q-20 -4 -31 -11.5t-19 -25.5l-85 -196h76v-59h-102l-29 -68h131v-57h-139v-79
q0 -39 17 -52.5t68 -15.5v-69h-366v69q50 2 67.5 15.5t17.5 52.5v79h-134v57h126l-32 68h-94z" />
    <glyph glyph-name="florin.ot" 
d="M97 259l8 62h90l3 27q18 161 80.5 240t179.5 79q62 0 105.5 -22t43.5 -71q0 -52 -47 -67h-64q0 26 -1 42.5t-5 33.5t-12.5 25.5t-21.5 8.5q-35 0 -41 -58l-26 -238h114l-5 -62h-116l-12 -115q-18 -161 -80.5 -240t-179.5 -79q-62 0 -105.5 22t-43.5 71q0 52 47 67h64
q0 -26 1 -42.5t5 -33.5t12.5 -25.5t21.5 -8.5q35 0 41 58l35 326h-91z" />
    <glyph glyph-name="Euro.ot" 
d="M17 359v54h67q25 117 103.5 185.5t186.5 68.5q119 0 183 -63v-152h-88q-16 78 -35 112t-60 34q-88 0 -101 -185h154l-7 -54h-149v-16v-45h142l-8 -55h-131q16 -179 108 -179q41 0 67.5 36t47.5 122h84l-11 -180q-73 -52 -204 -52q-118 0 -193.5 67.5t-93.5 185.5h-62v55
h57v17q0 29 2 44h-59z" />
    <glyph glyph-name="dollar.ot" 
d="M191 -113l19 109q-96 15 -151 57l-11 156h92q14 -108 83 -142l32 175l-16 5q-93 27 -138.5 76.5t-45.5 127.5q0 100 68 158t177 58q5 0 15.5 -0.5t15.5 -0.5l18 97h55l-19 -103q80 -15 129 -50v-142h-78q-13 87 -64 118l-31 -169l31 -9q179 -55 179 -205
q0 -105 -73.5 -159t-189.5 -54q-16 0 -24 1l-18 -104h-55zM311 226l-4 1l-32 -175q9 -1 28 -1q45 0 73 22.5t28 64.5q0 31 -20.5 52.5t-72.5 35.5zM195 526q0 -36 20.5 -56.5t64.5 -33.5l9 -3l31 171q-15 3 -32 3q-44 0 -68.5 -23.5t-24.5 -57.5z" />
    <glyph glyph-name="sterling.ot" 
d="M85 313v55h80v27q0 132 60 202t164 70q173 0 173 -123q0 -53 -39 -71h-92v59q0 79 -38 79q-23 0 -31 -18.5t-11 -54.5l-14 -170h130v-55h-134l-3 -36q-7 -80 -21 -114q87 -29 141 -29q41 0 56.5 17.5t15.5 63.5l42 10q16 -36 16 -83q0 -71 -37 -111.5t-106 -40.5
q-37 0 -72 14.5t-53.5 28t-44.5 37.5q-23 -38 -66.5 -59t-89.5 -21q-51 0 -81 29t-30 78q0 51 29 80t75 29q33 0 61 -12v119h-80zM108 46q49 0 52 83q-28 19 -54 19q-44 0 -44 -51t46 -51z" />
    <glyph glyph-name="yen.ot" 
d="M82 314v56h61l-94 186q-9 18 -19.5 25t-29.5 11v65h306v-65q-33 -1 -44.5 -9.5t-11.5 -27.5t18 -59l85 -182l86 182q20 43 20 59q0 34 -58 37v65h199v-65q-20 -4 -31 -11t-19 -25l-90 -186h70v-56h-97l-31 -65h128v-54h-135v-65q0 -37 16.5 -50t64.5 -15v-65h-346v65
q49 2 65.5 15t16.5 50v65h-130v54h122l-33 65h-89z" />
    <glyph glyph-name="zero.op" horiz-adv-x="664" 
d="M242 304q0 -249 90 -249t90 249t-90 249t-90 -249zM39 304q0 141 80 227.5t213 86.5t213 -86.5t80 -227.5t-80 -227.5t-213 -86.5t-213 86.5t-80 227.5z" />
    <glyph glyph-name="one.op" horiz-adv-x="444" 
d="M266 618h57v-482q0 -46 15 -57t87 -15v-64h-391v64q75 4 89.5 15t14.5 57v281h-104v63l36 7q72 14 112.5 41.5t83.5 89.5z" />
    <glyph glyph-name="two.op" horiz-adv-x="548" 
d="M188 144h173q47 0 68.5 14.5t45.5 57.5h49l-20 -216h-484v60l98 94q18 18 55.5 51.5t53.5 50t37.5 42t30 48t8.5 46.5q0 41 -24.5 66t-72.5 25q-76 0 -148 -77l-36 37q40 76 108.5 125.5t157.5 49.5q94 0 146 -47t52 -126q0 -24 -7.5 -47t-17 -41.5t-30 -39.5t-36 -35
t-46.5 -35.5t-49 -33t-56 -35t-56 -34.5z" />
    <glyph glyph-name="three.op" horiz-adv-x="530" 
d="M301 300q93 -5 149 -54t56 -134q0 -102 -82.5 -159.5t-193.5 -57.5q-102 0 -156 34t-54 90q0 50 43 70h95q0 -134 93 -134q40 0 61 29t21 77q0 157 -166 157l-12 44q142 60 142 142q0 37 -22 59.5t-64 22.5q-40 0 -71 -18t-64 -50l-38 32q37 75 100.5 121.5t149.5 46.5
q82 0 132.5 -41.5t50.5 -108.5q0 -68 -49.5 -111t-120.5 -57z" />
    <glyph glyph-name="four.op" horiz-adv-x="642" 
d="M114 154h212v304zM501 -93h-175v178h-312v54l334 469h153v-454h127v-69h-127v-178z" />
    <glyph glyph-name="five.op" horiz-adv-x="524" 
d="M258 -45q41 0 65 25.5t24 67.5q0 72 -76.5 112.5t-208.5 50.5l63 397h333v-171h-304l-10 -67q158 -10 252 -71t94 -181q0 -104 -74.5 -163.5t-185.5 -59.5q-102 0 -156 34t-54 90q0 50 43 70h95q0 -134 100 -134z" />
    </font>
</defs>
</svg>
