<svg height="48" viewBox="0 0 214 48" width="214" xmlns="http://www.w3.org/2000/svg"><path d="m16.5698242 20.6308594h.2587891c.1897796 0 .2846679.0948883.2846679.2846679l.5434571-.2846679c1.0351614 0 2.3204676.6383399 3.855957 1.915039 2.7431778.1897796 4.1147461.7418574 4.1147461 1.65625-.6728549.8108765-1.6821222 1.4492165-3.027832 1.9150391-.1725269 0-.2587891-.0862622-.2587891-.2587891-.1897796 0-.284668.0862622-.284668.2587891l-1.371582-.2587891c-1.2076883 0-2.7604072 2.0099083-4.6582031 6.0297852-.2070323.0172527-1.4923385 2.3118261-3.855957 6.8837891l.258789.543457.569336-.284668h.543457c.6556022 0 1.4837189.0948884 2.484375.284668l.543457-.284668c.724613.2760431 1.0869141.552082 1.0869141.828125v.5434571c0 1.224941-2.6568745 2.3290966-7.97070314 3.3125l-.3386719.704411c-1.41322269 2.9809261-2.1198242 5.0320742-2.1198242 6.1534991v1.112793c.24153767 2.0185648.87987764 3.027832 1.91503906 3.027832l.21706652-.0042251c1.03216436-.0366174 3.25438686-.3112485 6.66672256-.8238999 1.6390056.2932957 2.4584961.6555968 2.4584961 1.0869141 0 .9834033-2.475724 1.9926706-7.4272461 3.027832h-1.37158204c-3.39878002 0-5.96076612-2.0185345-7.68603516-6.0556641 0-2.7431777 1.19041778-6.1246543 3.57128906-10.1445312l.09764998-.2629305c.50883712-1.3107399 1.76159568-3.7937136 3.75830705-7.4489836l6.02978511-11.2573242c.0345054-1.4664787.4054327-2.199707 1.112793-2.199707zm14.0263672 28.1303711h.4916992l.6111567.0386232c2.4571446.1780877 3.7975216.5706463 4.0211675 1.1776854 0 .9143926-2.6741269 1.9667909-8.0224609 3.1572265l-.3297957.2715826c-1.0896933.9239345-2.6101204 2.4551397-4.5613176 4.5936518h-1.4492187c-.8108765-.6556022-1.2163086-1.3888306-1.2163086-2.199707h.2329101l-.2329101-.4658203c0-1.1386776 2.1134229-3.1744645 6.340332-6.1074219l.9575195-.2329102v.2329102c.7418657-.3105484 1.7942641-.4658203 3.1572266-.4658203zm8.4106445-2.1220703h.5434571c1.2594464.6210968 1.8891601 1.6131116 1.8891601 2.9760742l-.1980535.6836806c-.2130172.7629885-.3195246 1.2597008-.3195246 1.4901475 4.1061403-2.7086724 7.530748-4.0629883 10.2739258-4.0629883 1.9840594 1.4147206 2.9760742 2.6741481 2.9760742 3.7783203 0 1.3457099-.2760389 2.6051374-.828125 3.7783203.1897796.3278012.284668.6901022.284668 1.0869141 0 .2932957-.3623011.6555968-1.0869141 1.0869141h-.2587891c-1.3974679 0-2.3032205-.9920149-2.7172851-2.9760742v-1.8891602h-.2587891c-3.7265811 1.5699948-7.0649266 3.3728739-10.0151367 5.4086914h-.284668c-1.6907636 0-2.9501911-1.1731654-3.7783203-3.5195312l.3098581-.823873c1.4266803-3.744366 2.5828241-6.08349 3.4684622-7.0174356zm23.5239258.2329101c3.1572424 0 4.7358399 1.1817916 4.7358399 3.5454102 0 1.0351614-1.1817916 2.3808511-3.5454102 4.0371093 1.725269 0 2.5878906.3105438 2.5878906.9316407-.1725269.8626345-1.2766825 1.7338823-3.3125 2.6137695h-1.4233398c-3.623065-1.224941-5.4345703-3.1227085-5.4345703-5.6933594v-1.3974609c.4830753-1.3802152 2.1393087-2.648269 4.96875-3.8041992zm19.5126953-1.5009765.6469727.6987304v1.1645508l-1.3867003.8581265c-2.2845271 1.4297625-3.4267763 2.2392541-3.4267763 2.4284946v.2329101c0 .8108765.31917 1.5096.9575196 2.0961915v.9316406c0 1.9668067-2.1479278 3.3728799-6.4438477 4.2182617-.8626345 0-3.001936-.6210875-6.4179688-1.8632812v-.6987305c0-.2587904 1.8201316-.6555963 5.4604493-1.1904297 1.2939518-.500328 1.9409179-.9661437 1.9409179-1.3974609-.8626345-1.3284572-1.2939453-2.3377245-1.2939453-3.0278321 2.4843874-2.9674627 5.8054805-4.4511718 9.9633789-4.4511718zm26.862305-31.494629c.741865.1897796 1.112793.5607069 1.112793 1.112793 0 .6901076-1.587224 2.94155-4.761719 6.7543945 0 .3703578-.901727 1.7852109-2.705207 4.2445983l-.400262.5429994c-2.6914195 3.6403177-4.6581967 6.7285029-5.9003904 9.2646484v.828125h1.4233398c.4140646 0 .7849919-.0862621 1.112793-.258789.1897796 0 .2846679.0862621.2846679.258789l1.3974607-.258789h1.42334c.552086 0 .828125.0862621.828125.258789l1.397461-.258789c4.865259 0 9.644182-.1897768 14.336914-.569336v.284668l.569336-.284668h2.536133c.414064 0 .784992-.0948883 1.112793-.2846679.189779 0 .284668.0948883.284668.2846679l1.848235-.1568583c2.023663-.1800962 3.184594-.3175878 3.482819-.4124776.327802.1897796.707355.284668 1.138672.284668h.828125c.431318 0 .810871-.0948884 1.138672-.284668l.543457.284668 2.251465-.569336.569336.284668.569336-.284668.543457.284668 1.966797-.284668c.18978 0 .284668.0948884.284668.284668 1.673511-.3795592 3.924953-.5693359 6.754394-.5693359.18978 0 .284668.0948883.284668.2846679l.543457-.2846679h1.966797c.89714 0 1.837398-.0862622 2.820801-.2587891.690108.1725269 1.535477.2587891 2.536133.2587891.414064 0 .784992-.0862622 1.112793-.2587891l.569336.2587891 5.046386-.5434571v.284668l.569336-.284668h1.966797c.621097 0 1.086913.0948884 1.397461.284668l4.50293-.5693359.569336.2846679.569336-.2846679c.172527 0 .258789.0948883.258789.2846679 2.104828-.3795592 4.546047-.5693359 7.32373-.5693359v.284668l.543457-.284668h3.390137c.414065 0 .784992.0948884 1.112793.284668.327801-.1897796.707355-.284668 1.138672-.284668h.828125c.18978 0 .284668.0948884.284668.284668.672855-.3795592 1.518224-.569336 2.536133-.569336l.543457.284668c.379559-.1897796.664224-.284668.854004-.284668.189779 0 .284668.0948884.284668.284668l1.397461-.284668h.854003c1.121425 0 1.682129.0948884 1.682129.284668l2.794922-.284668h14.336914c.431318 0 .810871.0948884 1.138672.284668.759119-.3795592 1.319823-.5693359 1.682129-.5693359.051758.3795591.241535.5693359.569336.5693359l1.397461-.284668v.284668l.569336-.284668c.327801.1897796.698728.284668 1.112793.284668 0 .5693388-1.02652.8540039-3.07959.8540039h-1.966797c-.345054 0-1.190423.2760389-2.536133.828125v-.284668l-.569336.284668-.828125-.5693359-.569336.2846679-.569335-.2846679h-.284668v.2846679h.569335l-.284667.569336-1.397461-.569336-1.397461.569336-.569336-.284668-1.201821.1579913c-2.164516.2742309-3.730694.4113446-4.69857.4113446l-.284668-.5693359h.569336v-.5693359h-.284668l-.569336.2846679c0-.1897796-.094888-.2846679-.284668-.2846679v.2846679l.284668.569336-.569336.2846679h-.284668c0-.7591183-.370927-1.1386718-1.112793-1.1386718v.2846679c.18978.3623065.284668.6469717.284668.8540039h-2.536133l-.569336-.2846679c0 .3795592-.18115.5693359-.543457.5693359h-.854003c-.18978 0-.284668-.0948884-.284668-.284668l-.543457.284668h-.854004c-.18978 0-.284668-.0948884-.284668-.284668l-.569336.284668h-1.966797c-.172527 0-.258789-.0948884-.258789-.284668l-2.251465.569336c-.327801-.1897796-.707355-.284668-1.138672-.284668l-1.112793.284668v-.284668l-.569336.284668h-3.648926c-.414064 0-.784991.0862621-1.112793.258789l-.354254-.0694707c-.712727-.1515164-1.069085-.3095106-1.069085-.4739863-.37956.3105484-1.966783.5865873-4.761719.828125-.18978 0-.284668-.0948884-.284668-.284668l-1.397461.284668h-3.390137c-.362306.0690108-.543457.2587875-.543457.5693359l-.569336-.2846679h-3.648926c-.431317 0-.81087.0948883-1.138671.2846679-.327802-.1897796-.698729-.2846679-1.112793-.2846679h-.284668c-.172527 0-.923008.1897767-2.251465.5693359l-.284668-.5693359c-.396812.1897796-1.423332.3795563-3.07959.5693359-.983403-.1897796-2.113438-.284668-3.390137-.284668l-.258789.569336-1.138672-.569336c0 .3795592-.189776.569336-.569336.569336-.172526 0-.258789-.0948884-.258789-.284668-.948898.3795592-1.60449.5693359-1.966797.5693359 0-.5693387-.284665-.8540039-.854003-.8540039 0 .3795592-.189777.569336-.569336.569336-.327801-.1897796-.698729-.284668-1.112793-.284668l.284668.5693359v.284668h-.854004c0-.5693388-.276039-.8540039-.828125-.8540039v.8540039h-1.708008c-.172527 0-.258789-.0948884-.258789-.284668l-1.138672.5434571-.569336-.2587891c-.327801.1725269-.698728.2587891-1.112793.2587891v-.5434571h-.284668l-.828125.5434571-.854004-.5434571c0 .3623065-.284665.5434571-.854004.5434571l-.275351-.0103515c-.499634-.027604-1.529263-.1104161-3.088907-.2484376v.2587891l-.569335-.2587891h-.543457c-.37956.0517581-.569336.2329086-.569336.543457-.862635-.3623064-1.708004-.543457-2.536133-.543457l.284668.543457c-.18978 0-.284668.0948884-.284668.284668-1.276699-.1897796-2.113442-.3795563-2.510254-.5693359 0 .3795592-1.224923.6642243-3.674805.8540039 0-.3795592-.18115-.569336-.543457-.569336 0 .3795592-.189777.569336-.569336.569336h-.284668c-.189779 0-.284668-.0948884-.284668-.284668 0 .3105484-6.831963.6901019-20.4960935 1.1386719l-.5693359.2587891c-.3278012-.1725269-.7073547-.2587891-1.1386719-.2587891-1.2939518.4658226-3.4418795 4.9600811-6.4438477 13.4829101l-.1290861.6600696c-.6694 3.3037843-1.3768534 4.9556531-2.1223787 4.9556531 0 .3795592-.1897768.5693359-.569336.5693359h-.5693359c-.3795592 0-.8453748-.8453691-1.3974609-2.5361328.3105484-3.623065 2.4671024-9.3336198 6.4697265-17.1318359h-7.5825195c-.1897796 0-.284668-.0948884-.284668-.284668l-.5693359.284668h-2.5361328c-1.2076883 0-2.5188731.1811505-3.9335938.543457v-.2846679l-.543457.2846679h-3.3901367c-.4140646 0-.7849919-.0948883-1.112793-.2846679-.3623065.1897796-.6469716.2846679-.8540039.2846679v-.2846679l.284668-.5434571h-1.397461v.5434571h-7.2978515v-.2587891l.258789-.5693359h-.543457c-.4313172 0-.8108707.0948883-1.1386719.2846679-2.2428497-1.0869195-3.3642578-2.3981043-3.3642578-3.9335937 0-.3795592.6555924-.6642243 1.9667969-.8540039.6038442.3278011 1.6303638.6124662 3.0795898.8540039l.569336-.284668.8383935.0941055c1.2165237.1270422 2.24825.1905625 3.0952002.1905625h.284668c.1897796 0 .284668.0862621.284668.258789l.5693359-.258789c.1725269 0 .2587891.0862621.2587891.258789l.5693359-.258789h2.2514648c.672855 0 1.5182241.0862621 2.5361329.258789l.543457-.258789.5693359.258789c.1897796 0 .284668-.0862621.284668-.258789l1.3974609.258789h15.734375c.1897796 0 .284668.0948884.284668.284668.7073603-.2070323 3.3297299-4.0456983 7.8671875-11.5161133l1.6482696-2.2038695c4.190052-5.5583384 6.73745-8.567504 7.642258-9.0275758.327801-.1897796.698728-.284668 1.112793-.284668z" transform="translate(-2 -13)"/></svg>