<svg xmlns="http://www.w3.org/2000/svg" width="214" height="48" viewBox="0 0 214 48">
  <path d="M16.5698242,20.6308594 L16.8286133,20.6308594 C17.0183929,20.6308594 17.1132812,20.7257477 17.1132812,20.9155273 L17.6567383,20.6308594 C18.6918997,20.6308594 19.9772059,21.2691993 21.5126953,22.5458984 C24.2558731,22.735678 25.6274414,23.2877558 25.6274414,24.2021484 C24.9545865,25.0130249 23.9453192,25.6513649 22.5996094,26.1171875 C22.4270825,26.1171875 22.3408203,26.0309253 22.3408203,25.8583984 C22.1510407,25.8583984 22.0561523,25.9446606 22.0561523,26.1171875 L20.6845703,25.8583984 C19.476882,25.8583984 17.9241631,27.8683067 16.0263672,31.8881836 C15.8193349,31.9054363 14.5340287,34.2000097 12.1704102,38.7719727 L12.4291992,39.3154297 L12.9985352,39.0307617 L13.5419922,39.0307617 C14.1975944,39.0307617 15.0257111,39.1256501 16.0263672,39.3154297 L16.5698242,39.0307617 C17.2944372,39.3068048 17.6567383,39.5828437 17.6567383,39.8588867 L17.6567383,40.4023438 C17.6567383,41.6272848 14.9998638,42.7314404 9.68603516,43.7148438 L9.34736326,44.4192548 C7.93414057,47.4001809 7.22753906,49.451329 7.22753906,50.5727539 L7.22753906,51.6855469 C7.46907673,53.7041117 8.1074167,54.7133789 9.14257812,54.7133789 L9.35964464,54.7091538 C10.391809,54.6725364 12.6140315,54.3979053 16.0263672,53.8852539 C17.6653728,54.1785496 18.4848633,54.5408507 18.4848633,54.972168 C18.4848633,55.9555713 16.0091393,56.9648386 11.0576172,58 L9.68603516,58 C6.28725514,58 3.72526904,55.9814655 2,51.9443359 C2,49.2011582 3.19041778,45.8196816 5.57128906,41.7998047 L5.66893904,41.5368742 C6.17777616,40.2261343 7.43053472,37.7431606 9.42724609,34.0878906 L15.4570312,22.8305664 C15.4915366,21.3640877 15.8624639,20.6308594 16.5698242,20.6308594 Z M30.5961914,48.7612305 L31.0878906,48.7612305 L31.6990473,48.7998537 C34.1561919,48.9779414 35.4965689,49.3705 35.7202148,49.9775391 C35.7202148,50.8919317 33.0460879,51.94433 27.6977539,53.1347656 L27.3679582,53.4063482 C26.2782649,54.3302827 24.7578378,55.8614879 22.8066406,58 L21.3574219,58 C20.5465454,57.3443978 20.1411133,56.6111694 20.1411133,55.800293 L20.3740234,55.800293 L20.1411133,55.3344727 C20.1411133,54.1957951 22.2545362,52.1600082 26.4814453,49.2270508 L27.4389648,48.9941406 L27.4389648,49.2270508 C28.1808305,48.9165024 29.2332289,48.7612305 30.5961914,48.7612305 Z M39.0068359,46.6391602 L39.550293,46.6391602 C40.8097394,47.260257 41.4394531,48.2522718 41.4394531,49.6152344 L41.2413996,50.298915 C41.0283824,51.0619035 40.921875,51.5586158 40.921875,51.7890625 C45.0280153,49.0803901 48.452623,47.7260742 51.1958008,47.7260742 C53.1798602,49.1407948 54.171875,50.4002223 54.171875,51.5043945 C54.171875,52.8501044 53.8958361,54.1095319 53.34375,55.2827148 C53.5335296,55.610516 53.628418,55.972817 53.628418,56.3696289 C53.628418,56.6629246 53.2661169,57.0252257 52.5415039,57.456543 L52.2827148,57.456543 C50.8852469,57.456543 49.9794943,56.4645281 49.5654297,54.4804688 L49.5654297,52.5913086 L49.3066406,52.5913086 C45.5800595,54.1613034 42.241714,55.9641825 39.2915039,58 L39.0068359,58 C37.3160723,58 36.0566448,56.8268346 35.2285156,54.4804688 L35.5383737,53.6565958 C36.965054,49.9122298 38.1211978,47.5731058 39.0068359,46.6391602 Z M62.5307617,46.8720703 C65.6880041,46.8720703 67.2666016,48.0538619 67.2666016,50.4174805 C67.2666016,51.4526419 66.08481,52.7983316 63.7211914,54.4545898 C65.4464604,54.4545898 66.309082,54.7651336 66.309082,55.3862305 C66.1365551,56.248865 65.0323995,57.1201128 62.996582,58 L61.5732422,58 C57.9501772,56.775059 56.1386719,54.8772915 56.1386719,52.3066406 L56.1386719,50.9091797 C56.6217472,49.5289645 58.2779806,48.2609107 61.1074219,47.1049805 L62.5307617,46.8720703 Z M82.043457,45.3710938 L82.6904297,46.0698242 L82.6904297,47.234375 L81.3037294,48.0925015 C79.0192023,49.522264 77.8769531,50.3317556 77.8769531,50.5209961 L77.8769531,50.7539062 C77.8769531,51.5647827 78.1961231,52.2635062 78.8344727,52.8500977 L78.8344727,53.7817383 C78.8344727,55.748545 76.6865449,57.1546182 72.390625,58 C71.5279905,58 69.388689,57.3789125 65.9726562,56.1367188 L65.9726562,55.4379883 C65.9726562,55.1791979 67.7927878,54.782392 71.4331055,54.2475586 C72.7270573,53.7472306 73.3740234,53.2814149 73.3740234,52.8500977 C72.5113889,51.5216405 72.0800781,50.5123732 72.0800781,49.8222656 C74.5644655,46.8548029 77.8855586,45.3710938 82.043457,45.3710938 Z M108.905762,13.8764648 C109.647627,14.0662444 110.018555,14.4371717 110.018555,14.9892578 C110.018555,15.6793654 108.431331,17.9308078 105.256836,21.7436523 C105.256836,22.1140101 104.355109,23.5288632 102.551629,25.9882506 L102.151367,26.53125 C99.4599475,30.1715677 97.4931703,33.2597529 96.2509766,35.7958984 L96.2509766,36.6240234 L97.6743164,36.6240234 C98.088381,36.6240234 98.4593083,36.5377613 98.7871094,36.3652344 C98.976889,36.3652344 99.0717773,36.4514965 99.0717773,36.6240234 L100.469238,36.3652344 L101.892578,36.3652344 C102.444664,36.3652344 102.720703,36.4514965 102.720703,36.6240234 L104.118164,36.3652344 C108.983423,36.3652344 113.762346,36.1754576 118.455078,35.7958984 L118.455078,36.0805664 L119.024414,35.7958984 L121.560547,35.7958984 C121.974611,35.7958984 122.345539,35.7010101 122.67334,35.5112305 C122.863119,35.5112305 122.958008,35.6061188 122.958008,35.7958984 L124.806243,35.6390401 C126.829906,35.4589439 127.990837,35.3214523 128.289062,35.2265625 C128.616864,35.4163421 128.996417,35.5112305 129.427734,35.5112305 L130.255859,35.5112305 C130.687177,35.5112305 131.06673,35.4163421 131.394531,35.2265625 L131.937988,35.5112305 L134.189453,34.9418945 L134.758789,35.2265625 L135.328125,34.9418945 L135.871582,35.2265625 L137.838379,34.9418945 C138.028159,34.9418945 138.123047,35.0367829 138.123047,35.2265625 C139.796558,34.8470033 142.048,34.6572266 144.877441,34.6572266 C145.067221,34.6572266 145.162109,34.7521149 145.162109,34.9418945 L145.705566,34.6572266 L147.672363,34.6572266 C148.569503,34.6572266 149.509761,34.5709644 150.493164,34.3984375 C151.183272,34.5709644 152.028641,34.6572266 153.029297,34.6572266 C153.443361,34.6572266 153.814289,34.5709644 154.14209,34.3984375 L154.711426,34.6572266 L159.757812,34.1137695 L159.757812,34.3984375 L160.327148,34.1137695 L162.293945,34.1137695 C162.915042,34.1137695 163.380858,34.2086579 163.691406,34.3984375 L168.194336,33.8291016 L168.763672,34.1137695 L169.333008,33.8291016 C169.505535,33.8291016 169.591797,33.9239899 169.591797,34.1137695 C171.696625,33.7342103 174.137844,33.5444336 176.915527,33.5444336 L176.915527,33.8291016 L177.458984,33.5444336 L180.849121,33.5444336 C181.263186,33.5444336 181.634113,33.639322 181.961914,33.8291016 C182.289715,33.639322 182.669269,33.5444336 183.100586,33.5444336 L183.928711,33.5444336 C184.118491,33.5444336 184.213379,33.639322 184.213379,33.8291016 C184.886234,33.4495424 185.731603,33.2597656 186.749512,33.2597656 L187.292969,33.5444336 C187.672528,33.354654 187.957193,33.2597656 188.146973,33.2597656 C188.336752,33.2597656 188.431641,33.354654 188.431641,33.5444336 L189.829102,33.2597656 L190.683105,33.2597656 C191.80453,33.2597656 192.365234,33.354654 192.365234,33.5444336 L195.160156,33.2597656 L209.49707,33.2597656 C209.928388,33.2597656 210.307941,33.354654 210.635742,33.5444336 C211.394861,33.1648744 211.955565,32.9750977 212.317871,32.9750977 C212.369629,33.3546568 212.559406,33.5444336 212.887207,33.5444336 L214.284668,33.2597656 L214.284668,33.5444336 L214.854004,33.2597656 C215.181805,33.4495452 215.552732,33.5444336 215.966797,33.5444336 C215.966797,34.1137724 214.940277,34.3984375 212.887207,34.3984375 L210.92041,34.3984375 C210.575356,34.3984375 209.729987,34.6744764 208.384277,35.2265625 L208.384277,34.9418945 L207.814941,35.2265625 L206.986816,34.6572266 L206.41748,34.9418945 L205.848145,34.6572266 L205.563477,34.6572266 L205.563477,34.9418945 L206.132812,34.9418945 L205.848145,35.5112305 L204.450684,34.9418945 L203.053223,35.5112305 L202.483887,35.2265625 L201.282066,35.3845538 C199.11755,35.6587847 197.551372,35.7958984 196.583496,35.7958984 L196.298828,35.2265625 L196.868164,35.2265625 L196.868164,34.6572266 L196.583496,34.6572266 L196.01416,34.9418945 C196.01416,34.7521149 195.919272,34.6572266 195.729492,34.6572266 L195.729492,34.9418945 L196.01416,35.5112305 L195.444824,35.7958984 L195.160156,35.7958984 C195.160156,35.0367801 194.789229,34.6572266 194.047363,34.6572266 L194.047363,34.9418945 C194.237143,35.304201 194.332031,35.5888662 194.332031,35.7958984 L191.795898,35.7958984 L191.226562,35.5112305 C191.226562,35.8907897 191.045412,36.0805664 190.683105,36.0805664 L189.829102,36.0805664 C189.639322,36.0805664 189.544434,35.985678 189.544434,35.7958984 L189.000977,36.0805664 L188.146973,36.0805664 C187.957193,36.0805664 187.862305,35.985678 187.862305,35.7958984 L187.292969,36.0805664 L185.326172,36.0805664 C185.153645,36.0805664 185.067383,35.985678 185.067383,35.7958984 L182.815918,36.3652344 C182.488117,36.1754548 182.108563,36.0805664 181.677246,36.0805664 L180.564453,36.3652344 L180.564453,36.0805664 L179.995117,36.3652344 L176.346191,36.3652344 C175.932127,36.3652344 175.5612,36.4514965 175.233398,36.6240234 L174.879144,36.5545527 C174.166417,36.4030363 173.810059,36.2450421 173.810059,36.0805664 C173.430499,36.3911148 171.843276,36.6671537 169.04834,36.9086914 C168.85856,36.9086914 168.763672,36.813803 168.763672,36.6240234 L167.366211,36.9086914 L163.976074,36.9086914 C163.613768,36.9777022 163.432617,37.1674789 163.432617,37.4780273 L162.863281,37.1933594 L159.214355,37.1933594 C158.783038,37.1933594 158.403485,37.2882477 158.075684,37.4780273 C157.747882,37.2882477 157.376955,37.1933594 156.962891,37.1933594 L156.678223,37.1933594 C156.505696,37.1933594 155.755215,37.3831361 154.426758,37.7626953 L154.14209,37.1933594 C153.745278,37.383139 152.718758,37.5729157 151.0625,37.7626953 C150.079097,37.5729157 148.949062,37.4780273 147.672363,37.4780273 L147.413574,38.0473633 L146.274902,37.4780273 C146.274902,37.8575865 146.085126,38.0473633 145.705566,38.0473633 C145.53304,38.0473633 145.446777,37.9524749 145.446777,37.7626953 C144.497879,38.1422545 143.842287,38.3320312 143.47998,38.3320312 C143.47998,37.7626925 143.195315,37.4780273 142.625977,37.4780273 C142.625977,37.8575865 142.4362,38.0473633 142.056641,38.0473633 C141.72884,37.8575837 141.357912,37.7626953 140.943848,37.7626953 L141.228516,38.3320312 L141.228516,38.6166992 L140.374512,38.6166992 C140.374512,38.0473604 140.098473,37.7626953 139.546387,37.7626953 L139.546387,38.6166992 L137.838379,38.6166992 C137.665852,38.6166992 137.57959,38.5218108 137.57959,38.3320312 L136.440918,38.8754883 L135.871582,38.6166992 C135.543781,38.7892261 135.172854,38.8754883 134.758789,38.8754883 L134.758789,38.3320312 L134.474121,38.3320312 L133.645996,38.8754883 L132.791992,38.3320312 C132.791992,38.6943377 132.507327,38.8754883 131.937988,38.8754883 L131.662637,38.8651368 C131.163003,38.8375328 130.133374,38.7547207 128.57373,38.6166992 L128.57373,38.8754883 L128.004395,38.6166992 L127.460938,38.6166992 C127.081378,38.6684573 126.891602,38.8496078 126.891602,39.1601562 C126.028967,38.7978498 125.183598,38.6166992 124.355469,38.6166992 L124.640137,39.1601562 C124.450357,39.1601562 124.355469,39.2550446 124.355469,39.4448242 C123.07877,39.2550446 122.242027,39.0652679 121.845215,38.8754883 C121.845215,39.2550475 120.620292,39.5397126 118.17041,39.7294922 C118.17041,39.349933 117.98926,39.1601562 117.626953,39.1601562 C117.626953,39.5397154 117.437176,39.7294922 117.057617,39.7294922 L116.772949,39.7294922 C116.58317,39.7294922 116.488281,39.6346038 116.488281,39.4448242 C116.488281,39.7553726 109.656318,40.1349261 95.9921875,40.5834961 L95.4228516,40.8422852 C95.0950504,40.6697583 94.7154969,40.5834961 94.2841797,40.5834961 C92.9902279,41.0493187 90.8423002,45.5435772 87.840332,54.0664062 L87.7112459,54.7264758 C87.0418459,58.0302601 86.3343925,59.6821289 85.5888672,59.6821289 C85.5888672,60.0616881 85.3990904,60.2514648 85.0195312,60.2514648 L84.4501953,60.2514648 C84.0706361,60.2514648 83.6048205,59.4060957 83.0527344,57.715332 C83.3632828,54.092267 85.5198368,48.3817122 89.5224609,40.5834961 L81.9399414,40.5834961 C81.7501618,40.5834961 81.6552734,40.4886077 81.6552734,40.2988281 L81.0859375,40.5834961 L78.5498047,40.5834961 C77.3421164,40.5834961 76.0309316,40.7646466 74.6162109,41.1269531 L74.6162109,40.8422852 L74.0727539,41.1269531 L70.6826172,41.1269531 C70.2685526,41.1269531 69.8976253,41.0320648 69.5698242,40.8422852 C69.2075177,41.0320648 68.9228526,41.1269531 68.7158203,41.1269531 L68.7158203,40.8422852 L69.0004883,40.2988281 L67.6030273,40.2988281 L67.6030273,40.8422852 L60.3051758,40.8422852 L60.3051758,40.5834961 L60.5639648,40.0141602 L60.0205078,40.0141602 C59.5891906,40.0141602 59.2096371,40.1090485 58.8818359,40.2988281 C56.6389862,39.2119086 55.5175781,37.9007238 55.5175781,36.3652344 C55.5175781,35.9856752 56.1731705,35.7010101 57.484375,35.5112305 C58.0882192,35.8390316 59.1147388,36.1236967 60.5639648,36.3652344 L61.1333008,36.0805664 L61.9716943,36.1746719 C63.188218,36.3017141 64.2199443,36.3652344 65.0668945,36.3652344 L65.3515625,36.3652344 C65.5413421,36.3652344 65.6362305,36.4514965 65.6362305,36.6240234 L66.2055664,36.3652344 C66.3780933,36.3652344 66.4643555,36.4514965 66.4643555,36.6240234 L67.0336914,36.3652344 L69.2851562,36.3652344 C69.9580112,36.3652344 70.8033803,36.4514965 71.8212891,36.6240234 L72.3647461,36.3652344 L72.934082,36.6240234 C73.1238616,36.6240234 73.21875,36.5377613 73.21875,36.3652344 L74.6162109,36.6240234 L90.3505859,36.6240234 C90.5403655,36.6240234 90.6352539,36.7189118 90.6352539,36.9086914 C91.3426142,36.7016591 93.9649838,32.8629931 98.5024414,25.3925781 L100.150711,23.1887086 C104.340763,17.6303702 106.888161,14.6212046 107.792969,14.1611328 C108.12077,13.9713532 108.491697,13.8764648 108.905762,13.8764648 Z" transform="translate(-2 -13)"/>
</svg>
